G04*
G04 #@! TF.GenerationSoftware,Altium Limited,Altium Designer,26.1.1 (7)*
G04*
G04 Layer_Color=8421504*
%FSLAX25Y25*%
%MOIN*%
G70*
G04*
G04 #@! TF.SameCoordinates,4C5B08E0-077E-4D62-AFF3-913064EDAF09*
G04*
G04*
G04 #@! TF.FilePolarity,Positive*
G04*
G01*
G75*
%ADD10R,0.05118X0.05118*%
%ADD11C,0.00591*%
%ADD12C,0.01181*%
%ADD13R,0.03937X0.04331*%
%ADD14R,0.04331X0.03937*%
%ADD15R,0.03347X0.03937*%
%ADD16R,0.03347X0.03937*%
%ADD17R,0.01181X0.05709*%
%ADD18R,0.07087X0.05709*%
%ADD19R,0.07087X0.04724*%
%ADD20R,0.07874X0.05512*%
%ADD21O,0.02953X0.00787*%
%ADD22O,0.00787X0.02953*%
%ADD23R,0.01772X0.01929*%
%ADD24R,0.04528X0.02362*%
%ADD25R,0.02638X0.02598*%
%ADD26R,0.04331X0.04331*%
%ADD27O,0.03543X0.01181*%
%ADD28O,0.03740X0.01181*%
%ADD29O,0.01181X0.03543*%
%ADD30O,0.01181X0.03740*%
%ADD31R,0.05512X0.12205*%
%ADD32R,0.05906X0.13386*%
%ADD33R,0.02055X0.02362*%
%ADD34C,0.01181*%
%ADD35R,0.05906X0.05118*%
G36*
X-59055Y305118D02*
X-58086D01*
X-56184Y305496D01*
X-54393Y306238D01*
X-52781Y307315D01*
X-51410Y308686D01*
X-50333Y310298D01*
X-49591Y312090D01*
X-49213Y313991D01*
Y314961D01*
Y315930D01*
X-49591Y317832D01*
X-50333Y319623D01*
X-51410Y321235D01*
X-52781Y322606D01*
X-54393Y323683D01*
X-56184Y324425D01*
X-58086Y324803D01*
X-59055D01*
X-60024D01*
X-61926Y324425D01*
X-63717Y323683D01*
X-65329Y322606D01*
X-66700Y321235D01*
X-67777Y319623D01*
X-68519Y317832D01*
X-68898Y315930D01*
Y314961D01*
Y313991D01*
X-68519Y312090D01*
X-67777Y310298D01*
X-66700Y308686D01*
X-65329Y307315D01*
X-63717Y306238D01*
X-61926Y305496D01*
X-60024Y305118D01*
X-59055D01*
D01*
D02*
G37*
G36*
X59055D02*
X60024D01*
X61926Y305496D01*
X63717Y306238D01*
X65329Y307315D01*
X66700Y308686D01*
X67777Y310298D01*
X68519Y312090D01*
X68898Y313991D01*
Y314961D01*
Y315930D01*
X68519Y317832D01*
X67777Y319623D01*
X66700Y321235D01*
X65329Y322606D01*
X63717Y323683D01*
X61926Y324425D01*
X60024Y324803D01*
X59055D01*
X58086D01*
X56184Y324425D01*
X54393Y323683D01*
X52781Y322606D01*
X51410Y321235D01*
X50333Y319623D01*
X49591Y317832D01*
X49213Y315930D01*
Y314961D01*
Y313991D01*
X49591Y312090D01*
X50333Y310298D01*
X51410Y308686D01*
X52781Y307315D01*
X54393Y306238D01*
X56184Y305496D01*
X58086Y305118D01*
X59055D01*
D01*
D02*
G37*
D10*
X109252Y147638D02*
D03*
X115157D02*
D03*
Y141732D02*
D03*
X109252D02*
D03*
D11*
X-273620Y-395669D02*
X273620Y-395669D01*
Y-395669D02*
Y389764D01*
X-273620D02*
X273620Y389764D01*
X-273620Y-395669D02*
Y389764D01*
D12*
X-157825Y59055D02*
G03*
X-157825Y59055I-2608J0D01*
G01*
D13*
X183071Y-184449D02*
D03*
Y-177756D02*
D03*
X177165Y-184449D02*
D03*
Y-177756D02*
D03*
X-177166Y-186417D02*
D03*
Y-179724D02*
D03*
X-183071Y-186417D02*
D03*
Y-179724D02*
D03*
X141339Y197244D02*
D03*
X141339Y190551D02*
D03*
X82284Y191338D02*
D03*
X82284Y184645D02*
D03*
X91535Y139174D02*
D03*
X91535Y132481D02*
D03*
X-85630Y57678D02*
D03*
Y64370D02*
D03*
X-86956Y71509D02*
D03*
X-86956Y78202D02*
D03*
X-93504Y89961D02*
D03*
Y83268D02*
D03*
X-99410Y89961D02*
D03*
X-99410Y83268D02*
D03*
D14*
X-128544Y19685D02*
D03*
X-135237Y19685D02*
D03*
X-71457Y19685D02*
D03*
X-78150Y19685D02*
D03*
X101771Y19685D02*
D03*
X95078Y19685D02*
D03*
X45669Y19685D02*
D03*
X38976Y19685D02*
D03*
X98819Y53149D02*
D03*
X92126Y53149D02*
D03*
X91929Y152559D02*
D03*
X85236D02*
D03*
X95867Y146654D02*
D03*
X89174Y146654D02*
D03*
X74409Y146653D02*
D03*
X81102Y146653D02*
D03*
X-152165Y48229D02*
D03*
X-158858D02*
D03*
X-146063Y59055D02*
D03*
X-139370Y59055D02*
D03*
X-98819Y57087D02*
D03*
X-92126D02*
D03*
X-99016Y57086D02*
D03*
X-105709D02*
D03*
X-100000Y96457D02*
D03*
X-106693Y96457D02*
D03*
X-92914Y96456D02*
D03*
X-86221D02*
D03*
D15*
X99213Y46063D02*
D03*
X95472Y36614D02*
D03*
D16*
X91732Y46063D02*
D03*
D17*
X121850Y187805D02*
D03*
X120669D02*
D03*
X118701Y187805D02*
D03*
X116732D02*
D03*
X114764Y187805D02*
D03*
X112795D02*
D03*
X110827D02*
D03*
X108858D02*
D03*
X106890Y187805D02*
D03*
X104921Y187805D02*
D03*
X102953D02*
D03*
X101772D02*
D03*
X98524D02*
D03*
X99705D02*
D03*
X123917D02*
D03*
X125098D02*
D03*
D18*
X91850Y191408D02*
D03*
X131772D02*
D03*
D19*
Y207864D02*
D03*
X91850D02*
D03*
D20*
X103347Y160433D02*
D03*
X75787D02*
D03*
X103347Y172244D02*
D03*
X75787D02*
D03*
D21*
X104429Y149409D02*
D03*
Y147835D02*
D03*
Y146260D02*
D03*
Y144685D02*
D03*
Y143110D02*
D03*
Y141535D02*
D03*
Y139961D02*
D03*
X119980D02*
D03*
Y141535D02*
D03*
Y143110D02*
D03*
Y144685D02*
D03*
Y146260D02*
D03*
Y147835D02*
D03*
Y149409D02*
D03*
D22*
X107480Y136909D02*
D03*
X109055D02*
D03*
X110630D02*
D03*
X112205D02*
D03*
X113779D02*
D03*
X115354D02*
D03*
X116929D02*
D03*
Y152461D02*
D03*
X115354D02*
D03*
X113779D02*
D03*
X112205D02*
D03*
X110630D02*
D03*
X109055D02*
D03*
X107480D02*
D03*
D23*
X66929Y138228D02*
D03*
Y147205D02*
D03*
D24*
X84350Y139567D02*
D03*
X84350Y132087D02*
D03*
X75098D02*
D03*
X75098Y135827D02*
D03*
Y139567D02*
D03*
D25*
X103878Y-199445D02*
D03*
X116358D02*
D03*
X-103878Y-199445D02*
D03*
X-116358D02*
D03*
X-48760D02*
D03*
X-61240D02*
D03*
X61476D02*
D03*
X48996D02*
D03*
X-121319Y12956D02*
D03*
X-108839Y12956D02*
D03*
X-63839D02*
D03*
X-51358D02*
D03*
X108642D02*
D03*
X121122D02*
D03*
X51161D02*
D03*
X63642D02*
D03*
D26*
X-98425Y69882D02*
D03*
D27*
X-103937Y66929D02*
D03*
Y72835D02*
D03*
X-92913D02*
D03*
Y66929D02*
D03*
D28*
X-103839Y68898D02*
D03*
Y70866D02*
D03*
X-93012D02*
D03*
Y68898D02*
D03*
D29*
X-101378Y75394D02*
D03*
X-95473D02*
D03*
Y64370D02*
D03*
X-101378D02*
D03*
D30*
X-99410Y75295D02*
D03*
X-97441D02*
D03*
Y64468D02*
D03*
X-99410D02*
D03*
D31*
X-83465Y129527D02*
D03*
X-109449Y129527D02*
D03*
D32*
X-92520Y107283D02*
D03*
X-100394D02*
D03*
D33*
X-155504Y55512D02*
D03*
X-152268D02*
D03*
X-152268Y59055D02*
D03*
X-155504Y62598D02*
D03*
X-152268D02*
D03*
D34*
X-163041Y59055D02*
D03*
D35*
X-80067Y79580D02*
D03*
Y72100D02*
D03*
M02*
