G04*
G04 #@! TF.GenerationSoftware,Altium Limited,Altium Designer,26.1.1 (7)*
G04*
G04 Layer_Color=2752767*
%FSLAX25Y25*%
%MOIN*%
G70*
G04*
G04 #@! TF.SameCoordinates,D353C328-5B1C-4724-8AFD-A302B20E4265*
G04*
G04*
G04 #@! TF.FilePolarity,Positive*
G04*
G01*
G75*
%ADD13C,0.00591*%
%ADD15C,0.00394*%
%ADD95C,0.00200*%
%ADD96C,0.00945*%
D13*
X327512Y129568D02*
G03*
X327512Y129568I-1750J0D01*
G01*
X320853Y164826D02*
X809197D01*
X320853Y93960D02*
X809197D01*
X320853Y86086D02*
X809197D01*
Y172700D01*
X320853D02*
X809197D01*
X320853Y86086D02*
Y172700D01*
X735360Y86086D02*
Y172700D01*
X689703Y86086D02*
Y172700D01*
X655382Y86086D02*
Y172700D01*
X616022Y86086D02*
Y172700D01*
X584849Y86086D02*
Y172700D01*
X506001Y86086D02*
Y172700D01*
X467271Y86086D02*
Y172700D01*
X440506Y86086D02*
Y172700D01*
X381599Y86086D02*
Y172700D01*
X349980Y86086D02*
Y172700D01*
X324012Y160189D02*
X324887D01*
X324012D02*
Y161939D01*
X324887D01*
Y162814D01*
X326637D01*
Y161939D02*
Y162814D01*
Y161939D02*
X327512D01*
Y160189D02*
Y161939D01*
X326637Y160189D02*
X327512D01*
X326637Y159314D02*
Y160189D01*
X324887Y159314D02*
X326637D01*
X324887D02*
Y160189D01*
X324712Y152140D02*
X326812D01*
Y154240D01*
X324712D02*
X326812D01*
X324712Y152140D02*
Y154240D01*
X324012Y151440D02*
X327512D01*
Y154940D01*
X324012D02*
X327512D01*
X324012Y151440D02*
Y154940D01*
Y143566D02*
Y144441D01*
X324887Y145316D01*
X324012Y146191D02*
X324887Y145316D01*
X324012Y146191D02*
Y147066D01*
X324887D01*
X325762Y146191D01*
X326637Y147066D01*
X327512D01*
Y146191D02*
Y147066D01*
X326637Y145316D02*
X327512Y146191D01*
X326637Y145316D02*
X327512Y144441D01*
Y143566D02*
Y144441D01*
X326637Y143566D02*
X327512D01*
X325762Y144441D02*
X326637Y143566D01*
X324887D02*
X325762Y144441D01*
X324012Y143566D02*
X324887D01*
Y136567D02*
X325762Y135692D01*
X324012Y136567D02*
X324887D01*
X324012D02*
X324887Y137442D01*
X324012Y138317D02*
X324887Y137442D01*
X324012Y138317D02*
X324887D01*
X325762Y139192D01*
X326637Y138317D01*
X327512D01*
X326637Y137442D02*
X327512Y138317D01*
X326637Y137442D02*
X327512Y136567D01*
X326637D02*
X327512D01*
X325762Y135692D02*
X326637Y136567D01*
X324012Y121694D02*
X325762Y119944D01*
X327512Y121694D01*
X325762Y123444D02*
X327512Y121694D01*
X324012D02*
X325762Y123444D01*
X324012Y112070D02*
X325762Y112945D01*
X327512Y112070D01*
X326637Y113820D02*
X327512Y112070D01*
X326637Y113820D02*
X327512Y115570D01*
X325762Y114695D02*
X327512Y115570D01*
X324012D02*
X325762Y114695D01*
X324012Y115570D02*
X324887Y113820D01*
X324012Y112070D02*
X324887Y113820D01*
X324012Y104196D02*
X327512D01*
Y107696D01*
X324012D02*
X327512D01*
X324012Y104196D02*
Y107696D01*
X325762Y96322D02*
X327512Y99822D01*
X324012D02*
X327512D01*
X324012D02*
X325762Y96322D01*
X737722Y160889D02*
X739821D01*
X737722Y153015D02*
X739821D01*
X737722Y145141D02*
X739821D01*
X737722Y137267D02*
X739821D01*
X737722Y129392D02*
X739821D01*
X737722Y121518D02*
X739821D01*
X737722Y113644D02*
X739821D01*
X737722Y105770D02*
X739821D01*
X737722Y97896D02*
X739821D01*
X692066Y160889D02*
X694165D01*
X692066Y153015D02*
X694165D01*
X692066Y145141D02*
X694165D01*
X692066Y137267D02*
X694165D01*
X692066Y129392D02*
X694165D01*
X692066Y121518D02*
X694165D01*
X692066Y113644D02*
X694165D01*
X692066Y105770D02*
X694165D01*
X692066Y97896D02*
X694165D01*
X659843Y161413D02*
X658269D01*
X657744Y160889D01*
Y159839D01*
X658269Y159314D01*
X659843D01*
X662992Y162463D02*
X660892D01*
Y160889D01*
X661942Y161413D01*
X662467D01*
X662992Y160889D01*
Y159839D01*
X662467Y159314D01*
X661417D01*
X660892Y159839D01*
X664041Y161938D02*
X664566Y162463D01*
X665615D01*
X666140Y161938D01*
Y159839D01*
X665615Y159314D01*
X664566D01*
X664041Y159839D01*
Y161938D01*
X667190Y162463D02*
Y159314D01*
Y160889D01*
X667714Y161413D01*
X668764D01*
X669289Y160889D01*
Y159314D01*
X670338D02*
Y161413D01*
X671912D01*
X672437Y160889D01*
Y159314D01*
X675586Y162463D02*
X673487D01*
Y160889D01*
X674536Y161413D01*
X675061D01*
X675586Y160889D01*
Y159839D01*
X675061Y159314D01*
X674012D01*
X673487Y159839D01*
X676635Y161938D02*
X677160Y162463D01*
X678210D01*
X678734Y161938D01*
Y159839D01*
X678210Y159314D01*
X677160D01*
X676635Y159839D01*
Y161938D01*
X659843Y153539D02*
X658269D01*
X657744Y153015D01*
Y151965D01*
X658269Y151440D01*
X659843D01*
X662992Y154589D02*
X661942Y154064D01*
X660892Y153015D01*
Y151965D01*
X661417Y151440D01*
X662467D01*
X662992Y151965D01*
Y152490D01*
X662467Y153015D01*
X660892D01*
X666140Y154589D02*
X664041D01*
Y153015D01*
X665091Y153539D01*
X665615D01*
X666140Y153015D01*
Y151965D01*
X665615Y151440D01*
X664566D01*
X664041Y151965D01*
X667190Y154589D02*
Y151440D01*
Y153015D01*
X667714Y153539D01*
X668764D01*
X669289Y153015D01*
Y151440D01*
X670338D02*
Y153539D01*
X671912D01*
X672437Y153015D01*
Y151440D01*
X675586Y154589D02*
X674536Y154064D01*
X673487Y153015D01*
Y151965D01*
X674012Y151440D01*
X675061D01*
X675586Y151965D01*
Y152490D01*
X675061Y153015D01*
X673487D01*
X678734Y154589D02*
X676635D01*
Y153015D01*
X677685Y153539D01*
X678210D01*
X678734Y153015D01*
Y151965D01*
X678210Y151440D01*
X677160D01*
X676635Y151965D01*
X659843Y145665D02*
X658269D01*
X657744Y145141D01*
Y144091D01*
X658269Y143566D01*
X659843D01*
X660892D02*
X661942D01*
X661417D01*
Y146715D01*
X660892Y146190D01*
X665615Y143566D02*
X663516D01*
X665615Y145665D01*
Y146190D01*
X665091Y146715D01*
X664041D01*
X663516Y146190D01*
X666665D02*
X667190Y146715D01*
X668239D01*
X668764Y146190D01*
Y144091D01*
X668239Y143566D01*
X667190D01*
X666665Y144091D01*
Y146190D01*
X669813Y146715D02*
Y143566D01*
Y145141D01*
X670338Y145665D01*
X671388D01*
X671912Y145141D01*
Y143566D01*
X672962D02*
X674012D01*
X673487D01*
Y146715D01*
X672962Y146190D01*
X677685Y143566D02*
X675586D01*
X677685Y145665D01*
Y146190D01*
X677160Y146715D01*
X676111D01*
X675586Y146190D01*
X678734D02*
X679259Y146715D01*
X680309D01*
X680833Y146190D01*
Y144091D01*
X680309Y143566D01*
X679259D01*
X678734Y144091D01*
Y146190D01*
X659843Y137791D02*
X658269D01*
X657744Y137267D01*
Y136217D01*
X658269Y135692D01*
X659843D01*
X660892D02*
X661942D01*
X661417D01*
Y138841D01*
X660892Y138316D01*
X665615Y135692D02*
X663516D01*
X665615Y137791D01*
Y138316D01*
X665091Y138841D01*
X664041D01*
X663516Y138316D01*
X666665Y138841D02*
X668764D01*
Y138316D01*
X666665Y136217D01*
Y135692D01*
X669813Y138841D02*
Y135692D01*
Y137267D01*
X670338Y137791D01*
X671388D01*
X671912Y137267D01*
Y135692D01*
X672962D02*
Y137791D01*
X674536D01*
X675061Y137267D01*
Y135692D01*
X676111D02*
X677160D01*
X676635D01*
Y138841D01*
X676111Y138316D01*
X680833Y135692D02*
X678734D01*
X680833Y137791D01*
Y138316D01*
X680309Y138841D01*
X679259D01*
X678734Y138316D01*
X681883Y138841D02*
X683982D01*
Y138316D01*
X681883Y136217D01*
Y135692D01*
X659843Y129917D02*
X658269D01*
X657744Y129392D01*
Y128343D01*
X658269Y127818D01*
X659843D01*
X662992D02*
X660892D01*
X662992Y129917D01*
Y130442D01*
X662467Y130967D01*
X661417D01*
X660892Y130442D01*
X666140Y127818D02*
X664041D01*
X666140Y129917D01*
Y130442D01*
X665615Y130967D01*
X664566D01*
X664041Y130442D01*
X667190D02*
X667714Y130967D01*
X668764D01*
X669289Y130442D01*
Y128343D01*
X668764Y127818D01*
X667714D01*
X667190Y128343D01*
Y130442D01*
X670338Y130967D02*
Y127818D01*
Y129392D01*
X670863Y129917D01*
X671912D01*
X672437Y129392D01*
Y127818D01*
X673487D02*
Y129917D01*
X675061D01*
X675586Y129392D01*
Y127818D01*
X678734D02*
X676635D01*
X678734Y129917D01*
Y130442D01*
X678210Y130967D01*
X677160D01*
X676635Y130442D01*
X681883Y127818D02*
X679784D01*
X681883Y129917D01*
Y130442D01*
X681358Y130967D01*
X680309D01*
X679784Y130442D01*
X682933D02*
X683457Y130967D01*
X684507D01*
X685032Y130442D01*
Y128343D01*
X684507Y127818D01*
X683457D01*
X682933Y128343D01*
Y130442D01*
X659843Y122043D02*
X658269D01*
X657744Y121518D01*
Y120469D01*
X658269Y119944D01*
X659843D01*
X660892Y122568D02*
X661417Y123093D01*
X662467D01*
X662992Y122568D01*
Y122043D01*
X662467Y121518D01*
X661942D01*
X662467D01*
X662992Y120994D01*
Y120469D01*
X662467Y119944D01*
X661417D01*
X660892Y120469D01*
X664041Y122568D02*
X664566Y123093D01*
X665615D01*
X666140Y122568D01*
Y120469D01*
X665615Y119944D01*
X664566D01*
X664041Y120469D01*
Y122568D01*
X667190D02*
X667714Y123093D01*
X668764D01*
X669289Y122568D01*
Y120469D01*
X668764Y119944D01*
X667714D01*
X667190Y120469D01*
Y122568D01*
X670338Y123093D02*
Y119944D01*
Y121518D01*
X670863Y122043D01*
X671912D01*
X672437Y121518D01*
Y119944D01*
X673487D02*
Y122043D01*
X675061D01*
X675586Y121518D01*
Y119944D01*
X676635Y122568D02*
X677160Y123093D01*
X678210D01*
X678734Y122568D01*
Y122043D01*
X678210Y121518D01*
X677685D01*
X678210D01*
X678734Y120994D01*
Y120469D01*
X678210Y119944D01*
X677160D01*
X676635Y120469D01*
X679784Y122568D02*
X680309Y123093D01*
X681358D01*
X681883Y122568D01*
Y120469D01*
X681358Y119944D01*
X680309D01*
X679784Y120469D01*
Y122568D01*
X682933D02*
X683457Y123093D01*
X684507D01*
X685032Y122568D01*
Y120469D01*
X684507Y119944D01*
X683457D01*
X682933Y120469D01*
Y122568D01*
X658793Y112070D02*
X657744Y113120D01*
Y114169D01*
X658793Y115219D01*
X660368Y112070D02*
Y115219D01*
X661417Y114169D01*
X662467Y115219D01*
Y112070D01*
X663516D02*
X664566D01*
X664041D01*
Y114169D01*
X663516D01*
X666140D02*
X668239Y112070D01*
X667190Y113120D01*
X668239Y114169D01*
X666140Y112070D01*
X670863D02*
X669813D01*
X669289Y112595D01*
Y113644D01*
X669813Y114169D01*
X670863D01*
X671388Y113644D01*
Y113120D01*
X669289D01*
X674536Y115219D02*
Y112070D01*
X672962D01*
X672437Y112595D01*
Y113644D01*
X672962Y114169D01*
X674536D01*
X675586Y112070D02*
X676635Y113120D01*
Y114169D01*
X675586Y115219D01*
X658793Y104196D02*
X657744Y105246D01*
Y106295D01*
X658793Y107345D01*
X660368Y104196D02*
Y107345D01*
X661417Y106295D01*
X662467Y107345D01*
Y104196D01*
X663516D02*
X664566D01*
X664041D01*
Y106295D01*
X663516D01*
X666140D02*
X668239Y104196D01*
X667190Y105246D01*
X668239Y106295D01*
X666140Y104196D01*
X670863D02*
X669813D01*
X669289Y104721D01*
Y105770D01*
X669813Y106295D01*
X670863D01*
X671388Y105770D01*
Y105246D01*
X669289D01*
X674536Y107345D02*
Y104196D01*
X672962D01*
X672437Y104721D01*
Y105770D01*
X672962Y106295D01*
X674536D01*
X675586Y104196D02*
X676635Y105246D01*
Y106295D01*
X675586Y107345D01*
X657744Y98421D02*
X658793Y96322D01*
X659843Y98421D01*
X662992Y99471D02*
X661942Y98946D01*
X660892Y97896D01*
Y96847D01*
X661417Y96322D01*
X662467D01*
X662992Y96847D01*
Y97372D01*
X662467Y97896D01*
X660892D01*
X664041Y98946D02*
X664566Y99471D01*
X665615D01*
X666140Y98946D01*
Y96847D01*
X665615Y96322D01*
X664566D01*
X664041Y96847D01*
Y98946D01*
X667190Y99471D02*
Y96322D01*
Y97896D01*
X667714Y98421D01*
X668764D01*
X669289Y97896D01*
Y96322D01*
X672437D02*
X670338D01*
X672437Y98421D01*
Y98946D01*
X671912Y99471D01*
X670863D01*
X670338Y98946D01*
X675586Y99471D02*
X673487D01*
Y97896D01*
X674536Y98421D01*
X675061D01*
X675586Y97896D01*
Y96847D01*
X675061Y96322D01*
X674012D01*
X673487Y96847D01*
X676635Y96322D02*
Y98421D01*
X677160D01*
X677685Y97896D01*
Y96322D01*
Y97896D01*
X678210Y98421D01*
X678734Y97896D01*
Y96322D01*
X681358D02*
Y99471D01*
X679784Y97896D01*
X681883D01*
X685032Y99471D02*
X682933D01*
Y97896D01*
X683982Y98421D01*
X684507D01*
X685032Y97896D01*
Y96847D01*
X684507Y96322D01*
X683457D01*
X682933Y96847D01*
X618384Y159314D02*
Y162463D01*
X619959D01*
X620483Y161938D01*
Y160889D01*
X619959Y160364D01*
X618384D01*
X619434D02*
X620483Y159314D01*
X622058D02*
X623107D01*
X623632Y159839D01*
Y160889D01*
X623107Y161413D01*
X622058D01*
X621533Y160889D01*
Y159839D01*
X622058Y159314D01*
X624682Y161413D02*
Y159839D01*
X625206Y159314D01*
X626781D01*
Y161413D01*
X627830Y159314D02*
Y161413D01*
X629404D01*
X629929Y160889D01*
Y159314D01*
X633078Y162463D02*
Y159314D01*
X631503D01*
X630979Y159839D01*
Y160889D01*
X631503Y161413D01*
X633078D01*
X635702Y159314D02*
X634652D01*
X634127Y159839D01*
Y160889D01*
X634652Y161413D01*
X635702D01*
X636226Y160889D01*
Y160364D01*
X634127D01*
X639375Y162463D02*
Y159314D01*
X637801D01*
X637276Y159839D01*
Y160889D01*
X637801Y161413D01*
X639375D01*
X618384Y151440D02*
Y154589D01*
X619959D01*
X620483Y154064D01*
Y153015D01*
X619959Y152490D01*
X618384D01*
X619434D02*
X620483Y151440D01*
X622058D02*
X623107D01*
X623632Y151965D01*
Y153015D01*
X623107Y153539D01*
X622058D01*
X621533Y153015D01*
Y151965D01*
X622058Y151440D01*
X624682Y153539D02*
Y151965D01*
X625206Y151440D01*
X626781D01*
Y153539D01*
X627830Y151440D02*
Y153539D01*
X629404D01*
X629929Y153015D01*
Y151440D01*
X633078Y154589D02*
Y151440D01*
X631503D01*
X630979Y151965D01*
Y153015D01*
X631503Y153539D01*
X633078D01*
X635702Y151440D02*
X634652D01*
X634127Y151965D01*
Y153015D01*
X634652Y153539D01*
X635702D01*
X636226Y153015D01*
Y152490D01*
X634127D01*
X639375Y154589D02*
Y151440D01*
X637801D01*
X637276Y151965D01*
Y153015D01*
X637801Y153539D01*
X639375D01*
X618384Y143566D02*
Y146715D01*
X619959D01*
X620483Y146190D01*
Y145141D01*
X619959Y144616D01*
X618384D01*
X619434D02*
X620483Y143566D01*
X622058D02*
X623107D01*
X623632Y144091D01*
Y145141D01*
X623107Y145665D01*
X622058D01*
X621533Y145141D01*
Y144091D01*
X622058Y143566D01*
X624682Y145665D02*
Y144091D01*
X625206Y143566D01*
X626781D01*
Y145665D01*
X627830Y143566D02*
Y145665D01*
X629404D01*
X629929Y145141D01*
Y143566D01*
X633078Y146715D02*
Y143566D01*
X631503D01*
X630979Y144091D01*
Y145141D01*
X631503Y145665D01*
X633078D01*
X635702Y143566D02*
X634652D01*
X634127Y144091D01*
Y145141D01*
X634652Y145665D01*
X635702D01*
X636226Y145141D01*
Y144616D01*
X634127D01*
X639375Y146715D02*
Y143566D01*
X637801D01*
X637276Y144091D01*
Y145141D01*
X637801Y145665D01*
X639375D01*
X618384Y135692D02*
Y138841D01*
X619959D01*
X620483Y138316D01*
Y137267D01*
X619959Y136742D01*
X618384D01*
X619434D02*
X620483Y135692D01*
X622058D02*
X623107D01*
X623632Y136217D01*
Y137267D01*
X623107Y137791D01*
X622058D01*
X621533Y137267D01*
Y136217D01*
X622058Y135692D01*
X624682Y137791D02*
Y136217D01*
X625206Y135692D01*
X626781D01*
Y137791D01*
X627830Y135692D02*
Y137791D01*
X629404D01*
X629929Y137267D01*
Y135692D01*
X633078Y138841D02*
Y135692D01*
X631503D01*
X630979Y136217D01*
Y137267D01*
X631503Y137791D01*
X633078D01*
X635702Y135692D02*
X634652D01*
X634127Y136217D01*
Y137267D01*
X634652Y137791D01*
X635702D01*
X636226Y137267D01*
Y136742D01*
X634127D01*
X639375Y138841D02*
Y135692D01*
X637801D01*
X637276Y136217D01*
Y137267D01*
X637801Y137791D01*
X639375D01*
X618384Y127818D02*
Y130967D01*
X619959D01*
X620483Y130442D01*
Y129392D01*
X619959Y128868D01*
X618384D01*
X619434D02*
X620483Y127818D01*
X622058D02*
X623107D01*
X623632Y128343D01*
Y129392D01*
X623107Y129917D01*
X622058D01*
X621533Y129392D01*
Y128343D01*
X622058Y127818D01*
X624682Y129917D02*
Y128343D01*
X625206Y127818D01*
X626781D01*
Y129917D01*
X627830Y127818D02*
Y129917D01*
X629404D01*
X629929Y129392D01*
Y127818D01*
X633078Y130967D02*
Y127818D01*
X631503D01*
X630979Y128343D01*
Y129392D01*
X631503Y129917D01*
X633078D01*
X635702Y127818D02*
X634652D01*
X634127Y128343D01*
Y129392D01*
X634652Y129917D01*
X635702D01*
X636226Y129392D01*
Y128868D01*
X634127D01*
X639375Y130967D02*
Y127818D01*
X637801D01*
X637276Y128343D01*
Y129392D01*
X637801Y129917D01*
X639375D01*
X618384Y119944D02*
Y123093D01*
X619959D01*
X620483Y122568D01*
Y121518D01*
X619959Y120994D01*
X618384D01*
X619434D02*
X620483Y119944D01*
X622058D02*
X623107D01*
X623632Y120469D01*
Y121518D01*
X623107Y122043D01*
X622058D01*
X621533Y121518D01*
Y120469D01*
X622058Y119944D01*
X624682Y122043D02*
Y120469D01*
X625206Y119944D01*
X626781D01*
Y122043D01*
X627830Y119944D02*
Y122043D01*
X629404D01*
X629929Y121518D01*
Y119944D01*
X633078Y123093D02*
Y119944D01*
X631503D01*
X630979Y120469D01*
Y121518D01*
X631503Y122043D01*
X633078D01*
X635702Y119944D02*
X634652D01*
X634127Y120469D01*
Y121518D01*
X634652Y122043D01*
X635702D01*
X636226Y121518D01*
Y120994D01*
X634127D01*
X639375Y123093D02*
Y119944D01*
X637801D01*
X637276Y120469D01*
Y121518D01*
X637801Y122043D01*
X639375D01*
X618384Y112070D02*
Y115219D01*
X619959D01*
X620483Y114694D01*
Y113644D01*
X619959Y113120D01*
X618384D01*
X619434D02*
X620483Y112070D01*
X622058D02*
X623107D01*
X623632Y112595D01*
Y113644D01*
X623107Y114169D01*
X622058D01*
X621533Y113644D01*
Y112595D01*
X622058Y112070D01*
X624682Y114169D02*
Y112595D01*
X625206Y112070D01*
X626781D01*
Y114169D01*
X627830Y112070D02*
Y114169D01*
X629404D01*
X629929Y113644D01*
Y112070D01*
X633078Y115219D02*
Y112070D01*
X631503D01*
X630979Y112595D01*
Y113644D01*
X631503Y114169D01*
X633078D01*
X635702Y112070D02*
X634652D01*
X634127Y112595D01*
Y113644D01*
X634652Y114169D01*
X635702D01*
X636226Y113644D01*
Y113120D01*
X634127D01*
X639375Y115219D02*
Y112070D01*
X637801D01*
X637276Y112595D01*
Y113644D01*
X637801Y114169D01*
X639375D01*
X619434Y104196D02*
X618384Y105246D01*
Y106295D01*
X619434Y107345D01*
X621008Y104196D02*
Y107345D01*
X622058Y106295D01*
X623107Y107345D01*
Y104196D01*
X624157D02*
X625206D01*
X624682D01*
Y106295D01*
X624157D01*
X626781D02*
X628880Y104196D01*
X627830Y105246D01*
X628880Y106295D01*
X626781Y104196D01*
X631503D02*
X630454D01*
X629929Y104721D01*
Y105770D01*
X630454Y106295D01*
X631503D01*
X632028Y105770D01*
Y105246D01*
X629929D01*
X635177Y107345D02*
Y104196D01*
X633603D01*
X633078Y104721D01*
Y105770D01*
X633603Y106295D01*
X635177D01*
X636226Y104196D02*
X637276Y105246D01*
Y106295D01*
X636226Y107345D01*
X618384Y96322D02*
Y99471D01*
X619959D01*
X620483Y98946D01*
Y97896D01*
X619959Y97372D01*
X618384D01*
X619434D02*
X620483Y96322D01*
X622058D02*
X623107D01*
X623632Y96847D01*
Y97896D01*
X623107Y98421D01*
X622058D01*
X621533Y97896D01*
Y96847D01*
X622058Y96322D01*
X624682Y98421D02*
Y96847D01*
X625206Y96322D01*
X626781D01*
Y98421D01*
X627830Y96322D02*
Y98421D01*
X629404D01*
X629929Y97896D01*
Y96322D01*
X633078Y99471D02*
Y96322D01*
X631503D01*
X630979Y96847D01*
Y97896D01*
X631503Y98421D01*
X633078D01*
X635702Y96322D02*
X634652D01*
X634127Y96847D01*
Y97896D01*
X634652Y98421D01*
X635702D01*
X636226Y97896D01*
Y97372D01*
X634127D01*
X639375Y99471D02*
Y96322D01*
X637801D01*
X637276Y96847D01*
Y97896D01*
X637801Y98421D01*
X639375D01*
X587211Y159314D02*
Y162463D01*
X588786D01*
X589310Y161938D01*
Y160889D01*
X588786Y160364D01*
X587211D01*
X590884Y161413D02*
X591934D01*
X592459Y160889D01*
Y159314D01*
X590884D01*
X590360Y159839D01*
X590884Y160364D01*
X592459D01*
X595607Y162463D02*
Y159314D01*
X594033D01*
X593508Y159839D01*
Y160889D01*
X594033Y161413D01*
X595607D01*
X587211Y151440D02*
Y154589D01*
X588786D01*
X589310Y154064D01*
Y153015D01*
X588786Y152490D01*
X587211D01*
X590884Y153539D02*
X591934D01*
X592459Y153015D01*
Y151440D01*
X590884D01*
X590360Y151965D01*
X590884Y152490D01*
X592459D01*
X595607Y154589D02*
Y151440D01*
X594033D01*
X593508Y151965D01*
Y153015D01*
X594033Y153539D01*
X595607D01*
X587211Y143566D02*
Y146715D01*
X588786D01*
X589310Y146190D01*
Y145141D01*
X588786Y144616D01*
X587211D01*
X590884Y145665D02*
X591934D01*
X592459Y145141D01*
Y143566D01*
X590884D01*
X590360Y144091D01*
X590884Y144616D01*
X592459D01*
X595607Y146715D02*
Y143566D01*
X594033D01*
X593508Y144091D01*
Y145141D01*
X594033Y145665D01*
X595607D01*
X587211Y135692D02*
Y138841D01*
X588786D01*
X589310Y138316D01*
Y137267D01*
X588786Y136742D01*
X587211D01*
X590884Y137791D02*
X591934D01*
X592459Y137267D01*
Y135692D01*
X590884D01*
X590360Y136217D01*
X590884Y136742D01*
X592459D01*
X595607Y138841D02*
Y135692D01*
X594033D01*
X593508Y136217D01*
Y137267D01*
X594033Y137791D01*
X595607D01*
X587211Y127818D02*
Y130967D01*
X588786D01*
X589310Y130442D01*
Y129392D01*
X588786Y128868D01*
X587211D01*
X590884Y129917D02*
X591934D01*
X592459Y129392D01*
Y127818D01*
X590884D01*
X590360Y128343D01*
X590884Y128868D01*
X592459D01*
X595607Y130967D02*
Y127818D01*
X594033D01*
X593508Y128343D01*
Y129392D01*
X594033Y129917D01*
X595607D01*
X587211Y119944D02*
Y123093D01*
X588786D01*
X589310Y122568D01*
Y121518D01*
X588786Y120994D01*
X587211D01*
X590884Y122043D02*
X591934D01*
X592459Y121518D01*
Y119944D01*
X590884D01*
X590360Y120469D01*
X590884Y120994D01*
X592459D01*
X595607Y123093D02*
Y119944D01*
X594033D01*
X593508Y120469D01*
Y121518D01*
X594033Y122043D01*
X595607D01*
X587211Y112070D02*
Y115219D01*
X588786D01*
X589310Y114694D01*
Y113644D01*
X588786Y113120D01*
X587211D01*
X590884Y114169D02*
X591934D01*
X592459Y113644D01*
Y112070D01*
X590884D01*
X590360Y112595D01*
X590884Y113120D01*
X592459D01*
X595607Y115219D02*
Y112070D01*
X594033D01*
X593508Y112595D01*
Y113644D01*
X594033Y114169D01*
X595607D01*
X587211Y104196D02*
Y107345D01*
X588786D01*
X589310Y106820D01*
Y105770D01*
X588786Y105246D01*
X587211D01*
X590884Y106295D02*
X591934D01*
X592459Y105770D01*
Y104196D01*
X590884D01*
X590360Y104721D01*
X590884Y105246D01*
X592459D01*
X595607Y107345D02*
Y104196D01*
X594033D01*
X593508Y104721D01*
Y105770D01*
X594033Y106295D01*
X595607D01*
X587211Y99471D02*
Y97372D01*
X588261Y96322D01*
X589310Y97372D01*
Y99471D01*
X590360Y96322D02*
X591409D01*
X590884D01*
Y98421D01*
X590360D01*
X593508D02*
X594558D01*
X595083Y97896D01*
Y96322D01*
X593508D01*
X592984Y96847D01*
X593508Y97372D01*
X595083D01*
X508363Y162463D02*
X510462D01*
X509413D01*
Y159314D01*
X512037D02*
X513086D01*
X513611Y159839D01*
Y160889D01*
X513086Y161413D01*
X512037D01*
X511512Y160889D01*
Y159839D01*
X512037Y159314D01*
X514661Y158265D02*
Y161413D01*
X516235D01*
X516760Y160889D01*
Y159839D01*
X516235Y159314D01*
X514661D01*
X520958Y162463D02*
Y159314D01*
X523057D01*
X524631Y161413D02*
X525681D01*
X526205Y160889D01*
Y159314D01*
X524631D01*
X524106Y159839D01*
X524631Y160364D01*
X526205D01*
X527255Y161413D02*
Y159839D01*
X527780Y159314D01*
X529354D01*
Y158789D01*
X528829Y158265D01*
X528304D01*
X529354Y159314D02*
Y161413D01*
X531978Y159314D02*
X530928D01*
X530404Y159839D01*
Y160889D01*
X530928Y161413D01*
X531978D01*
X532503Y160889D01*
Y160364D01*
X530404D01*
X533552Y161413D02*
Y159314D01*
Y160364D01*
X534077Y160889D01*
X534602Y161413D01*
X535126D01*
X539849Y160889D02*
X541948D01*
X546146Y162463D02*
Y159314D01*
X547721D01*
X548245Y159839D01*
Y160364D01*
X547721Y160889D01*
X546146D01*
X547721D01*
X548245Y161413D01*
Y161938D01*
X547721Y162463D01*
X546146D01*
X549820Y159314D02*
X550869D01*
X551394Y159839D01*
Y160889D01*
X550869Y161413D01*
X549820D01*
X549295Y160889D01*
Y159839D01*
X549820Y159314D01*
X552968Y161938D02*
Y161413D01*
X552444D01*
X553493D01*
X552968D01*
Y159839D01*
X553493Y159314D01*
X555592Y161938D02*
Y161413D01*
X555067D01*
X556117D01*
X555592D01*
Y159839D01*
X556117Y159314D01*
X558216D02*
X559266D01*
X559790Y159839D01*
Y160889D01*
X559266Y161413D01*
X558216D01*
X557691Y160889D01*
Y159839D01*
X558216Y159314D01*
X560840D02*
Y161413D01*
X561365D01*
X561889Y160889D01*
Y159314D01*
Y160889D01*
X562414Y161413D01*
X562939Y160889D01*
Y159314D01*
X567137Y162463D02*
Y159314D01*
X569236D01*
X570810Y161413D02*
X571860D01*
X572385Y160889D01*
Y159314D01*
X570810D01*
X570286Y159839D01*
X570810Y160364D01*
X572385D01*
X573434Y161413D02*
Y159839D01*
X573959Y159314D01*
X575533D01*
Y158789D01*
X575008Y158265D01*
X574484D01*
X575533Y159314D02*
Y161413D01*
X578157Y159314D02*
X577108D01*
X576583Y159839D01*
Y160889D01*
X577108Y161413D01*
X578157D01*
X578682Y160889D01*
Y160364D01*
X576583D01*
X579731Y161413D02*
Y159314D01*
Y160364D01*
X580256Y160889D01*
X580781Y161413D01*
X581306D01*
X508363Y154589D02*
X510462D01*
X509413D01*
Y151440D01*
X512037D02*
X513086D01*
X513611Y151965D01*
Y153015D01*
X513086Y153539D01*
X512037D01*
X511512Y153015D01*
Y151965D01*
X512037Y151440D01*
X514661Y150391D02*
Y153539D01*
X516235D01*
X516760Y153015D01*
Y151965D01*
X516235Y151440D01*
X514661D01*
X520958Y154589D02*
Y151440D01*
X523057D01*
X524631Y153539D02*
X525681D01*
X526205Y153015D01*
Y151440D01*
X524631D01*
X524106Y151965D01*
X524631Y152490D01*
X526205D01*
X527255Y153539D02*
Y151965D01*
X527780Y151440D01*
X529354D01*
Y150915D01*
X528829Y150391D01*
X528304D01*
X529354Y151440D02*
Y153539D01*
X531978Y151440D02*
X530928D01*
X530404Y151965D01*
Y153015D01*
X530928Y153539D01*
X531978D01*
X532503Y153015D01*
Y152490D01*
X530404D01*
X533552Y153539D02*
Y151440D01*
Y152490D01*
X534077Y153015D01*
X534602Y153539D01*
X535126D01*
X539849Y153015D02*
X541948D01*
X546146Y154589D02*
Y151440D01*
X547721D01*
X548245Y151965D01*
Y152490D01*
X547721Y153015D01*
X546146D01*
X547721D01*
X548245Y153539D01*
Y154064D01*
X547721Y154589D01*
X546146D01*
X549820Y151440D02*
X550869D01*
X551394Y151965D01*
Y153015D01*
X550869Y153539D01*
X549820D01*
X549295Y153015D01*
Y151965D01*
X549820Y151440D01*
X552968Y154064D02*
Y153539D01*
X552444D01*
X553493D01*
X552968D01*
Y151965D01*
X553493Y151440D01*
X555592Y154064D02*
Y153539D01*
X555067D01*
X556117D01*
X555592D01*
Y151965D01*
X556117Y151440D01*
X558216D02*
X559266D01*
X559790Y151965D01*
Y153015D01*
X559266Y153539D01*
X558216D01*
X557691Y153015D01*
Y151965D01*
X558216Y151440D01*
X560840D02*
Y153539D01*
X561365D01*
X561889Y153015D01*
Y151440D01*
Y153015D01*
X562414Y153539D01*
X562939Y153015D01*
Y151440D01*
X567137Y154589D02*
Y151440D01*
X569236D01*
X570810Y153539D02*
X571860D01*
X572385Y153015D01*
Y151440D01*
X570810D01*
X570286Y151965D01*
X570810Y152490D01*
X572385D01*
X573434Y153539D02*
Y151965D01*
X573959Y151440D01*
X575533D01*
Y150915D01*
X575008Y150391D01*
X574484D01*
X575533Y151440D02*
Y153539D01*
X578157Y151440D02*
X577108D01*
X576583Y151965D01*
Y153015D01*
X577108Y153539D01*
X578157D01*
X578682Y153015D01*
Y152490D01*
X576583D01*
X579731Y153539D02*
Y151440D01*
Y152490D01*
X580256Y153015D01*
X580781Y153539D01*
X581306D01*
X508363Y146715D02*
X510462D01*
X509413D01*
Y143566D01*
X512037D02*
X513086D01*
X513611Y144091D01*
Y145141D01*
X513086Y145665D01*
X512037D01*
X511512Y145141D01*
Y144091D01*
X512037Y143566D01*
X514661Y142517D02*
Y145665D01*
X516235D01*
X516760Y145141D01*
Y144091D01*
X516235Y143566D01*
X514661D01*
X520958Y146715D02*
Y143566D01*
X523057D01*
X524631Y145665D02*
X525681D01*
X526205Y145141D01*
Y143566D01*
X524631D01*
X524106Y144091D01*
X524631Y144616D01*
X526205D01*
X527255Y145665D02*
Y144091D01*
X527780Y143566D01*
X529354D01*
Y143041D01*
X528829Y142517D01*
X528304D01*
X529354Y143566D02*
Y145665D01*
X531978Y143566D02*
X530928D01*
X530404Y144091D01*
Y145141D01*
X530928Y145665D01*
X531978D01*
X532503Y145141D01*
Y144616D01*
X530404D01*
X533552Y145665D02*
Y143566D01*
Y144616D01*
X534077Y145141D01*
X534602Y145665D01*
X535126D01*
X539849Y145141D02*
X541948D01*
X546146Y146715D02*
Y143566D01*
X547721D01*
X548245Y144091D01*
Y144616D01*
X547721Y145141D01*
X546146D01*
X547721D01*
X548245Y145665D01*
Y146190D01*
X547721Y146715D01*
X546146D01*
X549820Y143566D02*
X550869D01*
X551394Y144091D01*
Y145141D01*
X550869Y145665D01*
X549820D01*
X549295Y145141D01*
Y144091D01*
X549820Y143566D01*
X552968Y146190D02*
Y145665D01*
X552444D01*
X553493D01*
X552968D01*
Y144091D01*
X553493Y143566D01*
X555592Y146190D02*
Y145665D01*
X555067D01*
X556117D01*
X555592D01*
Y144091D01*
X556117Y143566D01*
X558216D02*
X559266D01*
X559790Y144091D01*
Y145141D01*
X559266Y145665D01*
X558216D01*
X557691Y145141D01*
Y144091D01*
X558216Y143566D01*
X560840D02*
Y145665D01*
X561365D01*
X561889Y145141D01*
Y143566D01*
Y145141D01*
X562414Y145665D01*
X562939Y145141D01*
Y143566D01*
X567137Y146715D02*
Y143566D01*
X569236D01*
X570810Y145665D02*
X571860D01*
X572385Y145141D01*
Y143566D01*
X570810D01*
X570286Y144091D01*
X570810Y144616D01*
X572385D01*
X573434Y145665D02*
Y144091D01*
X573959Y143566D01*
X575533D01*
Y143041D01*
X575008Y142517D01*
X574484D01*
X575533Y143566D02*
Y145665D01*
X578157Y143566D02*
X577108D01*
X576583Y144091D01*
Y145141D01*
X577108Y145665D01*
X578157D01*
X578682Y145141D01*
Y144616D01*
X576583D01*
X579731Y145665D02*
Y143566D01*
Y144616D01*
X580256Y145141D01*
X580781Y145665D01*
X581306D01*
X508363Y138841D02*
X510462D01*
X509413D01*
Y135692D01*
X512037D02*
X513086D01*
X513611Y136217D01*
Y137267D01*
X513086Y137791D01*
X512037D01*
X511512Y137267D01*
Y136217D01*
X512037Y135692D01*
X514661Y134643D02*
Y137791D01*
X516235D01*
X516760Y137267D01*
Y136217D01*
X516235Y135692D01*
X514661D01*
X520958Y138841D02*
Y135692D01*
X523057D01*
X524631Y137791D02*
X525681D01*
X526205Y137267D01*
Y135692D01*
X524631D01*
X524106Y136217D01*
X524631Y136742D01*
X526205D01*
X527255Y137791D02*
Y136217D01*
X527780Y135692D01*
X529354D01*
Y135167D01*
X528829Y134643D01*
X528304D01*
X529354Y135692D02*
Y137791D01*
X531978Y135692D02*
X530928D01*
X530404Y136217D01*
Y137267D01*
X530928Y137791D01*
X531978D01*
X532503Y137267D01*
Y136742D01*
X530404D01*
X533552Y137791D02*
Y135692D01*
Y136742D01*
X534077Y137267D01*
X534602Y137791D01*
X535126D01*
X539849Y137267D02*
X541948D01*
X546146Y138841D02*
Y135692D01*
X547721D01*
X548245Y136217D01*
Y136742D01*
X547721Y137267D01*
X546146D01*
X547721D01*
X548245Y137791D01*
Y138316D01*
X547721Y138841D01*
X546146D01*
X549820Y135692D02*
X550869D01*
X551394Y136217D01*
Y137267D01*
X550869Y137791D01*
X549820D01*
X549295Y137267D01*
Y136217D01*
X549820Y135692D01*
X552968Y138316D02*
Y137791D01*
X552444D01*
X553493D01*
X552968D01*
Y136217D01*
X553493Y135692D01*
X555592Y138316D02*
Y137791D01*
X555067D01*
X556117D01*
X555592D01*
Y136217D01*
X556117Y135692D01*
X558216D02*
X559266D01*
X559790Y136217D01*
Y137267D01*
X559266Y137791D01*
X558216D01*
X557691Y137267D01*
Y136217D01*
X558216Y135692D01*
X560840D02*
Y137791D01*
X561365D01*
X561889Y137267D01*
Y135692D01*
Y137267D01*
X562414Y137791D01*
X562939Y137267D01*
Y135692D01*
X567137Y138841D02*
Y135692D01*
X569236D01*
X570810Y137791D02*
X571860D01*
X572385Y137267D01*
Y135692D01*
X570810D01*
X570286Y136217D01*
X570810Y136742D01*
X572385D01*
X573434Y137791D02*
Y136217D01*
X573959Y135692D01*
X575533D01*
Y135167D01*
X575008Y134643D01*
X574484D01*
X575533Y135692D02*
Y137791D01*
X578157Y135692D02*
X577108D01*
X576583Y136217D01*
Y137267D01*
X577108Y137791D01*
X578157D01*
X578682Y137267D01*
Y136742D01*
X576583D01*
X579731Y137791D02*
Y135692D01*
Y136742D01*
X580256Y137267D01*
X580781Y137791D01*
X581306D01*
X508363Y130967D02*
X510462D01*
X509413D01*
Y127818D01*
X512037D02*
X513086D01*
X513611Y128343D01*
Y129392D01*
X513086Y129917D01*
X512037D01*
X511512Y129392D01*
Y128343D01*
X512037Y127818D01*
X514661Y126769D02*
Y129917D01*
X516235D01*
X516760Y129392D01*
Y128343D01*
X516235Y127818D01*
X514661D01*
X520958Y130967D02*
Y127818D01*
X523057D01*
X524631Y129917D02*
X525681D01*
X526205Y129392D01*
Y127818D01*
X524631D01*
X524106Y128343D01*
X524631Y128868D01*
X526205D01*
X527255Y129917D02*
Y128343D01*
X527780Y127818D01*
X529354D01*
Y127293D01*
X528829Y126769D01*
X528304D01*
X529354Y127818D02*
Y129917D01*
X531978Y127818D02*
X530928D01*
X530404Y128343D01*
Y129392D01*
X530928Y129917D01*
X531978D01*
X532503Y129392D01*
Y128868D01*
X530404D01*
X533552Y129917D02*
Y127818D01*
Y128868D01*
X534077Y129392D01*
X534602Y129917D01*
X535126D01*
X539849Y129392D02*
X541948D01*
X546146Y130967D02*
Y127818D01*
X547721D01*
X548245Y128343D01*
Y128868D01*
X547721Y129392D01*
X546146D01*
X547721D01*
X548245Y129917D01*
Y130442D01*
X547721Y130967D01*
X546146D01*
X549820Y127818D02*
X550869D01*
X551394Y128343D01*
Y129392D01*
X550869Y129917D01*
X549820D01*
X549295Y129392D01*
Y128343D01*
X549820Y127818D01*
X552968Y130442D02*
Y129917D01*
X552444D01*
X553493D01*
X552968D01*
Y128343D01*
X553493Y127818D01*
X555592Y130442D02*
Y129917D01*
X555067D01*
X556117D01*
X555592D01*
Y128343D01*
X556117Y127818D01*
X558216D02*
X559266D01*
X559790Y128343D01*
Y129392D01*
X559266Y129917D01*
X558216D01*
X557691Y129392D01*
Y128343D01*
X558216Y127818D01*
X560840D02*
Y129917D01*
X561365D01*
X561889Y129392D01*
Y127818D01*
Y129392D01*
X562414Y129917D01*
X562939Y129392D01*
Y127818D01*
X567137Y130967D02*
Y127818D01*
X569236D01*
X570810Y129917D02*
X571860D01*
X572385Y129392D01*
Y127818D01*
X570810D01*
X570286Y128343D01*
X570810Y128868D01*
X572385D01*
X573434Y129917D02*
Y128343D01*
X573959Y127818D01*
X575533D01*
Y127293D01*
X575008Y126769D01*
X574484D01*
X575533Y127818D02*
Y129917D01*
X578157Y127818D02*
X577108D01*
X576583Y128343D01*
Y129392D01*
X577108Y129917D01*
X578157D01*
X578682Y129392D01*
Y128868D01*
X576583D01*
X579731Y129917D02*
Y127818D01*
Y128868D01*
X580256Y129392D01*
X580781Y129917D01*
X581306D01*
X508363Y123093D02*
X510462D01*
X509413D01*
Y119944D01*
X512037D02*
X513086D01*
X513611Y120469D01*
Y121518D01*
X513086Y122043D01*
X512037D01*
X511512Y121518D01*
Y120469D01*
X512037Y119944D01*
X514661Y118895D02*
Y122043D01*
X516235D01*
X516760Y121518D01*
Y120469D01*
X516235Y119944D01*
X514661D01*
X520958Y123093D02*
Y119944D01*
X523057D01*
X524631Y122043D02*
X525681D01*
X526205Y121518D01*
Y119944D01*
X524631D01*
X524106Y120469D01*
X524631Y120994D01*
X526205D01*
X527255Y122043D02*
Y120469D01*
X527780Y119944D01*
X529354D01*
Y119419D01*
X528829Y118895D01*
X528304D01*
X529354Y119944D02*
Y122043D01*
X531978Y119944D02*
X530928D01*
X530404Y120469D01*
Y121518D01*
X530928Y122043D01*
X531978D01*
X532503Y121518D01*
Y120994D01*
X530404D01*
X533552Y122043D02*
Y119944D01*
Y120994D01*
X534077Y121518D01*
X534602Y122043D01*
X535126D01*
X539849Y121518D02*
X541948D01*
X546146Y123093D02*
Y119944D01*
X547721D01*
X548245Y120469D01*
Y120994D01*
X547721Y121518D01*
X546146D01*
X547721D01*
X548245Y122043D01*
Y122568D01*
X547721Y123093D01*
X546146D01*
X549820Y119944D02*
X550869D01*
X551394Y120469D01*
Y121518D01*
X550869Y122043D01*
X549820D01*
X549295Y121518D01*
Y120469D01*
X549820Y119944D01*
X552968Y122568D02*
Y122043D01*
X552444D01*
X553493D01*
X552968D01*
Y120469D01*
X553493Y119944D01*
X555592Y122568D02*
Y122043D01*
X555067D01*
X556117D01*
X555592D01*
Y120469D01*
X556117Y119944D01*
X558216D02*
X559266D01*
X559790Y120469D01*
Y121518D01*
X559266Y122043D01*
X558216D01*
X557691Y121518D01*
Y120469D01*
X558216Y119944D01*
X560840D02*
Y122043D01*
X561365D01*
X561889Y121518D01*
Y119944D01*
Y121518D01*
X562414Y122043D01*
X562939Y121518D01*
Y119944D01*
X567137Y123093D02*
Y119944D01*
X569236D01*
X570810Y122043D02*
X571860D01*
X572385Y121518D01*
Y119944D01*
X570810D01*
X570286Y120469D01*
X570810Y120994D01*
X572385D01*
X573434Y122043D02*
Y120469D01*
X573959Y119944D01*
X575533D01*
Y119419D01*
X575008Y118895D01*
X574484D01*
X575533Y119944D02*
Y122043D01*
X578157Y119944D02*
X577108D01*
X576583Y120469D01*
Y121518D01*
X577108Y122043D01*
X578157D01*
X578682Y121518D01*
Y120994D01*
X576583D01*
X579731Y122043D02*
Y119944D01*
Y120994D01*
X580256Y121518D01*
X580781Y122043D01*
X581306D01*
X508363Y115219D02*
X510462D01*
X509413D01*
Y112070D01*
X512037D02*
X513086D01*
X513611Y112595D01*
Y113644D01*
X513086Y114169D01*
X512037D01*
X511512Y113644D01*
Y112595D01*
X512037Y112070D01*
X514661Y111021D02*
Y114169D01*
X516235D01*
X516760Y113644D01*
Y112595D01*
X516235Y112070D01*
X514661D01*
X520958Y115219D02*
Y112070D01*
X523057D01*
X524631Y114169D02*
X525681D01*
X526205Y113644D01*
Y112070D01*
X524631D01*
X524106Y112595D01*
X524631Y113120D01*
X526205D01*
X527255Y114169D02*
Y112595D01*
X527780Y112070D01*
X529354D01*
Y111545D01*
X528829Y111021D01*
X528304D01*
X529354Y112070D02*
Y114169D01*
X531978Y112070D02*
X530928D01*
X530404Y112595D01*
Y113644D01*
X530928Y114169D01*
X531978D01*
X532503Y113644D01*
Y113120D01*
X530404D01*
X533552Y114169D02*
Y112070D01*
Y113120D01*
X534077Y113644D01*
X534602Y114169D01*
X535126D01*
X539849Y113644D02*
X541948D01*
X546146Y115219D02*
Y112070D01*
X547721D01*
X548245Y112595D01*
Y113120D01*
X547721Y113644D01*
X546146D01*
X547721D01*
X548245Y114169D01*
Y114694D01*
X547721Y115219D01*
X546146D01*
X549820Y112070D02*
X550869D01*
X551394Y112595D01*
Y113644D01*
X550869Y114169D01*
X549820D01*
X549295Y113644D01*
Y112595D01*
X549820Y112070D01*
X552968Y114694D02*
Y114169D01*
X552444D01*
X553493D01*
X552968D01*
Y112595D01*
X553493Y112070D01*
X555592Y114694D02*
Y114169D01*
X555067D01*
X556117D01*
X555592D01*
Y112595D01*
X556117Y112070D01*
X558216D02*
X559266D01*
X559790Y112595D01*
Y113644D01*
X559266Y114169D01*
X558216D01*
X557691Y113644D01*
Y112595D01*
X558216Y112070D01*
X560840D02*
Y114169D01*
X561365D01*
X561889Y113644D01*
Y112070D01*
Y113644D01*
X562414Y114169D01*
X562939Y113644D01*
Y112070D01*
X567137Y115219D02*
Y112070D01*
X569236D01*
X570810Y114169D02*
X571860D01*
X572385Y113644D01*
Y112070D01*
X570810D01*
X570286Y112595D01*
X570810Y113120D01*
X572385D01*
X573434Y114169D02*
Y112595D01*
X573959Y112070D01*
X575533D01*
Y111545D01*
X575008Y111021D01*
X574484D01*
X575533Y112070D02*
Y114169D01*
X578157Y112070D02*
X577108D01*
X576583Y112595D01*
Y113644D01*
X577108Y114169D01*
X578157D01*
X578682Y113644D01*
Y113120D01*
X576583D01*
X579731Y114169D02*
Y112070D01*
Y113120D01*
X580256Y113644D01*
X580781Y114169D01*
X581306D01*
X508363Y107345D02*
X510462D01*
X509413D01*
Y104196D01*
X512037D02*
X513086D01*
X513611Y104721D01*
Y105770D01*
X513086Y106295D01*
X512037D01*
X511512Y105770D01*
Y104721D01*
X512037Y104196D01*
X514661Y103147D02*
Y106295D01*
X516235D01*
X516760Y105770D01*
Y104721D01*
X516235Y104196D01*
X514661D01*
X520958Y107345D02*
Y104196D01*
X523057D01*
X524631Y106295D02*
X525681D01*
X526205Y105770D01*
Y104196D01*
X524631D01*
X524106Y104721D01*
X524631Y105246D01*
X526205D01*
X527255Y106295D02*
Y104721D01*
X527780Y104196D01*
X529354D01*
Y103671D01*
X528829Y103147D01*
X528304D01*
X529354Y104196D02*
Y106295D01*
X531978Y104196D02*
X530928D01*
X530404Y104721D01*
Y105770D01*
X530928Y106295D01*
X531978D01*
X532503Y105770D01*
Y105246D01*
X530404D01*
X533552Y106295D02*
Y104196D01*
Y105246D01*
X534077Y105770D01*
X534602Y106295D01*
X535126D01*
X539849Y105770D02*
X541948D01*
X546146Y107345D02*
Y104196D01*
X547721D01*
X548245Y104721D01*
Y105246D01*
X547721Y105770D01*
X546146D01*
X547721D01*
X548245Y106295D01*
Y106820D01*
X547721Y107345D01*
X546146D01*
X549820Y104196D02*
X550869D01*
X551394Y104721D01*
Y105770D01*
X550869Y106295D01*
X549820D01*
X549295Y105770D01*
Y104721D01*
X549820Y104196D01*
X552968Y106820D02*
Y106295D01*
X552444D01*
X553493D01*
X552968D01*
Y104721D01*
X553493Y104196D01*
X555592Y106820D02*
Y106295D01*
X555067D01*
X556117D01*
X555592D01*
Y104721D01*
X556117Y104196D01*
X558216D02*
X559266D01*
X559790Y104721D01*
Y105770D01*
X559266Y106295D01*
X558216D01*
X557691Y105770D01*
Y104721D01*
X558216Y104196D01*
X560840D02*
Y106295D01*
X561365D01*
X561889Y105770D01*
Y104196D01*
Y105770D01*
X562414Y106295D01*
X562939Y105770D01*
Y104196D01*
X567137Y107345D02*
Y104196D01*
X569236D01*
X570810Y106295D02*
X571860D01*
X572385Y105770D01*
Y104196D01*
X570810D01*
X570286Y104721D01*
X570810Y105246D01*
X572385D01*
X573434Y106295D02*
Y104721D01*
X573959Y104196D01*
X575533D01*
Y103671D01*
X575008Y103147D01*
X574484D01*
X575533Y104196D02*
Y106295D01*
X578157Y104196D02*
X577108D01*
X576583Y104721D01*
Y105770D01*
X577108Y106295D01*
X578157D01*
X578682Y105770D01*
Y105246D01*
X576583D01*
X579731Y106295D02*
Y104196D01*
Y105246D01*
X580256Y105770D01*
X580781Y106295D01*
X581306D01*
X508363Y99471D02*
X510462D01*
X509413D01*
Y96322D01*
X512037D02*
X513086D01*
X513611Y96847D01*
Y97896D01*
X513086Y98421D01*
X512037D01*
X511512Y97896D01*
Y96847D01*
X512037Y96322D01*
X514661Y95273D02*
Y98421D01*
X516235D01*
X516760Y97896D01*
Y96847D01*
X516235Y96322D01*
X514661D01*
X520958Y99471D02*
Y96322D01*
X523057D01*
X524631Y98421D02*
X525681D01*
X526205Y97896D01*
Y96322D01*
X524631D01*
X524106Y96847D01*
X524631Y97372D01*
X526205D01*
X527255Y98421D02*
Y96847D01*
X527780Y96322D01*
X529354D01*
Y95797D01*
X528829Y95273D01*
X528304D01*
X529354Y96322D02*
Y98421D01*
X531978Y96322D02*
X530928D01*
X530404Y96847D01*
Y97896D01*
X530928Y98421D01*
X531978D01*
X532503Y97896D01*
Y97372D01*
X530404D01*
X533552Y98421D02*
Y96322D01*
Y97372D01*
X534077Y97896D01*
X534602Y98421D01*
X535126D01*
X539849Y97896D02*
X541948D01*
X546146Y99471D02*
Y96322D01*
X547721D01*
X548245Y96847D01*
Y97372D01*
X547721Y97896D01*
X546146D01*
X547721D01*
X548245Y98421D01*
Y98946D01*
X547721Y99471D01*
X546146D01*
X549820Y96322D02*
X550869D01*
X551394Y96847D01*
Y97896D01*
X550869Y98421D01*
X549820D01*
X549295Y97896D01*
Y96847D01*
X549820Y96322D01*
X552968Y98946D02*
Y98421D01*
X552444D01*
X553493D01*
X552968D01*
Y96847D01*
X553493Y96322D01*
X555592Y98946D02*
Y98421D01*
X555067D01*
X556117D01*
X555592D01*
Y96847D01*
X556117Y96322D01*
X558216D02*
X559266D01*
X559790Y96847D01*
Y97896D01*
X559266Y98421D01*
X558216D01*
X557691Y97896D01*
Y96847D01*
X558216Y96322D01*
X560840D02*
Y98421D01*
X561365D01*
X561889Y97896D01*
Y96322D01*
Y97896D01*
X562414Y98421D01*
X562939Y97896D01*
Y96322D01*
X567137Y99471D02*
Y96322D01*
X569236D01*
X570810Y98421D02*
X571860D01*
X572385Y97896D01*
Y96322D01*
X570810D01*
X570286Y96847D01*
X570810Y97372D01*
X572385D01*
X573434Y98421D02*
Y96847D01*
X573959Y96322D01*
X575533D01*
Y95797D01*
X575008Y95273D01*
X574484D01*
X575533Y96322D02*
Y98421D01*
X578157Y96322D02*
X577108D01*
X576583Y96847D01*
Y97896D01*
X577108Y98421D01*
X578157D01*
X578682Y97896D01*
Y97372D01*
X576583D01*
X579731Y98421D02*
Y96322D01*
Y97372D01*
X580256Y97896D01*
X580781Y98421D01*
X581306D01*
X469634Y159314D02*
Y162463D01*
X471208D01*
X471733Y161938D01*
Y160889D01*
X471208Y160364D01*
X469634D01*
X470683D02*
X471733Y159314D01*
X473307D02*
X474356D01*
X474881Y159839D01*
Y160889D01*
X474356Y161413D01*
X473307D01*
X472782Y160889D01*
Y159839D01*
X473307Y159314D01*
X475931Y161413D02*
Y159839D01*
X476455Y159314D01*
X478030D01*
Y161413D01*
X479079Y159314D02*
Y161413D01*
X480654D01*
X481178Y160889D01*
Y159314D01*
X484327Y162463D02*
Y159314D01*
X482753D01*
X482228Y159839D01*
Y160889D01*
X482753Y161413D01*
X484327D01*
X469634Y151440D02*
Y154589D01*
X471208D01*
X471733Y154064D01*
Y153015D01*
X471208Y152490D01*
X469634D01*
X470683D02*
X471733Y151440D01*
X473307D02*
X474356D01*
X474881Y151965D01*
Y153015D01*
X474356Y153539D01*
X473307D01*
X472782Y153015D01*
Y151965D01*
X473307Y151440D01*
X475931Y153539D02*
Y151965D01*
X476455Y151440D01*
X478030D01*
Y153539D01*
X479079Y151440D02*
Y153539D01*
X480654D01*
X481178Y153015D01*
Y151440D01*
X484327Y154589D02*
Y151440D01*
X482753D01*
X482228Y151965D01*
Y153015D01*
X482753Y153539D01*
X484327D01*
X469634Y143566D02*
Y146715D01*
X471208D01*
X471733Y146190D01*
Y145141D01*
X471208Y144616D01*
X469634D01*
X470683D02*
X471733Y143566D01*
X473307D02*
X474356D01*
X474881Y144091D01*
Y145141D01*
X474356Y145665D01*
X473307D01*
X472782Y145141D01*
Y144091D01*
X473307Y143566D01*
X475931Y145665D02*
Y144091D01*
X476455Y143566D01*
X478030D01*
Y145665D01*
X479079Y143566D02*
Y145665D01*
X480654D01*
X481178Y145141D01*
Y143566D01*
X484327Y146715D02*
Y143566D01*
X482753D01*
X482228Y144091D01*
Y145141D01*
X482753Y145665D01*
X484327D01*
X469634Y135692D02*
Y138841D01*
X471208D01*
X471733Y138316D01*
Y137267D01*
X471208Y136742D01*
X469634D01*
X470683D02*
X471733Y135692D01*
X473307D02*
X474356D01*
X474881Y136217D01*
Y137267D01*
X474356Y137791D01*
X473307D01*
X472782Y137267D01*
Y136217D01*
X473307Y135692D01*
X475931Y137791D02*
Y136217D01*
X476455Y135692D01*
X478030D01*
Y137791D01*
X479079Y135692D02*
Y137791D01*
X480654D01*
X481178Y137267D01*
Y135692D01*
X484327Y138841D02*
Y135692D01*
X482753D01*
X482228Y136217D01*
Y137267D01*
X482753Y137791D01*
X484327D01*
X469634Y127818D02*
Y130967D01*
X471208D01*
X471733Y130442D01*
Y129392D01*
X471208Y128868D01*
X469634D01*
X470683D02*
X471733Y127818D01*
X473307D02*
X474356D01*
X474881Y128343D01*
Y129392D01*
X474356Y129917D01*
X473307D01*
X472782Y129392D01*
Y128343D01*
X473307Y127818D01*
X475931Y129917D02*
Y128343D01*
X476455Y127818D01*
X478030D01*
Y129917D01*
X479079Y127818D02*
Y129917D01*
X480654D01*
X481178Y129392D01*
Y127818D01*
X484327Y130967D02*
Y127818D01*
X482753D01*
X482228Y128343D01*
Y129392D01*
X482753Y129917D01*
X484327D01*
X469634Y119944D02*
Y123093D01*
X471208D01*
X471733Y122568D01*
Y121518D01*
X471208Y120994D01*
X469634D01*
X470683D02*
X471733Y119944D01*
X473307D02*
X474356D01*
X474881Y120469D01*
Y121518D01*
X474356Y122043D01*
X473307D01*
X472782Y121518D01*
Y120469D01*
X473307Y119944D01*
X475931Y122043D02*
Y120469D01*
X476455Y119944D01*
X478030D01*
Y122043D01*
X479079Y119944D02*
Y122043D01*
X480654D01*
X481178Y121518D01*
Y119944D01*
X484327Y123093D02*
Y119944D01*
X482753D01*
X482228Y120469D01*
Y121518D01*
X482753Y122043D01*
X484327D01*
X469634Y112070D02*
Y115219D01*
X471208D01*
X471733Y114694D01*
Y113644D01*
X471208Y113120D01*
X469634D01*
X470683D02*
X471733Y112070D01*
X473307D02*
X474356D01*
X474881Y112595D01*
Y113644D01*
X474356Y114169D01*
X473307D01*
X472782Y113644D01*
Y112595D01*
X473307Y112070D01*
X475931Y114169D02*
Y112595D01*
X476455Y112070D01*
X478030D01*
Y114169D01*
X479079Y112070D02*
Y114169D01*
X480654D01*
X481178Y113644D01*
Y112070D01*
X484327Y115219D02*
Y112070D01*
X482753D01*
X482228Y112595D01*
Y113644D01*
X482753Y114169D01*
X484327D01*
X469634Y104196D02*
Y107345D01*
X471208D01*
X471733Y106820D01*
Y105770D01*
X471208Y105246D01*
X469634D01*
X470683D02*
X471733Y104196D01*
X473307D02*
X474356D01*
X474881Y104721D01*
Y105770D01*
X474356Y106295D01*
X473307D01*
X472782Y105770D01*
Y104721D01*
X473307Y104196D01*
X475931Y106295D02*
Y104721D01*
X476455Y104196D01*
X478030D01*
Y106295D01*
X479079Y104196D02*
Y106295D01*
X480654D01*
X481178Y105770D01*
Y104196D01*
X484327Y107345D02*
Y104196D01*
X482753D01*
X482228Y104721D01*
Y105770D01*
X482753Y106295D01*
X484327D01*
X469634Y96322D02*
Y99471D01*
X471208D01*
X471733Y98946D01*
Y97896D01*
X471208Y97372D01*
X469634D01*
X470683D02*
X471733Y96322D01*
X473307D02*
X474356D01*
X474881Y96847D01*
Y97896D01*
X474356Y98421D01*
X473307D01*
X472782Y97896D01*
Y96847D01*
X473307Y96322D01*
X475931Y98421D02*
Y96847D01*
X476455Y96322D01*
X478030D01*
Y98421D01*
X479079Y96322D02*
Y98421D01*
X480654D01*
X481178Y97896D01*
Y96322D01*
X484327Y99471D02*
Y96322D01*
X482753D01*
X482228Y96847D01*
Y97896D01*
X482753Y98421D01*
X484327D01*
X442868Y159314D02*
Y162463D01*
X444968Y159314D01*
Y162463D01*
X446017Y159314D02*
Y162463D01*
X447591D01*
X448116Y161938D01*
Y160889D01*
X447591Y160364D01*
X446017D01*
X449166Y162463D02*
X451265D01*
X450215D01*
Y159314D01*
X452314Y162463D02*
Y159314D01*
Y160889D01*
X454413D01*
Y162463D01*
Y159314D01*
X442868Y151440D02*
Y154589D01*
X444968Y151440D01*
Y154589D01*
X446017Y151440D02*
Y154589D01*
X447591D01*
X448116Y154064D01*
Y153015D01*
X447591Y152490D01*
X446017D01*
X449166Y154589D02*
X451265D01*
X450215D01*
Y151440D01*
X452314Y154589D02*
Y151440D01*
Y153015D01*
X454413D01*
Y154589D01*
Y151440D01*
X442868Y143566D02*
Y146715D01*
X444443D01*
X444968Y146190D01*
Y145141D01*
X444443Y144616D01*
X442868D01*
X446017Y146715D02*
X448116D01*
X447066D01*
Y143566D01*
X449166Y146715D02*
Y143566D01*
Y145141D01*
X451265D01*
Y146715D01*
Y143566D01*
X442868Y135692D02*
Y138841D01*
X444968Y135692D01*
Y138841D01*
X446017Y135692D02*
Y138841D01*
X447591D01*
X448116Y138316D01*
Y137267D01*
X447591Y136742D01*
X446017D01*
X449166Y138841D02*
X451265D01*
X450215D01*
Y135692D01*
X452314Y138841D02*
Y135692D01*
Y137267D01*
X454413D01*
Y138841D01*
Y135692D01*
X442868Y127818D02*
Y130967D01*
X444968Y127818D01*
Y130967D01*
X446017Y127818D02*
Y130967D01*
X447591D01*
X448116Y130442D01*
Y129392D01*
X447591Y128868D01*
X446017D01*
X449166Y130967D02*
X451265D01*
X450215D01*
Y127818D01*
X452314Y130967D02*
Y127818D01*
Y129392D01*
X454413D01*
Y130967D01*
Y127818D01*
X442868Y119944D02*
Y123093D01*
X444968Y119944D01*
Y123093D01*
X446017Y119944D02*
Y123093D01*
X447591D01*
X448116Y122568D01*
Y121518D01*
X447591Y120994D01*
X446017D01*
X449166Y123093D02*
X451265D01*
X450215D01*
Y119944D01*
X452314Y123093D02*
Y119944D01*
Y121518D01*
X454413D01*
Y123093D01*
Y119944D01*
X442868Y112070D02*
Y115219D01*
X444968Y112070D01*
Y115219D01*
X446017Y112070D02*
Y115219D01*
X447591D01*
X448116Y114694D01*
Y113644D01*
X447591Y113120D01*
X446017D01*
X449166Y115219D02*
X451265D01*
X450215D01*
Y112070D01*
X452314Y115219D02*
Y112070D01*
Y113644D01*
X454413D01*
Y115219D01*
Y112070D01*
X442868Y104196D02*
Y107345D01*
X444443D01*
X444968Y106820D01*
Y105770D01*
X444443Y105246D01*
X442868D01*
X446017Y107345D02*
X448116D01*
X447066D01*
Y104196D01*
X449166Y107345D02*
Y104196D01*
Y105770D01*
X451265D01*
Y107345D01*
Y104196D01*
X442868Y96322D02*
Y99471D01*
X444443D01*
X444968Y98946D01*
Y97896D01*
X444443Y97372D01*
X442868D01*
X446017Y99471D02*
X448116D01*
X447066D01*
Y96322D01*
X449166Y99471D02*
Y96322D01*
Y97896D01*
X451265D01*
Y99471D01*
Y96322D01*
X383962Y161938D02*
X384486Y162463D01*
X385536D01*
X386061Y161938D01*
Y159839D01*
X385536Y159314D01*
X384486D01*
X383962Y159839D01*
Y161938D01*
X387110Y159314D02*
Y159839D01*
X387635D01*
Y159314D01*
X387110D01*
X391833Y162463D02*
X389734D01*
Y160889D01*
X390784Y161413D01*
X391308D01*
X391833Y160889D01*
Y159839D01*
X391308Y159314D01*
X390259D01*
X389734Y159839D01*
X392883Y161938D02*
X393407Y162463D01*
X394457D01*
X394982Y161938D01*
Y159839D01*
X394457Y159314D01*
X393407D01*
X392883Y159839D01*
Y161938D01*
X396031D02*
X396556Y162463D01*
X397605D01*
X398130Y161938D01*
Y159839D01*
X397605Y159314D01*
X396556D01*
X396031Y159839D01*
Y161938D01*
X399180Y159314D02*
Y161413D01*
X399705D01*
X400229Y160889D01*
Y159314D01*
Y160889D01*
X400754Y161413D01*
X401279Y160889D01*
Y159314D01*
X402328D02*
Y161413D01*
X402853D01*
X403378Y160889D01*
Y159314D01*
Y160889D01*
X403903Y161413D01*
X404427Y160889D01*
Y159314D01*
X409675D02*
X408626Y160364D01*
Y161413D01*
X409675Y162463D01*
X411249Y159314D02*
X412299D01*
X411774D01*
Y162463D01*
X411249Y161938D01*
X413873Y159839D02*
X414398Y159314D01*
X415448D01*
X415972Y159839D01*
Y161938D01*
X415448Y162463D01*
X414398D01*
X413873Y161938D01*
Y161413D01*
X414398Y160889D01*
X415972D01*
X417022Y159314D02*
Y159839D01*
X417547D01*
Y159314D01*
X417022D01*
X421745Y162463D02*
X420695Y161938D01*
X419646Y160889D01*
Y159839D01*
X420170Y159314D01*
X421220D01*
X421745Y159839D01*
Y160364D01*
X421220Y160889D01*
X419646D01*
X422794Y159839D02*
X423319Y159314D01*
X424368D01*
X424893Y159839D01*
Y161938D01*
X424368Y162463D01*
X423319D01*
X422794Y161938D01*
Y161413D01*
X423319Y160889D01*
X424893D01*
X425943Y159314D02*
Y161413D01*
X426468D01*
X426992Y160889D01*
Y159314D01*
Y160889D01*
X427517Y161413D01*
X428042Y160889D01*
Y159314D01*
X429091D02*
X430141D01*
X429616D01*
Y161413D01*
X429091D01*
X431715Y159314D02*
X432765D01*
X432240D01*
Y162463D01*
X431715D01*
X434339Y159314D02*
X435389Y160364D01*
Y161413D01*
X434339Y162463D01*
X383962Y154064D02*
X384486Y154589D01*
X385536D01*
X386061Y154064D01*
Y151965D01*
X385536Y151440D01*
X384486D01*
X383962Y151965D01*
Y154064D01*
X387110Y151440D02*
Y151965D01*
X387635D01*
Y151440D01*
X387110D01*
X391833Y154589D02*
X390784Y154064D01*
X389734Y153015D01*
Y151965D01*
X390259Y151440D01*
X391308D01*
X391833Y151965D01*
Y152490D01*
X391308Y153015D01*
X389734D01*
X394982Y154589D02*
X392883D01*
Y153015D01*
X393932Y153539D01*
X394457D01*
X394982Y153015D01*
Y151965D01*
X394457Y151440D01*
X393407D01*
X392883Y151965D01*
X396031Y154064D02*
X396556Y154589D01*
X397605D01*
X398130Y154064D01*
Y151965D01*
X397605Y151440D01*
X396556D01*
X396031Y151965D01*
Y154064D01*
X399180Y151440D02*
Y153539D01*
X399705D01*
X400229Y153015D01*
Y151440D01*
Y153015D01*
X400754Y153539D01*
X401279Y153015D01*
Y151440D01*
X402328D02*
Y153539D01*
X402853D01*
X403378Y153015D01*
Y151440D01*
Y153015D01*
X403903Y153539D01*
X404427Y153015D01*
Y151440D01*
X409675D02*
X408626Y152490D01*
Y153539D01*
X409675Y154589D01*
X413348Y151440D02*
X411249D01*
X413348Y153539D01*
Y154064D01*
X412824Y154589D01*
X411774D01*
X411249Y154064D01*
X416497Y154589D02*
X414398D01*
Y153015D01*
X415448Y153539D01*
X415972D01*
X416497Y153015D01*
Y151965D01*
X415972Y151440D01*
X414923D01*
X414398Y151965D01*
X417547Y151440D02*
Y151965D01*
X418071D01*
Y151440D01*
X417547D01*
X422269Y154589D02*
X420170D01*
Y153015D01*
X421220Y153539D01*
X421745D01*
X422269Y153015D01*
Y151965D01*
X421745Y151440D01*
X420695D01*
X420170Y151965D01*
X423319D02*
X423844Y151440D01*
X424893D01*
X425418Y151965D01*
Y154064D01*
X424893Y154589D01*
X423844D01*
X423319Y154064D01*
Y153539D01*
X423844Y153015D01*
X425418D01*
X426468Y151440D02*
Y153539D01*
X426992D01*
X427517Y153015D01*
Y151440D01*
Y153015D01*
X428042Y153539D01*
X428567Y153015D01*
Y151440D01*
X429616D02*
X430666D01*
X430141D01*
Y153539D01*
X429616D01*
X432240Y151440D02*
X433289D01*
X432765D01*
Y154589D01*
X432240D01*
X434864Y151440D02*
X435913Y152490D01*
Y153539D01*
X434864Y154589D01*
X383962Y143566D02*
X385011D01*
X384486D01*
Y146715D01*
X383962Y146190D01*
X386585Y143566D02*
Y144091D01*
X387110D01*
Y143566D01*
X386585D01*
X391308D02*
X389209D01*
X391308Y145665D01*
Y146190D01*
X390784Y146715D01*
X389734D01*
X389209Y146190D01*
X392358D02*
X392883Y146715D01*
X393932D01*
X394457Y146190D01*
Y144091D01*
X393932Y143566D01*
X392883D01*
X392358Y144091D01*
Y146190D01*
X395507D02*
X396031Y146715D01*
X397081D01*
X397605Y146190D01*
Y144091D01*
X397081Y143566D01*
X396031D01*
X395507Y144091D01*
Y146190D01*
X398655Y143566D02*
Y145665D01*
X399180D01*
X399705Y145141D01*
Y143566D01*
Y145141D01*
X400229Y145665D01*
X400754Y145141D01*
Y143566D01*
X401804D02*
Y145665D01*
X402328D01*
X402853Y145141D01*
Y143566D01*
Y145141D01*
X403378Y145665D01*
X403903Y145141D01*
Y143566D01*
X409150D02*
X408101Y144616D01*
Y145665D01*
X409150Y146715D01*
X412299Y143566D02*
Y146715D01*
X410725Y145141D01*
X412824D01*
X413873Y146715D02*
X415972D01*
Y146190D01*
X413873Y144091D01*
Y143566D01*
X417022D02*
Y144091D01*
X417547D01*
Y143566D01*
X417022D01*
X421745D02*
X419646D01*
X421745Y145665D01*
Y146190D01*
X421220Y146715D01*
X420170D01*
X419646Y146190D01*
X424368Y143566D02*
Y146715D01*
X422794Y145141D01*
X424893D01*
X425943Y143566D02*
Y145665D01*
X426468D01*
X426992Y145141D01*
Y143566D01*
Y145141D01*
X427517Y145665D01*
X428042Y145141D01*
Y143566D01*
X429091D02*
X430141D01*
X429616D01*
Y145665D01*
X429091D01*
X431715Y143566D02*
X432765D01*
X432240D01*
Y146715D01*
X431715D01*
X434339Y143566D02*
X435389Y144616D01*
Y145665D01*
X434339Y146715D01*
X383962Y135692D02*
X385011D01*
X384486D01*
Y138841D01*
X383962Y138316D01*
X386585Y135692D02*
Y136217D01*
X387110D01*
Y135692D01*
X386585D01*
X391308D02*
X389209D01*
X391308Y137791D01*
Y138316D01*
X390784Y138841D01*
X389734D01*
X389209Y138316D01*
X392358Y138841D02*
X394457D01*
Y138316D01*
X392358Y136217D01*
Y135692D01*
X395507Y138316D02*
X396031Y138841D01*
X397081D01*
X397605Y138316D01*
Y136217D01*
X397081Y135692D01*
X396031D01*
X395507Y136217D01*
Y138316D01*
X398655Y135692D02*
Y137791D01*
X399180D01*
X399705Y137267D01*
Y135692D01*
Y137267D01*
X400229Y137791D01*
X400754Y137267D01*
Y135692D01*
X401804D02*
Y137791D01*
X402328D01*
X402853Y137267D01*
Y135692D01*
Y137267D01*
X403378Y137791D01*
X403903Y137267D01*
Y135692D01*
X409150D02*
X408101Y136742D01*
Y137791D01*
X409150Y138841D01*
X412824D02*
X410725D01*
Y137267D01*
X411774Y137791D01*
X412299D01*
X412824Y137267D01*
Y136217D01*
X412299Y135692D01*
X411249D01*
X410725Y136217D01*
X413873Y138316D02*
X414398Y138841D01*
X415448D01*
X415972Y138316D01*
Y136217D01*
X415448Y135692D01*
X414398D01*
X413873Y136217D01*
Y138316D01*
X417022Y135692D02*
Y136217D01*
X417547D01*
Y135692D01*
X417022D01*
X419646Y138316D02*
X420170Y138841D01*
X421220D01*
X421745Y138316D01*
Y136217D01*
X421220Y135692D01*
X420170D01*
X419646Y136217D01*
Y138316D01*
X422794D02*
X423319Y138841D01*
X424368D01*
X424893Y138316D01*
Y136217D01*
X424368Y135692D01*
X423319D01*
X422794Y136217D01*
Y138316D01*
X425943Y135692D02*
Y137791D01*
X426468D01*
X426992Y137267D01*
Y135692D01*
Y137267D01*
X427517Y137791D01*
X428042Y137267D01*
Y135692D01*
X429091D02*
X430141D01*
X429616D01*
Y137791D01*
X429091D01*
X431715Y135692D02*
X432765D01*
X432240D01*
Y138841D01*
X431715D01*
X434339Y135692D02*
X435389Y136742D01*
Y137791D01*
X434339Y138841D01*
X386061Y127818D02*
X383962D01*
X386061Y129917D01*
Y130442D01*
X385536Y130967D01*
X384486D01*
X383962Y130442D01*
X387110Y127818D02*
Y128343D01*
X387635D01*
Y127818D01*
X387110D01*
X391833D02*
X389734D01*
X391833Y129917D01*
Y130442D01*
X391308Y130967D01*
X390259D01*
X389734Y130442D01*
X392883D02*
X393407Y130967D01*
X394457D01*
X394982Y130442D01*
Y128343D01*
X394457Y127818D01*
X393407D01*
X392883Y128343D01*
Y130442D01*
X396031D02*
X396556Y130967D01*
X397605D01*
X398130Y130442D01*
Y128343D01*
X397605Y127818D01*
X396556D01*
X396031Y128343D01*
Y130442D01*
X399180Y127818D02*
Y129917D01*
X399705D01*
X400229Y129392D01*
Y127818D01*
Y129392D01*
X400754Y129917D01*
X401279Y129392D01*
Y127818D01*
X402328D02*
Y129917D01*
X402853D01*
X403378Y129392D01*
Y127818D01*
Y129392D01*
X403903Y129917D01*
X404427Y129392D01*
Y127818D01*
X409675D02*
X408626Y128868D01*
Y129917D01*
X409675Y130967D01*
X411249Y130442D02*
X411774Y130967D01*
X412824D01*
X413348Y130442D01*
Y129917D01*
X412824Y129392D01*
X413348Y128868D01*
Y128343D01*
X412824Y127818D01*
X411774D01*
X411249Y128343D01*
Y128868D01*
X411774Y129392D01*
X411249Y129917D01*
Y130442D01*
X411774Y129392D02*
X412824D01*
X416497Y130967D02*
X415448Y130442D01*
X414398Y129392D01*
Y128343D01*
X414923Y127818D01*
X415972D01*
X416497Y128343D01*
Y128868D01*
X415972Y129392D01*
X414398D01*
X417547Y127818D02*
Y128343D01*
X418071D01*
Y127818D01*
X417547D01*
X422269Y130967D02*
X421220Y130442D01*
X420170Y129392D01*
Y128343D01*
X420695Y127818D01*
X421745D01*
X422269Y128343D01*
Y128868D01*
X421745Y129392D01*
X420170D01*
X423319Y127818D02*
X424368D01*
X423844D01*
Y130967D01*
X423319Y130442D01*
X425943Y127818D02*
Y129917D01*
X426468D01*
X426992Y129392D01*
Y127818D01*
Y129392D01*
X427517Y129917D01*
X428042Y129392D01*
Y127818D01*
X429091D02*
X430141D01*
X429616D01*
Y129917D01*
X429091D01*
X431715Y127818D02*
X432765D01*
X432240D01*
Y130967D01*
X431715D01*
X434339Y127818D02*
X435389Y128868D01*
Y129917D01*
X434339Y130967D01*
X383962Y122568D02*
X384486Y123093D01*
X385536D01*
X386061Y122568D01*
Y122043D01*
X385536Y121518D01*
X385011D01*
X385536D01*
X386061Y120994D01*
Y120469D01*
X385536Y119944D01*
X384486D01*
X383962Y120469D01*
X387110Y119944D02*
Y120469D01*
X387635D01*
Y119944D01*
X387110D01*
X389734Y122568D02*
X390259Y123093D01*
X391308D01*
X391833Y122568D01*
Y120469D01*
X391308Y119944D01*
X390259D01*
X389734Y120469D01*
Y122568D01*
X392883D02*
X393407Y123093D01*
X394457D01*
X394982Y122568D01*
Y120469D01*
X394457Y119944D01*
X393407D01*
X392883Y120469D01*
Y122568D01*
X396031D02*
X396556Y123093D01*
X397605D01*
X398130Y122568D01*
Y120469D01*
X397605Y119944D01*
X396556D01*
X396031Y120469D01*
Y122568D01*
X399180Y119944D02*
Y122043D01*
X399705D01*
X400229Y121518D01*
Y119944D01*
Y121518D01*
X400754Y122043D01*
X401279Y121518D01*
Y119944D01*
X402328D02*
Y122043D01*
X402853D01*
X403378Y121518D01*
Y119944D01*
Y121518D01*
X403903Y122043D01*
X404427Y121518D01*
Y119944D01*
X409675D02*
X408626Y120994D01*
Y122043D01*
X409675Y123093D01*
X411249Y119944D02*
X412299D01*
X411774D01*
Y123093D01*
X411249Y122568D01*
X413873Y119944D02*
X414923D01*
X414398D01*
Y123093D01*
X413873Y122568D01*
X416497D02*
X417022Y123093D01*
X418071D01*
X418596Y122568D01*
Y122043D01*
X418071Y121518D01*
X418596Y120994D01*
Y120469D01*
X418071Y119944D01*
X417022D01*
X416497Y120469D01*
Y120994D01*
X417022Y121518D01*
X416497Y122043D01*
Y122568D01*
X417022Y121518D02*
X418071D01*
X419646Y119944D02*
Y120469D01*
X420170D01*
Y119944D01*
X419646D01*
X422269D02*
X423319D01*
X422794D01*
Y123093D01*
X422269Y122568D01*
X424893Y119944D02*
X425943D01*
X425418D01*
Y123093D01*
X424893Y122568D01*
X427517Y119944D02*
Y122043D01*
X428042D01*
X428567Y121518D01*
Y119944D01*
Y121518D01*
X429091Y122043D01*
X429616Y121518D01*
Y119944D01*
X430666D02*
X431715D01*
X431190D01*
Y122043D01*
X430666D01*
X433290Y119944D02*
X434339D01*
X433814D01*
Y123093D01*
X433290D01*
X435913Y119944D02*
X436963Y120994D01*
Y122043D01*
X435913Y123093D01*
X386061Y112070D02*
X383962D01*
X386061Y114169D01*
Y114694D01*
X385536Y115219D01*
X384486D01*
X383962Y114694D01*
X387110Y112070D02*
Y112595D01*
X387635D01*
Y112070D01*
X387110D01*
X391833Y115219D02*
X389734D01*
Y113644D01*
X390784Y114169D01*
X391308D01*
X391833Y113644D01*
Y112595D01*
X391308Y112070D01*
X390259D01*
X389734Y112595D01*
X392883Y114694D02*
X393407Y115219D01*
X394457D01*
X394982Y114694D01*
Y112595D01*
X394457Y112070D01*
X393407D01*
X392883Y112595D01*
Y114694D01*
X396031D02*
X396556Y115219D01*
X397605D01*
X398130Y114694D01*
Y112595D01*
X397605Y112070D01*
X396556D01*
X396031Y112595D01*
Y114694D01*
X399180Y112070D02*
Y114169D01*
X399705D01*
X400229Y113644D01*
Y112070D01*
Y113644D01*
X400754Y114169D01*
X401279Y113644D01*
Y112070D01*
X402328D02*
Y114169D01*
X402853D01*
X403378Y113644D01*
Y112070D01*
Y113644D01*
X403903Y114169D01*
X404427Y113644D01*
Y112070D01*
X409675D02*
X408626Y113120D01*
Y114169D01*
X409675Y115219D01*
X411249Y112595D02*
X411774Y112070D01*
X412824D01*
X413348Y112595D01*
Y114694D01*
X412824Y115219D01*
X411774D01*
X411249Y114694D01*
Y114169D01*
X411774Y113644D01*
X413348D01*
X414398Y114694D02*
X414923Y115219D01*
X415972D01*
X416497Y114694D01*
Y114169D01*
X415972Y113644D01*
X416497Y113120D01*
Y112595D01*
X415972Y112070D01*
X414923D01*
X414398Y112595D01*
Y113120D01*
X414923Y113644D01*
X414398Y114169D01*
Y114694D01*
X414923Y113644D02*
X415972D01*
X417547Y112070D02*
Y112595D01*
X418071D01*
Y112070D01*
X417547D01*
X421745D02*
Y115219D01*
X420170Y113644D01*
X422269D01*
X423319Y114694D02*
X423844Y115219D01*
X424893D01*
X425418Y114694D01*
Y114169D01*
X424893Y113644D01*
X424368D01*
X424893D01*
X425418Y113120D01*
Y112595D01*
X424893Y112070D01*
X423844D01*
X423319Y112595D01*
X426468Y112070D02*
Y114169D01*
X426992D01*
X427517Y113644D01*
Y112070D01*
Y113644D01*
X428042Y114169D01*
X428567Y113644D01*
Y112070D01*
X429616D02*
X430666D01*
X430141D01*
Y114169D01*
X429616D01*
X432240Y112070D02*
X433289D01*
X432765D01*
Y115219D01*
X432240D01*
X434864Y112070D02*
X435913Y113120D01*
Y114169D01*
X434864Y115219D01*
X383962Y106820D02*
X384486Y107345D01*
X385536D01*
X386061Y106820D01*
Y104721D01*
X385536Y104196D01*
X384486D01*
X383962Y104721D01*
Y106820D01*
X387110Y104196D02*
Y104721D01*
X387635D01*
Y104196D01*
X387110D01*
X389734Y104721D02*
X390259Y104196D01*
X391308D01*
X391833Y104721D01*
Y106820D01*
X391308Y107345D01*
X390259D01*
X389734Y106820D01*
Y106295D01*
X390259Y105770D01*
X391833D01*
X392883Y106820D02*
X393407Y107345D01*
X394457D01*
X394982Y106820D01*
Y104721D01*
X394457Y104196D01*
X393407D01*
X392883Y104721D01*
Y106820D01*
X396031D02*
X396556Y107345D01*
X397605D01*
X398130Y106820D01*
Y104721D01*
X397605Y104196D01*
X396556D01*
X396031Y104721D01*
Y106820D01*
X399180Y104196D02*
Y106295D01*
X399705D01*
X400229Y105770D01*
Y104196D01*
Y105770D01*
X400754Y106295D01*
X401279Y105770D01*
Y104196D01*
X402328D02*
Y106295D01*
X402853D01*
X403378Y105770D01*
Y104196D01*
Y105770D01*
X403903Y106295D01*
X404427Y105770D01*
Y104196D01*
X409675D02*
X408626Y105246D01*
Y106295D01*
X409675Y107345D01*
X411249Y106820D02*
X411774Y107345D01*
X412824D01*
X413348Y106820D01*
Y106295D01*
X412824Y105770D01*
X412299D01*
X412824D01*
X413348Y105246D01*
Y104721D01*
X412824Y104196D01*
X411774D01*
X411249Y104721D01*
X416497Y107345D02*
X414398D01*
Y105770D01*
X415448Y106295D01*
X415972D01*
X416497Y105770D01*
Y104721D01*
X415972Y104196D01*
X414923D01*
X414398Y104721D01*
X417547Y104196D02*
Y104721D01*
X418071D01*
Y104196D01*
X417547D01*
X421745D02*
Y107345D01*
X420170Y105770D01*
X422269D01*
X423319Y106820D02*
X423844Y107345D01*
X424893D01*
X425418Y106820D01*
Y106295D01*
X424893Y105770D01*
X424368D01*
X424893D01*
X425418Y105246D01*
Y104721D01*
X424893Y104196D01*
X423844D01*
X423319Y104721D01*
X426468Y104196D02*
Y106295D01*
X426992D01*
X427517Y105770D01*
Y104196D01*
Y105770D01*
X428042Y106295D01*
X428567Y105770D01*
Y104196D01*
X429616D02*
X430666D01*
X430141D01*
Y106295D01*
X429616D01*
X432240Y104196D02*
X433289D01*
X432765D01*
Y107345D01*
X432240D01*
X434864Y104196D02*
X435913Y105246D01*
Y106295D01*
X434864Y107345D01*
X383962Y98946D02*
X384486Y99471D01*
X385536D01*
X386061Y98946D01*
Y96847D01*
X385536Y96322D01*
X384486D01*
X383962Y96847D01*
Y98946D01*
X387110Y96322D02*
Y96847D01*
X387635D01*
Y96322D01*
X387110D01*
X391833D02*
X389734D01*
X391833Y98421D01*
Y98946D01*
X391308Y99471D01*
X390259D01*
X389734Y98946D01*
X394982Y99471D02*
X392883D01*
Y97896D01*
X393932Y98421D01*
X394457D01*
X394982Y97896D01*
Y96847D01*
X394457Y96322D01*
X393407D01*
X392883Y96847D01*
X396031Y98946D02*
X396556Y99471D01*
X397605D01*
X398130Y98946D01*
Y96847D01*
X397605Y96322D01*
X396556D01*
X396031Y96847D01*
Y98946D01*
X399180Y96322D02*
Y98421D01*
X399705D01*
X400229Y97896D01*
Y96322D01*
Y97896D01*
X400754Y98421D01*
X401279Y97896D01*
Y96322D01*
X402328D02*
Y98421D01*
X402853D01*
X403378Y97896D01*
Y96322D01*
Y97896D01*
X403903Y98421D01*
X404427Y97896D01*
Y96322D01*
X409675D02*
X408626Y97372D01*
Y98421D01*
X409675Y99471D01*
X411249Y96847D02*
X411774Y96322D01*
X412824D01*
X413348Y96847D01*
Y98946D01*
X412824Y99471D01*
X411774D01*
X411249Y98946D01*
Y98421D01*
X411774Y97896D01*
X413348D01*
X414398Y96322D02*
Y96847D01*
X414923D01*
Y96322D01*
X414398D01*
X417022Y98946D02*
X417547Y99471D01*
X418596D01*
X419121Y98946D01*
Y98421D01*
X418596Y97896D01*
X419121Y97372D01*
Y96847D01*
X418596Y96322D01*
X417547D01*
X417022Y96847D01*
Y97372D01*
X417547Y97896D01*
X417022Y98421D01*
Y98946D01*
X417547Y97896D02*
X418596D01*
X421745Y96322D02*
Y99471D01*
X420170Y97896D01*
X422269D01*
X423319Y96322D02*
Y98421D01*
X423844D01*
X424368Y97896D01*
Y96322D01*
Y97896D01*
X424893Y98421D01*
X425418Y97896D01*
Y96322D01*
X426468D02*
X427517D01*
X426992D01*
Y98421D01*
X426468D01*
X429091Y96322D02*
X430141D01*
X429616D01*
Y99471D01*
X429091D01*
X431715Y96322D02*
X432765Y97372D01*
Y98421D01*
X431715Y99471D01*
X354442Y88448D02*
X352343D01*
X354442Y90547D01*
Y91072D01*
X353917Y91597D01*
X352867D01*
X352343Y91072D01*
X357590Y88448D02*
X355491D01*
X357590Y90547D01*
Y91072D01*
X357066Y91597D01*
X356016D01*
X355491Y91072D01*
X360214Y88448D02*
Y91597D01*
X358640Y90022D01*
X360739D01*
X364937Y91597D02*
X367036D01*
X365986D01*
Y88448D01*
X368610D02*
X369660D01*
X370185Y88973D01*
Y90022D01*
X369660Y90547D01*
X368610D01*
X368086Y90022D01*
Y88973D01*
X368610Y88448D01*
X371759Y91072D02*
Y90547D01*
X371234D01*
X372284D01*
X371759D01*
Y88973D01*
X372284Y88448D01*
X374383Y90547D02*
X375432D01*
X375957Y90022D01*
Y88448D01*
X374383D01*
X373858Y88973D01*
X374383Y89498D01*
X375957D01*
X377007Y88448D02*
X378056D01*
X377531D01*
Y91597D01*
X377007D01*
X352343Y159314D02*
X353392D01*
X352867D01*
Y162463D01*
X352343Y161938D01*
X354442Y151440D02*
X352343D01*
X354442Y153539D01*
Y154064D01*
X353917Y154589D01*
X352867D01*
X352343Y154064D01*
X354442Y143566D02*
X352343D01*
X354442Y145665D01*
Y146190D01*
X353917Y146715D01*
X352867D01*
X352343Y146190D01*
X354442Y135692D02*
X352343D01*
X354442Y137791D01*
Y138316D01*
X353917Y138841D01*
X352867D01*
X352343Y138316D01*
X354442Y127818D02*
X352343D01*
X354442Y129917D01*
Y130442D01*
X353917Y130967D01*
X352867D01*
X352343Y130442D01*
X354442Y119944D02*
X352343D01*
X354442Y122043D01*
Y122568D01*
X353917Y123093D01*
X352867D01*
X352343Y122568D01*
Y114694D02*
X352867Y115219D01*
X353917D01*
X354442Y114694D01*
Y114169D01*
X353917Y113644D01*
X354442Y113120D01*
Y112595D01*
X353917Y112070D01*
X352867D01*
X352343Y112595D01*
Y113120D01*
X352867Y113644D01*
X352343Y114169D01*
Y114694D01*
X352867Y113644D02*
X353917D01*
X352343Y104196D02*
X353392D01*
X352867D01*
Y107345D01*
X352343Y106820D01*
X356541Y104196D02*
Y107345D01*
X354966Y105770D01*
X357066D01*
X352343Y96322D02*
X353392D01*
X352867D01*
Y99471D01*
X352343Y98946D01*
X354966Y96847D02*
X355491Y96322D01*
X356541D01*
X357066Y96847D01*
Y98946D01*
X356541Y99471D01*
X355491D01*
X354966Y98946D01*
Y98421D01*
X355491Y97896D01*
X357066D01*
X358115Y96322D02*
X359165D01*
X358640D01*
Y99471D01*
X358115Y98946D01*
D15*
X25512Y141733D02*
G03*
X30512Y146733I0J5000D01*
G01*
X8152Y186919D02*
G03*
X3937Y182705I0J-4215D01*
G01*
X30512Y157481D02*
G03*
X8143Y186886I-30512J0D01*
G01*
X-30512Y146732D02*
G03*
X-25512Y141732I5000J0D01*
G01*
X-3937Y182704D02*
G03*
X-8152Y186919I-4215J0D01*
G01*
X-8143Y186886D02*
G03*
X-30512Y157480I8143J-29405D01*
G01*
X30512Y128858D02*
G03*
X25512Y133858I-5000J0D01*
G01*
X3937Y92886D02*
G03*
X8152Y88672I4215J0D01*
G01*
X8143Y88705D02*
G03*
X30512Y118110I-8143J29405D01*
G01*
X-30512D02*
G03*
X-8143Y88705I30512J0D01*
G01*
X-8152Y88672D02*
G03*
X-3937Y92886I0J4215D01*
G01*
X-25512Y133858D02*
G03*
X-30512Y128858I0J-5000D01*
G01*
X8937Y133858D02*
G03*
X3937Y128858I0J-5000D01*
G01*
X-3937D02*
G03*
X-8937Y133858I-5000J0D01*
G01*
X3937Y146733D02*
G03*
X8937Y141733I5000J0D01*
G01*
X-8937Y141732D02*
G03*
X-3937Y146732I0J5000D01*
G01*
X194883Y3937D02*
G03*
X187008Y11812I-7875J0D01*
G01*
Y-204725D02*
G03*
X194883Y-196850I0J7875D01*
G01*
X-194883D02*
G03*
X-187008Y-204725I7875J0D01*
G01*
Y11812D02*
G03*
X-194883Y3937I0J-7875D01*
G01*
X-180197Y11811D02*
G03*
X-171661Y15347I0J12071D01*
G01*
X171661D02*
G03*
X180197Y11811I8535J8535D01*
G01*
X-170858Y16150D02*
G03*
X-167323Y24685I-8535J8535D01*
G01*
X162402Y29606D02*
G03*
X165937Y21071I12071J0D01*
G01*
X-163787Y186606D02*
G03*
X-167323Y178071I8535J-8535D01*
G01*
X-132795Y212598D02*
G03*
X-141331Y209063I0J-12071D01*
G01*
X141331D02*
G03*
X132795Y212598I-8535J-8535D01*
G01*
X162402Y182992D02*
G03*
X158866Y191528I-12071J0D01*
G01*
X30512Y146654D02*
X30512Y157481D01*
X3937Y146733D02*
Y182705D01*
X8937Y141733D02*
X25512D01*
X-30512Y157480D02*
X-30512Y146653D01*
X-3937Y146732D02*
Y182704D01*
X-25512Y141732D02*
X-8937D01*
X30512Y118110D02*
Y128937D01*
X3937Y92886D02*
Y128858D01*
X8937Y133858D02*
X25512D01*
X-25512D02*
X-8937D01*
X-3937Y92886D02*
Y128858D01*
X-30512Y118110D02*
Y128937D01*
X194882Y-196850D02*
X194882Y3938D01*
X180197Y11811D02*
X187009D01*
X-187009Y-204724D02*
X187009D01*
X-194882Y-196850D02*
X-194882Y3938D01*
X-187009Y11811D02*
X-180197D01*
X-171661Y15347D02*
X-171260Y15748D01*
X171260D02*
X171661Y15347D01*
X-171260Y15748D02*
X-170858Y16150D01*
X-167323Y24685D02*
Y31575D01*
X165937Y21071D02*
X171260Y15748D01*
X162402Y29606D02*
Y29766D01*
X-167323Y31575D02*
Y178071D01*
X-163787Y186606D02*
X-141331Y209063D01*
X-132795Y212598D02*
X132795D01*
X141331Y209063D02*
X158866Y191528D01*
X162402Y29766D02*
Y182992D01*
D95*
X60055Y78740D02*
G03*
X60055Y78740I-1000J0D01*
G01*
X-58055D02*
G03*
X-58055Y78740I-1000J0D01*
G01*
X-134843Y58055D02*
X-133843Y60055D01*
X-135843D02*
X-133843D01*
X-135843D02*
X-134843Y58055D01*
X-158858Y42702D02*
X-157858Y44702D01*
X-159858D02*
X-157858D01*
X-159858D02*
X-158858Y42702D01*
X-86956Y81729D02*
X-85956Y83729D01*
X-87956D02*
X-85956D01*
X-87956D02*
X-86956Y81729D01*
X-80067Y84091D02*
X-79067Y86091D01*
X-81067D02*
X-79067D01*
X-81067D02*
X-80067Y84091D01*
X-74556Y78580D02*
X-73556Y80580D01*
X-75556D02*
X-73556D01*
X-75556D02*
X-74556Y78580D01*
X-81694Y95456D02*
X-80694Y97456D01*
X-82694D02*
X-80694D01*
X-82694D02*
X-81694Y95456D01*
X-111220Y95457D02*
X-110220Y97457D01*
X-112220D02*
X-110220D01*
X-112220D02*
X-111220Y95457D01*
X-110236Y56086D02*
X-109236Y58086D01*
X-111236D02*
X-109236D01*
X-111236D02*
X-110236Y56086D01*
X-98425Y68882D02*
X-97425Y70882D01*
X-99425D02*
X-97425D01*
X-99425D02*
X-98425Y68882D01*
X-110678Y67898D02*
X-109678Y69898D01*
X-111678D02*
X-109678D01*
X-111678D02*
X-110678Y67898D01*
X-103475Y78064D02*
X-102475Y80064D01*
X-104475D02*
X-102475D01*
X-104475D02*
X-103475Y78064D01*
X-122590Y-166355D02*
X-121590Y-164355D01*
X-123590D02*
X-121590D01*
X-123590D02*
X-122590Y-166355D01*
X-148574Y-104151D02*
X-147574Y-102151D01*
X-149574D02*
X-147574D01*
X-149574D02*
X-148574Y-104151D01*
X-18653Y-135253D02*
X-17653Y-133253D01*
X-19653D02*
X-17653D01*
X-19653D02*
X-18653Y-135253D01*
X85284Y-104151D02*
X86284Y-102151D01*
X84284D02*
X86284D01*
X84284D02*
X85284Y-104151D01*
X-44637Y-73048D02*
X-43637Y-71048D01*
X-45637D02*
X-43637D01*
X-45637D02*
X-44637Y-73048D01*
X59300Y-41946D02*
X60300Y-39946D01*
X58300D02*
X60300D01*
X58300D02*
X59300Y-41946D01*
X98425Y-96472D02*
X99425Y-94472D01*
X97425D02*
X99425D01*
X97425D02*
X98425Y-96472D01*
X163237Y-166355D02*
X164237Y-164355D01*
X162237D02*
X164237D01*
X162237D02*
X163237Y-166355D01*
X142574Y-8467D02*
X143574Y-6467D01*
X141574D02*
X143574D01*
X141574D02*
X142574Y-8467D01*
X-44637Y-135253D02*
X-43637Y-133253D01*
X-45637D02*
X-43637D01*
X-45637D02*
X-44637Y-135253D01*
X-17717Y-176197D02*
X-16716Y-174197D01*
X-18717D02*
X-16716D01*
X-18717D02*
X-17717Y-176197D01*
X-70621Y-73048D02*
X-69621Y-71048D01*
X-71621D02*
X-69621D01*
X-71621D02*
X-70621Y-73048D01*
X33316Y-41946D02*
X34316Y-39946D01*
X32316D02*
X34316D01*
X32316D02*
X33316Y-41946D01*
X59300Y-104151D02*
X60300Y-102151D01*
X58300D02*
X60300D01*
X58300D02*
X59300Y-104151D01*
X137253Y-166355D02*
X138253Y-164355D01*
X136253D02*
X138253D01*
X136253D02*
X137253Y-166355D01*
X63976Y-121079D02*
X64976Y-119079D01*
X62976D02*
X64976D01*
X62976D02*
X63976Y-121079D01*
X163237Y-73048D02*
X164237Y-71048D01*
X162237D02*
X164237D01*
X162237D02*
X163237Y-73048D01*
X104484Y-8467D02*
X105484Y-6467D01*
X103484D02*
X105484D01*
X103484D02*
X104484Y-8467D01*
X119103Y-8521D02*
X120103Y-6521D01*
X118103D02*
X120103D01*
X118103D02*
X119103Y-8521D01*
X-70621Y-135253D02*
X-69621Y-133253D01*
X-71621D02*
X-69621D01*
X-71621D02*
X-70621Y-135253D01*
X-96606Y-73048D02*
X-95606Y-71048D01*
X-97606D02*
X-95606D01*
X-97606D02*
X-96606Y-73048D01*
X33316Y-104151D02*
X34316Y-102151D01*
X32316D02*
X34316D01*
X32316D02*
X33316Y-104151D01*
X7331Y-41946D02*
X8331Y-39946D01*
X6331D02*
X8331D01*
X6331D02*
X7331Y-41946D01*
X66393Y-8467D02*
X67393Y-6466D01*
X65393D02*
X67393D01*
X65393D02*
X66393Y-8467D01*
X81013Y-8521D02*
X82013Y-6521D01*
X80013D02*
X82013D01*
X80013D02*
X81013Y-8521D01*
X111268Y-166355D02*
X112268Y-164355D01*
X110268D02*
X112268D01*
X110268D02*
X111268Y-166355D01*
X163237Y-135253D02*
X164237Y-133253D01*
X162237D02*
X164237D01*
X162237D02*
X163237Y-135253D01*
X137253Y-73048D02*
X138253Y-71048D01*
X136253D02*
X138253D01*
X136253D02*
X137253Y-73048D01*
X-96606Y-135253D02*
X-95606Y-133253D01*
X-97606D02*
X-95606D01*
X-97606D02*
X-96606Y-135253D01*
X7331Y-104151D02*
X8331Y-102151D01*
X6331D02*
X8331D01*
X6331D02*
X7331Y-104151D01*
X-122590Y-73048D02*
X-121590Y-71048D01*
X-123590D02*
X-121590D01*
X-123590D02*
X-122590Y-73048D01*
Y-63992D02*
X-121590Y-61992D01*
X-123590D02*
X-121590D01*
X-123590D02*
X-122590Y-63992D01*
X-18653Y-41946D02*
X-17653Y-39946D01*
X-19653D02*
X-17653D01*
X-19653D02*
X-18653Y-41946D01*
X-15748Y-63992D02*
X-14748Y-61992D01*
X-16748D02*
X-14748D01*
X-16748D02*
X-15748Y-63992D01*
X42922Y-8521D02*
X43922Y-6521D01*
X41922D02*
X43922D01*
X41922D02*
X42922Y-8521D01*
X85284Y-166355D02*
X86284Y-164355D01*
X84284D02*
X86284D01*
X84284D02*
X85284Y-166355D01*
X137253Y-135253D02*
X138253Y-133253D01*
X136253D02*
X138253D01*
X136253D02*
X137253Y-135253D01*
X111268Y-73048D02*
X112268Y-71048D01*
X110268D02*
X112268D01*
X110268D02*
X111268Y-73048D01*
X96649Y-72994D02*
X97649Y-70994D01*
X95649D02*
X97649D01*
X95649D02*
X96649Y-72994D01*
X-148574Y-73048D02*
X-147574Y-71048D01*
X-149574D02*
X-147574D01*
X-149574D02*
X-148574Y-73048D01*
X-122590Y-135253D02*
X-121590Y-133253D01*
X-123590D02*
X-121590D01*
X-123590D02*
X-122590Y-135253D01*
X-44637Y-41946D02*
X-43637Y-39946D01*
X-45637D02*
X-43637D01*
X-45637D02*
X-44637Y-41946D01*
X-28239Y-8521D02*
X-27239Y-6521D01*
X-29239D02*
X-27239D01*
X-29239D02*
X-28239Y-8521D01*
X46308Y-166355D02*
X47308Y-164355D01*
X45308D02*
X47308D01*
X45308D02*
X46308Y-166355D01*
X111268Y-135253D02*
X112268Y-133253D01*
X110268D02*
X112268D01*
X110268D02*
X111268Y-135253D01*
X-18653Y-104151D02*
X-17653Y-102151D01*
X-19653D02*
X-17653D01*
X-19653D02*
X-18653Y-104151D01*
X85284Y-73048D02*
X86284Y-71048D01*
X84284D02*
X86284D01*
X84284D02*
X85284Y-73048D01*
X77953Y-173444D02*
X78953Y-171444D01*
X76953D02*
X78953D01*
X76953D02*
X77953Y-173444D01*
X103937D02*
X104937Y-171444D01*
X102937D02*
X104937D01*
X102937D02*
X103937Y-173444D01*
X-77953Y-173441D02*
X-76953Y-171441D01*
X-78953D02*
X-76953D01*
X-78953D02*
X-77953Y-173441D01*
X-38976Y-173444D02*
X-37976Y-171444D01*
X-39976D02*
X-37976D01*
X-39976D02*
X-38976Y-173444D01*
X0D02*
X1000Y-171444D01*
X-1000D02*
X1000D01*
X-1000D02*
X0Y-173444D01*
X38976D02*
X39976Y-171444D01*
X37976D02*
X39976D01*
X37976D02*
X38976Y-173444D01*
X129921D02*
X130921Y-171444D01*
X128921D02*
X130921D01*
X128921D02*
X129921Y-173444D01*
X155905D02*
X156905Y-171444D01*
X154905D02*
X156905D01*
X154905D02*
X155905Y-173444D01*
X-122590Y-104151D02*
X-121590Y-102151D01*
X-123590D02*
X-121590D01*
X-123590D02*
X-122590Y-104151D01*
X-96606Y-166355D02*
X-95606Y-164355D01*
X-97606D02*
X-95606D01*
X-97606D02*
X-96606Y-166355D01*
X7331Y-135253D02*
X8331Y-133253D01*
X6331D02*
X8331D01*
X6331D02*
X7331Y-135253D01*
X-148574Y-41946D02*
X-147574Y-39946D01*
X-149574D02*
X-147574D01*
X-149574D02*
X-148574Y-41946D01*
X-18653Y-73048D02*
X-17653Y-71048D01*
X-19653D02*
X-17653D01*
X-19653D02*
X-18653Y-73048D01*
X111268Y-104151D02*
X112268Y-102151D01*
X110268D02*
X112268D01*
X110268D02*
X111268Y-104151D01*
X85284Y-41946D02*
X86284Y-39946D01*
X84284D02*
X86284D01*
X84284D02*
X85284Y-41946D01*
X-155905Y-80134D02*
X-154905Y-78134D01*
X-156905D02*
X-154905D01*
X-156905D02*
X-155905Y-80134D01*
X-103937D02*
X-102937Y-78134D01*
X-104937D02*
X-102937D01*
X-104937D02*
X-103937Y-80134D01*
X-129921D02*
X-128921Y-78134D01*
X-130921D02*
X-128921D01*
X-130921D02*
X-129921Y-80134D01*
X-77953D02*
X-76953Y-78134D01*
X-78953D02*
X-76953D01*
X-78953D02*
X-77953Y-80134D01*
X-25984D02*
X-24984Y-78134D01*
X-26984D02*
X-24984D01*
X-26984D02*
X-25984Y-80134D01*
X-51968D02*
X-50968Y-78134D01*
X-52969D02*
X-50968D01*
X-52969D02*
X-51968Y-80134D01*
X103937Y-49031D02*
X104937Y-47032D01*
X102937D02*
X104937D01*
X102937D02*
X103937Y-49031D01*
X155905D02*
X156905Y-47032D01*
X154905D02*
X156905D01*
X154905D02*
X155905Y-49031D01*
X129921D02*
X130921Y-47032D01*
X128921D02*
X130921D01*
X128921D02*
X129921Y-49031D01*
X-129921Y-111236D02*
X-128921Y-109236D01*
X-130921D02*
X-128921D01*
X-130921D02*
X-129921Y-111236D01*
X-155905D02*
X-154905Y-109236D01*
X-156905D02*
X-154905D01*
X-156905D02*
X-155905Y-111236D01*
X0Y-80134D02*
X1000Y-78134D01*
X-1000D02*
X1000D01*
X-1000D02*
X0Y-80134D01*
X51968D02*
X52969Y-78134D01*
X50968D02*
X52969D01*
X50968D02*
X51968Y-80134D01*
X103937D02*
X104937Y-78134D01*
X102937D02*
X104937D01*
X102937D02*
X103937Y-80134D01*
X77953D02*
X78953Y-78134D01*
X76953D02*
X78953D01*
X76953D02*
X77953Y-80134D01*
X25984D02*
X26984Y-78134D01*
X24984D02*
X26984D01*
X24984D02*
X25984Y-80134D01*
X129921D02*
X130921Y-78134D01*
X128921D02*
X130921D01*
X128921D02*
X129921Y-80134D01*
X155905D02*
X156905Y-78134D01*
X154905D02*
X156905D01*
X154905D02*
X155905Y-80134D01*
X0Y-111236D02*
X1000Y-109236D01*
X-1000D02*
X1000D01*
X-1000D02*
X0Y-111236D01*
X25984D02*
X26984Y-109236D01*
X24984D02*
X26984D01*
X24984D02*
X25984Y-111236D01*
X77953D02*
X78953Y-109236D01*
X76953D02*
X78953D01*
X76953D02*
X77953Y-111236D01*
X51968D02*
X52969Y-109236D01*
X50968D02*
X52969D01*
X50968D02*
X51968Y-111236D01*
X-103937D02*
X-102937Y-109236D01*
X-104937D02*
X-102937D01*
X-104937D02*
X-103937Y-111236D01*
X-51968D02*
X-50968Y-109236D01*
X-52969D02*
X-50968D01*
X-52969D02*
X-51968Y-111236D01*
X-77953D02*
X-76953Y-109236D01*
X-78953D02*
X-76953D01*
X-78953D02*
X-77953Y-111236D01*
X-25984D02*
X-24984Y-109236D01*
X-26984D02*
X-24984D01*
X-26984D02*
X-25984Y-111236D01*
X103937D02*
X104937Y-109236D01*
X102937D02*
X104937D01*
X102937D02*
X103937Y-111236D01*
X-129921Y-142339D02*
X-128921Y-140339D01*
X-130921D02*
X-128921D01*
X-130921D02*
X-129921Y-142339D01*
X-77953D02*
X-76953Y-140339D01*
X-78953D02*
X-76953D01*
X-78953D02*
X-77953Y-142339D01*
X-103937D02*
X-102937Y-140339D01*
X-104937D02*
X-102937D01*
X-104937D02*
X-103937Y-142339D01*
X-51968D02*
X-50968Y-140339D01*
X-52969D02*
X-50968D01*
X-52969D02*
X-51968Y-142339D01*
X0D02*
X1000Y-140339D01*
X-1000D02*
X1000D01*
X-1000D02*
X0Y-142339D01*
X-25984D02*
X-24984Y-140339D01*
X-26984D02*
X-24984D01*
X-26984D02*
X-25984Y-142339D01*
X-155905D02*
X-154905Y-140339D01*
X-156905D02*
X-154905D01*
X-156905D02*
X-155905Y-142339D01*
X129921Y-111236D02*
X130921Y-109236D01*
X128921D02*
X130921D01*
X128921D02*
X129921Y-111236D01*
X155905D02*
X156905Y-109236D01*
X154905D02*
X156905D01*
X154905D02*
X155905Y-111236D01*
X-129921Y-173441D02*
X-128921Y-171441D01*
X-130921D02*
X-128921D01*
X-130921D02*
X-129921Y-173441D01*
X-155905D02*
X-154905Y-171441D01*
X-156905D02*
X-154905D01*
X-156905D02*
X-155905Y-173441D01*
X-103937D02*
X-102937Y-171441D01*
X-104937D02*
X-102937D01*
X-104937D02*
X-103937Y-173441D01*
X51968Y-142339D02*
X52969Y-140339D01*
X50968D02*
X52969D01*
X50968D02*
X51968Y-142339D01*
X25984D02*
X26984Y-140339D01*
X24984D02*
X26984D01*
X24984D02*
X25984Y-142339D01*
X103937D02*
X104937Y-140339D01*
X102937D02*
X104937D01*
X102937D02*
X103937Y-142339D01*
X129921D02*
X130921Y-140339D01*
X128921D02*
X130921D01*
X128921D02*
X129921Y-142339D01*
X77953D02*
X78953Y-140339D01*
X76953D02*
X78953D01*
X76953D02*
X77953Y-142339D01*
X155905D02*
X156905Y-140339D01*
X154905D02*
X156905D01*
X154905D02*
X155905Y-142339D01*
X-96606Y-104151D02*
X-95606Y-102151D01*
X-97606D02*
X-95606D01*
X-97606D02*
X-96606Y-104151D01*
X-70621Y-166355D02*
X-69621Y-164355D01*
X-71621D02*
X-69621D01*
X-71621D02*
X-70621Y-166355D01*
X-142511Y-8521D02*
X-141511Y-6521D01*
X-143511D02*
X-141511D01*
X-143511D02*
X-142511Y-8521D01*
X-122590Y-41946D02*
X-121590Y-39946D01*
X-123590D02*
X-121590D01*
X-123590D02*
X-122590Y-41946D01*
X7331Y-73048D02*
X8331Y-71048D01*
X6331D02*
X8331D01*
X6331D02*
X7331Y-73048D01*
X33316Y-135253D02*
X34316Y-133253D01*
X32316D02*
X34316D01*
X32316D02*
X33316Y-135253D01*
X12795Y-116157D02*
X13795Y-114157D01*
X11795D02*
X13795D01*
X11795D02*
X12795Y-116157D01*
X137253Y-104151D02*
X138253Y-102151D01*
X136253D02*
X138253D01*
X136253D02*
X137253Y-104151D01*
X111268Y-41946D02*
X112268Y-39946D01*
X110268D02*
X112268D01*
X110268D02*
X111268Y-41946D01*
X-70621Y-104151D02*
X-69621Y-102151D01*
X-71621D02*
X-69621D01*
X-71621D02*
X-70621Y-104151D01*
X-31645Y-166355D02*
X-30645Y-164355D01*
X-32645D02*
X-30645D01*
X-32645D02*
X-31645Y-166355D01*
X-96606Y-41946D02*
X-95606Y-39946D01*
X-97606D02*
X-95606D01*
X-97606D02*
X-96606Y-41946D01*
X-104420Y-8521D02*
X-103420Y-6521D01*
X-105420D02*
X-103420D01*
X-105420D02*
X-104420Y-8521D01*
X33316Y-73048D02*
X34316Y-71048D01*
X32316D02*
X34316D01*
X32316D02*
X33316Y-73048D01*
X59300Y-135253D02*
X60300Y-133253D01*
X58300D02*
X60300D01*
X58300D02*
X59300Y-135253D01*
X163237Y-104151D02*
X164237Y-102151D01*
X162237D02*
X164237D01*
X162237D02*
X163237Y-104151D01*
X137253Y-41946D02*
X138253Y-39946D01*
X136253D02*
X138253D01*
X136253D02*
X137253Y-41946D01*
X148617Y-104096D02*
X149617Y-102096D01*
X147617D02*
X149617D01*
X147617D02*
X148617Y-104096D01*
X167323Y-96472D02*
X168323Y-94472D01*
X166323D02*
X168323D01*
X166323D02*
X167323Y-96472D01*
X-148574Y-135253D02*
X-147574Y-133253D01*
X-149574D02*
X-147574D01*
X-149574D02*
X-148574Y-135253D01*
X-44637Y-104151D02*
X-43637Y-102151D01*
X-45637D02*
X-43637D01*
X-45637D02*
X-44637Y-104151D01*
X7332Y-166355D02*
X8331Y-164355D01*
X6331D02*
X8331D01*
X6331D02*
X7332Y-166355D01*
X-70621Y-41946D02*
X-69621Y-39946D01*
X-71621D02*
X-69621D01*
X-71621D02*
X-70621Y-41946D01*
X-66330Y-8521D02*
X-65330Y-6521D01*
X-67330D02*
X-65330D01*
X-67330D02*
X-66330Y-8521D01*
X59300Y-73048D02*
X60300Y-71048D01*
X58300D02*
X60300D01*
X58300D02*
X59300Y-73048D01*
X64961Y-146669D02*
X65961Y-144669D01*
X63961D02*
X65961D01*
X63961D02*
X64961Y-146669D01*
X85284Y-135253D02*
X86284Y-133253D01*
X84284D02*
X86284D01*
X84284D02*
X85284Y-135253D01*
X62992Y-62024D02*
X63992Y-60024D01*
X61992D02*
X63992D01*
X61992D02*
X62992Y-62024D01*
X-155905Y-49031D02*
X-154905Y-47032D01*
X-156905D02*
X-154905D01*
X-156905D02*
X-155905Y-49031D01*
X-149843Y-15606D02*
X-148843Y-13606D01*
X-150842D02*
X-148843D01*
X-150842D02*
X-149843Y-15606D01*
X-73661D02*
X-72661Y-13606D01*
X-74661D02*
X-72661D01*
X-74661D02*
X-73661Y-15606D01*
X-111752D02*
X-110752Y-13606D01*
X-112752D02*
X-110752D01*
X-112752D02*
X-111752Y-15606D01*
X-35571D02*
X-34571Y-13606D01*
X-36571D02*
X-34571D01*
X-36571D02*
X-35571Y-15606D01*
X73681D02*
X74681Y-13606D01*
X72681D02*
X74681D01*
X72681D02*
X73681Y-15606D01*
X35591D02*
X36591Y-13606D01*
X34591D02*
X36591D01*
X34591D02*
X35591Y-15606D01*
X111772D02*
X112772Y-13606D01*
X110772D02*
X112772D01*
X110772D02*
X111772Y-15606D01*
X149862D02*
X150862Y-13606D01*
X148862D02*
X150862D01*
X148862D02*
X149862Y-15606D01*
X-25984Y-49031D02*
X-24984Y-47032D01*
X-26984D02*
X-24984D01*
X-26984D02*
X-25984Y-49031D01*
X0D02*
X1000Y-47032D01*
X-1000D02*
X1000D01*
X-1000D02*
X0Y-49031D01*
X25984D02*
X26984Y-47032D01*
X24984D02*
X26984D01*
X24984D02*
X25984Y-49031D01*
X-129921D02*
X-128921Y-47032D01*
X-130921D02*
X-128921D01*
X-130921D02*
X-129921Y-49031D01*
X-77953D02*
X-76953Y-47032D01*
X-78953D02*
X-76953D01*
X-78953D02*
X-77953Y-49031D01*
X-103937D02*
X-102937Y-47032D01*
X-104937D02*
X-102937D01*
X-104937D02*
X-103937Y-49031D01*
X-51968D02*
X-50968Y-47032D01*
X-52969D02*
X-50968D01*
X-52969D02*
X-51968Y-49031D01*
X51968D02*
X52969Y-47032D01*
X50968D02*
X52969D01*
X50968D02*
X51968Y-49031D01*
X77953D02*
X78953Y-47032D01*
X76953D02*
X78953D01*
X76953D02*
X77953Y-49031D01*
X79724Y134827D02*
X80724Y136827D01*
X78724D02*
X80724D01*
X78724D02*
X79724Y134827D01*
X85137Y145653D02*
X86137Y147653D01*
X84137D02*
X86137D01*
X84137D02*
X85137Y145653D01*
X91535Y127937D02*
X92535Y129937D01*
X90535D02*
X92535D01*
X90535D02*
X91535Y127937D01*
X87598Y45260D02*
X88598Y47260D01*
X86598D02*
X88598D01*
X86598D02*
X87598Y45260D01*
X90551Y18685D02*
X91551Y20685D01*
X89551D02*
X91551D01*
X89551D02*
X90551Y18685D01*
X65945D02*
X66945Y20685D01*
X64945D02*
X66945D01*
X64945D02*
X65945Y18685D01*
X179134Y969D02*
X180134Y2968D01*
X178134D02*
X180134D01*
X178134D02*
X179134Y969D01*
X152559D02*
X153559Y2968D01*
X151559D02*
X153559D01*
X151559D02*
X152559Y969D01*
X90551Y11795D02*
X91551Y13795D01*
X89551D02*
X91551D01*
X89551D02*
X90551Y11795D01*
X66929D02*
X67929Y13795D01*
X65929D02*
X67929D01*
X65929D02*
X66929Y11795D01*
X117126Y165339D02*
X118126Y167339D01*
X116126D02*
X118126D01*
X116126D02*
X117126Y165339D01*
X120079Y162386D02*
X121079Y164386D01*
X119079D02*
X121079D01*
X119079D02*
X120079Y162386D01*
X123031Y153528D02*
X124031Y155528D01*
X122031D02*
X124031D01*
X122031D02*
X123031Y153528D01*
X125984Y150575D02*
X126984Y152575D01*
X124984D02*
X126984D01*
X124984D02*
X125984Y150575D01*
X79724Y116126D02*
X80724Y118126D01*
X78724D02*
X80724D01*
X78724D02*
X79724Y116126D01*
X81693Y119079D02*
X82693Y121079D01*
X80693D02*
X82693D01*
X80693D02*
X81693Y119079D01*
X79724Y122031D02*
X80724Y124031D01*
X78724D02*
X80724D01*
X78724D02*
X79724Y122031D01*
X76772Y124000D02*
X77772Y126000D01*
X75772D02*
X77772D01*
X75772D02*
X76772Y124000D01*
X112205Y143685D02*
X113205Y145685D01*
X111205D02*
X113205D01*
X111205D02*
X112205Y143685D01*
X91850Y183645D02*
X92850Y185645D01*
X90850D02*
X92850D01*
X90850D02*
X91850Y183645D01*
X131772D02*
X132772Y185645D01*
X130772D02*
X132772D01*
X130772D02*
X131772Y183645D01*
X106299Y178134D02*
X107299Y180134D01*
X105299D02*
X107299D01*
X105299D02*
X106299Y178134D01*
X116732Y193882D02*
X117732Y195882D01*
X115732D02*
X117732D01*
X115732D02*
X116732Y193882D01*
X102362Y182071D02*
X103362Y184071D01*
X101362D02*
X103362D01*
X101362D02*
X102362Y182071D01*
X121260D02*
X122260Y184071D01*
X120260D02*
X122260D01*
X120260D02*
X121260Y182071D01*
X98425Y76756D02*
X99425Y78756D01*
X97425D02*
X99425D01*
X97425D02*
X98425Y76756D01*
X76772Y102347D02*
X77772Y104347D01*
X75772D02*
X77772D01*
X75772D02*
X76772Y102347D01*
X-148638Y36402D02*
X-147638Y36902D01*
X-146638Y36402D01*
X-147138Y37402D02*
X-146638Y36402D01*
X-147138Y37402D02*
X-146638Y38402D01*
X-147638Y37902D02*
X-146638Y38402D01*
X-148638D02*
X-147638Y37902D01*
X-148638Y38402D02*
X-148138Y37402D01*
X-148638Y36402D02*
X-148138Y37402D01*
X146638Y36402D02*
X147638Y36902D01*
X148638Y36402D01*
X148138Y37402D02*
X148638Y36402D01*
X148138Y37402D02*
X148638Y38402D01*
X147638Y37902D02*
X148638Y38402D01*
X146638D02*
X147638Y37902D01*
X146638Y38402D02*
X147138Y37402D01*
X146638Y36402D02*
X147138Y37402D01*
X146638Y178134D02*
X147638Y178634D01*
X148638Y178134D01*
X148138Y179134D02*
X148638Y178134D01*
X148138Y179134D02*
X148638Y180134D01*
X147638Y179634D02*
X148638Y180134D01*
X146638D02*
X147638Y179634D01*
X146638Y180134D02*
X147138Y179134D01*
X146638Y178134D02*
X147138Y179134D01*
X-128953Y197819D02*
X-127953Y198319D01*
X-126953Y197819D01*
X-127453Y198819D02*
X-126953Y197819D01*
X-127453Y198819D02*
X-126953Y199819D01*
X-127953Y199319D02*
X-126953Y199819D01*
X-128953D02*
X-127953Y199319D01*
X-128953Y199819D02*
X-128453Y198819D01*
X-128953Y197819D02*
X-128453Y198819D01*
X184039Y-162417D02*
X185039Y-161917D01*
X186039Y-162417D01*
X185539Y-161417D02*
X186039Y-162417D01*
X185539Y-161417D02*
X186039Y-160417D01*
X185039Y-160917D02*
X186039Y-160417D01*
X184039D02*
X185039Y-160917D01*
X184039Y-160417D02*
X184539Y-161417D01*
X184039Y-162417D02*
X184539Y-161417D01*
X184039Y-18717D02*
X185039Y-18216D01*
X186039Y-18717D01*
X185539Y-17717D02*
X186039Y-18717D01*
X185539Y-17717D02*
X186039Y-16716D01*
X185039Y-17217D02*
X186039Y-16716D01*
X184039D02*
X185039Y-17217D01*
X184039Y-16716D02*
X184539Y-17717D01*
X184039Y-18717D02*
X184539Y-17717D01*
X-186039Y-162417D02*
X-185039Y-161917D01*
X-184039Y-162417D01*
X-184539Y-161417D02*
X-184039Y-162417D01*
X-184539Y-161417D02*
X-184039Y-160417D01*
X-185039Y-160917D02*
X-184039Y-160417D01*
X-186039D02*
X-185039Y-160917D01*
X-186039Y-160417D02*
X-185539Y-161417D01*
X-186039Y-162417D02*
X-185539Y-161417D01*
X-186039Y-18717D02*
X-185039Y-18216D01*
X-184039Y-18717D01*
X-184539Y-17717D02*
X-184039Y-18717D01*
X-184539Y-17717D02*
X-184039Y-16716D01*
X-185039Y-17217D02*
X-184039Y-16716D01*
X-186039D02*
X-185039Y-17217D01*
X-186039Y-16716D02*
X-185539Y-17717D01*
X-186039Y-18717D02*
X-185539Y-17717D01*
X24000Y15653D02*
X26000D01*
Y17653D01*
X24000D02*
X26000D01*
X24000Y15653D02*
Y17653D01*
Y25653D02*
X26000D01*
Y27654D01*
X24000D02*
X26000D01*
X24000Y25653D02*
Y27654D01*
X4000Y15653D02*
X6000D01*
Y17653D01*
X4000D02*
X6000D01*
X4000Y15653D02*
Y17653D01*
Y25653D02*
X6000D01*
Y27654D01*
X4000D02*
X6000D01*
X4000Y25653D02*
Y27654D01*
X14000Y15653D02*
X16000D01*
Y17653D01*
X14000D02*
X16000D01*
X14000Y15653D02*
Y17653D01*
X14000Y25653D02*
X16000D01*
Y27654D01*
X14000D02*
X16000D01*
X14000Y25653D02*
Y27654D01*
X-6000Y25653D02*
X-4000D01*
Y27654D01*
X-6000D02*
X-4000D01*
X-6000Y25653D02*
Y27654D01*
X-6000Y15653D02*
X-4000D01*
Y17653D01*
X-6000D02*
X-4000D01*
X-6000Y15653D02*
Y17653D01*
X-16000Y25653D02*
X-14000D01*
Y27654D01*
X-16000D02*
X-14000D01*
X-16000Y25653D02*
Y27654D01*
Y15653D02*
X-14000D01*
Y17653D01*
X-16000D02*
X-14000D01*
X-16000Y15653D02*
Y17653D01*
X-26000Y25653D02*
X-24000D01*
Y27654D01*
X-26000D02*
X-24000D01*
X-26000Y25653D02*
Y27654D01*
Y15653D02*
X-24000D01*
Y17653D01*
X-26000D02*
X-24000D01*
X-26000Y15653D02*
Y17653D01*
X-161433Y58555D02*
X-160933D01*
X-161433D02*
Y59555D01*
X-160933D01*
Y60055D01*
X-159933D01*
Y59555D02*
Y60055D01*
Y59555D02*
X-159433D01*
Y58555D02*
Y59555D01*
X-159933Y58555D02*
X-159433D01*
X-159933Y58055D02*
Y58555D01*
X-160933Y58055D02*
X-159933D01*
X-160933D02*
Y58555D01*
X-102457Y117110D02*
X-100457D01*
Y119110D01*
X-102457D02*
X-100457D01*
X-102457Y117110D02*
Y119110D01*
X-92457Y117110D02*
X-90457D01*
Y119110D01*
X-92457D02*
X-90457D01*
X-92457Y117110D02*
Y119110D01*
X-60055Y196850D02*
X-59055Y195850D01*
X-58055Y196850D01*
X-59055Y197850D02*
X-58055Y196850D01*
X-60055D02*
X-59055Y197850D01*
X58055Y196850D02*
X59055Y195850D01*
X60055Y196850D01*
X59055Y197850D02*
X60055Y196850D01*
X58055D02*
X59055Y197850D01*
X164230Y-190895D02*
X164730Y-191395D01*
X163730Y-190895D02*
X164230D01*
X163730D02*
X164230Y-190395D01*
X163730Y-189895D02*
X164230Y-190395D01*
X163730Y-189895D02*
X164230D01*
X164730Y-189395D01*
X165230Y-189895D01*
X165730D01*
X165230Y-190395D02*
X165730Y-189895D01*
X165230Y-190395D02*
X165730Y-190895D01*
X165230D02*
X165730D01*
X164730Y-191395D02*
X165230Y-190895D01*
X-165495Y3200D02*
X-164995Y2700D01*
X-165995Y3200D02*
X-165495D01*
X-165995D02*
X-165495Y3700D01*
X-165995Y4200D02*
X-165495Y3700D01*
X-165995Y4200D02*
X-165495D01*
X-164995Y4700D01*
X-164495Y4200D01*
X-163995D01*
X-164495Y3700D02*
X-163995Y4200D01*
X-164495Y3700D02*
X-163995Y3200D01*
X-164495D02*
X-163995D01*
X-164995Y2700D02*
X-164495Y3200D01*
X37942Y-95686D02*
Y-95186D01*
X38442Y-94686D01*
X37942Y-94186D02*
X38442Y-94686D01*
X37942Y-94186D02*
Y-93686D01*
X38442D01*
X38942Y-94186D01*
X39442Y-93686D01*
X39942D01*
Y-94186D02*
Y-93686D01*
X39442Y-94686D02*
X39942Y-94186D01*
X39442Y-94686D02*
X39942Y-95186D01*
Y-95686D02*
Y-95186D01*
X39442Y-95686D02*
X39942D01*
X38942Y-95186D02*
X39442Y-95686D01*
X38442D02*
X38942Y-95186D01*
X37942Y-95686D02*
X38442D01*
X-40010D02*
Y-95186D01*
X-39511Y-94686D01*
X-40010Y-94186D02*
X-39511Y-94686D01*
X-40010Y-94186D02*
Y-93686D01*
X-39511D01*
X-39011Y-94186D01*
X-38511Y-93686D01*
X-38010D01*
Y-94186D02*
Y-93686D01*
X-38511Y-94686D02*
X-38010Y-94186D01*
X-38511Y-94686D02*
X-38010Y-95186D01*
Y-95686D02*
Y-95186D01*
X-38511Y-95686D02*
X-38010D01*
X-39011Y-95186D02*
X-38511Y-95686D01*
X-39511D02*
X-39011Y-95186D01*
X-40010Y-95686D02*
X-39511D01*
X99833Y192896D02*
X101033D01*
Y194096D01*
X99833D02*
X101033D01*
X99833Y192896D02*
Y194096D01*
X99433Y192496D02*
X101433D01*
Y194496D01*
X99433D02*
X101433D01*
X99433Y192496D02*
Y194496D01*
X122589Y192896D02*
X123789D01*
Y194096D01*
X122589D02*
X123789D01*
X122589Y192896D02*
Y194096D01*
X122189Y192496D02*
X124189D01*
Y194496D01*
X122189D02*
X124189D01*
X122189Y192496D02*
Y194496D01*
D96*
X737722Y167188D02*
Y170966D01*
X739611D01*
X740241Y170337D01*
Y169077D01*
X739611Y168448D01*
X737722D01*
X738982D02*
X740241Y167188D01*
X742130D02*
X743390D01*
X744020Y167818D01*
Y169077D01*
X743390Y169707D01*
X742130D01*
X741501Y169077D01*
Y167818D01*
X742130Y167188D01*
X745279Y169707D02*
Y167818D01*
X745909Y167188D01*
X747798D01*
Y169707D01*
X749687Y170337D02*
Y169707D01*
X749057D01*
X750317D01*
X749687D01*
Y167818D01*
X750317Y167188D01*
X754095D02*
X752836D01*
X752206Y167818D01*
Y169077D01*
X752836Y169707D01*
X754095D01*
X754725Y169077D01*
Y168448D01*
X752206D01*
X758503Y170966D02*
Y167188D01*
X756614D01*
X755984Y167818D01*
Y169077D01*
X756614Y169707D01*
X758503D01*
X763541Y167188D02*
Y170966D01*
X765430D01*
X766060Y170337D01*
Y169077D01*
X765430Y168448D01*
X763541D01*
X767949Y169707D02*
X769208D01*
X769838Y169077D01*
Y167188D01*
X767949D01*
X767319Y167818D01*
X767949Y168448D01*
X769838D01*
X771727Y170337D02*
Y169707D01*
X771097D01*
X772357D01*
X771727D01*
Y167818D01*
X772357Y167188D01*
X774246Y170966D02*
Y167188D01*
Y169077D01*
X774876Y169707D01*
X776135D01*
X776765Y169077D01*
Y167188D01*
X781803Y170966D02*
Y167188D01*
X784321D01*
X787470D02*
X786211D01*
X785581Y167818D01*
Y169077D01*
X786211Y169707D01*
X787470D01*
X788100Y169077D01*
Y168448D01*
X785581D01*
X789359Y167188D02*
Y169707D01*
X791248D01*
X791878Y169077D01*
Y167188D01*
X794397Y165929D02*
X795027D01*
X795656Y166559D01*
Y169707D01*
X793767D01*
X793138Y169077D01*
Y167818D01*
X793767Y167188D01*
X795656D01*
X797545Y170337D02*
Y169707D01*
X796916D01*
X798175D01*
X797545D01*
Y167818D01*
X798175Y167188D01*
X800064Y170966D02*
Y167188D01*
Y169077D01*
X800694Y169707D01*
X801954D01*
X802583Y169077D01*
Y167188D01*
X692066Y170966D02*
Y167188D01*
Y169077D01*
X694585D01*
Y170966D01*
Y167188D01*
X696474D02*
X697733D01*
X698363Y167818D01*
Y169077D01*
X697733Y169707D01*
X696474D01*
X695844Y169077D01*
Y167818D01*
X696474Y167188D01*
X699622D02*
X700882D01*
X700252D01*
Y170966D01*
X699622D01*
X704660Y167188D02*
X703401D01*
X702771Y167818D01*
Y169077D01*
X703401Y169707D01*
X704660D01*
X705290Y169077D01*
Y168448D01*
X702771D01*
X710327Y170966D02*
Y167188D01*
X712846D01*
X715995D02*
X714736D01*
X714106Y167818D01*
Y169077D01*
X714736Y169707D01*
X715995D01*
X716625Y169077D01*
Y168448D01*
X714106D01*
X717884Y167188D02*
Y169707D01*
X719773D01*
X720403Y169077D01*
Y167188D01*
X722922Y165929D02*
X723552D01*
X724181Y166559D01*
Y169707D01*
X722292D01*
X721662Y169077D01*
Y167818D01*
X722292Y167188D01*
X724181D01*
X726070Y170337D02*
Y169707D01*
X725441D01*
X726700D01*
X726070D01*
Y167818D01*
X726700Y167188D01*
X728589Y170966D02*
Y167188D01*
Y169077D01*
X729219Y169707D01*
X730478D01*
X731108Y169077D01*
Y167188D01*
X657744Y170966D02*
X660263D01*
X659003D01*
Y167188D01*
X663411D02*
X662152D01*
X661522Y167818D01*
Y169077D01*
X662152Y169707D01*
X663411D01*
X664041Y169077D01*
Y168448D01*
X661522D01*
X665301Y167188D02*
Y169707D01*
X665930D01*
X666560Y169077D01*
Y167188D01*
Y169077D01*
X667190Y169707D01*
X667819Y169077D01*
Y167188D01*
X669079Y165929D02*
Y169707D01*
X670968D01*
X671598Y169077D01*
Y167818D01*
X670968Y167188D01*
X669079D01*
X672857D02*
X674117D01*
X673487D01*
Y170966D01*
X672857D01*
X676635Y169707D02*
X677895D01*
X678524Y169077D01*
Y167188D01*
X676635D01*
X676006Y167818D01*
X676635Y168448D01*
X678524D01*
X680414Y170337D02*
Y169707D01*
X679784D01*
X681043D01*
X680414D01*
Y167818D01*
X681043Y167188D01*
X684822D02*
X683562D01*
X682933Y167818D01*
Y169077D01*
X683562Y169707D01*
X684822D01*
X685452Y169077D01*
Y168448D01*
X682933D01*
X618384Y167188D02*
Y170966D01*
X620273D01*
X620903Y170337D01*
Y169077D01*
X620273Y168448D01*
X618384D01*
X622792Y169707D02*
X624052D01*
X624682Y169077D01*
Y167188D01*
X622792D01*
X622163Y167818D01*
X622792Y168448D01*
X624682D01*
X628460Y170966D02*
Y167188D01*
X626571D01*
X625941Y167818D01*
Y169077D01*
X626571Y169707D01*
X628460D01*
X636016Y170337D02*
X635387Y170966D01*
X634127D01*
X633498Y170337D01*
Y169707D01*
X634127Y169077D01*
X635387D01*
X636016Y168448D01*
Y167818D01*
X635387Y167188D01*
X634127D01*
X633498Y167818D01*
X637276Y170966D02*
Y167188D01*
Y169077D01*
X637906Y169707D01*
X639165D01*
X639795Y169077D01*
Y167188D01*
X641684Y169707D02*
X642943D01*
X643573Y169077D01*
Y167188D01*
X641684D01*
X641054Y167818D01*
X641684Y168448D01*
X643573D01*
X644833Y165929D02*
Y169707D01*
X646722D01*
X647351Y169077D01*
Y167818D01*
X646722Y167188D01*
X644833D01*
X650500D02*
X649240D01*
X648611Y167818D01*
Y169077D01*
X649240Y169707D01*
X650500D01*
X651130Y169077D01*
Y168448D01*
X648611D01*
X587211Y170966D02*
Y168448D01*
X588471Y167188D01*
X589730Y168448D01*
Y170966D01*
X590989Y167188D02*
X592249D01*
X591619D01*
Y169707D01*
X590989D01*
X594768D02*
X596027D01*
X596657Y169077D01*
Y167188D01*
X594768D01*
X594138Y167818D01*
X594768Y168448D01*
X596657D01*
X597916Y167188D02*
X600435Y169707D01*
X601695Y167188D02*
Y170966D01*
X603584D01*
X604214Y170337D01*
Y169077D01*
X603584Y168448D01*
X601695D01*
X606103Y169707D02*
X607362D01*
X607992Y169077D01*
Y167188D01*
X606103D01*
X605473Y167818D01*
X606103Y168448D01*
X607992D01*
X611770Y170966D02*
Y167188D01*
X609881D01*
X609251Y167818D01*
Y169077D01*
X609881Y169707D01*
X611770D01*
X508363Y170966D02*
Y167188D01*
X510253D01*
X510882Y167818D01*
Y170337D01*
X510253Y170966D01*
X508363D01*
X512142Y169707D02*
Y167188D01*
Y168448D01*
X512771Y169077D01*
X513401Y169707D01*
X514031D01*
X515920Y167188D02*
X517179D01*
X516550D01*
Y169707D01*
X515920D01*
X519068Y167188D02*
X520328D01*
X519698D01*
Y170966D01*
X519068D01*
X522217Y167188D02*
X523477D01*
X522847D01*
Y170966D01*
X522217D01*
X529144D02*
Y167188D01*
X531663D01*
X533552Y169707D02*
X534811D01*
X535441Y169077D01*
Y167188D01*
X533552D01*
X532922Y167818D01*
X533552Y168448D01*
X535441D01*
X536701Y169707D02*
Y167818D01*
X537330Y167188D01*
X539220D01*
Y166559D01*
X538590Y165929D01*
X537960D01*
X539220Y167188D02*
Y169707D01*
X542368Y167188D02*
X541109D01*
X540479Y167818D01*
Y169077D01*
X541109Y169707D01*
X542368D01*
X542998Y169077D01*
Y168448D01*
X540479D01*
X544257Y169707D02*
Y167188D01*
Y168448D01*
X544887Y169077D01*
X545517Y169707D01*
X546146D01*
X551814Y167188D02*
Y170966D01*
X553703D01*
X554333Y170337D01*
Y169077D01*
X553703Y168448D01*
X551814D01*
X556222Y169707D02*
X557481D01*
X558111Y169077D01*
Y167188D01*
X556222D01*
X555592Y167818D01*
X556222Y168448D01*
X558111D01*
X559371Y167188D02*
X560630D01*
X560000D01*
Y169707D01*
X559371D01*
X562519D02*
Y167188D01*
Y168448D01*
X563149Y169077D01*
X563778Y169707D01*
X564408D01*
X469634Y170966D02*
Y167188D01*
Y169077D01*
X472152D01*
Y170966D01*
Y167188D01*
X474042D02*
X475301D01*
X475931Y167818D01*
Y169077D01*
X475301Y169707D01*
X474042D01*
X473412Y169077D01*
Y167818D01*
X474042Y167188D01*
X477190D02*
X478450D01*
X477820D01*
Y170966D01*
X477190D01*
X482228Y167188D02*
X480969D01*
X480339Y167818D01*
Y169077D01*
X480969Y169707D01*
X482228D01*
X482858Y169077D01*
Y168448D01*
X480339D01*
X487895Y170966D02*
X490414D01*
X489155D01*
Y167188D01*
X491674Y169707D02*
Y167818D01*
X492303Y167188D01*
X494193D01*
Y166559D01*
X493563Y165929D01*
X492933D01*
X494193Y167188D02*
Y169707D01*
X495452Y165929D02*
Y169707D01*
X497341D01*
X497971Y169077D01*
Y167818D01*
X497341Y167188D01*
X495452D01*
X501120D02*
X499860D01*
X499230Y167818D01*
Y169077D01*
X499860Y169707D01*
X501120D01*
X501749Y169077D01*
Y168448D01*
X499230D01*
X442868Y167188D02*
Y170966D01*
X444758D01*
X445387Y170337D01*
Y169077D01*
X444758Y168448D01*
X442868D01*
X446647Y167188D02*
X447906D01*
X447276D01*
Y170966D01*
X446647D01*
X450425Y169707D02*
X451685D01*
X452314Y169077D01*
Y167188D01*
X450425D01*
X449795Y167818D01*
X450425Y168448D01*
X452314D01*
X454203Y170337D02*
Y169707D01*
X453574D01*
X454833D01*
X454203D01*
Y167818D01*
X454833Y167188D01*
X458611D02*
X457352D01*
X456722Y167818D01*
Y169077D01*
X457352Y169707D01*
X458611D01*
X459241Y169077D01*
Y168448D01*
X456722D01*
X463019Y170966D02*
Y167188D01*
X461130D01*
X460500Y167818D01*
Y169077D01*
X461130Y169707D01*
X463019D01*
X383962Y170966D02*
Y167188D01*
Y169077D01*
X386480D01*
Y170966D01*
Y167188D01*
X388370D02*
X389629D01*
X390259Y167818D01*
Y169077D01*
X389629Y169707D01*
X388370D01*
X387740Y169077D01*
Y167818D01*
X388370Y167188D01*
X391518D02*
X392778D01*
X392148D01*
Y170966D01*
X391518D01*
X396556Y167188D02*
X395297D01*
X394667Y167818D01*
Y169077D01*
X395297Y169707D01*
X396556D01*
X397186Y169077D01*
Y168448D01*
X394667D01*
X404742Y170337D02*
X404113Y170966D01*
X402853D01*
X402223Y170337D01*
Y169707D01*
X402853Y169077D01*
X404113D01*
X404742Y168448D01*
Y167818D01*
X404113Y167188D01*
X402853D01*
X402223Y167818D01*
X406002Y167188D02*
X407261D01*
X406632D01*
Y169707D01*
X406002D01*
X409150D02*
X411669D01*
X409150Y167188D01*
X411669D01*
X414818D02*
X413558D01*
X412929Y167818D01*
Y169077D01*
X413558Y169707D01*
X414818D01*
X415448Y169077D01*
Y168448D01*
X412929D01*
X354861Y170337D02*
X354232Y170966D01*
X352972D01*
X352343Y170337D01*
Y167818D01*
X352972Y167188D01*
X354232D01*
X354861Y167818D01*
X356751Y167188D02*
X358010D01*
X358640Y167818D01*
Y169077D01*
X358010Y169707D01*
X356751D01*
X356121Y169077D01*
Y167818D01*
X356751Y167188D01*
X359899Y169707D02*
Y167818D01*
X360529Y167188D01*
X362418D01*
Y169707D01*
X363678Y167188D02*
Y169707D01*
X365567D01*
X366196Y169077D01*
Y167188D01*
X368086Y170337D02*
Y169707D01*
X367456D01*
X368715D01*
X368086D01*
Y167818D01*
X368715Y167188D01*
X328096Y170337D02*
X327467Y170966D01*
X326207D01*
X325577Y170337D01*
Y169707D01*
X326207Y169077D01*
X327467D01*
X328096Y168448D01*
Y167818D01*
X327467Y167188D01*
X326207D01*
X325577Y167818D01*
X329356Y169707D02*
Y167818D01*
X329985Y167188D01*
X331875D01*
Y166559D01*
X331245Y165929D01*
X330615D01*
X331875Y167188D02*
Y169707D01*
X333134Y167188D02*
Y169707D01*
X333764D01*
X334394Y169077D01*
Y167188D01*
Y169077D01*
X335023Y169707D01*
X335653Y169077D01*
Y167188D01*
X336912Y170966D02*
Y167188D01*
X338802D01*
X339431Y167818D01*
Y168448D01*
Y169077D01*
X338802Y169707D01*
X336912D01*
X341320Y167188D02*
X342580D01*
X343210Y167818D01*
Y169077D01*
X342580Y169707D01*
X341320D01*
X340691Y169077D01*
Y167818D01*
X341320Y167188D01*
X344469D02*
X345728D01*
X345099D01*
Y170966D01*
X344469D01*
M02*
