G04*
G04 #@! TF.GenerationSoftware,Altium Limited,Altium Designer,26.1.1 (7)*
G04*
G04 Layer_Color=65535*
%FSLAX25Y25*%
%MOIN*%
G70*
G04*
G04 #@! TF.SameCoordinates,D353C328-5B1C-4724-8AFD-A302B20E4265*
G04*
G04*
G04 #@! TF.FilePolarity,Positive*
G04*
G01*
G75*
%ADD10C,0.00984*%
%ADD11C,0.01000*%
%ADD12C,0.01181*%
%ADD13C,0.00591*%
%ADD14C,0.00787*%
%ADD15C,0.00394*%
D10*
X102854Y151575D02*
G03*
X102854Y151575I-492J0D01*
G01*
X75591Y142913D02*
G03*
X75591Y142913I-492J0D01*
G01*
X-104035Y60630D02*
G03*
X-104035Y60630I-492J0D01*
G01*
X-149705Y65354D02*
G03*
X-149705Y65354I-492J0D01*
G01*
D11*
X-170871Y-190395D02*
G03*
X-164965Y-196300I5906J0D01*
G01*
X170635Y3700D02*
G03*
X164730Y9605I-5906J0D01*
G01*
X-164995Y9605D02*
G03*
X-170900Y3700I0J-5906D01*
G01*
X164730Y-196300D02*
G03*
X170635Y-190395I0J5906D01*
G01*
X-170900Y3700D02*
X-170871Y-190395D01*
X170635D02*
X170665Y3700D01*
X-164965Y-196300D02*
X164730D01*
X-164995Y9605D02*
X164730D01*
D12*
X-86845Y109744D02*
G03*
X-86845Y109744I-557J0D01*
G01*
X-87887Y103462D02*
X-83951D01*
X-85919Y105430D02*
Y101494D01*
D13*
X181102Y-181890D02*
Y-180315D01*
X185039Y-181890D02*
Y-180315D01*
X175197Y-181890D02*
Y-180315D01*
X179134Y-181890D02*
Y-180315D01*
X-179134Y-183858D02*
Y-182283D01*
X-175197Y-183858D02*
Y-182283D01*
X-132677Y17717D02*
X-131102D01*
X-132677Y21654D02*
X-131102D01*
X-75591Y17717D02*
X-74016D01*
X-75591Y21654D02*
X-74016D01*
X97638Y17717D02*
X99213D01*
X97638Y21654D02*
X99213D01*
X41535Y17717D02*
X43110D01*
X41535Y21654D02*
X43110D01*
X94685Y51181D02*
X96260D01*
X94685Y55118D02*
X96260D01*
X-185039Y-183858D02*
Y-182283D01*
X-181102Y-183858D02*
Y-182283D01*
X143307Y193110D02*
Y194685D01*
X139370Y193110D02*
Y194685D01*
X84252Y187205D02*
Y188779D01*
X80315Y187205D02*
Y188779D01*
X104134Y136614D02*
X106102D01*
X104134D02*
Y138583D01*
Y150787D02*
Y152756D01*
X106102D01*
X118405Y152854D02*
X120374D01*
Y150886D02*
Y152854D01*
X120276Y136614D02*
Y138583D01*
X118307Y136614D02*
X120276D01*
X64173Y144685D02*
X69685D01*
X64173Y144291D02*
X69685D01*
Y139173D02*
Y146260D01*
X64173Y146260D02*
X64173Y139173D01*
X64173Y143898D02*
X69685Y143898D01*
X68898Y139173D02*
X69685D01*
X64173D02*
X64961D01*
X68898Y146260D02*
X69685D01*
X64173Y146260D02*
X64961Y146260D01*
X87795Y150591D02*
X89370D01*
X87795Y154527D02*
X89370D01*
X93504Y135433D02*
Y136221D01*
X89567Y135433D02*
Y136221D01*
X92126Y144685D02*
X92913Y144685D01*
X92126Y148622D02*
X92913Y148622D01*
X77362D02*
X78150D01*
X77362Y144685D02*
X78150Y144685D01*
X-87598Y60236D02*
Y61811D01*
X-83661Y60236D02*
Y61811D01*
X-105945Y135768D02*
X-86968Y135768D01*
X-84646Y105847D02*
X-80709Y105847D01*
X-84646Y105847D02*
X-84646Y112146D01*
X-80709Y105847D02*
Y122657D01*
X-88779Y112146D02*
X-84646Y112146D01*
X-108268Y112146D02*
X-104134Y112146D01*
X-112205Y105847D02*
Y122657D01*
X-108268Y105847D02*
Y112146D01*
X-112205Y105847D02*
X-108268Y105847D01*
X-155905Y46260D02*
X-155118D01*
X-155905Y50197D02*
X-155118D01*
X-143504Y61024D02*
X-141929D01*
X-143504Y57087D02*
X-141929D01*
X-96260Y59055D02*
X-94685Y59055D01*
X-96260Y55118D02*
X-94685D01*
X-103150D02*
X-101575Y55118D01*
X-103150Y59055D02*
X-101575Y59055D01*
X-76917Y75446D02*
Y76234D01*
X-83217Y75446D02*
X-83217Y76234D01*
X-88925Y74462D02*
X-88925Y75249D01*
X-84988Y74462D02*
X-84988Y75249D01*
X-91536Y85827D02*
X-91535Y87402D01*
X-95473D02*
X-95473Y85827D01*
X-97441D02*
Y87402D01*
X-101378Y85827D02*
Y87402D01*
X-103740Y94488D02*
X-102953Y94488D01*
X-103740Y98425D02*
X-102953Y98425D01*
X-89961Y98425D02*
X-89173Y98425D01*
X-89961Y94488D02*
X-89173Y94488D01*
X184645Y-196849D02*
X181497D01*
Y-195275D01*
X182021Y-194750D01*
X183071D01*
X183596Y-195275D01*
Y-196849D01*
Y-195800D02*
X184645Y-194750D01*
Y-193701D02*
Y-192651D01*
Y-193176D01*
X181497D01*
X182021Y-193701D01*
X181497Y-191077D02*
Y-188978D01*
X182021D01*
X184120Y-191077D01*
X184645D01*
X178740Y-196849D02*
X175591D01*
Y-195275D01*
X176116Y-194750D01*
X177165D01*
X177690Y-195275D01*
Y-196849D01*
Y-195800D02*
X178740Y-194750D01*
Y-193701D02*
Y-192651D01*
Y-193176D01*
X175591D01*
X176116Y-193701D01*
X178740Y-188978D02*
Y-191077D01*
X176641Y-188978D01*
X176116D01*
X175591Y-189502D01*
Y-190552D01*
X176116Y-191077D01*
X-175591Y-198818D02*
X-178740D01*
Y-197243D01*
X-178215Y-196719D01*
X-177165D01*
X-176641Y-197243D01*
Y-198818D01*
Y-197768D02*
X-175591Y-196719D01*
Y-195669D02*
Y-194620D01*
Y-195144D01*
X-178740D01*
X-178215Y-195669D01*
X-178740Y-190946D02*
Y-193045D01*
X-177165D01*
X-177690Y-191996D01*
Y-191471D01*
X-177165Y-190946D01*
X-176116D01*
X-175591Y-191471D01*
Y-192520D01*
X-176116Y-193045D01*
X-135826Y23032D02*
Y26181D01*
X-134251D01*
X-133726Y25656D01*
Y24606D01*
X-134251Y24081D01*
X-135826D01*
X-134776D02*
X-133726Y23032D01*
X-132677D02*
X-131627D01*
X-132152D01*
Y26181D01*
X-132677Y25656D01*
X-128479Y23032D02*
Y26181D01*
X-130053Y24606D01*
X-127954D01*
X-76902Y23032D02*
Y26181D01*
X-75328D01*
X-74803Y25656D01*
Y24606D01*
X-75328Y24081D01*
X-76902D01*
X-75853D02*
X-74803Y23032D01*
X-73754D02*
X-72704D01*
X-73229D01*
Y26181D01*
X-73754Y25656D01*
X94490Y23032D02*
Y26181D01*
X96064D01*
X96588Y25656D01*
Y24606D01*
X96064Y24081D01*
X94490D01*
X95539D02*
X96588Y23032D01*
X97638D02*
X98688D01*
X98163D01*
Y26181D01*
X97638Y25656D01*
X102361Y26181D02*
X101311Y25656D01*
X100262Y24606D01*
Y23557D01*
X100787Y23032D01*
X101836D01*
X102361Y23557D01*
Y24081D01*
X101836Y24606D01*
X100262D01*
X38387Y23032D02*
Y26181D01*
X39961D01*
X40486Y25656D01*
Y24606D01*
X39961Y24081D01*
X38387D01*
X39437D02*
X40486Y23032D01*
X41536D02*
X42585D01*
X42060D01*
Y26181D01*
X41536Y25656D01*
X44159D02*
X44684Y26181D01*
X45734D01*
X46259Y25656D01*
Y25131D01*
X45734Y24606D01*
X45209D01*
X45734D01*
X46259Y24081D01*
Y23557D01*
X45734Y23032D01*
X44684D01*
X44159Y23557D01*
X91537Y57481D02*
Y60629D01*
X93111D01*
X93636Y60105D01*
Y59055D01*
X93111Y58530D01*
X91537D01*
X92586D02*
X93636Y57481D01*
X94685D02*
X95735D01*
X95210D01*
Y60629D01*
X94685Y60105D01*
X97309D02*
X97834Y60629D01*
X98883D01*
X99408Y60105D01*
Y59580D01*
X98883Y59055D01*
X99408Y58530D01*
Y58006D01*
X98883Y57481D01*
X97834D01*
X97309Y58006D01*
Y58530D01*
X97834Y59055D01*
X97309Y59580D01*
Y60105D01*
X97834Y59055D02*
X98883D01*
X98295Y37007D02*
X100394D01*
X99344D01*
Y33859D01*
X101443D02*
X102493D01*
X101968D01*
Y37007D01*
X101443Y36483D01*
X-181497Y-195537D02*
X-184645D01*
Y-193963D01*
X-184120Y-193438D01*
X-183071D01*
X-182546Y-193963D01*
Y-195537D01*
Y-194488D02*
X-181497Y-193438D01*
X-184645Y-190290D02*
Y-192389D01*
X-183071D01*
X-183596Y-191339D01*
Y-190814D01*
X-183071Y-190290D01*
X-182021D01*
X-181497Y-190814D01*
Y-191864D01*
X-182021Y-192389D01*
X148228Y189962D02*
X145079D01*
Y191536D01*
X145604Y192061D01*
X146653D01*
X147178Y191536D01*
Y189962D01*
Y191011D02*
X148228Y192061D01*
Y193111D02*
Y194160D01*
Y193635D01*
X145079D01*
X145604Y193111D01*
Y195734D02*
X145079Y196259D01*
Y197309D01*
X145604Y197833D01*
X147703D01*
X148228Y197309D01*
Y196259D01*
X147703Y195734D01*
X145604D01*
X78346Y184581D02*
X75197D01*
Y186155D01*
X75722Y186680D01*
X76772D01*
X77296Y186155D01*
Y184581D01*
Y185631D02*
X78346Y186680D01*
Y187730D02*
Y188779D01*
Y188254D01*
X75197D01*
X75722Y187730D01*
X78346Y190354D02*
Y191403D01*
Y190878D01*
X75197D01*
X75722Y190354D01*
X90551Y203346D02*
X89502D01*
X90026D01*
Y200722D01*
X89502Y200197D01*
X88977D01*
X88452Y200722D01*
X91601Y200197D02*
X92650D01*
X92125D01*
Y203346D01*
X91601Y202821D01*
X71720Y167388D02*
X71195Y167913D01*
X70146D01*
X69621Y167388D01*
Y166863D01*
X70146Y166339D01*
X71195D01*
X71720Y165814D01*
Y165289D01*
X71195Y164764D01*
X70146D01*
X69621Y165289D01*
X72769Y167913D02*
Y164764D01*
X73819Y165814D01*
X74868Y164764D01*
Y167913D01*
X78017Y164764D02*
X75918D01*
X78017Y166863D01*
Y167388D01*
X77492Y167913D01*
X76443D01*
X75918Y167388D01*
X111549Y159055D02*
Y156431D01*
X112074Y155906D01*
X113124D01*
X113648Y156431D01*
Y159055D01*
X116797D02*
X115747Y158530D01*
X114698Y157480D01*
Y156431D01*
X115223Y155906D01*
X116272D01*
X116797Y156431D01*
Y156956D01*
X116272Y157480D01*
X114698D01*
X64305Y153149D02*
Y150001D01*
X65880D01*
X66404Y150525D01*
Y152624D01*
X65880Y153149D01*
X64305D01*
X67454Y150525D02*
X67979Y150001D01*
X69028D01*
X69553Y150525D01*
Y152624D01*
X69028Y153149D01*
X67979D01*
X67454Y152624D01*
Y152100D01*
X67979Y151575D01*
X69553D01*
X95801Y150985D02*
Y154133D01*
X97376D01*
X97900Y153609D01*
Y152559D01*
X97376Y152034D01*
X95801D01*
X96851D02*
X97900Y150985D01*
X98950Y154133D02*
X101049D01*
Y153609D01*
X98950Y151509D01*
Y150985D01*
X96391Y130381D02*
X95867Y129856D01*
Y128806D01*
X96391Y128282D01*
X98491D01*
X99015Y128806D01*
Y129856D01*
X98491Y130381D01*
X95867Y133529D02*
X96391Y132480D01*
X97441Y131430D01*
X98491D01*
X99015Y131955D01*
Y133005D01*
X98491Y133529D01*
X97966D01*
X97441Y133005D01*
Y131430D01*
X96391Y139239D02*
X95867Y138714D01*
Y137665D01*
X96391Y137140D01*
X98491D01*
X99015Y137665D01*
Y138714D01*
X98491Y139239D01*
Y140289D02*
X99015Y140813D01*
Y141863D01*
X98491Y142388D01*
X96391D01*
X95867Y141863D01*
Y140813D01*
X96391Y140289D01*
X96916D01*
X97441Y140813D01*
Y142388D01*
X77231Y152624D02*
X76706Y153149D01*
X75657D01*
X75132Y152624D01*
Y150525D01*
X75657Y150001D01*
X76706D01*
X77231Y150525D01*
X80380Y153149D02*
X78281D01*
Y151575D01*
X79330Y152100D01*
X79855D01*
X80380Y151575D01*
Y150525D01*
X79855Y150001D01*
X78805D01*
X78281Y150525D01*
X65290Y134448D02*
Y131825D01*
X65814Y131300D01*
X66864D01*
X67389Y131825D01*
Y134448D01*
X70537Y131300D02*
X68438D01*
X70537Y133399D01*
Y133924D01*
X70012Y134448D01*
X68963D01*
X68438Y133924D01*
X-161023Y13845D02*
X-161548Y14370D01*
X-162597D01*
X-163122Y13845D01*
Y13320D01*
X-162597Y12795D01*
X-161548D01*
X-161023Y12270D01*
Y11746D01*
X-161548Y11221D01*
X-162597D01*
X-163122Y11746D01*
X-159974Y14370D02*
Y11221D01*
X-158924Y12270D01*
X-157875Y11221D01*
Y14370D01*
X-156825Y11221D02*
X-155775D01*
X-156300D01*
Y14370D01*
X-156825Y13845D01*
X119423Y-198229D02*
Y-201377D01*
X120998D01*
X121522Y-200853D01*
Y-198754D01*
X120998Y-198229D01*
X119423D01*
X122572Y-198754D02*
X123097Y-198229D01*
X124146D01*
X124671Y-198754D01*
Y-199278D01*
X124146Y-199803D01*
X124671Y-200328D01*
Y-200853D01*
X124146Y-201377D01*
X123097D01*
X122572Y-200853D01*
Y-200328D01*
X123097Y-199803D01*
X122572Y-199278D01*
Y-198754D01*
X123097Y-199803D02*
X124146D01*
X-160104Y69488D02*
Y66864D01*
X-159579Y66339D01*
X-158530D01*
X-158005Y66864D01*
Y69488D01*
X-154857D02*
X-156956D01*
Y67913D01*
X-155906Y68438D01*
X-155381D01*
X-154857Y67913D01*
Y66864D01*
X-155381Y66339D01*
X-156431D01*
X-156956Y66864D01*
X-145340Y62402D02*
Y65551D01*
X-143766D01*
X-143241Y65026D01*
Y63976D01*
X-143766Y63452D01*
X-145340D01*
X-144291D02*
X-143241Y62402D01*
X-140093Y65551D02*
X-141142Y65026D01*
X-142192Y63976D01*
Y62927D01*
X-141667Y62402D01*
X-140618D01*
X-140093Y62927D01*
Y63452D01*
X-140618Y63976D01*
X-142192D01*
X-146194Y49278D02*
X-146719Y49803D01*
X-147768D01*
X-148293Y49278D01*
Y47179D01*
X-147768Y46654D01*
X-146719D01*
X-146194Y47179D01*
X-145144Y49278D02*
X-144620Y49803D01*
X-143570D01*
X-143045Y49278D01*
Y48753D01*
X-143570Y48228D01*
X-143045Y47704D01*
Y47179D01*
X-143570Y46654D01*
X-144620D01*
X-145144Y47179D01*
Y47704D01*
X-144620Y48228D01*
X-145144Y48753D01*
Y49278D01*
X-144620Y48228D02*
X-143570D01*
X112534Y19291D02*
Y16142D01*
X114108D01*
X114633Y16667D01*
Y18766D01*
X114108Y19291D01*
X112534D01*
X115682D02*
X117781D01*
Y18766D01*
X115682Y16667D01*
Y16142D01*
X-70537Y-198229D02*
Y-201377D01*
X-68963D01*
X-68438Y-200853D01*
Y-198754D01*
X-68963Y-198229D01*
X-70537D01*
X-65290D02*
X-66339Y-198754D01*
X-67389Y-199803D01*
Y-200853D01*
X-66864Y-201377D01*
X-65814D01*
X-65290Y-200853D01*
Y-200328D01*
X-65814Y-199803D01*
X-67389D01*
X-117781Y19291D02*
Y16142D01*
X-116207D01*
X-115682Y16667D01*
Y18766D01*
X-116207Y19291D01*
X-117781D01*
X-112534D02*
X-114633D01*
Y17717D01*
X-113583Y18241D01*
X-113058D01*
X-112534Y17717D01*
Y16667D01*
X-113058Y16142D01*
X-114108D01*
X-114633Y16667D01*
X54463Y19291D02*
Y16142D01*
X56037D01*
X56562Y16667D01*
Y18766D01*
X56037Y19291D01*
X54463D01*
X59186Y16142D02*
Y19291D01*
X57611Y17717D01*
X59710D01*
X65290Y-198229D02*
Y-201377D01*
X66864D01*
X67389Y-200853D01*
Y-198754D01*
X66864Y-198229D01*
X65290D01*
X68438Y-198754D02*
X68963Y-198229D01*
X70012D01*
X70537Y-198754D01*
Y-199278D01*
X70012Y-199803D01*
X69488D01*
X70012D01*
X70537Y-200328D01*
Y-200853D01*
X70012Y-201377D01*
X68963D01*
X68438Y-200853D01*
X-125655Y-198229D02*
Y-201377D01*
X-124081D01*
X-123556Y-200853D01*
Y-198754D01*
X-124081Y-198229D01*
X-125655D01*
X-120408Y-201377D02*
X-122507D01*
X-120408Y-199278D01*
Y-198754D01*
X-120932Y-198229D01*
X-121982D01*
X-122507Y-198754D01*
X-60170Y19291D02*
Y16142D01*
X-58596D01*
X-58071Y16667D01*
Y18766D01*
X-58596Y19291D01*
X-60170D01*
X-57021Y16142D02*
X-55972D01*
X-56497D01*
Y19291D01*
X-57021Y18766D01*
X-81364Y59449D02*
Y62598D01*
X-79790D01*
X-79265Y62073D01*
Y61024D01*
X-79790Y60499D01*
X-81364D01*
X-80314D02*
X-79265Y59449D01*
X-76641D02*
Y62598D01*
X-78215Y61024D01*
X-76116D01*
X-105840Y91141D02*
X-107939D01*
Y89567D01*
X-106889D01*
X-107939D01*
Y87993D01*
X-102691D02*
X-104790D01*
X-102691Y90092D01*
Y90617D01*
X-103216Y91141D01*
X-104265D01*
X-104790Y90617D01*
X-87598Y92125D02*
X-89697D01*
Y90551D01*
X-88648D01*
X-89697D01*
Y88977D01*
X-86549D02*
X-85499D01*
X-86024D01*
Y92125D01*
X-86549Y91601D01*
X-109579Y81496D02*
Y78872D01*
X-109055Y78347D01*
X-108005D01*
X-107480Y78872D01*
Y81496D01*
X-106431Y78347D02*
X-105381D01*
X-105906D01*
Y81496D01*
X-106431Y80971D01*
X-105970Y50591D02*
Y53740D01*
X-104396D01*
X-103871Y53215D01*
Y52165D01*
X-104396Y51641D01*
X-105970D01*
X-104921D02*
X-103871Y50591D01*
X-102822Y53215D02*
X-102297Y53740D01*
X-101247D01*
X-100723Y53215D01*
Y52690D01*
X-101247Y52165D01*
X-101772D01*
X-101247D01*
X-100723Y51641D01*
Y51116D01*
X-101247Y50591D01*
X-102297D01*
X-102822Y51116D01*
X-97112Y50591D02*
Y53740D01*
X-95538D01*
X-95013Y53215D01*
Y52165D01*
X-95538Y51641D01*
X-97112D01*
X-96062D02*
X-95013Y50591D01*
X-91864D02*
X-93963D01*
X-91864Y52690D01*
Y53215D01*
X-92389Y53740D01*
X-93439D01*
X-93963Y53215D01*
X-119750Y110630D02*
Y113779D01*
X-118175D01*
X-117651Y113254D01*
Y112205D01*
X-118175Y111680D01*
X-119750D01*
X-116601Y113254D02*
X-116076Y113779D01*
X-115027D01*
X-114502Y113254D01*
Y112730D01*
X-115027Y112205D01*
X-115552D01*
X-115027D01*
X-114502Y111680D01*
Y111155D01*
X-115027Y110630D01*
X-116076D01*
X-116601Y111155D01*
X-119750Y105709D02*
Y108858D01*
X-118175D01*
X-117651Y108333D01*
Y107283D01*
X-118175Y106759D01*
X-119750D01*
X-114502Y105709D02*
X-116601D01*
X-114502Y107808D01*
Y108333D01*
X-115027Y108858D01*
X-116076D01*
X-116601Y108333D01*
X-77690Y97506D02*
X-78215Y98031D01*
X-79264D01*
X-79789Y97506D01*
Y95407D01*
X-79264Y94882D01*
X-78215D01*
X-77690Y95407D01*
X-75066Y94882D02*
Y98031D01*
X-76641Y96457D01*
X-74541D01*
X-115879Y97506D02*
X-116404Y98031D01*
X-117453D01*
X-117978Y97506D01*
Y95407D01*
X-117453Y94882D01*
X-116404D01*
X-115879Y95407D01*
X-114830Y97506D02*
X-114305Y98031D01*
X-113255D01*
X-112731Y97506D01*
Y96982D01*
X-113255Y96457D01*
X-113780D01*
X-113255D01*
X-112731Y95932D01*
Y95407D01*
X-113255Y94882D01*
X-114305D01*
X-114830Y95407D01*
X-29658Y32875D02*
Y36023D01*
X-28084D01*
X-27559Y35498D01*
Y34449D01*
X-28084Y33924D01*
X-29658D01*
X-26509Y32875D02*
X-25460D01*
X-25985D01*
Y36023D01*
X-26509Y35498D01*
X-87533Y86876D02*
X-88057Y87401D01*
X-89107D01*
X-89632Y86876D01*
Y84777D01*
X-89107Y84253D01*
X-88057D01*
X-87533Y84777D01*
X-84384Y84253D02*
X-86483D01*
X-84384Y86352D01*
Y86876D01*
X-84909Y87401D01*
X-85958D01*
X-86483Y86876D01*
X-80315Y89239D02*
X-80840Y89763D01*
X-81889D01*
X-82414Y89239D01*
Y87139D01*
X-81889Y86615D01*
X-80840D01*
X-80315Y87139D01*
X-79265Y86615D02*
X-78216D01*
X-78741D01*
Y89763D01*
X-79265Y89239D01*
D14*
X100492Y38583D02*
Y42520D01*
X90453Y38583D02*
Y42520D01*
X98721Y38583D02*
X100492D01*
X90453D02*
X92224D01*
X80315Y164370D02*
Y168307D01*
X98819Y164370D02*
Y168307D01*
X80905Y175591D02*
X98228D01*
X80905Y157087D02*
X98228D01*
X80512Y129724D02*
Y141929D01*
X78937Y129724D02*
Y141929D01*
Y129724D02*
X80512Y129724D01*
X78937Y141929D02*
X80512Y141929D01*
X117598Y-197378D02*
Y-197181D01*
X102638D02*
X117598D01*
X102638Y-197378D02*
Y-197181D01*
X106083Y-200724D02*
X114154D01*
X-91732Y63189D02*
Y64764D01*
X-93307Y63189D02*
X-91732D01*
Y75000D02*
Y76575D01*
X-93307D02*
X-91732D01*
X-105118D02*
X-103543D01*
X-105118Y75000D02*
Y76575D01*
Y63189D02*
Y64764D01*
Y63189D02*
X-103543D01*
X-164528Y64272D02*
X-157638D01*
X-164528Y53839D02*
Y64272D01*
Y53839D02*
X-157638Y53839D01*
X-114154Y-200725D02*
X-106083D01*
X-117598Y-197378D02*
Y-197182D01*
X-102638D01*
Y-197378D02*
Y-197182D01*
X-59035Y-200725D02*
X-50965D01*
X-62480Y-197378D02*
Y-197182D01*
X-47520D01*
Y-197378D02*
Y-197182D01*
X51201Y-200725D02*
X59272D01*
X47756Y-197378D02*
Y-197182D01*
X62717D01*
Y-197378D02*
Y-197182D01*
X-119114Y14236D02*
X-111043D01*
X-107598Y10692D02*
Y10889D01*
X-122559Y10692D02*
X-107598D01*
X-122559D02*
X-122559Y10889D01*
X-61634Y14236D02*
X-53563D01*
X-50118Y10692D02*
Y10889D01*
X-65079Y10692D02*
X-50118Y10692D01*
X-65079Y10692D02*
Y10889D01*
X110846Y14236D02*
X118917D01*
X122362Y10692D02*
Y10889D01*
X107402Y10692D02*
X122362D01*
X107402Y10889D02*
X107402Y10692D01*
X53366Y14236D02*
X61437D01*
X64882Y10692D02*
Y10889D01*
X49921Y10692D02*
X64882D01*
X49921D02*
Y10889D01*
X30000Y11654D02*
Y31653D01*
X-30000Y11654D02*
Y31653D01*
X30000D01*
X-30000Y11654D02*
X30000Y11654D01*
D15*
X129409Y196467D02*
Y203947D01*
Y211782D02*
Y218120D01*
X94213Y211782D02*
Y218120D01*
Y196467D02*
Y203947D01*
Y218120D02*
X129409D01*
X25512Y141733D02*
G03*
X30512Y146733I0J5000D01*
G01*
X8152Y186919D02*
G03*
X3937Y182705I0J-4215D01*
G01*
X30512Y157481D02*
G03*
X8143Y186886I-30512J0D01*
G01*
X-30512Y146732D02*
G03*
X-25512Y141732I5000J0D01*
G01*
X-3937Y182704D02*
G03*
X-8152Y186919I-4215J0D01*
G01*
X-8143Y186886D02*
G03*
X-30512Y157480I8143J-29405D01*
G01*
X30512Y128858D02*
G03*
X25512Y133858I-5000J0D01*
G01*
X3937Y92886D02*
G03*
X8152Y88672I4215J0D01*
G01*
X8143Y88705D02*
G03*
X30512Y118110I-8143J29405D01*
G01*
X-30512D02*
G03*
X-8143Y88705I30512J0D01*
G01*
X-8152Y88672D02*
G03*
X-3937Y92886I0J4215D01*
G01*
X-25512Y133858D02*
G03*
X-30512Y128858I0J-5000D01*
G01*
X8937Y133858D02*
G03*
X3937Y128858I0J-5000D01*
G01*
X-3937D02*
G03*
X-8937Y133858I-5000J0D01*
G01*
X3937Y146733D02*
G03*
X8937Y141733I5000J0D01*
G01*
X-8937Y141732D02*
G03*
X-3937Y146732I0J5000D01*
G01*
X194883Y3937D02*
G03*
X187008Y11812I-7875J0D01*
G01*
Y-204725D02*
G03*
X194883Y-196850I0J7875D01*
G01*
X-194883D02*
G03*
X-187008Y-204725I7875J0D01*
G01*
Y11812D02*
G03*
X-194883Y3937I0J-7875D01*
G01*
X-180197Y11811D02*
G03*
X-171661Y15347I0J12071D01*
G01*
X171661D02*
G03*
X180197Y11811I8535J8535D01*
G01*
X-170858Y16150D02*
G03*
X-167323Y24685I-8535J8535D01*
G01*
X162402Y29606D02*
G03*
X165937Y21071I12071J0D01*
G01*
X-163787Y186606D02*
G03*
X-167323Y178071I8535J-8535D01*
G01*
X-132795Y212598D02*
G03*
X-141331Y209063I0J-12071D01*
G01*
X141331D02*
G03*
X132795Y212598I-8535J-8535D01*
G01*
X162402Y182992D02*
G03*
X158866Y191528I-12071J0D01*
G01*
X30512Y146654D02*
X30512Y157481D01*
X3937Y146733D02*
Y182705D01*
X8937Y141733D02*
X25512D01*
X-30512Y157480D02*
X-30512Y146653D01*
X-3937Y146732D02*
Y182704D01*
X-25512Y141732D02*
X-8937D01*
X30512Y118110D02*
Y128937D01*
X3937Y92886D02*
Y128858D01*
X8937Y133858D02*
X25512D01*
X-25512D02*
X-8937D01*
X-3937Y92886D02*
Y128858D01*
X-30512Y118110D02*
Y128937D01*
X194882Y-196850D02*
X194882Y3938D01*
X180197Y11811D02*
X187009D01*
X-187009Y-204724D02*
X187009D01*
X-194882Y-196850D02*
X-194882Y3938D01*
X-187009Y11811D02*
X-180197D01*
X-171661Y15347D02*
X-171260Y15748D01*
X171260D02*
X171661Y15347D01*
X-171260Y15748D02*
X-170858Y16150D01*
X-167323Y24685D02*
Y31575D01*
X165937Y21071D02*
X171260Y15748D01*
X162402Y29606D02*
Y29766D01*
X-167323Y31575D02*
Y178071D01*
X-163787Y186606D02*
X-141331Y209063D01*
X-132795Y212598D02*
X132795D01*
X141331Y209063D02*
X158866Y191528D01*
X162402Y29766D02*
Y182992D01*
M02*
