G04*
G04 #@! TF.GenerationSoftware,Altium Limited,Altium Designer,26.1.1 (7)*
G04*
G04 Layer_Color=16711935*
%FSLAX25Y25*%
%MOIN*%
G70*
G04*
G04 #@! TF.SameCoordinates,D353C328-5B1C-4724-8AFD-A302B20E4265*
G04*
G04*
G04 #@! TF.FilePolarity,Negative*
G04*
G01*
G75*
%ADD15C,0.00394*%
%ADD56C,0.10236*%
%ADD68C,0.02953*%
%ADD69C,0.05118*%
%ADD70C,0.05394*%
%ADD71C,0.09055*%
%ADD72C,0.12205*%
%ADD73C,0.06299*%
%ADD74R,0.06299X0.06299*%
%ADD75C,0.02362*%
%ADD76C,0.11417*%
%ADD77C,0.01772*%
G36*
X152461Y108065D02*
X152464Y108066D01*
X152481Y108064D01*
X152496Y108062D01*
X152499Y108061D01*
X152503Y108061D01*
X152518Y108055D01*
X152533Y108051D01*
X152536Y108049D01*
X152539Y108048D01*
X152553Y108040D01*
X152568Y108032D01*
X152570Y108030D01*
X152573Y108029D01*
X152585Y108018D01*
X152597Y108008D01*
X152600Y108005D01*
X152602Y108003D01*
X152712Y107885D01*
X152714Y107882D01*
X152717Y107880D01*
X152726Y107867D01*
X152736Y107854D01*
X152737Y107851D01*
X152739Y107848D01*
X152746Y107834D01*
X152753Y107819D01*
X152754Y107816D01*
X152755Y107813D01*
X152759Y107797D01*
X152763Y107782D01*
X152763Y107778D01*
X152764Y107775D01*
X152764Y107759D01*
X152765Y107743D01*
X152765Y107739D01*
X152765Y107736D01*
X152762Y107721D01*
X152760Y107704D01*
X152759Y107701D01*
X152759Y107698D01*
X152753Y107683D01*
X152748Y107668D01*
X152746Y107665D01*
X152745Y107662D01*
X149128Y100384D01*
X149121Y100373D01*
X149115Y100361D01*
X149111Y100357D01*
X149108Y100351D01*
X149099Y100342D01*
X149090Y100332D01*
X149085Y100328D01*
X149081Y100323D01*
X149070Y100315D01*
X149060Y100307D01*
X149055Y100304D01*
X149049Y100301D01*
X149037Y100295D01*
X149026Y100289D01*
X149020Y100287D01*
X149014Y100285D01*
X149001Y100282D01*
X148988Y100278D01*
X148982Y100277D01*
X148976Y100276D01*
X148963Y100276D01*
X148950Y100275D01*
X148944Y100275D01*
X148937Y100275D01*
X148925Y100277D01*
X148911Y100278D01*
X148905Y100280D01*
X148899Y100281D01*
X148887Y100286D01*
X148874Y100290D01*
X147683Y100792D01*
X147680Y100793D01*
X147677Y100794D01*
X147663Y100802D01*
X147649Y100810D01*
X147646Y100812D01*
X147643Y100814D01*
X147631Y100824D01*
X147619Y100835D01*
X147617Y100837D01*
X147614Y100839D01*
X147605Y100852D01*
X147594Y100865D01*
X147593Y100868D01*
X147591Y100870D01*
X147584Y100885D01*
X147576Y100899D01*
X147575Y100902D01*
X147574Y100905D01*
X147518Y101057D01*
X147517Y101060D01*
X147516Y101063D01*
X147512Y101079D01*
X147508Y101094D01*
X147508Y101098D01*
X147507Y101101D01*
X147507Y101117D01*
X147506Y101133D01*
X147506Y101136D01*
X147506Y101140D01*
X147509Y101156D01*
X147511Y101172D01*
X147512Y101174D01*
X147513Y101178D01*
X147519Y101193D01*
X147524Y101208D01*
X147525Y101211D01*
X147527Y101214D01*
X149337Y104834D01*
X142398Y101978D01*
X154002Y97197D01*
X154003Y97197D01*
X154003Y97197D01*
X154017Y97189D01*
X154037Y97179D01*
X154037Y97179D01*
X154037Y97179D01*
X154051Y97167D01*
X154067Y97154D01*
X154067Y97154D01*
X154067Y97154D01*
X154077Y97142D01*
X154091Y97124D01*
X154091Y97124D01*
X154092Y97124D01*
X154099Y97111D01*
X154110Y97090D01*
X154110Y97090D01*
X154110Y97090D01*
X154112Y97082D01*
X154121Y97053D01*
X154121Y97053D01*
X154121Y97053D01*
X154153Y96894D01*
X154153Y96894D01*
X154153Y96894D01*
X154155Y96870D01*
X154157Y96856D01*
Y96856D01*
X154157Y96856D01*
X154155Y96834D01*
X154153Y96817D01*
X154153Y96817D01*
X154153Y96817D01*
X154148Y96801D01*
X154142Y96780D01*
X154142Y96780D01*
X154141Y96780D01*
X154133Y96765D01*
X154123Y96746D01*
X154123Y96746D01*
X154123Y96746D01*
X154110Y96730D01*
X154099Y96716D01*
X154099Y96716D01*
X154099Y96716D01*
X140170Y82787D01*
X140170Y82787D01*
X140140Y82762D01*
X140106Y82744D01*
X140097Y82742D01*
X140069Y82733D01*
X140030Y82729D01*
X139992Y82733D01*
X139954Y82744D01*
X139920Y82762D01*
X139890Y82787D01*
X125962Y96716D01*
X125962Y96716D01*
X125962Y96716D01*
X125957Y96721D01*
X125937Y96746D01*
X125937Y96746D01*
X125937Y96746D01*
X125929Y96761D01*
X125919Y96780D01*
X125919Y96780D01*
X125919Y96780D01*
X125913Y96799D01*
X125908Y96817D01*
X125908Y96817D01*
X125908Y96817D01*
X125906Y96834D01*
X125904Y96856D01*
X125904Y96856D01*
Y96856D01*
X125905Y96871D01*
X125908Y96894D01*
X125908Y96894D01*
X125908Y96894D01*
X125939Y97053D01*
X125939Y97053D01*
X125939Y97053D01*
X125945Y97073D01*
X125951Y97090D01*
X125951Y97090D01*
X125951Y97090D01*
X125960Y97108D01*
X125969Y97124D01*
X125969Y97124D01*
X125969Y97124D01*
X125979Y97136D01*
X125994Y97154D01*
X125994Y97154D01*
X125994Y97154D01*
X126002Y97161D01*
X126023Y97179D01*
X126024Y97179D01*
X126024Y97179D01*
X126034Y97184D01*
X126058Y97197D01*
X126058Y97197D01*
X126058Y97197D01*
X137663Y101978D01*
X130717Y104837D01*
X132490Y101213D01*
X132491Y101210D01*
X132492Y101207D01*
X132498Y101192D01*
X132504Y101176D01*
X132504Y101173D01*
X132505Y101171D01*
X132507Y101154D01*
X132510Y101138D01*
X132510Y101135D01*
X132510Y101132D01*
X132509Y101116D01*
X132508Y101099D01*
X132508Y101096D01*
X132508Y101094D01*
X132503Y101078D01*
X132500Y101061D01*
X132498Y101059D01*
X132498Y101056D01*
X132441Y100905D01*
X132440Y100902D01*
X132439Y100900D01*
X132431Y100885D01*
X132424Y100870D01*
X132422Y100868D01*
X132421Y100865D01*
X132410Y100852D01*
X132400Y100839D01*
X132398Y100837D01*
X132396Y100835D01*
X132384Y100824D01*
X132371Y100813D01*
X132369Y100812D01*
X132367Y100810D01*
X132352Y100803D01*
X132337Y100794D01*
X132335Y100793D01*
X132332Y100792D01*
X131140Y100290D01*
X131128Y100286D01*
X131115Y100281D01*
X131109Y100280D01*
X131103Y100278D01*
X131090Y100277D01*
X131077Y100275D01*
X131071Y100275D01*
X131065Y100275D01*
X131052Y100276D01*
X131038Y100276D01*
X131032Y100277D01*
X131026Y100278D01*
X131014Y100282D01*
X131001Y100285D01*
X130995Y100287D01*
X130989Y100289D01*
X130977Y100295D01*
X130965Y100301D01*
X130960Y100304D01*
X130955Y100307D01*
X130945Y100315D01*
X130934Y100323D01*
X130929Y100328D01*
X130925Y100332D01*
X130916Y100342D01*
X130907Y100351D01*
X130904Y100357D01*
X130900Y100361D01*
X130894Y100373D01*
X130886Y100384D01*
X127270Y107662D01*
X127269Y107665D01*
X127267Y107668D01*
X127262Y107683D01*
X127256Y107698D01*
X127256Y107701D01*
X127254Y107704D01*
X127252Y107721D01*
X127250Y107736D01*
X127250Y107739D01*
X127249Y107743D01*
X127250Y107759D01*
X127251Y107775D01*
X127252Y107778D01*
X127252Y107782D01*
X127256Y107797D01*
X127260Y107813D01*
X127261Y107816D01*
X127262Y107819D01*
X127269Y107833D01*
X127275Y107848D01*
X127277Y107851D01*
X127279Y107854D01*
X127289Y107867D01*
X127298Y107880D01*
X127300Y107882D01*
X127302Y107885D01*
X127413Y108003D01*
X127415Y108005D01*
X127417Y108008D01*
X127429Y108018D01*
X127442Y108029D01*
X127445Y108030D01*
X127447Y108032D01*
X127461Y108040D01*
X127475Y108048D01*
X127478Y108049D01*
X127481Y108051D01*
X127497Y108055D01*
X127512Y108061D01*
X127515Y108061D01*
X127518Y108062D01*
X127534Y108064D01*
X127550Y108066D01*
X127554Y108065D01*
X127557Y108066D01*
X127573Y108064D01*
X127589Y108063D01*
X127592Y108062D01*
X127596Y108062D01*
X127611Y108057D01*
X127627Y108053D01*
X127629Y108052D01*
X127633Y108051D01*
X140007Y102945D01*
X152382Y108051D01*
X152385Y108052D01*
X152388Y108053D01*
X152403Y108057D01*
X152419Y108062D01*
X152422Y108062D01*
X152426Y108063D01*
X152442Y108064D01*
X152458Y108066D01*
X152461Y108065D01*
D02*
G37*
G36*
X67261Y67325D02*
X67272Y67325D01*
X67369Y67315D01*
X67391Y67310D01*
X67406Y67307D01*
X67407Y67307D01*
X67407D01*
X67407Y67307D01*
X67511Y67274D01*
X67526Y67268D01*
X67540Y67262D01*
X67637Y67214D01*
X67637Y67214D01*
X67638Y67214D01*
X67655Y67203D01*
X67670Y67194D01*
X67670Y67193D01*
X67671Y67193D01*
X67745Y67135D01*
X67757Y67123D01*
X67770Y67111D01*
X67827Y67048D01*
X67834Y67039D01*
X67842Y67030D01*
X67890Y66962D01*
X67896Y66952D01*
X67902Y66942D01*
X67936Y66879D01*
X67940Y66871D01*
X67944Y66863D01*
X67947Y66853D01*
X67951Y66843D01*
X67953Y66835D01*
X67956Y66826D01*
X67965Y66782D01*
X67967Y66768D01*
X67969Y66755D01*
X67974Y66688D01*
X68187Y65053D01*
Y65053D01*
X68428Y63221D01*
X68428Y63221D01*
X68714Y61062D01*
X68714Y61062D01*
X69000Y58903D01*
Y58903D01*
X69000Y58903D01*
X69241Y57074D01*
Y57074D01*
X69241Y57074D01*
X69446Y55505D01*
X71592Y55487D01*
X71592D01*
X74443Y55473D01*
X74443D01*
X78537Y55468D01*
D01*
X82350Y55465D01*
X82350Y55465D01*
X82351Y55465D01*
X86141Y55454D01*
X86141Y55454D01*
X86142Y55454D01*
X89436Y55438D01*
X89437Y55438D01*
X89437Y55438D01*
X91403Y55419D01*
X91415Y55418D01*
X91419Y55418D01*
X94996Y55368D01*
X95014Y55366D01*
X95032Y55364D01*
X95033Y55364D01*
X95035Y55364D01*
X95052Y55358D01*
X95069Y55353D01*
X95070Y55352D01*
X95072Y55352D01*
X95087Y55343D01*
X95103Y55335D01*
X95104Y55334D01*
X95105Y55333D01*
X95119Y55322D01*
X95133Y55310D01*
X95134Y55309D01*
X95135Y55308D01*
X95146Y55294D01*
X95158Y55280D01*
X95158Y55279D01*
X95159Y55278D01*
X95168Y55262D01*
X95176Y55246D01*
X95177Y55245D01*
X95177Y55243D01*
X95182Y55226D01*
X95187Y55209D01*
X95187Y55208D01*
X95188Y55206D01*
X95189Y55189D01*
X95191Y55170D01*
Y54524D01*
X95191Y54524D01*
X95191Y54524D01*
X95189Y54503D01*
X95187Y54485D01*
X95187Y54485D01*
X95187Y54485D01*
X95182Y54466D01*
X95176Y54448D01*
X95176Y54448D01*
X95176Y54448D01*
X95168Y54433D01*
X95158Y54414D01*
X95158Y54414D01*
X95158Y54414D01*
X95147Y54400D01*
X95133Y54384D01*
X95133Y54384D01*
X95133Y54384D01*
X95119Y54372D01*
X95103Y54360D01*
X95103Y54359D01*
X95103Y54359D01*
X95086Y54351D01*
X95069Y54341D01*
X95069Y54341D01*
X95069Y54341D01*
X95051Y54335D01*
X95032Y54330D01*
X95032Y54330D01*
X95032Y54330D01*
X95014Y54328D01*
X94993Y54326D01*
X94993Y54326D01*
X94993Y54326D01*
X68571Y54363D01*
X68555Y54365D01*
X68538Y54366D01*
X68535Y54367D01*
X68533Y54367D01*
X68516Y54372D01*
X68501Y54377D01*
X68498Y54378D01*
X68496Y54379D01*
X68481Y54386D01*
X68466Y54394D01*
X68464Y54396D01*
X68461Y54397D01*
X68449Y54407D01*
X68435Y54418D01*
X68434Y54420D01*
X68431Y54422D01*
X68421Y54435D01*
X68410Y54447D01*
X68278Y54633D01*
X68275Y54638D01*
X68275Y54638D01*
X68275Y54638D01*
X68273Y54642D01*
X68267Y54651D01*
X68263Y54659D01*
X68259Y54667D01*
X68257Y54671D01*
X68257Y54672D01*
X68173Y54870D01*
X68173Y54873D01*
X68171Y54876D01*
X68167Y54892D01*
X68162Y54907D01*
X68162Y54910D01*
X68161Y54913D01*
X68033Y55654D01*
X68033Y55656D01*
X68033Y55658D01*
X67866Y56766D01*
X67866Y56767D01*
X67865Y56768D01*
X67609Y58637D01*
Y58637D01*
X67609Y58637D01*
X67413Y60070D01*
X67250Y61221D01*
X67090Y60119D01*
X66888Y58662D01*
Y58662D01*
X66513Y55954D01*
X66511Y55949D01*
X66511Y55945D01*
X66341Y55040D01*
X66341Y55038D01*
X66340Y55036D01*
X66335Y55020D01*
X66330Y55003D01*
X66329Y55001D01*
X66329Y54999D01*
X66154Y54589D01*
X66150Y54582D01*
X66147Y54574D01*
X66141Y54565D01*
X66135Y54555D01*
X66130Y54549D01*
X66125Y54542D01*
X66117Y54534D01*
X66110Y54525D01*
X66104Y54520D01*
X66098Y54514D01*
X66089Y54508D01*
X66080Y54501D01*
X66073Y54497D01*
X66066Y54493D01*
X65805Y54351D01*
X65803Y54350D01*
X65802Y54349D01*
X65786Y54343D01*
X65770Y54336D01*
X65768Y54335D01*
X65766Y54335D01*
X65749Y54332D01*
X65732Y54328D01*
X65730Y54328D01*
X65728Y54328D01*
X65710Y54328D01*
X65693Y54328D01*
X65691Y54328D01*
X65689Y54328D01*
X65519Y54348D01*
X65513Y54349D01*
X65508Y54349D01*
X65494Y54353D01*
X65481Y54356D01*
X65476Y54358D01*
X65470Y54359D01*
X65321Y54416D01*
X65312Y54420D01*
X65304Y54423D01*
X65295Y54429D01*
X65286Y54434D01*
X65279Y54439D01*
X65271Y54444D01*
X65154Y54533D01*
X65143Y54543D01*
X65131Y54553D01*
X65129Y54556D01*
X65126Y54559D01*
X65117Y54572D01*
X65108Y54584D01*
X65036Y54696D01*
X65031Y54707D01*
X65025Y54716D01*
X65022Y54724D01*
X65019Y54731D01*
X65016Y54742D01*
X65012Y54753D01*
X64968Y54922D01*
X64966Y54934D01*
X64963Y54944D01*
X64452Y58584D01*
Y58584D01*
X64452Y58584D01*
X64078Y61264D01*
X64059Y61132D01*
X63754Y58898D01*
Y58898D01*
X63564Y57494D01*
X63564Y57494D01*
Y57494D01*
X63396Y56269D01*
X63396Y56269D01*
Y56269D01*
X63250Y55217D01*
X63249Y55215D01*
X63249Y55213D01*
X63219Y55024D01*
X63216Y55010D01*
X63213Y54995D01*
X63143Y54777D01*
X63138Y54766D01*
X63135Y54755D01*
X63131Y54748D01*
X63127Y54741D01*
X63121Y54732D01*
X63116Y54722D01*
X62995Y54553D01*
X62984Y54540D01*
X62973Y54527D01*
X62971Y54525D01*
X62970Y54524D01*
X62956Y54513D01*
X62943Y54502D01*
X62781Y54396D01*
X62765Y54388D01*
X62748Y54379D01*
X62747Y54379D01*
X62747Y54378D01*
X62729Y54373D01*
X62711Y54368D01*
X62520Y54331D01*
X62513Y54330D01*
X62506Y54329D01*
X62494Y54328D01*
X62482Y54327D01*
X62475Y54328D01*
X62467Y54328D01*
X62455Y54330D01*
X62443Y54331D01*
X62436Y54333D01*
X62429Y54334D01*
X62418Y54339D01*
X62406Y54342D01*
X62400Y54346D01*
X62393Y54348D01*
X62115Y54489D01*
X62109Y54493D01*
X62102Y54496D01*
X62093Y54503D01*
X62083Y54510D01*
X62077Y54515D01*
X62071Y54519D01*
X62063Y54528D01*
X62055Y54536D01*
X62050Y54542D01*
X62045Y54548D01*
X62039Y54558D01*
X62032Y54568D01*
X62029Y54575D01*
X62025Y54581D01*
X61843Y54972D01*
X61841Y54977D01*
X61839Y54982D01*
X61835Y54995D01*
X61830Y55009D01*
X61829Y55014D01*
X61828Y55019D01*
X61659Y55899D01*
X61659Y55904D01*
X61657Y55909D01*
X61276Y58661D01*
X61276Y58661D01*
X61073Y60119D01*
X60912Y61225D01*
X60748Y60071D01*
X60553Y58637D01*
X60553Y58637D01*
Y58637D01*
X60295Y56754D01*
X60295Y56753D01*
X60295Y56751D01*
X60129Y55649D01*
X60128Y55647D01*
X60128Y55645D01*
X60003Y54914D01*
X60002Y54911D01*
X60001Y54908D01*
X59997Y54892D01*
X59992Y54877D01*
X59991Y54874D01*
X59990Y54871D01*
X59905Y54671D01*
X59904Y54669D01*
X59903Y54666D01*
X59898Y54658D01*
X59895Y54650D01*
X59889Y54642D01*
X59887Y54637D01*
X59886Y54636D01*
X59884Y54633D01*
X59750Y54446D01*
X59740Y54434D01*
X59730Y54422D01*
X59727Y54419D01*
X59725Y54417D01*
X59712Y54407D01*
X59700Y54397D01*
X59697Y54395D01*
X59694Y54393D01*
X59680Y54386D01*
X59666Y54379D01*
X59662Y54378D01*
X59659Y54376D01*
X59644Y54372D01*
X59628Y54367D01*
X59625Y54367D01*
X59622Y54366D01*
X59606Y54365D01*
X59590Y54363D01*
X41745Y54326D01*
X41744Y54326D01*
X41744Y54326D01*
X41725Y54328D01*
X41706Y54330D01*
X41706Y54330D01*
X41706Y54330D01*
X41688Y54335D01*
X41669Y54341D01*
X41669Y54341D01*
X41668Y54341D01*
X41653Y54350D01*
X41635Y54359D01*
X41635Y54359D01*
X41634Y54360D01*
X41620Y54371D01*
X41605Y54384D01*
X41605Y54384D01*
X41604Y54384D01*
X41592Y54399D01*
X41580Y54414D01*
X41580Y54414D01*
X41580Y54414D01*
X41570Y54432D01*
X41562Y54448D01*
X41561Y54448D01*
X41561Y54448D01*
X41556Y54466D01*
X41550Y54485D01*
X41550Y54485D01*
X41550Y54485D01*
X41548Y54504D01*
X41546Y54523D01*
X41546Y54524D01*
X41546Y54524D01*
Y55170D01*
X41548Y55188D01*
X41550Y55206D01*
X41550Y55208D01*
X41550Y55209D01*
X41555Y55226D01*
X41560Y55243D01*
X41561Y55245D01*
X41561Y55246D01*
X41570Y55262D01*
X41578Y55278D01*
X41579Y55279D01*
X41580Y55280D01*
X41591Y55294D01*
X41602Y55308D01*
X41603Y55309D01*
X41604Y55310D01*
X41618Y55322D01*
X41632Y55333D01*
X41633Y55334D01*
X41634Y55335D01*
X41650Y55343D01*
X41666Y55352D01*
X41667Y55352D01*
X41668Y55353D01*
X41686Y55358D01*
X41703Y55364D01*
X41704Y55364D01*
X41706Y55364D01*
X41723Y55366D01*
X41741Y55368D01*
X45255Y55418D01*
X45266Y55419D01*
X46971Y55438D01*
X46971Y55438D01*
X46972Y55438D01*
X49240Y55454D01*
X49240Y55454D01*
X49240Y55454D01*
X51652Y55464D01*
X51652Y55464D01*
X51652Y55464D01*
X53844Y55468D01*
D01*
X55984Y55473D01*
X57562Y55487D01*
D01*
X58710Y55504D01*
X58727Y55760D01*
X58728Y55766D01*
X58729Y55773D01*
X59463Y61196D01*
Y61196D01*
X60211Y66711D01*
X60214Y66724D01*
X60216Y66737D01*
X60271Y66937D01*
X60278Y66955D01*
X60285Y66972D01*
X60285Y66972D01*
X60285Y66973D01*
X60295Y66989D01*
X60305Y67005D01*
X60398Y67126D01*
X60400Y67128D01*
X60401Y67130D01*
X60413Y67142D01*
X60425Y67154D01*
X60427Y67156D01*
X60429Y67158D01*
X60443Y67167D01*
X60456Y67177D01*
X60459Y67178D01*
X60461Y67179D01*
X60614Y67262D01*
X60625Y67267D01*
X60637Y67273D01*
X60643Y67274D01*
X60649Y67277D01*
X60662Y67279D01*
X60674Y67283D01*
X60864Y67316D01*
X60873Y67316D01*
X60882Y67318D01*
X60892Y67317D01*
X60903Y67318D01*
X60912Y67317D01*
X60920Y67317D01*
X61122Y67294D01*
X61128Y67293D01*
X61134Y67292D01*
X61147Y67289D01*
X61160Y67286D01*
X61166Y67283D01*
X61171Y67282D01*
X61250Y67251D01*
X61252Y67250D01*
X61255Y67250D01*
X61269Y67242D01*
X61284Y67234D01*
X61286Y67232D01*
X61289Y67231D01*
X61365Y67179D01*
X61379Y67168D01*
X61393Y67157D01*
X61458Y67093D01*
X61461Y67089D01*
X61464Y67087D01*
X61474Y67075D01*
X61483Y67063D01*
X61485Y67059D01*
X61488Y67056D01*
X61530Y66989D01*
X61533Y66982D01*
X61538Y66975D01*
X61542Y66964D01*
X61547Y66954D01*
X61549Y66947D01*
X61552Y66939D01*
X61590Y66806D01*
X61593Y66793D01*
X61596Y66781D01*
X61762Y65670D01*
X61762Y65669D01*
X61763Y65669D01*
X61947Y64394D01*
X61947Y64393D01*
X61947Y64393D01*
X62152Y62911D01*
X62152Y62910D01*
X62153Y62910D01*
X62353Y61439D01*
X62353Y61439D01*
X62500Y60387D01*
X62649Y61452D01*
Y61452D01*
X62854Y62952D01*
X62854Y62952D01*
X62854Y62952D01*
X63248Y65794D01*
X63249Y65799D01*
X63249Y65804D01*
X63414Y66658D01*
X63416Y66665D01*
X63417Y66672D01*
X63422Y66683D01*
X63425Y66695D01*
X63428Y66701D01*
X63431Y66708D01*
X63616Y67080D01*
X63620Y67086D01*
X63623Y67093D01*
X63630Y67103D01*
X63636Y67113D01*
X63642Y67118D01*
X63646Y67124D01*
X63655Y67132D01*
X63663Y67141D01*
X63669Y67145D01*
X63675Y67150D01*
X63685Y67156D01*
X63695Y67163D01*
X63701Y67167D01*
X63708Y67170D01*
X63996Y67307D01*
X64005Y67311D01*
X64014Y67315D01*
X64024Y67317D01*
X64032Y67320D01*
X64042Y67322D01*
X64052Y67324D01*
X64061Y67325D01*
X64070Y67326D01*
X64081Y67326D01*
X64091Y67326D01*
X64100Y67325D01*
X64109Y67324D01*
X64119Y67322D01*
X64129Y67320D01*
X64138Y67317D01*
X64147Y67315D01*
X64156Y67311D01*
X64166Y67307D01*
X64455Y67170D01*
X64461Y67166D01*
X64468Y67163D01*
X64478Y67156D01*
X64488Y67150D01*
X64494Y67145D01*
X64500Y67140D01*
X64508Y67132D01*
X64517Y67124D01*
X64521Y67118D01*
X64526Y67112D01*
X64533Y67102D01*
X64540Y67092D01*
X64543Y67086D01*
X64547Y67079D01*
X64733Y66706D01*
X64736Y66699D01*
X64739Y66693D01*
X64743Y66681D01*
X64747Y66669D01*
X64748Y66662D01*
X64750Y66655D01*
X64918Y65797D01*
X64918Y65791D01*
X64919Y65786D01*
X65321Y62928D01*
X65321Y62928D01*
X65321Y62927D01*
X65530Y61421D01*
Y61421D01*
X65673Y60410D01*
X66045Y63146D01*
Y63146D01*
X66525Y66679D01*
X66531Y66759D01*
X66532Y66767D01*
X66532Y66774D01*
X66535Y66786D01*
X66537Y66798D01*
X66540Y66804D01*
X66542Y66812D01*
X66585Y66936D01*
X66588Y66943D01*
X66591Y66950D01*
X66597Y66960D01*
X66602Y66971D01*
X66606Y66977D01*
X66610Y66984D01*
X66618Y66993D01*
X66625Y67002D01*
X66630Y67007D01*
X66635Y67013D01*
X66769Y67141D01*
X66774Y67145D01*
X66778Y67149D01*
X66789Y67157D01*
X66800Y67165D01*
X66805Y67168D01*
X66810Y67171D01*
X66985Y67269D01*
X66996Y67273D01*
X67006Y67279D01*
X67013Y67281D01*
X67020Y67284D01*
X67032Y67286D01*
X67043Y67290D01*
X67212Y67323D01*
X67223Y67324D01*
X67233Y67326D01*
X67242Y67326D01*
X67251Y67326D01*
X67261Y67325D01*
D02*
G37*
G36*
X-34120Y66313D02*
X-34120Y66313D01*
X-34120Y66313D01*
X-34104Y66311D01*
X-34086Y66309D01*
X-34072Y66311D01*
X-34051Y66312D01*
X-34051D01*
X-34051D01*
X-34051D01*
X-33983Y66312D01*
X-33949Y66308D01*
X-33925Y66310D01*
X-33914Y66311D01*
X-33914D01*
X-33914D01*
X-33846Y66311D01*
X-33846D01*
X-33846D01*
X-33833Y66309D01*
X-33812Y66307D01*
X-33777Y66310D01*
X-32613Y66300D01*
D01*
X-32613D01*
X-32609Y66299D01*
X-32575Y66296D01*
X-32549Y66288D01*
X-32538Y66284D01*
X-32519Y66274D01*
X-32504Y66265D01*
X-32474Y66241D01*
Y66241D01*
X-32474D01*
X-32450Y66211D01*
X-32432Y66176D01*
X-32424Y66150D01*
X-32421Y66139D01*
X-32417Y66100D01*
Y66100D01*
Y66100D01*
X-32418Y66032D01*
X-32419Y66024D01*
X-32422Y65993D01*
X-32434Y65956D01*
X-32434Y65956D01*
D01*
X-32452Y65922D01*
X-32461Y65911D01*
X-32477Y65892D01*
X-32500Y65874D01*
X-32507Y65868D01*
X-32538Y65852D01*
X-32541Y65850D01*
D01*
X-32541Y65850D01*
X-32557Y65846D01*
X-32579Y65839D01*
X-32617Y65836D01*
X-32617D01*
D01*
D01*
X-32674Y65836D01*
X-32683Y65826D01*
X-32683Y65826D01*
X-32683Y65826D01*
X-32691Y65819D01*
X-32713Y65801D01*
X-32713Y65801D01*
X-32713Y65801D01*
X-32724Y65796D01*
X-32748Y65784D01*
X-32748Y65783D01*
X-32748Y65783D01*
X-32760Y65780D01*
X-32785Y65772D01*
X-32785Y65772D01*
X-32785Y65772D01*
X-32803Y65771D01*
X-32823Y65769D01*
X-32823Y65769D01*
X-32823Y65769D01*
X-32880Y65770D01*
X-32881Y65769D01*
X-32889Y65759D01*
X-32889Y65759D01*
X-32889Y65759D01*
X-32901Y65750D01*
X-32919Y65735D01*
X-32923Y65733D01*
X-32928Y65730D01*
X-32929Y65728D01*
X-32933Y65721D01*
X-32933Y65721D01*
X-32933Y65721D01*
X-32949Y65702D01*
X-32958Y65691D01*
X-32958Y65691D01*
X-32958Y65691D01*
X-32984Y65670D01*
X-32988Y65667D01*
X-32988D01*
X-32988Y65667D01*
X-32997Y65662D01*
X-33002Y65653D01*
X-33002Y65653D01*
X-33002Y65653D01*
X-33015Y65638D01*
X-33027Y65623D01*
X-33027Y65623D01*
X-33027Y65623D01*
X-33057Y65599D01*
X-33090Y65582D01*
X-33092Y65581D01*
D01*
X-33092Y65581D01*
X-33115Y65574D01*
X-33122Y65551D01*
X-33122Y65551D01*
Y65551D01*
X-33131Y65534D01*
X-33141Y65517D01*
X-33141Y65517D01*
X-33141Y65517D01*
X-33151Y65505D01*
X-33165Y65487D01*
X-33195Y65463D01*
X-33196Y65463D01*
X-33196Y65463D01*
X-33204Y65459D01*
X-33205Y65458D01*
X-33209Y65450D01*
X-33234Y65420D01*
X-33265Y65395D01*
X-33274Y65391D01*
X-33279Y65381D01*
X-33303Y65352D01*
X-33334Y65327D01*
X-33343Y65323D01*
X-33348Y65314D01*
X-33373Y65284D01*
X-33373Y65284D01*
X-33373Y65284D01*
X-33379Y65279D01*
X-33383Y65275D01*
X-33384Y65218D01*
X-33388Y65180D01*
X-33391Y65171D01*
X-33399Y65143D01*
X-33418Y65109D01*
X-33443Y65079D01*
X-33473Y65055D01*
X-33482Y65050D01*
X-33487Y65041D01*
X-33512Y65011D01*
X-33542Y64987D01*
X-33548Y64984D01*
X-33551Y64982D01*
X-33556Y64973D01*
X-33556Y64973D01*
X-33556Y64973D01*
X-33570Y64957D01*
X-33581Y64943D01*
X-33581Y64943D01*
X-33581Y64943D01*
X-33592Y64935D01*
X-33592Y64878D01*
X-33592Y64878D01*
X-33592Y64878D01*
X-33594Y64863D01*
X-33596Y64839D01*
X-33596Y64839D01*
Y64839D01*
X-33599Y64832D01*
X-33608Y64802D01*
X-33608Y64802D01*
X-33608Y64802D01*
X-33618Y64784D01*
X-33626Y64768D01*
X-33626Y64768D01*
X-33626Y64768D01*
X-33640Y64752D01*
X-33651Y64739D01*
X-33651Y64738D01*
X-33651Y64738D01*
X-33662Y64730D01*
X-33662Y64673D01*
X-33666Y64639D01*
X-33663Y64604D01*
D01*
Y64604D01*
X-33664Y64536D01*
X-33666Y64517D01*
X-33668Y64498D01*
X-33668Y64498D01*
X-33668Y64498D01*
X-33676Y64472D01*
X-33679Y64461D01*
X-33679Y64461D01*
X-33679Y64460D01*
X-33691Y64439D01*
X-33698Y64426D01*
X-33698Y64426D01*
X-33698Y64426D01*
X-33711Y64410D01*
X-33723Y64397D01*
X-33723Y64397D01*
X-33723Y64397D01*
X-33733Y64388D01*
X-33734Y64331D01*
Y64331D01*
Y64331D01*
X-33738Y64293D01*
X-33746Y64266D01*
X-33750Y64256D01*
X-33750Y64256D01*
D01*
X-33751Y64253D01*
X-33768Y64222D01*
X-33793Y64192D01*
X-33793Y64192D01*
X-33793Y64192D01*
X-33804Y64183D01*
X-33804Y64126D01*
Y64126D01*
Y64126D01*
X-33805Y64114D01*
X-33808Y64092D01*
X-33806Y64068D01*
X-33805Y64058D01*
Y64058D01*
Y64058D01*
X-33805Y63989D01*
Y63989D01*
Y63989D01*
X-33807Y63977D01*
X-33809Y63955D01*
X-33808Y63938D01*
X-33806Y63921D01*
Y63921D01*
D01*
D01*
X-33806Y63853D01*
X-33811Y63814D01*
X-33819Y63788D01*
X-33822Y63777D01*
X-33822Y63777D01*
D01*
X-33841Y63743D01*
X-33857Y63723D01*
X-33866Y63713D01*
X-33866Y63713D01*
X-33866Y63713D01*
X-33876Y63705D01*
X-33877Y63648D01*
D01*
X-33877Y63579D01*
Y63579D01*
Y63579D01*
X-33878Y63511D01*
Y63511D01*
Y63511D01*
X-33879Y63442D01*
Y63442D01*
X-33879Y63374D01*
Y63374D01*
Y63374D01*
X-33881Y63355D01*
X-33883Y63339D01*
X-33882Y63327D01*
X-33880Y63305D01*
Y63305D01*
Y63305D01*
X-33880Y63237D01*
X-33883Y63214D01*
X-33884Y63202D01*
X-33881Y63168D01*
Y63168D01*
D01*
D01*
X-33882Y63100D01*
X-33885Y63065D01*
X-33884Y63052D01*
X-33882Y63031D01*
X-33883Y62963D01*
Y62963D01*
Y62963D01*
X-33885Y62945D01*
X-33886Y62928D01*
X-33883Y62894D01*
X-33884Y62826D01*
Y62826D01*
Y62826D01*
X-33886Y62808D01*
X-33888Y62792D01*
X-33885Y62757D01*
X-33885Y62689D01*
X-33889Y62655D01*
X-33886Y62620D01*
Y62620D01*
Y62620D01*
X-33886Y62552D01*
X-33889Y62527D01*
X-33890Y62518D01*
X-33887Y62484D01*
Y62483D01*
Y62483D01*
X-33887Y62415D01*
Y62415D01*
Y62415D01*
X-33888Y62347D01*
D01*
X-33889Y62278D01*
D01*
X-33889Y62210D01*
Y62210D01*
Y62209D01*
X-33890Y62141D01*
X-33890Y62141D01*
X-33890Y62141D01*
X-33891Y62072D01*
Y62072D01*
X-33891Y62016D01*
X-33881Y62007D01*
X-33880Y62007D01*
X-33880Y62007D01*
X-33866Y61989D01*
X-33856Y61977D01*
X-33856Y61977D01*
X-33856Y61977D01*
X-33844Y61953D01*
X-33838Y61942D01*
X-33838Y61942D01*
X-33838Y61942D01*
X-33832Y61922D01*
X-33827Y61905D01*
X-33827Y61905D01*
X-33827Y61905D01*
X-33826Y61887D01*
X-33824Y61867D01*
X-33824Y61866D01*
X-33824Y61866D01*
X-33825Y61798D01*
X-33826Y61787D01*
X-33828Y61764D01*
X-33825Y61730D01*
D01*
Y61730D01*
X-33826Y61661D01*
Y61661D01*
Y61661D01*
X-33828Y61636D01*
X-33829Y61627D01*
X-33828Y61612D01*
X-33826Y61593D01*
Y61593D01*
Y61593D01*
Y61593D01*
X-33827Y61524D01*
X-33827Y61524D01*
X-33827Y61524D01*
X-33828Y61509D01*
X-33830Y61490D01*
X-33829Y61475D01*
X-33827Y61456D01*
Y61456D01*
Y61456D01*
Y61456D01*
X-33828Y61387D01*
Y61387D01*
Y61387D01*
X-33829Y61319D01*
Y61319D01*
X-33829Y61262D01*
X-33819Y61253D01*
X-33819Y61253D01*
X-33819Y61253D01*
X-33808Y61240D01*
X-33794Y61223D01*
X-33794Y61223D01*
X-33794Y61223D01*
X-33781Y61198D01*
X-33776Y61189D01*
Y61189D01*
X-33776Y61189D01*
X-33765Y61151D01*
X-33763Y61123D01*
X-33762Y61113D01*
Y61113D01*
Y61113D01*
X-33762Y61044D01*
Y61044D01*
Y61044D01*
X-33765Y61019D01*
X-33766Y61010D01*
X-33765Y60993D01*
X-33763Y60976D01*
Y60976D01*
D01*
D01*
X-33764Y60907D01*
Y60907D01*
Y60907D01*
X-33764Y60839D01*
D01*
Y60839D01*
X-33765Y60782D01*
X-33754Y60773D01*
X-33754Y60773D01*
X-33754Y60773D01*
X-33742Y60758D01*
X-33730Y60743D01*
X-33730Y60743D01*
X-33730Y60743D01*
X-33720Y60724D01*
X-33712Y60708D01*
X-33712Y60708D01*
X-33712Y60708D01*
X-33706Y60687D01*
X-33701Y60671D01*
X-33701Y60671D01*
X-33701Y60671D01*
X-33699Y60652D01*
X-33698Y60633D01*
Y60633D01*
Y60633D01*
Y60632D01*
X-33698Y60564D01*
Y60564D01*
Y60564D01*
X-33699Y60555D01*
X-33702Y60530D01*
X-33701Y60516D01*
X-33699Y60496D01*
Y60496D01*
Y60496D01*
Y60496D01*
X-33699Y60427D01*
X-33699Y60427D01*
X-33699Y60427D01*
X-33700Y60359D01*
D01*
X-33700Y60302D01*
X-33690Y60293D01*
X-33690Y60293D01*
X-33690Y60293D01*
X-33666Y60263D01*
X-33649Y60230D01*
X-33648Y60229D01*
D01*
X-33648Y60229D01*
X-33637Y60191D01*
X-33634Y60162D01*
X-33633Y60153D01*
Y60153D01*
D01*
D01*
X-33634Y60096D01*
X-33623Y60087D01*
X-33599Y60057D01*
X-33581Y60023D01*
X-33570Y59985D01*
X-33567Y59947D01*
D01*
Y59947D01*
X-33567Y59878D01*
X-33567Y59878D01*
X-33567Y59878D01*
X-33569Y59862D01*
X-33571Y59844D01*
X-33569Y59820D01*
X-33568Y59810D01*
Y59810D01*
Y59810D01*
X-33568Y59741D01*
X-33572Y59707D01*
X-33569Y59673D01*
X-33569Y59616D01*
X-33559Y59607D01*
X-33535Y59577D01*
X-33517Y59543D01*
X-33506Y59505D01*
X-33502Y59467D01*
X-33503Y59410D01*
X-33502Y59409D01*
X-33492Y59401D01*
X-33492Y59401D01*
X-33492Y59401D01*
X-33468Y59371D01*
X-33457Y59349D01*
X-33450Y59337D01*
X-33450Y59337D01*
Y59337D01*
X-33439Y59299D01*
X-33437Y59273D01*
X-33436Y59261D01*
Y59261D01*
Y59261D01*
X-33436Y59192D01*
X-33436Y59192D01*
X-33436Y59192D01*
X-33438Y59174D01*
X-33440Y59158D01*
X-33438Y59141D01*
X-33437Y59124D01*
Y59124D01*
D01*
D01*
X-33437Y59055D01*
X-33437Y59055D01*
X-33437Y59055D01*
X-33439Y59040D01*
X-33441Y59021D01*
X-33440Y59008D01*
X-33438Y58987D01*
Y58987D01*
Y58987D01*
X-33439Y58930D01*
X-33428Y58921D01*
X-33428Y58921D01*
X-33428Y58921D01*
X-33405Y58892D01*
X-33404Y58891D01*
D01*
X-33404Y58891D01*
X-33388Y58860D01*
X-33386Y58857D01*
Y58857D01*
X-33386Y58857D01*
X-33379Y58834D01*
X-33375Y58819D01*
Y58819D01*
X-33375Y58819D01*
X-33373Y58802D01*
X-33371Y58781D01*
Y58781D01*
Y58781D01*
X-33372Y58724D01*
X-33361Y58715D01*
X-33337Y58685D01*
X-33319Y58650D01*
X-33308Y58613D01*
X-33305Y58575D01*
X-33305Y58506D01*
X-33307Y58489D01*
X-33309Y58472D01*
X-33308Y58457D01*
X-33306Y58438D01*
Y58438D01*
Y58438D01*
Y58438D01*
X-33307Y58369D01*
X-33307Y58369D01*
X-33307Y58369D01*
X-33307Y58301D01*
Y58301D01*
X-33308Y58232D01*
Y58232D01*
Y58232D01*
X-33309Y58220D01*
X-33312Y58194D01*
X-33323Y58157D01*
Y58157D01*
X-33323Y58157D01*
X-33339Y58129D01*
X-33342Y58123D01*
X-33342Y58123D01*
X-33342Y58123D01*
X-33358Y58104D01*
X-33367Y58093D01*
X-33367Y58093D01*
X-33367Y58093D01*
X-33396Y58069D01*
X-33397Y58069D01*
D01*
X-33397Y58069D01*
X-33428Y58052D01*
X-33431Y58051D01*
X-33431D01*
X-33431Y58051D01*
X-33454Y58044D01*
X-33468Y58040D01*
X-33468D01*
X-33469Y58040D01*
X-33485Y58038D01*
X-33507Y58036D01*
X-33507D01*
X-33507D01*
X-33576Y58037D01*
X-33576D01*
X-33576D01*
X-33610Y58040D01*
X-33625Y58039D01*
X-33644Y58038D01*
X-33644D01*
X-33644D01*
X-33713Y58038D01*
X-33713D01*
X-33713D01*
X-33751Y58042D01*
X-33778Y58051D01*
X-33788Y58054D01*
X-33788Y58054D01*
D01*
X-33791Y58056D01*
X-33822Y58072D01*
X-33852Y58097D01*
X-33852Y58097D01*
X-33852Y58097D01*
X-33857Y58104D01*
X-33861Y58108D01*
X-33917Y58108D01*
X-33934Y58110D01*
X-33952Y58112D01*
X-33967Y58111D01*
X-33986Y58109D01*
X-33986D01*
D01*
D01*
X-34054Y58109D01*
X-34054D01*
X-34054D01*
X-34077Y58112D01*
X-34093Y58114D01*
X-34093Y58114D01*
X-34093D01*
X-34104Y58117D01*
X-34130Y58125D01*
X-34164Y58144D01*
X-34164Y58144D01*
X-34164Y58144D01*
X-34174Y58152D01*
X-34194Y58169D01*
X-34194Y58169D01*
X-34194Y58169D01*
X-34202Y58179D01*
X-34396Y58181D01*
X-34431Y58185D01*
X-34465Y58182D01*
D01*
X-34465D01*
X-34533Y58182D01*
X-34572Y58186D01*
X-34598Y58195D01*
X-34609Y58198D01*
X-34609Y58198D01*
D01*
X-34615Y58202D01*
X-34643Y58216D01*
X-34643Y58216D01*
X-34643Y58217D01*
X-34661Y58231D01*
X-34672Y58241D01*
X-34672Y58241D01*
X-34672Y58241D01*
X-34678Y58248D01*
X-34681Y58252D01*
X-34738Y58253D01*
X-34772Y58256D01*
X-34777Y58257D01*
X-34777D01*
X-34777Y58257D01*
X-34804Y58265D01*
X-34814Y58268D01*
X-34814Y58268D01*
X-34814Y58268D01*
X-34832Y58278D01*
X-34848Y58287D01*
X-34848Y58287D01*
X-34848Y58287D01*
X-34861Y58298D01*
X-34877Y58312D01*
X-34877Y58312D01*
X-34877Y58312D01*
X-34886Y58322D01*
X-35080Y58324D01*
X-35080D01*
X-35080D01*
X-35098Y58326D01*
X-35118Y58328D01*
X-35118Y58328D01*
X-35118D01*
X-35134Y58333D01*
X-35155Y58340D01*
X-35155Y58340D01*
X-35155D01*
X-35162Y58343D01*
X-35189Y58358D01*
X-35189Y58358D01*
X-35190Y58358D01*
X-35201Y58368D01*
X-35219Y58383D01*
X-35219Y58383D01*
X-35219Y58383D01*
X-35227Y58393D01*
X-35228Y58394D01*
X-35285Y58394D01*
X-35323Y58398D01*
X-35360Y58410D01*
X-35379Y58420D01*
X-35394Y58429D01*
X-35424Y58453D01*
Y58453D01*
X-35424D01*
X-35433Y58464D01*
X-35627Y58466D01*
D01*
X-35627D01*
X-35631Y58466D01*
X-35665Y58470D01*
X-35702Y58481D01*
X-35702Y58481D01*
D01*
X-35736Y58500D01*
X-35760Y58520D01*
X-35766Y58525D01*
Y58525D01*
X-35766D01*
X-35772Y58532D01*
X-35774Y58535D01*
X-35831Y58536D01*
X-35850Y58538D01*
X-35870Y58540D01*
X-35870Y58540D01*
X-35870D01*
X-35900Y58549D01*
X-35907Y58552D01*
X-35907D01*
X-35907Y58552D01*
X-35932Y58566D01*
X-35941Y58570D01*
X-35941Y58570D01*
X-35941Y58570D01*
X-35958Y58585D01*
X-35971Y58595D01*
X-35971Y58595D01*
X-35971Y58595D01*
X-35979Y58606D01*
X-36173Y58607D01*
X-36212Y58612D01*
X-36241Y58621D01*
X-36249Y58623D01*
X-36249Y58623D01*
X-36249Y58623D01*
X-36265Y58632D01*
X-36283Y58642D01*
X-36283Y58642D01*
X-36283Y58642D01*
X-36293Y58650D01*
X-36312Y58666D01*
X-36312Y58666D01*
X-36312Y58666D01*
X-36321Y58677D01*
X-36378Y58678D01*
X-36416Y58682D01*
X-36453Y58693D01*
X-36487Y58712D01*
X-36517Y58737D01*
X-36526Y58748D01*
X-36583Y58748D01*
X-36583D01*
X-36583D01*
X-36597Y58749D01*
X-36621Y58752D01*
X-36658Y58764D01*
X-36658Y58764D01*
X-36658D01*
X-36664Y58767D01*
X-36692Y58782D01*
X-36692Y58782D01*
X-36692D01*
X-36698Y58787D01*
X-36722Y58807D01*
X-36722Y58807D01*
X-36722Y58807D01*
X-36731Y58818D01*
X-36788Y58818D01*
X-36811Y58821D01*
X-36826Y58822D01*
X-36826Y58822D01*
X-36826Y58822D01*
X-36853Y58831D01*
X-36863Y58834D01*
X-36863Y58834D01*
X-36863Y58834D01*
X-36890Y58849D01*
X-36897Y58852D01*
X-36897Y58852D01*
X-36897Y58853D01*
X-36916Y58868D01*
X-36927Y58877D01*
X-36927Y58877D01*
X-36927Y58877D01*
X-36935Y58888D01*
X-36992Y58889D01*
X-36992Y58889D01*
X-36993Y58889D01*
X-37007Y58890D01*
X-37031Y58893D01*
X-37031Y58893D01*
X-37031D01*
X-37034Y58893D01*
X-37068Y58904D01*
X-37068Y58904D01*
X-37068Y58904D01*
X-37078Y58910D01*
X-37102Y58923D01*
X-37102Y58923D01*
X-37102Y58923D01*
X-37119Y58937D01*
X-37132Y58948D01*
X-37132Y58948D01*
X-37132Y58948D01*
X-37140Y58958D01*
X-37197Y58959D01*
X-37210Y58960D01*
X-37236Y58963D01*
X-37273Y58974D01*
D01*
X-37273Y58974D01*
X-37307Y58993D01*
X-37331Y59013D01*
X-37337Y59018D01*
X-37337Y59018D01*
X-37337Y59018D01*
X-37345Y59029D01*
X-37402Y59029D01*
X-37441Y59033D01*
X-37476Y59044D01*
X-37478Y59045D01*
D01*
X-37478Y59045D01*
X-37499Y59057D01*
X-37512Y59063D01*
X-37512Y59063D01*
X-37512Y59063D01*
X-37527Y59076D01*
X-37541Y59088D01*
X-37541Y59088D01*
X-37541Y59088D01*
X-37550Y59099D01*
X-37607Y59099D01*
X-37646Y59103D01*
X-37683Y59115D01*
X-37717Y59134D01*
X-37746Y59158D01*
X-37755Y59169D01*
X-37812Y59170D01*
X-37812Y59170D01*
X-37812Y59170D01*
X-37831Y59172D01*
X-37850Y59174D01*
X-37850Y59174D01*
X-37850Y59174D01*
X-37863Y59178D01*
X-37887Y59185D01*
X-37887Y59185D01*
X-37887Y59185D01*
X-37895Y59189D01*
X-37922Y59204D01*
X-37922Y59204D01*
X-37922Y59204D01*
X-37931Y59212D01*
X-37951Y59229D01*
X-37951Y59229D01*
X-37951Y59229D01*
X-37960Y59239D01*
X-37976Y59259D01*
X-37976Y59259D01*
X-37976Y59259D01*
X-37980Y59268D01*
X-37989Y59273D01*
X-37989Y59273D01*
X-37989Y59273D01*
X-37998Y59280D01*
X-38019Y59298D01*
X-38019Y59298D01*
X-38019Y59298D01*
X-38028Y59308D01*
X-38085Y59309D01*
X-38112Y59312D01*
X-38123Y59313D01*
X-38123D01*
X-38123Y59313D01*
X-38157Y59324D01*
X-38160Y59325D01*
X-38160D01*
X-38160Y59325D01*
X-38177Y59334D01*
X-38194Y59343D01*
X-38194Y59343D01*
X-38194D01*
X-38199Y59347D01*
X-38224Y59368D01*
X-38224Y59368D01*
X-38224Y59368D01*
X-38247Y59397D01*
X-38248Y59398D01*
D01*
X-38248Y59398D01*
X-38253Y59407D01*
X-38262Y59412D01*
X-38262Y59412D01*
X-38262Y59412D01*
X-38281Y59428D01*
X-38292Y59437D01*
X-38292Y59437D01*
X-38292Y59437D01*
X-38300Y59448D01*
X-38357Y59448D01*
D01*
X-38357D01*
X-38361Y59449D01*
X-38396Y59452D01*
X-38421Y59460D01*
X-38433Y59464D01*
X-38451Y59474D01*
X-38467Y59483D01*
X-38497Y59507D01*
Y59507D01*
X-38497D01*
X-38521Y59538D01*
X-38526Y59547D01*
X-38535Y59552D01*
X-38535Y59552D01*
X-38535Y59552D01*
X-38548Y59563D01*
X-38565Y59576D01*
X-38565Y59577D01*
X-38565Y59577D01*
X-38569Y59583D01*
X-38573Y59587D01*
X-38630Y59588D01*
X-38669Y59592D01*
X-38706Y59603D01*
X-38740Y59622D01*
X-38769Y59647D01*
X-38794Y59677D01*
X-38798Y59686D01*
X-38807Y59691D01*
X-38807Y59691D01*
X-38807Y59691D01*
X-38826Y59707D01*
X-38837Y59716D01*
X-38837Y59716D01*
X-38837Y59716D01*
X-38848Y59729D01*
X-38862Y59746D01*
X-38862Y59746D01*
X-38862Y59746D01*
X-38866Y59755D01*
X-38875Y59760D01*
X-38875Y59760D01*
X-38875D01*
X-38881Y59765D01*
X-38905Y59785D01*
X-38905Y59785D01*
X-38905Y59785D01*
X-38916Y59798D01*
X-38929Y59815D01*
X-38929Y59815D01*
X-38929Y59815D01*
X-38934Y59824D01*
X-38943Y59829D01*
X-38943Y59829D01*
X-38943Y59829D01*
X-38952Y59836D01*
X-38973Y59854D01*
X-38973Y59854D01*
X-38973Y59854D01*
X-38982Y59865D01*
X-39039Y59865D01*
X-39039D01*
X-39039D01*
X-39059Y59867D01*
X-39077Y59869D01*
X-39077Y59869D01*
X-39077D01*
X-39093Y59874D01*
X-39114Y59881D01*
X-39114Y59881D01*
X-39114D01*
X-39120Y59884D01*
X-39148Y59899D01*
X-39148Y59899D01*
X-39148Y59899D01*
X-39160Y59909D01*
X-39178Y59924D01*
X-39178Y59924D01*
X-39178Y59924D01*
X-39186Y59934D01*
X-39202Y59955D01*
X-39207Y59964D01*
X-39216Y59969D01*
X-39216Y59969D01*
X-39216Y59969D01*
X-39234Y59983D01*
X-39246Y59993D01*
X-39246Y59993D01*
X-39246Y59993D01*
X-39257Y60008D01*
X-39270Y60023D01*
X-39270Y60023D01*
X-39270Y60024D01*
X-39275Y60033D01*
X-39284Y60037D01*
X-39284Y60038D01*
X-39284Y60038D01*
X-39298Y60049D01*
X-39314Y60062D01*
X-39314Y60062D01*
X-39314Y60062D01*
X-39329Y60082D01*
X-39338Y60093D01*
X-39338Y60093D01*
X-39338Y60093D01*
X-39343Y60102D01*
X-39352Y60107D01*
X-39352Y60107D01*
X-39352Y60107D01*
X-39361Y60114D01*
X-39382Y60132D01*
X-39382Y60132D01*
X-39382Y60132D01*
X-39386Y60137D01*
X-39406Y60162D01*
X-39406Y60162D01*
X-39406Y60162D01*
X-39409Y60167D01*
X-39411Y60171D01*
X-39420Y60176D01*
X-39420Y60176D01*
X-39420Y60176D01*
X-39425Y60180D01*
X-39449Y60201D01*
X-39474Y60231D01*
X-39478Y60240D01*
X-39487Y60245D01*
X-39487Y60245D01*
X-39487Y60245D01*
X-39507Y60261D01*
X-39517Y60270D01*
X-39517Y60270D01*
X-39517Y60270D01*
X-39541Y60299D01*
X-39542Y60300D01*
D01*
X-39542Y60300D01*
X-39546Y60309D01*
X-39555Y60314D01*
X-39555Y60314D01*
X-39555Y60314D01*
X-39574Y60330D01*
X-39585Y60339D01*
X-39585Y60339D01*
X-39585Y60339D01*
X-39596Y60352D01*
X-39609Y60369D01*
X-39610Y60369D01*
X-39610Y60369D01*
X-39614Y60378D01*
X-39623Y60383D01*
X-39623Y60383D01*
X-39623Y60383D01*
X-39639Y60397D01*
X-39653Y60408D01*
X-39653Y60408D01*
X-39653Y60408D01*
X-39666Y60424D01*
X-39677Y60438D01*
X-39677Y60438D01*
X-39677Y60438D01*
X-39689Y60461D01*
X-39695Y60472D01*
X-39695Y60472D01*
X-39695Y60472D01*
X-39702Y60497D01*
X-39706Y60509D01*
Y60510D01*
X-39706Y60510D01*
X-39708Y60532D01*
X-39710Y60548D01*
Y60548D01*
Y60548D01*
Y60548D01*
X-39709Y60605D01*
X-39720Y60614D01*
X-39720Y60614D01*
X-39720Y60614D01*
X-39729Y60626D01*
X-39744Y60644D01*
X-39749Y60653D01*
X-39758Y60658D01*
X-39758Y60658D01*
X-39758Y60658D01*
X-39774Y60671D01*
X-39788Y60683D01*
X-39788Y60683D01*
X-39788Y60683D01*
X-39802Y60701D01*
X-39812Y60713D01*
X-39812Y60713D01*
X-39812Y60713D01*
X-39825Y60737D01*
X-39830Y60747D01*
X-39830Y60747D01*
X-39830Y60747D01*
X-39836Y60767D01*
X-39841Y60785D01*
X-39841Y60785D01*
X-39841Y60785D01*
X-39843Y60803D01*
X-39844Y60823D01*
X-39844Y60823D01*
X-39844Y60823D01*
X-39844Y60880D01*
X-39854Y60889D01*
X-39879Y60919D01*
X-39897Y60953D01*
X-39908Y60991D01*
X-39911Y61029D01*
X-39910Y61098D01*
Y61098D01*
Y61098D01*
X-39908Y61120D01*
X-39907Y61132D01*
X-39909Y61154D01*
X-39910Y61166D01*
X-39910Y61166D01*
X-39910Y61166D01*
X-39909Y61235D01*
X-39906Y61260D01*
X-39906Y61269D01*
X-39908Y61295D01*
X-39909Y61303D01*
Y61303D01*
D01*
D01*
X-39908Y61372D01*
Y61372D01*
Y61372D01*
X-39907Y61440D01*
Y61440D01*
Y61440D01*
X-39907Y61509D01*
X-39903Y61543D01*
X-39904Y61556D01*
X-39906Y61577D01*
Y61577D01*
Y61577D01*
X-39906Y61646D01*
Y61646D01*
Y61646D01*
X-39902Y61684D01*
X-39893Y61711D01*
X-39890Y61721D01*
X-39890Y61721D01*
D01*
X-39888Y61724D01*
X-39871Y61755D01*
X-39846Y61785D01*
X-39846Y61785D01*
X-39846Y61785D01*
X-39836Y61794D01*
X-39835Y61851D01*
X-39831Y61889D01*
X-39820Y61926D01*
X-39801Y61960D01*
X-39776Y61990D01*
X-39766Y61998D01*
X-39765Y62055D01*
Y62055D01*
Y62055D01*
X-39763Y62074D01*
X-39761Y62094D01*
X-39761Y62094D01*
Y62094D01*
X-39754Y62117D01*
X-39749Y62131D01*
X-39749Y62131D01*
X-39749Y62131D01*
X-39739Y62149D01*
X-39731Y62165D01*
X-39731Y62165D01*
X-39731Y62165D01*
X-39719Y62179D01*
X-39706Y62195D01*
X-39706Y62195D01*
X-39706Y62195D01*
X-39695Y62203D01*
X-39695Y62260D01*
X-39695Y62260D01*
X-39695Y62260D01*
X-39693Y62276D01*
X-39691Y62299D01*
X-39691Y62299D01*
Y62299D01*
X-39688Y62307D01*
X-39679Y62336D01*
X-39679Y62336D01*
X-39679Y62336D01*
X-39672Y62349D01*
X-39661Y62370D01*
X-39661Y62370D01*
X-39660Y62370D01*
X-39651Y62381D01*
X-39636Y62400D01*
X-39636Y62400D01*
X-39636Y62400D01*
X-39628Y62406D01*
X-39625Y62408D01*
X-39625Y62465D01*
Y62465D01*
Y62465D01*
X-39623Y62476D01*
X-39620Y62503D01*
X-39609Y62541D01*
X-39609Y62541D01*
X-39609Y62541D01*
X-39595Y62565D01*
X-39590Y62575D01*
X-39590Y62575D01*
X-39590Y62575D01*
X-39574Y62594D01*
X-39565Y62604D01*
X-39565Y62604D01*
X-39565Y62604D01*
X-39553Y62614D01*
X-39551Y62640D01*
X-39539Y62677D01*
D01*
X-39539Y62677D01*
X-39520Y62711D01*
X-39500Y62735D01*
X-39496Y62741D01*
X-39496Y62741D01*
X-39496Y62741D01*
X-39484Y62750D01*
X-39483Y62761D01*
X-39481Y62776D01*
X-39481Y62776D01*
Y62776D01*
X-39471Y62809D01*
X-39470Y62813D01*
Y62813D01*
X-39469Y62813D01*
X-39454Y62841D01*
X-39451Y62847D01*
X-39451Y62847D01*
X-39451Y62847D01*
X-39435Y62866D01*
X-39426Y62877D01*
X-39426Y62877D01*
X-39426Y62877D01*
X-39415Y62886D01*
X-39415Y62943D01*
X-39412Y62967D01*
X-39411Y62981D01*
X-39411Y62981D01*
X-39411Y62981D01*
X-39403Y63006D01*
X-39399Y63018D01*
X-39399Y63018D01*
X-39399Y63018D01*
X-39388Y63038D01*
X-39381Y63052D01*
X-39381Y63052D01*
X-39380Y63052D01*
X-39367Y63068D01*
X-39356Y63082D01*
X-39356Y63082D01*
X-39356Y63082D01*
X-39345Y63090D01*
X-39345Y63147D01*
X-39343Y63159D01*
X-39340Y63186D01*
X-39329Y63223D01*
X-39329Y63223D01*
D01*
X-39310Y63257D01*
X-39294Y63277D01*
X-39285Y63287D01*
X-39285Y63287D01*
X-39285Y63287D01*
X-39255Y63311D01*
X-39246Y63316D01*
X-39241Y63325D01*
X-39216Y63355D01*
X-39216Y63355D01*
X-39216Y63355D01*
X-39186Y63379D01*
X-39177Y63384D01*
X-39176Y63387D01*
X-39172Y63393D01*
X-39172Y63393D01*
X-39172Y63393D01*
X-39156Y63412D01*
X-39147Y63423D01*
X-39147Y63423D01*
X-39147Y63423D01*
X-39135Y63432D01*
X-39135Y63439D01*
X-39133Y63458D01*
X-39133Y63458D01*
X-39133Y63458D01*
X-39126Y63480D01*
X-39121Y63495D01*
X-39121Y63495D01*
X-39121Y63495D01*
X-39112Y63512D01*
X-39103Y63529D01*
X-39103Y63529D01*
X-39102Y63529D01*
X-39092Y63542D01*
X-39078Y63559D01*
X-39078Y63559D01*
X-39078Y63559D01*
X-39066Y63568D01*
X-39063Y63594D01*
X-39051Y63631D01*
D01*
X-39051Y63631D01*
X-39044Y63645D01*
X-39033Y63665D01*
X-39008Y63695D01*
X-39008Y63695D01*
X-39008Y63695D01*
X-38978Y63720D01*
X-38969Y63724D01*
X-38967Y63727D01*
X-38964Y63733D01*
X-38964Y63734D01*
X-38964Y63734D01*
X-38949Y63752D01*
X-38939Y63763D01*
X-38939Y63763D01*
X-38939Y63763D01*
X-38927Y63773D01*
X-38909Y63788D01*
X-38900Y63792D01*
X-38895Y63801D01*
X-38870Y63831D01*
X-38858Y63841D01*
X-38856Y63862D01*
X-38855Y63867D01*
Y63867D01*
X-38855Y63867D01*
X-38846Y63894D01*
X-38844Y63904D01*
X-38844Y63904D01*
X-38844Y63904D01*
X-38833Y63922D01*
X-38825Y63938D01*
X-38825Y63938D01*
X-38825Y63938D01*
X-38813Y63951D01*
X-38800Y63967D01*
X-38800Y63967D01*
X-38800Y63967D01*
X-38788Y63977D01*
X-38785Y64003D01*
X-38774Y64040D01*
D01*
X-38774Y64040D01*
X-38755Y64074D01*
X-38739Y64094D01*
X-38730Y64104D01*
X-38730Y64104D01*
X-38730Y64104D01*
X-38700Y64128D01*
X-38691Y64133D01*
X-38686Y64142D01*
X-38686Y64142D01*
X-38686Y64142D01*
X-38679Y64150D01*
X-38661Y64172D01*
X-38631Y64196D01*
X-38631Y64196D01*
X-38631Y64196D01*
X-38622Y64201D01*
X-38617Y64210D01*
X-38617Y64210D01*
X-38617Y64210D01*
X-38603Y64226D01*
X-38592Y64240D01*
X-38592Y64240D01*
X-38592Y64240D01*
X-38580Y64250D01*
X-38562Y64264D01*
X-38562Y64264D01*
X-38562Y64264D01*
X-38553Y64269D01*
X-38548Y64278D01*
X-38523Y64307D01*
X-38493Y64332D01*
X-38484Y64337D01*
X-38482Y64340D01*
X-38479Y64346D01*
X-38479Y64346D01*
X-38479Y64346D01*
X-38463Y64364D01*
X-38454Y64375D01*
X-38454Y64375D01*
X-38454Y64375D01*
X-38425Y64399D01*
X-38424Y64400D01*
D01*
X-38424Y64400D01*
X-38415Y64404D01*
X-38410Y64413D01*
X-38385Y64443D01*
X-38355Y64468D01*
X-38346Y64472D01*
X-38341Y64481D01*
X-38320Y64506D01*
X-38316Y64511D01*
X-38316Y64511D01*
X-38316Y64511D01*
X-38286Y64535D01*
X-38277Y64540D01*
X-38272Y64549D01*
X-38255Y64569D01*
X-38247Y64579D01*
X-38247Y64579D01*
X-38247Y64579D01*
X-38235Y64588D01*
X-38217Y64603D01*
X-38213Y64605D01*
X-38208Y64608D01*
X-38203Y64617D01*
X-38203Y64617D01*
Y64617D01*
X-38197Y64623D01*
X-38178Y64647D01*
X-38178Y64647D01*
X-38178Y64647D01*
X-38165Y64657D01*
X-38148Y64671D01*
X-38148Y64671D01*
X-38148Y64671D01*
X-38138Y64676D01*
X-38136Y64681D01*
X-38134Y64685D01*
X-38134Y64685D01*
X-38134Y64685D01*
X-38117Y64704D01*
X-38109Y64715D01*
X-38109Y64715D01*
X-38109Y64715D01*
X-38089Y64730D01*
X-38079Y64739D01*
X-38079Y64739D01*
X-38078Y64739D01*
X-38069Y64744D01*
X-38065Y64753D01*
X-38065Y64753D01*
X-38065Y64753D01*
X-38056Y64763D01*
X-38040Y64783D01*
X-38040Y64783D01*
X-38040Y64783D01*
X-38016Y64801D01*
X-38010Y64807D01*
X-38010D01*
X-38010Y64807D01*
X-38000Y64812D01*
X-37995Y64821D01*
X-37995Y64821D01*
X-37995Y64821D01*
X-37984Y64834D01*
X-37971Y64850D01*
X-37971Y64850D01*
X-37971Y64850D01*
X-37958Y64860D01*
X-37940Y64875D01*
X-37940Y64875D01*
X-37940Y64875D01*
X-37931Y64880D01*
X-37926Y64889D01*
X-37926Y64889D01*
Y64889D01*
X-37924Y64891D01*
X-37901Y64918D01*
X-37871Y64943D01*
X-37871Y64943D01*
X-37871Y64943D01*
X-37863Y64947D01*
X-37862Y64947D01*
X-37857Y64956D01*
X-37857Y64956D01*
Y64956D01*
X-37852Y64963D01*
X-37832Y64986D01*
X-37832Y64986D01*
X-37832Y64986D01*
X-37819Y64997D01*
X-37802Y65011D01*
X-37802Y65011D01*
X-37802Y65011D01*
X-37793Y65015D01*
X-37788Y65024D01*
X-37788Y65024D01*
X-37788Y65024D01*
X-37780Y65035D01*
X-37763Y65054D01*
X-37763Y65054D01*
X-37763Y65054D01*
X-37740Y65073D01*
X-37733Y65078D01*
X-37733D01*
X-37733Y65079D01*
X-37724Y65083D01*
X-37723Y65085D01*
X-37719Y65092D01*
X-37719Y65092D01*
X-37719Y65092D01*
X-37703Y65111D01*
X-37694Y65122D01*
X-37694Y65122D01*
X-37694Y65122D01*
X-37676Y65136D01*
X-37664Y65146D01*
X-37664Y65146D01*
X-37664Y65146D01*
X-37655Y65151D01*
X-37650Y65160D01*
X-37650Y65160D01*
X-37650Y65160D01*
X-37635Y65178D01*
X-37625Y65190D01*
X-37625Y65190D01*
X-37625Y65190D01*
X-37595Y65214D01*
X-37562Y65231D01*
X-37561Y65232D01*
D01*
X-37561Y65232D01*
X-37549Y65236D01*
X-37523Y65243D01*
X-37485Y65247D01*
X-37485D01*
X-37485D01*
X-37428Y65246D01*
X-37424Y65251D01*
X-37419Y65257D01*
X-37419Y65257D01*
X-37419Y65257D01*
X-37405Y65268D01*
X-37389Y65281D01*
X-37389Y65281D01*
X-37389Y65281D01*
X-37380Y65286D01*
X-37375Y65295D01*
X-37366Y65306D01*
X-37350Y65324D01*
X-37327Y65343D01*
X-37320Y65349D01*
X-37289Y65365D01*
X-37286Y65367D01*
D01*
X-37286Y65367D01*
X-37270Y65371D01*
X-37248Y65378D01*
X-37210Y65381D01*
X-37210D01*
D01*
D01*
X-37153Y65381D01*
X-37144Y65391D01*
X-37144Y65391D01*
X-37144Y65391D01*
X-37132Y65401D01*
X-37114Y65415D01*
X-37114Y65415D01*
X-37114Y65416D01*
X-37105Y65420D01*
X-37100Y65429D01*
X-37083Y65449D01*
X-37075Y65459D01*
X-37075Y65459D01*
X-37075Y65459D01*
X-37045Y65483D01*
X-37036Y65488D01*
X-37031Y65497D01*
X-37011Y65521D01*
X-37006Y65527D01*
X-37006D01*
Y65527D01*
X-36976Y65551D01*
X-36959Y65560D01*
X-36941Y65569D01*
X-36904Y65580D01*
X-36866Y65584D01*
X-36866D01*
X-36866D01*
X-36809Y65583D01*
X-36800Y65594D01*
X-36770Y65618D01*
X-36761Y65623D01*
X-36756Y65632D01*
X-36747Y65642D01*
X-36731Y65661D01*
X-36708Y65680D01*
X-36701Y65686D01*
X-36669Y65702D01*
X-36666Y65704D01*
D01*
X-36666Y65704D01*
X-36651Y65708D01*
X-36629Y65715D01*
X-36590Y65718D01*
X-36590D01*
D01*
D01*
X-36534Y65718D01*
X-36525Y65728D01*
X-36525Y65728D01*
X-36525Y65728D01*
X-36507Y65742D01*
X-36495Y65753D01*
X-36495Y65753D01*
X-36495Y65753D01*
X-36480Y65760D01*
X-36460Y65771D01*
X-36460Y65771D01*
X-36460D01*
X-36457Y65772D01*
X-36423Y65781D01*
X-36384Y65785D01*
X-36384D01*
X-36384D01*
X-36327Y65784D01*
X-36319Y65795D01*
X-36319Y65795D01*
X-36319Y65795D01*
X-36290Y65818D01*
X-36289Y65819D01*
D01*
X-36288Y65819D01*
X-36279Y65824D01*
X-36274Y65833D01*
X-36258Y65853D01*
X-36250Y65863D01*
X-36250Y65863D01*
X-36250Y65863D01*
X-36219Y65887D01*
X-36198Y65898D01*
X-36185Y65905D01*
X-36185Y65905D01*
X-36185D01*
X-36181Y65906D01*
X-36148Y65916D01*
X-36109Y65919D01*
X-36109D01*
D01*
D01*
X-36041Y65919D01*
X-36017Y65916D01*
X-36007Y65915D01*
X-35976Y65918D01*
X-35972Y65918D01*
X-35972D01*
D01*
D01*
X-35915Y65918D01*
X-35907Y65928D01*
X-35907Y65928D01*
X-35907Y65928D01*
X-35894Y65939D01*
X-35877Y65952D01*
X-35876Y65952D01*
X-35876Y65952D01*
X-35867Y65957D01*
X-35862Y65966D01*
X-35862Y65966D01*
X-35862Y65966D01*
X-35851Y65980D01*
X-35838Y65996D01*
X-35838Y65996D01*
X-35838Y65996D01*
X-35824Y66007D01*
X-35807Y66020D01*
X-35807Y66020D01*
X-35807Y66021D01*
X-35793Y66028D01*
X-35773Y66038D01*
X-35773Y66038D01*
X-35773Y66038D01*
X-35763Y66041D01*
X-35736Y66049D01*
X-35736Y66049D01*
X-35736D01*
X-35728Y66050D01*
X-35697Y66053D01*
X-35697D01*
X-35697D01*
X-35629Y66052D01*
X-35595Y66049D01*
X-35581Y66050D01*
X-35560Y66052D01*
X-35560D01*
X-35560D01*
X-35503Y66051D01*
X-35495Y66062D01*
X-35495Y66062D01*
X-35495Y66062D01*
X-35475Y66077D01*
X-35465Y66086D01*
X-35464Y66086D01*
X-35464Y66086D01*
X-35430Y66104D01*
X-35399Y66113D01*
X-35393Y66115D01*
X-35393D01*
X-35393Y66115D01*
X-35368Y66117D01*
X-35354Y66118D01*
X-35354D01*
X-35354D01*
X-35354D01*
X-35297Y66118D01*
X-35289Y66128D01*
X-35258Y66153D01*
X-35224Y66171D01*
X-35224Y66171D01*
X-35224Y66171D01*
X-35209Y66175D01*
X-35187Y66181D01*
X-35187D01*
X-35187Y66182D01*
X-35169Y66183D01*
X-35148Y66185D01*
X-35148D01*
X-35148D01*
X-35080Y66184D01*
X-35061Y66182D01*
X-35045Y66181D01*
X-35011Y66184D01*
D01*
X-35011D01*
X-34680Y66181D01*
X-34672Y66191D01*
X-34641Y66216D01*
X-34607Y66234D01*
X-34570Y66245D01*
X-34531Y66248D01*
D01*
X-34531D01*
X-34463Y66247D01*
X-34450Y66246D01*
X-34429Y66244D01*
X-34394Y66247D01*
X-34337Y66246D01*
X-34329Y66257D01*
X-34299Y66281D01*
X-34264Y66299D01*
X-34227Y66310D01*
X-34188Y66313D01*
X-34120Y66313D01*
D02*
G37*
G36*
X-31588Y66085D02*
X-31554Y66082D01*
X-31519Y66085D01*
X-31519D01*
X-31519D01*
X-31451Y66084D01*
X-31451D01*
X-31451D01*
X-31412Y66080D01*
X-31386Y66072D01*
X-31375Y66069D01*
X-31375Y66069D01*
D01*
X-31372Y66067D01*
X-31341Y66050D01*
X-31312Y66025D01*
X-31312Y66025D01*
X-31312Y66025D01*
X-31303Y66014D01*
X-31109Y66013D01*
X-31109D01*
X-31109D01*
X-31075Y66009D01*
X-31061Y66010D01*
X-31041Y66012D01*
X-31041D01*
X-31041D01*
X-30972Y66012D01*
X-30948Y66009D01*
X-30934Y66007D01*
X-30934Y66007D01*
X-30934Y66007D01*
X-30909Y66000D01*
X-30897Y65996D01*
X-30897Y65996D01*
X-30897Y65996D01*
X-30872Y65982D01*
X-30863Y65977D01*
X-30863Y65977D01*
X-30863Y65977D01*
X-30843Y65961D01*
X-30833Y65952D01*
X-30833Y65952D01*
X-30833Y65952D01*
X-30824Y65942D01*
X-30767Y65941D01*
X-30751Y65939D01*
X-30729Y65937D01*
X-30729Y65937D01*
X-30729D01*
X-30692Y65926D01*
X-30658Y65907D01*
X-30635Y65888D01*
X-30628Y65882D01*
X-30628Y65882D01*
X-30628Y65882D01*
X-30619Y65872D01*
X-30562Y65871D01*
X-30547Y65869D01*
X-30528Y65867D01*
X-30504Y65869D01*
X-30494Y65870D01*
X-30494D01*
X-30494D01*
X-30426Y65870D01*
X-30387Y65866D01*
X-30360Y65857D01*
X-30350Y65854D01*
X-30350Y65854D01*
D01*
X-30347Y65852D01*
X-30316Y65835D01*
X-30286Y65811D01*
X-30286Y65811D01*
X-30286Y65811D01*
X-30278Y65800D01*
X-30221Y65799D01*
X-30221Y65799D01*
X-30221Y65799D01*
X-30206Y65798D01*
X-30182Y65795D01*
X-30182Y65795D01*
X-30182D01*
X-30174Y65793D01*
X-30145Y65784D01*
X-30145Y65784D01*
X-30145Y65784D01*
X-30129Y65775D01*
X-30111Y65765D01*
X-30111Y65765D01*
X-30111Y65765D01*
X-30095Y65752D01*
X-30081Y65740D01*
X-30081Y65740D01*
X-30081Y65740D01*
X-30073Y65730D01*
X-30016Y65729D01*
X-29977Y65725D01*
X-29940Y65714D01*
X-29914Y65699D01*
X-29906Y65695D01*
X-29906Y65695D01*
X-29906Y65695D01*
X-29891Y65683D01*
X-29877Y65670D01*
X-29877Y65670D01*
X-29877Y65670D01*
X-29852Y65640D01*
X-29847Y65631D01*
X-29838Y65626D01*
X-29838Y65626D01*
X-29838Y65626D01*
X-29825Y65614D01*
X-29809Y65601D01*
X-29809Y65601D01*
X-29809Y65601D01*
X-29800Y65590D01*
X-29743Y65590D01*
X-29743D01*
X-29743D01*
X-29718Y65587D01*
X-29705Y65586D01*
X-29704Y65586D01*
X-29704D01*
X-29680Y65578D01*
X-29668Y65574D01*
X-29667Y65574D01*
X-29667Y65574D01*
X-29655Y65567D01*
X-29634Y65556D01*
X-29634Y65556D01*
X-29634D01*
X-29627Y65550D01*
X-29604Y65531D01*
X-29604Y65531D01*
X-29604Y65531D01*
X-29595Y65520D01*
X-29538Y65520D01*
X-29538D01*
X-29538D01*
X-29518Y65517D01*
X-29500Y65516D01*
X-29500Y65516D01*
X-29500D01*
X-29484Y65510D01*
X-29463Y65504D01*
X-29463Y65504D01*
X-29463D01*
X-29456Y65500D01*
X-29429Y65485D01*
X-29429Y65485D01*
X-29429Y65485D01*
X-29416Y65475D01*
X-29399Y65460D01*
X-29399Y65460D01*
X-29399Y65460D01*
X-29391Y65451D01*
X-29375Y65430D01*
X-29370Y65421D01*
X-29361Y65416D01*
X-29361Y65416D01*
X-29361Y65416D01*
X-29351Y65408D01*
X-29331Y65391D01*
X-29331Y65391D01*
X-29331Y65391D01*
X-29322Y65381D01*
X-29265Y65380D01*
X-29227Y65376D01*
X-29218Y65373D01*
X-29190Y65364D01*
X-29168Y65352D01*
X-29156Y65346D01*
X-29131Y65325D01*
X-29126Y65321D01*
Y65321D01*
X-29126D01*
X-29118Y65311D01*
X-29061Y65310D01*
X-29061D01*
X-29061D01*
X-29036Y65307D01*
X-29022Y65306D01*
X-29022Y65306D01*
X-29022D01*
X-29008Y65302D01*
X-28985Y65294D01*
X-28951Y65276D01*
X-28951Y65276D01*
X-28951D01*
X-28948Y65273D01*
X-28921Y65251D01*
X-28897Y65221D01*
X-28892Y65211D01*
X-28883Y65207D01*
X-28883Y65207D01*
X-28883Y65207D01*
X-28864Y65190D01*
X-28853Y65182D01*
X-28853Y65182D01*
X-28853Y65182D01*
X-28838Y65162D01*
X-28829Y65152D01*
X-28829Y65152D01*
X-28829Y65152D01*
X-28824Y65143D01*
X-28815Y65138D01*
X-28791Y65117D01*
X-28786Y65113D01*
X-28786Y65113D01*
X-28786Y65113D01*
X-28777Y65102D01*
X-28720Y65102D01*
X-28691Y65099D01*
X-28682Y65097D01*
X-28682D01*
X-28681Y65097D01*
X-28644Y65086D01*
X-28615Y65070D01*
X-28611Y65067D01*
X-28611Y65067D01*
X-28611Y65067D01*
X-28593Y65053D01*
X-28581Y65043D01*
X-28581Y65043D01*
X-28581Y65042D01*
X-28557Y65013D01*
X-28556Y65012D01*
D01*
X-28556Y65012D01*
X-28552Y65003D01*
X-28543Y64998D01*
X-28523Y64982D01*
X-28513Y64973D01*
X-28513Y64973D01*
X-28513Y64973D01*
X-28488Y64943D01*
X-28484Y64934D01*
X-28475Y64929D01*
X-28475Y64929D01*
X-28475Y64929D01*
X-28458Y64916D01*
X-28445Y64904D01*
X-28445Y64904D01*
X-28445Y64904D01*
X-28436Y64894D01*
X-28379Y64893D01*
X-28362Y64891D01*
X-28341Y64889D01*
X-28341Y64889D01*
X-28341D01*
X-28318Y64882D01*
X-28304Y64877D01*
X-28304Y64877D01*
X-28304Y64877D01*
X-28281Y64865D01*
X-28270Y64859D01*
X-28270Y64859D01*
X-28270Y64859D01*
X-28251Y64843D01*
X-28240Y64834D01*
X-28240Y64834D01*
X-28240Y64834D01*
X-28229Y64821D01*
X-28216Y64804D01*
X-28216Y64804D01*
X-28216Y64804D01*
X-28211Y64795D01*
X-28202Y64790D01*
X-28172Y64765D01*
X-28148Y64735D01*
X-28143Y64726D01*
X-28134Y64721D01*
X-28134Y64721D01*
X-28134Y64721D01*
X-28121Y64710D01*
X-28104Y64696D01*
X-28104Y64696D01*
X-28104Y64696D01*
X-28095Y64684D01*
X-28080Y64666D01*
X-28080Y64666D01*
X-28080Y64666D01*
X-28075Y64657D01*
X-28066Y64652D01*
X-28066Y64652D01*
X-28066Y64652D01*
X-28058Y64645D01*
X-28036Y64627D01*
X-28028Y64616D01*
X-27971Y64616D01*
X-27943Y64613D01*
X-27933Y64612D01*
X-27933D01*
X-27933Y64612D01*
X-27899Y64601D01*
X-27896Y64600D01*
X-27896D01*
X-27895Y64600D01*
X-27867Y64585D01*
X-27861Y64581D01*
X-27861Y64581D01*
X-27861Y64581D01*
X-27844Y64567D01*
X-27832Y64557D01*
X-27832Y64556D01*
X-27832Y64556D01*
X-27820Y64542D01*
X-27807Y64526D01*
X-27807Y64526D01*
X-27807Y64526D01*
X-27803Y64517D01*
X-27800Y64516D01*
X-27793Y64512D01*
X-27793Y64512D01*
X-27793Y64512D01*
X-27764Y64487D01*
X-27748Y64467D01*
X-27739Y64457D01*
X-27735Y64448D01*
X-27726Y64443D01*
X-27696Y64418D01*
X-27672Y64388D01*
X-27667Y64379D01*
X-27658Y64374D01*
X-27628Y64349D01*
X-27628Y64349D01*
X-27628Y64349D01*
X-27604Y64319D01*
X-27599Y64310D01*
X-27597Y64309D01*
X-27590Y64305D01*
X-27590Y64305D01*
X-27590Y64305D01*
X-27571Y64289D01*
X-27560Y64280D01*
X-27560Y64280D01*
X-27560Y64280D01*
X-27550Y64267D01*
X-27536Y64250D01*
X-27536Y64250D01*
X-27536Y64250D01*
X-27531Y64241D01*
X-27528Y64239D01*
X-27522Y64236D01*
X-27522Y64236D01*
X-27522Y64236D01*
X-27503Y64220D01*
X-27492Y64211D01*
X-27492Y64211D01*
X-27492Y64211D01*
X-27483Y64199D01*
X-27476Y64198D01*
X-27457Y64196D01*
X-27457Y64196D01*
X-27457Y64196D01*
X-27438Y64191D01*
X-27420Y64185D01*
X-27420Y64185D01*
X-27419Y64185D01*
X-27401Y64175D01*
X-27386Y64166D01*
X-27386Y64166D01*
X-27385Y64166D01*
X-27372Y64155D01*
X-27356Y64141D01*
X-27356Y64141D01*
X-27356Y64141D01*
X-27344Y64126D01*
X-27332Y64111D01*
X-27332Y64111D01*
X-27331Y64111D01*
X-27322Y64092D01*
X-27314Y64077D01*
X-27314Y64077D01*
X-27314Y64077D01*
X-27309Y64062D01*
X-27291Y64062D01*
X-27268Y64059D01*
X-27253Y64058D01*
X-27253Y64058D01*
X-27252D01*
X-27228Y64050D01*
X-27215Y64046D01*
X-27215Y64046D01*
X-27215Y64046D01*
X-27191Y64033D01*
X-27182Y64028D01*
X-27181Y64028D01*
X-27181Y64028D01*
X-27162Y64012D01*
X-27152Y64003D01*
X-27152Y64003D01*
X-27152Y64003D01*
X-27141Y63990D01*
X-27127Y63973D01*
X-27127Y63973D01*
X-27127Y63973D01*
X-27109Y63938D01*
X-27103Y63915D01*
X-27094Y63912D01*
X-27080Y63908D01*
X-27080Y63908D01*
X-27080Y63908D01*
X-27062Y63898D01*
X-27046Y63889D01*
X-27046Y63889D01*
X-27046Y63889D01*
X-27032Y63878D01*
X-27016Y63865D01*
X-27016Y63864D01*
X-27016Y63864D01*
X-27000Y63845D01*
X-26992Y63834D01*
X-26992Y63834D01*
X-26992Y63834D01*
X-26974Y63800D01*
X-26967Y63777D01*
X-26956Y63774D01*
X-26944Y63770D01*
X-26944Y63770D01*
X-26944Y63770D01*
X-26932Y63763D01*
X-26910Y63751D01*
X-26910Y63751D01*
X-26910D01*
X-26904Y63746D01*
X-26880Y63726D01*
X-26880Y63726D01*
X-26880Y63726D01*
X-26870Y63713D01*
X-26856Y63696D01*
X-26856Y63696D01*
X-26856Y63696D01*
X-26849Y63683D01*
X-26838Y63662D01*
X-26838Y63662D01*
X-26838Y63662D01*
X-26833Y63647D01*
X-26831Y63639D01*
X-26808Y63632D01*
X-26774Y63613D01*
X-26774Y63613D01*
X-26774Y63613D01*
X-26764Y63605D01*
X-26744Y63588D01*
X-26744Y63588D01*
X-26744Y63588D01*
X-26734Y63575D01*
X-26720Y63558D01*
X-26720Y63558D01*
X-26720Y63558D01*
X-26715Y63549D01*
X-26702Y63524D01*
X-26702Y63524D01*
X-26702Y63524D01*
X-26699Y63515D01*
X-26695Y63501D01*
X-26672Y63494D01*
X-26672Y63494D01*
X-26672D01*
X-26666Y63490D01*
X-26638Y63475D01*
X-26638Y63475D01*
X-26638Y63475D01*
X-26626Y63465D01*
X-26609Y63450D01*
X-26609Y63450D01*
X-26609Y63450D01*
X-26591Y63428D01*
X-26584Y63420D01*
Y63420D01*
X-26584Y63420D01*
X-26574Y63399D01*
X-26566Y63386D01*
X-26566Y63386D01*
X-26566Y63385D01*
X-26559Y63362D01*
X-26537Y63355D01*
X-26503Y63337D01*
X-26473Y63312D01*
Y63312D01*
X-26473D01*
X-26449Y63282D01*
X-26432Y63250D01*
X-26430Y63247D01*
D01*
X-26430Y63247D01*
X-26420Y63210D01*
X-26417Y63184D01*
X-26406Y63174D01*
X-26381Y63144D01*
X-26363Y63110D01*
X-26352Y63073D01*
X-26350Y63047D01*
X-26338Y63037D01*
X-26338Y63037D01*
X-26338Y63037D01*
X-26326Y63021D01*
X-26314Y63007D01*
X-26314Y63007D01*
X-26314Y63007D01*
X-26309Y62998D01*
X-26300Y62993D01*
X-26270Y62968D01*
X-26246Y62938D01*
X-26241Y62928D01*
X-26232Y62924D01*
X-26202Y62899D01*
X-26178Y62868D01*
X-26173Y62859D01*
X-26164Y62854D01*
X-26144Y62838D01*
X-26135Y62830D01*
X-26135Y62830D01*
X-26135Y62830D01*
X-26110Y62799D01*
X-26105Y62790D01*
X-26096Y62785D01*
X-26096Y62785D01*
X-26096Y62785D01*
X-26079Y62771D01*
X-26067Y62761D01*
X-26067Y62760D01*
X-26067Y62760D01*
X-26054Y62745D01*
X-26042Y62730D01*
X-26042Y62730D01*
X-26042Y62730D01*
X-26038Y62721D01*
X-26029Y62716D01*
X-25999Y62691D01*
X-25975Y62661D01*
X-25957Y62627D01*
X-25946Y62590D01*
X-25942Y62551D01*
X-25943Y62494D01*
X-25932Y62485D01*
X-25932Y62485D01*
X-25932Y62485D01*
X-25920Y62471D01*
X-25908Y62455D01*
X-25908Y62455D01*
X-25908Y62455D01*
X-25903Y62446D01*
X-25894Y62441D01*
X-25864Y62416D01*
X-25840Y62386D01*
X-25835Y62377D01*
X-25826Y62372D01*
X-25796Y62347D01*
X-25796Y62347D01*
X-25796Y62347D01*
X-25791Y62341D01*
X-25772Y62317D01*
X-25767Y62308D01*
X-25758Y62303D01*
X-25742Y62290D01*
X-25728Y62278D01*
X-25704Y62248D01*
X-25704Y62248D01*
X-25704Y62248D01*
X-25699Y62239D01*
X-25697Y62237D01*
X-25690Y62234D01*
X-25690Y62234D01*
X-25690Y62234D01*
X-25672Y62219D01*
X-25661Y62209D01*
X-25661Y62209D01*
X-25661Y62209D01*
X-25651Y62197D01*
X-25636Y62179D01*
X-25618Y62145D01*
D01*
X-25618Y62144D01*
X-25607Y62107D01*
X-25605Y62081D01*
X-25593Y62072D01*
X-25593Y62072D01*
X-25593Y62072D01*
X-25579Y62054D01*
X-25569Y62041D01*
X-25569Y62041D01*
X-25569Y62041D01*
X-25556Y62017D01*
X-25551Y62007D01*
X-25551Y62007D01*
X-25551Y62007D01*
X-25545Y61987D01*
X-25540Y61970D01*
X-25540Y61970D01*
X-25540Y61970D01*
X-25538Y61951D01*
X-25538Y61944D01*
X-25537Y61943D01*
X-25526Y61934D01*
X-25526Y61934D01*
X-25526Y61934D01*
X-25515Y61921D01*
X-25502Y61904D01*
X-25502Y61904D01*
X-25502Y61904D01*
X-25497Y61895D01*
X-25488Y61890D01*
X-25488Y61890D01*
X-25488D01*
X-25482Y61885D01*
X-25458Y61865D01*
X-25458Y61865D01*
X-25458Y61865D01*
X-25448Y61852D01*
X-25434Y61835D01*
X-25434Y61835D01*
X-25434Y61835D01*
X-25427Y61822D01*
X-25416Y61800D01*
X-25416Y61800D01*
X-25416Y61800D01*
X-25411Y61785D01*
X-25405Y61763D01*
Y61763D01*
X-25405Y61763D01*
X-25403Y61745D01*
X-25401Y61725D01*
Y61725D01*
Y61725D01*
X-25402Y61668D01*
X-25392Y61659D01*
X-25367Y61629D01*
X-25362Y61620D01*
X-25353Y61615D01*
X-25353Y61615D01*
X-25353Y61615D01*
X-25344Y61607D01*
X-25324Y61590D01*
X-25324Y61590D01*
X-25324Y61590D01*
X-25315Y61579D01*
X-25299Y61560D01*
X-25299Y61560D01*
X-25299Y61559D01*
X-25295Y61550D01*
X-25286Y61546D01*
X-25286Y61546D01*
X-25286Y61546D01*
X-25267Y61530D01*
X-25256Y61521D01*
X-25256Y61521D01*
X-25256Y61521D01*
X-25245Y61508D01*
X-25231Y61490D01*
X-25231Y61490D01*
X-25231Y61490D01*
X-25213Y61456D01*
X-25205Y61428D01*
X-25203Y61419D01*
Y61419D01*
X-25203Y61419D01*
X-25201Y61398D01*
X-25199Y61380D01*
Y61380D01*
D01*
D01*
X-25199Y61323D01*
X-25199Y61323D01*
X-25189Y61315D01*
X-25165Y61285D01*
X-25160Y61275D01*
X-25151Y61270D01*
X-25121Y61246D01*
X-25121Y61246D01*
X-25121Y61246D01*
X-25112Y61234D01*
X-25097Y61215D01*
X-25095Y61212D01*
X-25079Y61181D01*
X-25069Y61149D01*
X-25068Y61144D01*
Y61144D01*
X-25068Y61144D01*
X-25065Y61117D01*
X-25065Y61105D01*
Y61105D01*
Y61105D01*
X-25065Y61048D01*
X-25054Y61040D01*
X-25054Y61040D01*
X-25054Y61040D01*
X-25041Y61023D01*
X-25030Y61009D01*
X-25030Y61009D01*
X-25030Y61009D01*
X-25025Y61000D01*
X-25016Y60995D01*
X-24987Y60970D01*
X-24962Y60940D01*
X-24944Y60906D01*
X-24933Y60869D01*
X-24930Y60830D01*
D01*
Y60830D01*
X-24930Y60773D01*
X-24920Y60764D01*
X-24920Y60764D01*
X-24920Y60764D01*
X-24910Y60753D01*
X-24896Y60734D01*
X-24891Y60725D01*
X-24882Y60720D01*
X-24852Y60695D01*
X-24852Y60695D01*
X-24852Y60695D01*
X-24847Y60689D01*
X-24828Y60665D01*
X-24810Y60631D01*
X-24810Y60631D01*
Y60631D01*
X-24799Y60594D01*
X-24796Y60565D01*
X-24795Y60555D01*
Y60555D01*
Y60555D01*
X-24796Y60498D01*
X-24785Y60489D01*
X-24785Y60489D01*
X-24785Y60489D01*
X-24775Y60477D01*
X-24761Y60459D01*
X-24761Y60459D01*
X-24761Y60459D01*
X-24756Y60450D01*
X-24747Y60445D01*
X-24723Y60425D01*
X-24717Y60420D01*
X-24717Y60420D01*
X-24717Y60420D01*
X-24706Y60406D01*
X-24693Y60390D01*
X-24693Y60390D01*
X-24693Y60390D01*
X-24677Y60359D01*
X-24675Y60356D01*
D01*
X-24675Y60356D01*
X-24671Y60340D01*
X-24664Y60318D01*
X-24661Y60280D01*
Y60280D01*
D01*
D01*
X-24661Y60223D01*
X-24651Y60214D01*
X-24626Y60184D01*
X-24609Y60150D01*
X-24598Y60113D01*
X-24594Y60074D01*
D01*
Y60074D01*
X-24595Y60005D01*
D01*
Y60005D01*
X-24595Y59937D01*
X-24595Y59937D01*
X-24599Y59898D01*
X-24611Y59861D01*
X-24621Y59843D01*
X-24630Y59827D01*
X-24654Y59798D01*
X-24654D01*
Y59798D01*
X-24685Y59773D01*
X-24701Y59765D01*
X-24719Y59755D01*
X-24756Y59744D01*
X-24795Y59741D01*
D01*
X-24795D01*
X-24866Y59741D01*
X-24860Y59737D01*
X-24860Y59737D01*
X-24860Y59737D01*
X-24836Y59706D01*
X-24825Y59685D01*
X-24818Y59672D01*
X-24818Y59672D01*
Y59672D01*
X-24817Y59668D01*
X-24807Y59635D01*
X-24804Y59596D01*
Y59596D01*
D01*
D01*
X-24804Y59539D01*
X-24794Y59531D01*
X-24794Y59531D01*
X-24794Y59531D01*
X-24770Y59501D01*
X-24769Y59500D01*
D01*
X-24769Y59500D01*
X-24765Y59491D01*
X-24756Y59486D01*
X-24726Y59461D01*
X-24701Y59431D01*
X-24683Y59397D01*
X-24673Y59360D01*
X-24669Y59321D01*
D01*
Y59321D01*
X-24670Y59264D01*
X-24659Y59255D01*
X-24635Y59225D01*
X-24635Y59225D01*
X-24635Y59225D01*
X-24630Y59216D01*
X-24621Y59211D01*
X-24621Y59211D01*
X-24621Y59211D01*
X-24591Y59186D01*
X-24573Y59163D01*
X-24567Y59156D01*
X-24567Y59156D01*
X-24567Y59156D01*
X-24557Y59138D01*
X-24549Y59122D01*
X-24549Y59122D01*
X-24549Y59122D01*
X-24542Y59097D01*
X-24538Y59085D01*
Y59085D01*
X-24538Y59084D01*
X-24536Y59061D01*
X-24534Y59046D01*
Y59046D01*
Y59046D01*
Y59046D01*
X-24535Y58989D01*
X-24535Y58989D01*
X-24525Y58980D01*
X-24524Y58980D01*
X-24524Y58980D01*
X-24509Y58961D01*
X-24500Y58950D01*
X-24500Y58950D01*
X-24500Y58950D01*
X-24491Y58932D01*
X-24482Y58916D01*
X-24482Y58916D01*
X-24482Y58916D01*
X-24479Y58904D01*
X-24471Y58879D01*
X-24471Y58879D01*
Y58879D01*
X-24470Y58868D01*
X-24468Y58840D01*
Y58840D01*
Y58840D01*
Y58840D01*
X-24468Y58783D01*
X-24458Y58774D01*
X-24433Y58744D01*
X-24416Y58710D01*
X-24416Y58710D01*
X-24416Y58710D01*
X-24413Y58701D01*
X-24405Y58673D01*
Y58673D01*
X-24405Y58673D01*
X-24403Y58655D01*
X-24401Y58634D01*
Y58634D01*
Y58634D01*
X-24402Y58577D01*
X-24391Y58568D01*
X-24391Y58568D01*
X-24391Y58568D01*
X-24368Y58539D01*
X-24367Y58538D01*
D01*
X-24367Y58538D01*
X-24351Y58507D01*
X-24349Y58504D01*
Y58504D01*
X-24349Y58504D01*
X-24342Y58481D01*
X-24338Y58467D01*
Y58467D01*
X-24338Y58467D01*
X-24337Y58450D01*
X-24335Y58428D01*
Y58428D01*
Y58428D01*
X-24335Y58371D01*
X-24325Y58362D01*
X-24325Y58362D01*
X-24325Y58362D01*
X-24314Y58349D01*
X-24300Y58332D01*
X-24300Y58332D01*
X-24300Y58332D01*
X-24293Y58319D01*
X-24282Y58298D01*
X-24282Y58298D01*
X-24282Y58298D01*
X-24276Y58278D01*
X-24271Y58261D01*
Y58261D01*
X-24271Y58261D01*
X-24269Y58239D01*
X-24268Y58222D01*
Y58222D01*
D01*
D01*
X-24268Y58165D01*
X-24258Y58156D01*
X-24258Y58156D01*
X-24258Y58156D01*
X-24247Y58143D01*
X-24234Y58126D01*
X-24234Y58126D01*
X-24234Y58126D01*
X-24227Y58113D01*
X-24216Y58092D01*
X-24216Y58092D01*
X-24216Y58092D01*
X-24210Y58072D01*
X-24205Y58055D01*
Y58055D01*
X-24205Y58055D01*
X-24203Y58033D01*
X-24201Y58016D01*
Y58016D01*
D01*
D01*
X-24202Y57947D01*
X-24205Y57913D01*
X-24204Y57898D01*
X-24202Y57879D01*
Y57879D01*
Y57879D01*
Y57879D01*
X-24203Y57810D01*
X-24204Y57742D01*
Y57742D01*
Y57742D01*
X-24204Y57685D01*
X-24193Y57676D01*
X-24193Y57676D01*
X-24193Y57676D01*
X-24183Y57663D01*
X-24169Y57646D01*
X-24169Y57646D01*
X-24169Y57646D01*
X-24162Y57633D01*
X-24151Y57612D01*
X-24151Y57612D01*
X-24151Y57612D01*
X-24147Y57596D01*
X-24140Y57575D01*
Y57574D01*
X-24140Y57574D01*
X-24139Y57558D01*
X-24137Y57536D01*
Y57536D01*
Y57536D01*
X-24137Y57467D01*
X-24141Y57433D01*
X-24138Y57399D01*
X-24139Y57331D01*
X-24142Y57296D01*
X-24141Y57283D01*
X-24139Y57262D01*
Y57262D01*
Y57262D01*
X-24140Y57193D01*
D01*
X-24140Y57125D01*
D01*
Y57125D01*
X-24141Y57057D01*
Y57057D01*
Y57056D01*
X-24145Y57023D01*
X-24142Y56996D01*
X-24142Y56988D01*
Y56988D01*
D01*
D01*
X-24142Y56920D01*
D01*
Y56920D01*
X-24143Y56851D01*
D01*
X-24143Y56783D01*
Y56783D01*
Y56783D01*
X-24145Y56764D01*
X-24147Y56748D01*
X-24147Y56745D01*
X-24144Y56714D01*
Y56714D01*
Y56714D01*
X-24145Y56646D01*
X-24147Y56626D01*
X-24148Y56612D01*
X-24147Y56593D01*
X-24145Y56577D01*
Y56577D01*
Y56577D01*
Y56577D01*
X-24146Y56509D01*
Y56509D01*
Y56509D01*
X-24147Y56498D01*
X-24149Y56475D01*
X-24148Y56459D01*
X-24146Y56440D01*
Y56440D01*
D01*
D01*
X-24147Y56372D01*
X-24149Y56356D01*
X-24151Y56333D01*
X-24151Y56333D01*
Y56333D01*
X-24158Y56312D01*
X-24163Y56296D01*
X-24163Y56296D01*
X-24163Y56296D01*
X-24177Y56270D01*
X-24181Y56262D01*
X-24181Y56262D01*
X-24181Y56262D01*
X-24197Y56243D01*
X-24206Y56233D01*
X-24206Y56233D01*
X-24206Y56232D01*
X-24217Y56224D01*
X-24217Y56167D01*
D01*
X-24218Y56099D01*
Y56099D01*
Y56098D01*
X-24218Y56030D01*
X-24222Y55993D01*
X-24223Y55992D01*
D01*
X-24223Y55991D01*
X-24231Y55966D01*
X-24234Y55954D01*
X-24234Y55954D01*
X-24234Y55954D01*
X-24242Y55941D01*
X-24253Y55920D01*
X-24253Y55920D01*
X-24253Y55920D01*
X-24264Y55907D01*
X-24278Y55891D01*
X-24278Y55891D01*
X-24278Y55891D01*
X-24288Y55882D01*
X-24289Y55825D01*
X-24289Y55825D01*
X-24289Y55825D01*
X-24289Y55757D01*
Y55757D01*
X-24290Y55688D01*
X-24294Y55654D01*
X-24291Y55620D01*
Y55620D01*
D01*
D01*
X-24291Y55551D01*
X-24295Y55513D01*
X-24307Y55476D01*
X-24325Y55442D01*
X-24350Y55412D01*
X-24361Y55403D01*
X-24361Y55346D01*
X-24365Y55308D01*
X-24374Y55281D01*
X-24377Y55271D01*
X-24377Y55271D01*
D01*
X-24379Y55268D01*
X-24396Y55237D01*
X-24420Y55207D01*
X-24420Y55207D01*
X-24421Y55207D01*
X-24431Y55199D01*
X-24432Y55142D01*
Y55142D01*
Y55142D01*
X-24433Y55124D01*
X-24435Y55107D01*
X-24432Y55073D01*
D01*
Y55073D01*
X-24433Y55005D01*
X-24435Y54980D01*
X-24437Y54966D01*
X-24437Y54966D01*
Y54966D01*
X-24447Y54934D01*
X-24449Y54929D01*
Y54929D01*
X-24449Y54929D01*
X-24464Y54901D01*
X-24467Y54895D01*
X-24467Y54895D01*
X-24467Y54895D01*
X-24483Y54876D01*
X-24492Y54865D01*
X-24492Y54865D01*
X-24492Y54865D01*
X-24504Y54856D01*
X-24504Y54852D01*
X-24507Y54830D01*
X-24507Y54830D01*
Y54830D01*
X-24509Y54821D01*
X-24518Y54793D01*
X-24518Y54793D01*
X-24518Y54793D01*
X-24527Y54776D01*
X-24537Y54759D01*
X-24537Y54759D01*
X-24537Y54759D01*
X-24550Y54743D01*
X-24562Y54729D01*
X-24562Y54729D01*
X-24562Y54729D01*
X-24574Y54719D01*
X-24575Y54707D01*
X-24576Y54698D01*
X-24575Y54691D01*
X-24573Y54663D01*
Y54663D01*
Y54663D01*
Y54663D01*
X-24573Y54595D01*
X-24577Y54556D01*
X-24589Y54519D01*
X-24608Y54485D01*
X-24633Y54456D01*
X-24644Y54446D01*
X-24645Y54440D01*
X-24647Y54420D01*
X-24647Y54420D01*
Y54420D01*
X-24654Y54397D01*
X-24659Y54383D01*
X-24659Y54383D01*
X-24659Y54383D01*
X-24675Y54353D01*
X-24677Y54349D01*
X-24677Y54349D01*
X-24677Y54349D01*
X-24693Y54330D01*
X-24702Y54319D01*
X-24702Y54319D01*
X-24702Y54319D01*
X-24714Y54310D01*
X-24716Y54288D01*
X-24714Y54261D01*
X-24713Y54254D01*
Y54254D01*
D01*
D01*
X-24714Y54185D01*
Y54185D01*
Y54185D01*
X-24718Y54147D01*
X-24726Y54120D01*
X-24730Y54110D01*
X-24730Y54110D01*
D01*
X-24731Y54106D01*
X-24748Y54076D01*
X-24773Y54046D01*
X-24773Y54046D01*
X-24773Y54046D01*
X-24780Y54041D01*
X-24803Y54022D01*
X-24812Y54017D01*
X-24817Y54008D01*
X-24817Y54008D01*
X-24817Y54008D01*
X-24826Y53997D01*
X-24842Y53978D01*
X-24842Y53978D01*
X-24842Y53978D01*
X-24850Y53971D01*
X-24853Y53969D01*
X-24853Y53913D01*
X-24853Y53913D01*
X-24853Y53912D01*
X-24855Y53897D01*
X-24857Y53874D01*
X-24857Y53874D01*
Y53874D01*
X-24860Y53867D01*
X-24869Y53837D01*
X-24869Y53837D01*
X-24869Y53837D01*
X-24879Y53819D01*
X-24888Y53803D01*
X-24888Y53803D01*
X-24888Y53803D01*
X-24898Y53790D01*
X-24912Y53773D01*
X-24913Y53773D01*
X-24913Y53773D01*
X-24925Y53763D01*
X-24943Y53749D01*
X-24943Y53749D01*
X-24943Y53749D01*
X-24952Y53744D01*
X-24957Y53735D01*
X-24957Y53735D01*
X-24957Y53735D01*
X-24973Y53716D01*
X-24982Y53705D01*
X-24982Y53705D01*
X-24982Y53705D01*
X-24992Y53697D01*
X-24993Y53640D01*
Y53640D01*
Y53640D01*
X-24994Y53628D01*
X-24997Y53601D01*
X-25008Y53564D01*
X-25023Y53537D01*
X-25027Y53530D01*
X-25044Y53510D01*
X-25052Y53500D01*
X-25052Y53500D01*
X-25052Y53500D01*
X-25067Y53489D01*
X-25082Y53476D01*
X-25082Y53476D01*
X-25082Y53476D01*
X-25091Y53471D01*
X-25096Y53462D01*
X-25121Y53433D01*
X-25121Y53433D01*
X-25121Y53433D01*
X-25127Y53427D01*
X-25131Y53424D01*
X-25132Y53367D01*
X-25136Y53329D01*
X-25148Y53292D01*
X-25166Y53258D01*
X-25191Y53228D01*
X-25221Y53203D01*
X-25230Y53199D01*
X-25233Y53193D01*
X-25235Y53190D01*
X-25235Y53190D01*
X-25235Y53189D01*
X-25252Y53170D01*
X-25260Y53160D01*
X-25260Y53160D01*
X-25260Y53160D01*
X-25280Y53144D01*
X-25290Y53136D01*
X-25290Y53136D01*
X-25291Y53136D01*
X-25300Y53131D01*
X-25304Y53122D01*
X-25329Y53092D01*
X-25329Y53092D01*
X-25329Y53092D01*
X-25341Y53082D01*
X-25342Y53077D01*
X-25344Y53056D01*
X-25344Y53056D01*
X-25344Y53056D01*
X-25349Y53042D01*
X-25355Y53019D01*
X-25355Y53019D01*
X-25356Y53019D01*
X-25365Y53003D01*
X-25374Y52985D01*
X-25374Y52985D01*
X-25374Y52985D01*
X-25385Y52972D01*
X-25399Y52956D01*
X-25399Y52956D01*
X-25399Y52956D01*
X-25409Y52947D01*
X-25411Y52946D01*
X-25414Y52920D01*
X-25422Y52894D01*
X-25425Y52883D01*
X-25425Y52883D01*
D01*
X-25444Y52849D01*
X-25460Y52829D01*
X-25469Y52819D01*
X-25469Y52819D01*
X-25469Y52819D01*
X-25499Y52795D01*
X-25508Y52790D01*
X-25513Y52781D01*
X-25538Y52751D01*
X-25538Y52751D01*
X-25538Y52751D01*
X-25550Y52742D01*
X-25568Y52727D01*
X-25577Y52722D01*
X-25582Y52713D01*
X-25582Y52713D01*
X-25582Y52713D01*
X-25596Y52697D01*
X-25607Y52684D01*
X-25607Y52683D01*
X-25607Y52683D01*
X-25620Y52673D01*
X-25637Y52659D01*
X-25637Y52659D01*
X-25637Y52659D01*
X-25646Y52654D01*
X-25651Y52645D01*
X-25651Y52645D01*
X-25651Y52645D01*
X-25665Y52629D01*
X-25676Y52616D01*
X-25676Y52615D01*
X-25676Y52615D01*
X-25686Y52607D01*
X-25687Y52550D01*
X-25687Y52550D01*
X-25691Y52512D01*
X-25703Y52474D01*
X-25721Y52440D01*
X-25739Y52419D01*
X-25746Y52411D01*
X-25746Y52411D01*
X-25746Y52411D01*
X-25764Y52397D01*
X-25776Y52386D01*
X-25776Y52386D01*
X-25776Y52386D01*
X-25791Y52379D01*
X-25811Y52368D01*
X-25811Y52368D01*
X-25811D01*
X-25814Y52367D01*
X-25834Y52362D01*
X-25841Y52339D01*
Y52339D01*
X-25841Y52339D01*
X-25856Y52311D01*
X-25859Y52305D01*
X-25859Y52305D01*
X-25859Y52305D01*
X-25875Y52286D01*
X-25884Y52275D01*
X-25884Y52275D01*
X-25884Y52275D01*
X-25913Y52251D01*
X-25914Y52251D01*
D01*
X-25914Y52251D01*
X-25924Y52246D01*
X-25929Y52237D01*
X-25929Y52237D01*
X-25929Y52237D01*
X-25940Y52223D01*
X-25953Y52207D01*
X-25953Y52207D01*
X-25953Y52207D01*
X-25967Y52196D01*
X-25984Y52183D01*
X-25984Y52183D01*
X-25984Y52183D01*
X-25993Y52178D01*
X-25998Y52169D01*
X-26022Y52139D01*
X-26022Y52139D01*
X-26022Y52139D01*
X-26053Y52115D01*
X-26062Y52110D01*
X-26063Y52108D01*
X-26067Y52101D01*
X-26067Y52101D01*
X-26067Y52101D01*
X-26083Y52082D01*
X-26091Y52071D01*
X-26092Y52071D01*
X-26092Y52071D01*
X-26109Y52057D01*
X-26122Y52047D01*
X-26122Y52047D01*
X-26122Y52047D01*
X-26131Y52042D01*
X-26136Y52033D01*
X-26136Y52033D01*
X-26136Y52033D01*
X-26145Y52022D01*
X-26160Y52004D01*
X-26160Y52004D01*
X-26161Y52003D01*
X-26177Y51990D01*
X-26191Y51979D01*
X-26191Y51979D01*
X-26191Y51979D01*
X-26200Y51974D01*
X-26201Y51973D01*
X-26205Y51965D01*
X-26205Y51965D01*
X-26205Y51965D01*
X-26221Y51946D01*
X-26230Y51936D01*
X-26230Y51935D01*
X-26230Y51935D01*
X-26243Y51925D01*
X-26260Y51911D01*
X-26260Y51911D01*
X-26260Y51911D01*
X-26269Y51907D01*
X-26271Y51903D01*
X-26274Y51897D01*
X-26299Y51868D01*
X-26329Y51843D01*
X-26338Y51838D01*
X-26343Y51830D01*
X-26343Y51830D01*
X-26343Y51829D01*
X-26359Y51810D01*
X-26368Y51800D01*
X-26368Y51800D01*
X-26368Y51800D01*
X-26391Y51781D01*
X-26398Y51775D01*
X-26398D01*
X-26398Y51775D01*
X-26407Y51771D01*
X-26409Y51768D01*
X-26412Y51762D01*
X-26412Y51762D01*
X-26412Y51762D01*
X-26428Y51743D01*
X-26437Y51732D01*
X-26437Y51732D01*
X-26437Y51732D01*
X-26466Y51709D01*
X-26467Y51708D01*
D01*
X-26467Y51708D01*
X-26476Y51703D01*
X-26481Y51694D01*
X-26481Y51694D01*
X-26481Y51694D01*
X-26493Y51680D01*
X-26506Y51664D01*
X-26506Y51664D01*
X-26506Y51664D01*
X-26518Y51654D01*
X-26536Y51640D01*
X-26536Y51640D01*
X-26536Y51640D01*
X-26545Y51635D01*
X-26550Y51626D01*
X-26550Y51626D01*
X-26550Y51626D01*
X-26559Y51616D01*
X-26575Y51596D01*
X-26575Y51596D01*
X-26575Y51596D01*
X-26599Y51577D01*
X-26605Y51572D01*
X-26605D01*
X-26605Y51572D01*
X-26614Y51567D01*
X-26619Y51558D01*
X-26619Y51558D01*
X-26619Y51558D01*
X-26634Y51540D01*
X-26644Y51528D01*
X-26644Y51528D01*
X-26644Y51528D01*
X-26659Y51516D01*
X-26674Y51504D01*
X-26674Y51504D01*
X-26674Y51504D01*
X-26684Y51499D01*
X-26688Y51490D01*
X-26688Y51490D01*
X-26688Y51490D01*
X-26702Y51474D01*
X-26713Y51460D01*
X-26713Y51460D01*
X-26713Y51460D01*
X-26730Y51447D01*
X-26743Y51436D01*
X-26743Y51436D01*
X-26744Y51436D01*
X-26773Y51421D01*
X-26778Y51418D01*
X-26778D01*
X-26778Y51418D01*
X-26801Y51411D01*
X-26808Y51388D01*
D01*
X-26808Y51388D01*
X-26820Y51367D01*
X-26827Y51354D01*
X-26827Y51354D01*
X-26827Y51354D01*
X-26839Y51339D01*
X-26851Y51325D01*
X-26851Y51325D01*
X-26851Y51325D01*
X-26869Y51310D01*
X-26882Y51300D01*
X-26882Y51300D01*
X-26882Y51300D01*
X-26910Y51285D01*
X-26916Y51282D01*
D01*
X-26916Y51282D01*
X-26947Y51273D01*
X-26953Y51271D01*
X-26953D01*
X-26953Y51271D01*
X-26978Y51269D01*
X-26992Y51268D01*
X-26992D01*
D01*
D01*
X-27049Y51268D01*
X-27057Y51258D01*
X-27057Y51258D01*
X-27057Y51258D01*
X-27073Y51246D01*
X-27088Y51234D01*
X-27088Y51234D01*
X-27088Y51234D01*
X-27097Y51229D01*
X-27102Y51220D01*
X-27102Y51220D01*
X-27102Y51220D01*
X-27117Y51202D01*
X-27127Y51190D01*
X-27127Y51190D01*
X-27127Y51190D01*
X-27141Y51178D01*
X-27157Y51166D01*
X-27157Y51166D01*
X-27157Y51166D01*
X-27166Y51161D01*
X-27171Y51152D01*
X-27196Y51122D01*
X-27226Y51098D01*
X-27235Y51093D01*
X-27240Y51084D01*
X-27240Y51084D01*
X-27240Y51084D01*
X-27251Y51070D01*
X-27265Y51054D01*
X-27265Y51054D01*
X-27265Y51054D01*
X-27284Y51039D01*
X-27295Y51030D01*
X-27295Y51030D01*
X-27295Y51030D01*
X-27310Y51022D01*
X-27329Y51012D01*
X-27329Y51012D01*
X-27329Y51012D01*
X-27336Y51010D01*
X-27366Y51001D01*
X-27366Y51001D01*
X-27367D01*
X-27374Y51000D01*
X-27405Y50998D01*
X-27405D01*
X-27405D01*
X-27405D01*
X-27462Y50998D01*
X-27466Y50993D01*
X-27471Y50988D01*
X-27471Y50988D01*
X-27471Y50988D01*
X-27501Y50963D01*
X-27510Y50959D01*
X-27515Y50950D01*
X-27515Y50950D01*
X-27515Y50949D01*
X-27532Y50929D01*
X-27540Y50920D01*
X-27540Y50920D01*
X-27540Y50920D01*
X-27556Y50907D01*
X-27570Y50895D01*
X-27570Y50895D01*
X-27570Y50895D01*
X-27589Y50885D01*
X-27604Y50877D01*
X-27604Y50877D01*
X-27604Y50877D01*
X-27620Y50873D01*
X-27641Y50867D01*
X-27642Y50867D01*
X-27642D01*
X-27652Y50866D01*
X-27667Y50864D01*
X-27677Y50852D01*
X-27677Y50852D01*
X-27677Y50852D01*
X-27684Y50847D01*
X-27707Y50828D01*
X-27742Y50810D01*
X-27742Y50810D01*
X-27742D01*
X-27779Y50799D01*
X-27805Y50797D01*
X-27815Y50785D01*
X-27845Y50761D01*
X-27854Y50756D01*
X-27859Y50747D01*
X-27859Y50747D01*
X-27859Y50747D01*
X-27872Y50731D01*
X-27884Y50717D01*
X-27884Y50717D01*
X-27884Y50717D01*
X-27902Y50703D01*
X-27914Y50693D01*
X-27914Y50693D01*
X-27914Y50693D01*
X-27938Y50680D01*
X-27948Y50675D01*
X-27948Y50675D01*
X-27948Y50675D01*
X-27968Y50669D01*
X-27986Y50664D01*
X-27986Y50664D01*
X-27986Y50664D01*
X-28003Y50662D01*
X-28024Y50661D01*
X-28024Y50661D01*
X-28024Y50661D01*
X-28081Y50661D01*
X-28090Y50651D01*
X-28090Y50651D01*
X-28090Y50651D01*
X-28105Y50639D01*
X-28120Y50626D01*
X-28120Y50626D01*
X-28120Y50626D01*
X-28139Y50617D01*
X-28155Y50608D01*
X-28155Y50608D01*
X-28155Y50608D01*
X-28177Y50602D01*
X-28192Y50597D01*
X-28192D01*
X-28192Y50597D01*
X-28213Y50595D01*
X-28230Y50594D01*
X-28230D01*
X-28230D01*
X-28230D01*
X-28287Y50594D01*
X-28296Y50584D01*
X-28326Y50560D01*
X-28335Y50555D01*
X-28340Y50546D01*
X-28340Y50546D01*
X-28340Y50546D01*
X-28350Y50534D01*
X-28365Y50516D01*
X-28365Y50516D01*
X-28365Y50516D01*
X-28375Y50508D01*
X-28395Y50492D01*
X-28430Y50474D01*
D01*
X-28430Y50474D01*
X-28453Y50467D01*
X-28467Y50463D01*
X-28467D01*
X-28467Y50463D01*
X-28488Y50461D01*
X-28505Y50459D01*
X-28506D01*
D01*
D01*
X-28642Y50460D01*
X-28642D01*
X-28642D01*
X-28661Y50463D01*
X-28681Y50465D01*
X-28681Y50465D01*
X-28681D01*
X-28702Y50471D01*
X-28718Y50476D01*
X-28718Y50476D01*
X-28718Y50476D01*
X-28734Y50485D01*
X-28752Y50495D01*
X-28752Y50495D01*
X-28752Y50495D01*
X-28764Y50505D01*
X-28782Y50520D01*
X-28782Y50520D01*
X-28782Y50520D01*
X-28790Y50529D01*
X-28806Y50550D01*
X-28824Y50584D01*
D01*
X-28824Y50584D01*
X-28833Y50615D01*
X-28835Y50621D01*
Y50621D01*
X-28835Y50621D01*
X-28837Y50644D01*
X-28839Y50660D01*
Y50660D01*
Y50660D01*
X-28838Y50728D01*
X-28834Y50766D01*
X-28834Y50767D01*
D01*
X-28834Y50767D01*
X-28823Y50801D01*
X-28822Y50804D01*
Y50804D01*
X-28822Y50804D01*
X-28811Y50825D01*
X-28804Y50838D01*
X-28804Y50838D01*
X-28804Y50838D01*
X-28792Y50852D01*
X-28779Y50868D01*
X-28779Y50868D01*
X-28779Y50868D01*
X-28759Y50884D01*
X-28749Y50892D01*
X-28749Y50892D01*
X-28749Y50892D01*
X-28714Y50910D01*
X-28691Y50917D01*
X-28684Y50940D01*
X-28684Y50940D01*
X-28684Y50940D01*
X-28675Y50956D01*
X-28666Y50974D01*
X-28665Y50974D01*
X-28665Y50974D01*
X-28656Y50986D01*
X-28641Y51004D01*
X-28641Y51004D01*
X-28640Y51004D01*
X-28629Y51013D01*
X-28628Y51019D01*
X-28626Y51039D01*
X-28626Y51039D01*
Y51039D01*
X-28619Y51062D01*
X-28614Y51076D01*
X-28614Y51076D01*
X-28614Y51076D01*
X-28596Y51110D01*
X-28578Y51132D01*
X-28571Y51140D01*
X-28571Y51140D01*
X-28571Y51140D01*
X-28551Y51156D01*
X-28541Y51164D01*
X-28541Y51164D01*
X-28541Y51164D01*
X-28532Y51169D01*
X-28527Y51178D01*
X-28527Y51178D01*
X-28527Y51178D01*
X-28518Y51188D01*
X-28502Y51208D01*
X-28502Y51208D01*
X-28502Y51208D01*
X-28493Y51215D01*
X-28472Y51232D01*
X-28462Y51237D01*
X-28458Y51246D01*
X-28433Y51276D01*
X-28403Y51300D01*
X-28394Y51305D01*
X-28389Y51314D01*
X-28372Y51334D01*
X-28364Y51344D01*
X-28364Y51344D01*
X-28364Y51344D01*
X-28353Y51352D01*
X-28352Y51409D01*
X-28348Y51448D01*
X-28340Y51474D01*
X-28337Y51485D01*
X-28337Y51485D01*
D01*
X-28335Y51488D01*
X-28318Y51519D01*
X-28293Y51548D01*
X-28293Y51548D01*
X-28293Y51548D01*
X-28282Y51558D01*
X-28263Y51573D01*
X-28254Y51578D01*
X-28249Y51587D01*
X-28249Y51587D01*
X-28249Y51587D01*
X-28236Y51603D01*
X-28224Y51616D01*
X-28224Y51616D01*
X-28224Y51616D01*
X-28198Y51637D01*
X-28194Y51641D01*
X-28194D01*
X-28194Y51641D01*
X-28185Y51645D01*
X-28182Y51651D01*
X-28180Y51654D01*
X-28155Y51684D01*
X-28125Y51709D01*
X-28116Y51713D01*
X-28111Y51722D01*
X-28111Y51722D01*
X-28111Y51722D01*
X-28098Y51737D01*
X-28086Y51752D01*
X-28086Y51752D01*
X-28086Y51752D01*
X-28076Y51761D01*
X-28075Y51818D01*
X-28071Y51856D01*
X-28059Y51893D01*
X-28041Y51927D01*
X-28016Y51957D01*
X-27986Y51981D01*
X-27977Y51986D01*
X-27972Y51995D01*
X-27960Y52009D01*
X-27947Y52025D01*
X-27936Y52033D01*
X-27936Y52090D01*
Y52090D01*
Y52090D01*
X-27933Y52115D01*
X-27932Y52129D01*
X-27931Y52129D01*
Y52129D01*
X-27924Y52154D01*
X-27920Y52166D01*
X-27920Y52166D01*
X-27920Y52166D01*
X-27913Y52178D01*
X-27901Y52200D01*
X-27901Y52200D01*
Y52200D01*
X-27896Y52206D01*
X-27877Y52230D01*
X-27876Y52230D01*
X-27876Y52230D01*
X-27863Y52240D01*
X-27846Y52254D01*
X-27846Y52254D01*
X-27846Y52254D01*
X-27837Y52259D01*
X-27836Y52262D01*
X-27832Y52268D01*
X-27832Y52268D01*
X-27832Y52268D01*
X-27816Y52287D01*
X-27808Y52298D01*
X-27808Y52298D01*
X-27808Y52298D01*
X-27778Y52321D01*
X-27777Y52322D01*
D01*
X-27777Y52322D01*
X-27768Y52327D01*
X-27763Y52336D01*
X-27763Y52336D01*
X-27763Y52336D01*
X-27752Y52349D01*
X-27738Y52365D01*
X-27738Y52365D01*
X-27738Y52365D01*
X-27727Y52375D01*
X-27725Y52386D01*
X-27724Y52401D01*
X-27724Y52401D01*
X-27724Y52401D01*
X-27716Y52426D01*
X-27712Y52438D01*
X-27712Y52438D01*
X-27712Y52438D01*
X-27705Y52452D01*
X-27694Y52472D01*
X-27694Y52472D01*
X-27694Y52472D01*
X-27687Y52480D01*
X-27669Y52502D01*
X-27669Y52502D01*
X-27669Y52502D01*
X-27657Y52511D01*
X-27654Y52537D01*
X-27643Y52574D01*
X-27628Y52601D01*
X-27624Y52609D01*
X-27607Y52628D01*
X-27599Y52638D01*
X-27599Y52638D01*
X-27599Y52638D01*
X-27588Y52647D01*
X-27588Y52704D01*
X-27585Y52728D01*
X-27584Y52742D01*
X-27584Y52742D01*
Y52742D01*
X-27574Y52775D01*
X-27572Y52779D01*
Y52779D01*
X-27572Y52779D01*
X-27557Y52807D01*
X-27554Y52813D01*
X-27554Y52813D01*
X-27554Y52813D01*
X-27538Y52832D01*
X-27529Y52843D01*
X-27529Y52843D01*
X-27529Y52843D01*
X-27518Y52852D01*
X-27518Y52908D01*
X-27514Y52947D01*
X-27502Y52984D01*
X-27483Y53018D01*
X-27459Y53048D01*
X-27428Y53072D01*
X-27419Y53077D01*
X-27414Y53086D01*
X-27414Y53086D01*
X-27414Y53086D01*
X-27403Y53100D01*
X-27389Y53116D01*
X-27389Y53116D01*
X-27389Y53116D01*
X-27379Y53124D01*
X-27378Y53181D01*
Y53181D01*
Y53181D01*
X-27376Y53200D01*
X-27374Y53220D01*
X-27374Y53220D01*
Y53220D01*
X-27367Y53243D01*
X-27363Y53257D01*
X-27363Y53257D01*
X-27363Y53257D01*
X-27353Y53275D01*
X-27344Y53291D01*
X-27344Y53291D01*
X-27344Y53291D01*
X-27333Y53304D01*
X-27319Y53320D01*
X-27319Y53321D01*
X-27319Y53321D01*
X-27307Y53330D01*
X-27307Y53336D01*
X-27305Y53356D01*
X-27305Y53356D01*
Y53356D01*
X-27297Y53379D01*
X-27293Y53393D01*
X-27293Y53393D01*
X-27293Y53393D01*
X-27283Y53411D01*
X-27274Y53427D01*
X-27274Y53427D01*
X-27274Y53427D01*
X-27263Y53441D01*
X-27250Y53457D01*
X-27250Y53457D01*
X-27250Y53457D01*
X-27238Y53466D01*
X-27235Y53488D01*
X-27238Y53522D01*
D01*
Y53522D01*
X-27238Y53591D01*
X-27236Y53607D01*
X-27234Y53629D01*
X-27234Y53629D01*
Y53629D01*
X-27228Y53648D01*
X-27222Y53666D01*
X-27222Y53666D01*
X-27222Y53666D01*
X-27206Y53696D01*
X-27204Y53700D01*
X-27204Y53700D01*
X-27204Y53700D01*
X-27187Y53720D01*
X-27179Y53730D01*
X-27179Y53730D01*
X-27179Y53730D01*
X-27159Y53746D01*
X-27149Y53755D01*
X-27149Y53755D01*
X-27148Y53755D01*
X-27139Y53759D01*
X-27134Y53768D01*
X-27134Y53768D01*
X-27134Y53768D01*
X-27120Y53786D01*
X-27110Y53798D01*
X-27110Y53798D01*
X-27109Y53798D01*
X-27099Y53807D01*
X-27098Y53864D01*
X-27095Y53898D01*
X-27097Y53925D01*
X-27098Y53932D01*
Y53932D01*
D01*
D01*
X-27097Y54001D01*
Y54001D01*
Y54001D01*
X-27093Y54039D01*
X-27082Y54074D01*
X-27082Y54076D01*
D01*
X-27082Y54076D01*
X-27074Y54090D01*
X-27063Y54110D01*
X-27038Y54140D01*
X-27038Y54140D01*
X-27038Y54140D01*
X-27026Y54149D01*
X-27008Y54164D01*
X-26999Y54169D01*
X-26994Y54178D01*
X-26994Y54178D01*
Y54178D01*
X-26991Y54181D01*
X-26969Y54208D01*
X-26958Y54216D01*
X-26958Y54273D01*
X-26956Y54286D01*
X-26954Y54308D01*
X-26956Y54329D01*
X-26957Y54342D01*
Y54342D01*
Y54342D01*
X-26957Y54410D01*
X-26952Y54449D01*
X-26942Y54484D01*
X-26941Y54486D01*
D01*
X-26941Y54486D01*
X-26933Y54500D01*
X-26922Y54520D01*
X-26897Y54550D01*
X-26897Y54550D01*
X-26897Y54550D01*
X-26887Y54558D01*
X-26886Y54615D01*
X-26883Y54649D01*
X-26886Y54684D01*
D01*
Y54684D01*
X-26885Y54752D01*
X-26882Y54777D01*
X-26881Y54791D01*
X-26881Y54791D01*
Y54791D01*
X-26871Y54823D01*
X-26869Y54828D01*
Y54828D01*
X-26869Y54828D01*
X-26854Y54856D01*
X-26851Y54862D01*
X-26851Y54862D01*
X-26851Y54862D01*
X-26835Y54881D01*
X-26826Y54891D01*
X-26826Y54891D01*
X-26826Y54891D01*
X-26815Y54900D01*
X-26815Y54957D01*
Y54957D01*
Y54957D01*
X-26814Y54969D01*
X-26811Y54991D01*
X-26813Y55006D01*
X-26814Y55025D01*
Y55025D01*
Y55026D01*
Y55026D01*
X-26814Y55094D01*
Y55094D01*
Y55094D01*
X-26812Y55112D01*
X-26810Y55132D01*
X-26810Y55132D01*
Y55133D01*
X-26802Y55155D01*
X-26798Y55169D01*
X-26798Y55169D01*
X-26798Y55169D01*
X-26788Y55188D01*
X-26779Y55203D01*
X-26779Y55203D01*
X-26779Y55203D01*
X-26768Y55217D01*
X-26755Y55233D01*
X-26755Y55233D01*
X-26755Y55233D01*
X-26744Y55242D01*
X-26744Y55299D01*
Y55299D01*
X-26743Y55367D01*
Y55367D01*
Y55367D01*
X-26742Y55436D01*
X-26742Y55436D01*
X-26742Y55436D01*
X-26741Y55452D01*
X-26738Y55474D01*
X-26738Y55474D01*
Y55474D01*
X-26736Y55483D01*
X-26727Y55511D01*
X-26726Y55511D01*
X-26726Y55511D01*
X-26719Y55525D01*
X-26708Y55545D01*
X-26708Y55545D01*
X-26708Y55545D01*
X-26699Y55556D01*
X-26683Y55575D01*
X-26683Y55575D01*
X-26683Y55575D01*
X-26675Y55582D01*
X-26673Y55584D01*
X-26672Y55641D01*
Y55641D01*
X-26671Y55709D01*
X-26671Y55709D01*
X-26671Y55709D01*
X-26671Y55778D01*
X-26667Y55812D01*
X-26669Y55830D01*
X-26670Y55846D01*
Y55846D01*
Y55846D01*
Y55846D01*
X-26670Y55914D01*
Y55914D01*
Y55914D01*
X-26669Y55924D01*
X-26666Y55949D01*
X-26669Y55983D01*
D01*
Y55983D01*
X-26668Y56051D01*
X-26666Y56075D01*
X-26665Y56086D01*
X-26667Y56107D01*
X-26668Y56120D01*
Y56120D01*
Y56120D01*
Y56120D01*
X-26667Y56188D01*
Y56188D01*
Y56188D01*
X-26665Y56206D01*
X-26664Y56223D01*
X-26667Y56257D01*
D01*
Y56257D01*
X-26666Y56325D01*
Y56325D01*
Y56325D01*
X-26664Y56343D01*
X-26662Y56364D01*
X-26662Y56364D01*
Y56364D01*
X-26659Y56373D01*
X-26650Y56401D01*
X-26650Y56401D01*
Y56401D01*
X-26646Y56409D01*
X-26636Y56428D01*
X-26650Y56455D01*
X-26659Y56487D01*
X-26661Y56492D01*
Y56492D01*
X-26661Y56492D01*
X-26663Y56517D01*
X-26664Y56531D01*
Y56531D01*
Y56531D01*
X-26664Y56599D01*
Y56599D01*
Y56599D01*
X-26662Y56617D01*
X-26660Y56638D01*
X-26660Y56638D01*
Y56638D01*
X-26657Y56647D01*
X-26648Y56675D01*
X-26648Y56675D01*
Y56675D01*
X-26643Y56683D01*
X-26629Y56709D01*
X-26629Y56709D01*
X-26629Y56709D01*
X-26618Y56722D01*
X-26605Y56739D01*
X-26605Y56739D01*
X-26605Y56739D01*
X-26594Y56747D01*
X-26593Y56804D01*
D01*
X-26593Y56872D01*
D01*
Y56872D01*
X-26592Y56929D01*
X-26603Y56938D01*
X-26603Y56938D01*
X-26603Y56938D01*
X-26614Y56953D01*
X-26627Y56968D01*
X-26627Y56968D01*
X-26627Y56968D01*
X-26635Y56983D01*
X-26645Y57003D01*
X-26645Y57003D01*
Y57003D01*
X-26646Y57007D01*
X-26656Y57040D01*
X-26660Y57078D01*
Y57078D01*
Y57079D01*
X-26659Y57147D01*
X-26657Y57163D01*
X-26655Y57181D01*
X-26657Y57202D01*
X-26658Y57215D01*
Y57215D01*
Y57216D01*
Y57216D01*
X-26658Y57284D01*
Y57284D01*
Y57284D01*
X-26656Y57295D01*
X-26654Y57318D01*
X-26656Y57342D01*
X-26657Y57353D01*
Y57353D01*
Y57353D01*
X-26656Y57421D01*
X-26653Y57455D01*
X-26655Y57476D01*
X-26656Y57489D01*
Y57489D01*
Y57489D01*
X-26655Y57558D01*
Y57558D01*
Y57558D01*
X-26653Y57576D01*
X-26652Y57592D01*
X-26654Y57616D01*
X-26655Y57626D01*
Y57626D01*
Y57626D01*
X-26654Y57695D01*
X-26650Y57729D01*
X-26653Y57756D01*
X-26654Y57763D01*
Y57763D01*
D01*
D01*
X-26653Y57832D01*
D01*
Y57832D01*
X-26652Y57900D01*
D01*
Y57900D01*
X-26652Y57957D01*
X-26662Y57966D01*
X-26662Y57966D01*
X-26662Y57966D01*
X-26673Y57979D01*
X-26687Y57996D01*
X-26687Y57996D01*
X-26687Y57996D01*
X-26693Y58009D01*
X-26705Y58030D01*
X-26705Y58030D01*
X-26705Y58030D01*
X-26709Y58046D01*
X-26715Y58068D01*
Y58068D01*
X-26715Y58068D01*
X-26717Y58086D01*
X-26719Y58106D01*
Y58106D01*
Y58106D01*
X-26719Y58163D01*
X-26729Y58172D01*
X-26729Y58172D01*
X-26729Y58172D01*
X-26752Y58201D01*
X-26753Y58202D01*
D01*
X-26753Y58202D01*
X-26771Y58237D01*
X-26780Y58265D01*
X-26782Y58274D01*
Y58274D01*
X-26782Y58274D01*
X-26784Y58295D01*
X-26786Y58312D01*
Y58312D01*
D01*
D01*
X-26785Y58381D01*
Y58381D01*
Y58381D01*
X-26784Y58393D01*
X-26781Y58415D01*
X-26783Y58428D01*
X-26784Y58449D01*
Y58449D01*
Y58449D01*
X-26784Y58518D01*
X-26780Y58552D01*
X-26782Y58571D01*
X-26783Y58586D01*
Y58586D01*
Y58586D01*
X-26783Y58643D01*
X-26793Y58652D01*
X-26793Y58652D01*
X-26793Y58652D01*
X-26814Y58678D01*
X-26818Y58682D01*
Y58682D01*
X-26818Y58682D01*
X-26831Y58708D01*
X-26836Y58716D01*
X-26836Y58716D01*
X-26836Y58717D01*
X-26842Y58738D01*
X-26846Y58754D01*
X-26847Y58754D01*
X-26847Y58754D01*
X-26848Y58773D01*
X-26850Y58792D01*
Y58792D01*
Y58792D01*
Y58792D01*
X-26849Y58849D01*
X-26860Y58858D01*
X-26860Y58858D01*
X-26860Y58858D01*
X-26876Y58877D01*
X-26884Y58888D01*
X-26884Y58888D01*
X-26884Y58888D01*
X-26900Y58918D01*
X-26902Y58922D01*
Y58922D01*
X-26902Y58923D01*
X-26910Y58949D01*
X-26913Y58960D01*
Y58960D01*
X-26913Y58960D01*
X-26915Y58983D01*
X-26917Y58998D01*
Y58998D01*
Y58998D01*
X-26916Y59067D01*
X-26912Y59101D01*
X-26914Y59119D01*
X-26915Y59135D01*
Y59135D01*
Y59135D01*
Y59135D01*
X-26915Y59192D01*
X-26925Y59201D01*
X-26925Y59201D01*
X-26925Y59201D01*
X-26937Y59215D01*
X-26950Y59231D01*
X-26950Y59231D01*
X-26950Y59231D01*
X-26966Y59262D01*
X-26968Y59266D01*
D01*
X-26968Y59266D01*
X-26979Y59303D01*
X-26981Y59331D01*
X-26982Y59341D01*
Y59341D01*
D01*
D01*
X-26982Y59398D01*
X-26992Y59407D01*
X-26992Y59407D01*
X-26992Y59407D01*
X-27003Y59421D01*
X-27016Y59437D01*
X-27016Y59437D01*
X-27016Y59437D01*
X-27034Y59472D01*
X-27044Y59503D01*
X-27045Y59509D01*
Y59509D01*
X-27045Y59509D01*
X-27048Y59534D01*
X-27049Y59547D01*
Y59547D01*
Y59547D01*
Y59547D01*
X-27048Y59616D01*
X-27048Y59616D01*
X-27048Y59616D01*
X-27046Y59635D01*
X-27044Y59650D01*
X-27047Y59677D01*
X-27048Y59684D01*
Y59684D01*
D01*
D01*
X-27047Y59741D01*
X-27058Y59750D01*
X-27058Y59750D01*
X-27058Y59750D01*
X-27068Y59763D01*
X-27082Y59780D01*
X-27082Y59780D01*
X-27082Y59780D01*
X-27087Y59789D01*
X-27096Y59794D01*
X-27096Y59794D01*
X-27096Y59794D01*
X-27109Y59806D01*
X-27125Y59819D01*
X-27125Y59819D01*
X-27125Y59819D01*
X-27136Y59833D01*
X-27150Y59849D01*
X-27150Y59849D01*
X-27150Y59849D01*
X-27157Y59863D01*
X-27168Y59884D01*
X-27168Y59884D01*
X-27168Y59884D01*
X-27171Y59894D01*
X-27179Y59921D01*
X-27179Y59921D01*
Y59921D01*
X-27179Y59928D01*
X-27182Y59959D01*
Y59960D01*
Y59960D01*
X-27182Y60016D01*
X-27192Y60025D01*
X-27192Y60025D01*
X-27192Y60025D01*
X-27217Y60055D01*
X-27235Y60090D01*
X-27243Y60118D01*
X-27245Y60127D01*
Y60127D01*
X-27245Y60127D01*
X-27247Y60148D01*
X-27249Y60165D01*
Y60166D01*
D01*
D01*
X-27248Y60222D01*
X-27259Y60231D01*
X-27259Y60231D01*
X-27259Y60231D01*
X-27264Y60237D01*
X-27283Y60261D01*
X-27283Y60261D01*
X-27283Y60261D01*
X-27291Y60276D01*
X-27301Y60296D01*
X-27301Y60296D01*
X-27301Y60296D01*
X-27307Y60315D01*
X-27312Y60333D01*
Y60333D01*
X-27312Y60333D01*
X-27314Y60356D01*
X-27316Y60372D01*
Y60372D01*
Y60372D01*
X-27315Y60428D01*
X-27325Y60437D01*
X-27350Y60467D01*
X-27355Y60476D01*
X-27364Y60481D01*
X-27364Y60481D01*
X-27364Y60482D01*
X-27380Y60495D01*
X-27393Y60506D01*
X-27393Y60506D01*
X-27393Y60506D01*
X-27408Y60524D01*
X-27418Y60536D01*
X-27418Y60536D01*
X-27418Y60536D01*
X-27430Y60561D01*
X-27436Y60571D01*
X-27436Y60571D01*
X-27436Y60571D01*
X-27442Y60591D01*
X-27447Y60608D01*
X-27447Y60608D01*
X-27447Y60608D01*
X-27448Y60626D01*
X-27450Y60647D01*
X-27450Y60647D01*
X-27450Y60647D01*
X-27450Y60704D01*
X-27460Y60712D01*
X-27460Y60712D01*
X-27460Y60712D01*
X-27472Y60727D01*
X-27484Y60742D01*
X-27484Y60742D01*
X-27484Y60742D01*
X-27492Y60757D01*
X-27502Y60777D01*
X-27502Y60777D01*
Y60777D01*
X-27504Y60781D01*
X-27513Y60814D01*
X-27517Y60853D01*
Y60853D01*
Y60853D01*
X-27516Y60910D01*
X-27527Y60918D01*
X-27551Y60949D01*
X-27556Y60958D01*
X-27565Y60963D01*
X-27565Y60963D01*
X-27565Y60963D01*
X-27584Y60979D01*
X-27595Y60987D01*
X-27595Y60987D01*
X-27595Y60988D01*
X-27605Y61000D01*
X-27619Y61018D01*
X-27619Y61018D01*
X-27619Y61018D01*
X-27624Y61027D01*
X-27633Y61032D01*
X-27633Y61032D01*
X-27633Y61032D01*
X-27647Y61043D01*
X-27663Y61057D01*
X-27663Y61057D01*
X-27663Y61057D01*
X-27673Y61069D01*
X-27687Y61087D01*
X-27687Y61087D01*
X-27687Y61087D01*
X-27693Y61098D01*
X-27705Y61121D01*
X-27705Y61121D01*
X-27705Y61121D01*
X-27711Y61143D01*
X-27716Y61158D01*
Y61158D01*
X-27716Y61158D01*
X-27718Y61182D01*
X-27719Y61197D01*
Y61197D01*
Y61197D01*
Y61197D01*
X-27719Y61254D01*
X-27729Y61263D01*
X-27729Y61263D01*
X-27729Y61263D01*
X-27745Y61282D01*
X-27753Y61293D01*
X-27754Y61293D01*
X-27754Y61293D01*
X-27769Y61323D01*
X-27771Y61327D01*
Y61327D01*
X-27772Y61327D01*
X-27781Y61358D01*
X-27782Y61364D01*
Y61364D01*
X-27782Y61364D01*
X-27785Y61389D01*
X-27786Y61403D01*
Y61403D01*
Y61403D01*
Y61403D01*
X-27786Y61460D01*
X-27796Y61469D01*
X-27796Y61469D01*
X-27796Y61469D01*
X-27805Y61480D01*
X-27820Y61499D01*
X-27820Y61499D01*
X-27820Y61499D01*
X-27825Y61508D01*
X-27834Y61513D01*
X-27864Y61538D01*
X-27888Y61568D01*
X-27893Y61577D01*
X-27902Y61582D01*
X-27922Y61598D01*
X-27932Y61607D01*
X-27932Y61607D01*
X-27932Y61607D01*
X-27956Y61637D01*
X-27974Y61671D01*
X-27985Y61708D01*
X-27988Y61740D01*
X-27988Y61747D01*
Y61747D01*
D01*
D01*
X-27988Y61816D01*
Y61816D01*
Y61816D01*
X-27986Y61833D01*
X-27984Y61850D01*
X-27987Y61884D01*
D01*
Y61884D01*
X-27987Y61953D01*
D01*
Y61953D01*
X-27983Y61991D01*
X-27971Y62028D01*
X-27952Y62062D01*
X-27927Y62092D01*
X-27927D01*
Y62092D01*
X-27922Y62097D01*
X-27897Y62116D01*
X-27863Y62134D01*
X-27826Y62145D01*
X-27787Y62149D01*
D01*
X-27787D01*
X-27582Y62147D01*
X-27543Y62143D01*
X-27506Y62131D01*
X-27472Y62112D01*
X-27442Y62088D01*
Y62088D01*
X-27442D01*
X-27418Y62058D01*
X-27413Y62048D01*
X-27404Y62043D01*
X-27374Y62019D01*
X-27374Y62019D01*
X-27374Y62019D01*
X-27363Y62004D01*
X-27350Y61988D01*
X-27350Y61988D01*
X-27350Y61988D01*
X-27345Y61979D01*
X-27336Y61974D01*
X-27336Y61974D01*
X-27336Y61974D01*
X-27317Y61958D01*
X-27307Y61950D01*
X-27307Y61949D01*
X-27307Y61949D01*
X-27298Y61939D01*
X-27241Y61938D01*
X-27241D01*
X-27241D01*
X-27232Y61937D01*
X-27202Y61934D01*
X-27165Y61923D01*
D01*
X-27165Y61923D01*
X-27132Y61905D01*
X-27137Y61913D01*
X-27146Y61918D01*
X-27175Y61943D01*
X-27175Y61943D01*
X-27176Y61943D01*
X-27185Y61954D01*
X-27200Y61973D01*
X-27204Y61982D01*
X-27213Y61987D01*
X-27238Y62007D01*
X-27243Y62012D01*
X-27243Y62012D01*
X-27243Y62012D01*
X-27268Y62042D01*
X-27272Y62051D01*
X-27281Y62056D01*
X-27281Y62056D01*
X-27281Y62056D01*
X-27299Y62071D01*
X-27311Y62081D01*
X-27311Y62081D01*
X-27311Y62081D01*
X-27320Y62091D01*
X-27377Y62092D01*
X-27415Y62096D01*
X-27438Y62103D01*
X-27452Y62108D01*
X-27452Y62108D01*
D01*
X-27486Y62126D01*
X-27513Y62149D01*
X-27516Y62151D01*
Y62151D01*
X-27516D01*
X-27522Y62158D01*
X-27540Y62181D01*
X-27545Y62190D01*
X-27554Y62195D01*
X-27554Y62195D01*
X-27554Y62195D01*
X-27564Y62204D01*
X-27584Y62220D01*
X-27584Y62220D01*
X-27584Y62220D01*
X-27603Y62244D01*
X-27608Y62250D01*
Y62250D01*
X-27608Y62250D01*
X-27613Y62259D01*
X-27622Y62264D01*
X-27646Y62285D01*
X-27652Y62289D01*
X-27652Y62289D01*
X-27652Y62289D01*
X-27663Y62304D01*
X-27676Y62319D01*
X-27676Y62319D01*
X-27676Y62319D01*
X-27681Y62328D01*
X-27684Y62330D01*
X-27690Y62333D01*
X-27720Y62358D01*
X-27728Y62369D01*
X-27785Y62369D01*
X-27808Y62372D01*
X-27824Y62374D01*
X-27824Y62374D01*
X-27824D01*
X-27848Y62381D01*
X-27861Y62385D01*
X-27861Y62385D01*
X-27861Y62385D01*
X-27885Y62398D01*
X-27895Y62404D01*
X-27895Y62404D01*
X-27895Y62404D01*
X-27914Y62419D01*
X-27924Y62428D01*
X-27924Y62428D01*
X-27924Y62428D01*
X-27935Y62441D01*
X-27949Y62459D01*
X-27949Y62459D01*
X-27949Y62459D01*
X-27954Y62468D01*
X-27963Y62473D01*
X-27963Y62473D01*
X-27963Y62473D01*
X-27976Y62484D01*
X-27992Y62498D01*
X-27992Y62498D01*
X-27992Y62498D01*
X-28001Y62508D01*
X-28058Y62509D01*
X-28058Y62509D01*
X-28058Y62509D01*
X-28073Y62510D01*
X-28096Y62513D01*
X-28097Y62513D01*
X-28097D01*
X-28099Y62514D01*
X-28133Y62524D01*
X-28133Y62524D01*
X-28133Y62524D01*
X-28144Y62530D01*
X-28168Y62543D01*
X-28168Y62543D01*
X-28168Y62543D01*
X-28180Y62553D01*
X-28197Y62568D01*
X-28197Y62568D01*
X-28197Y62568D01*
X-28202Y62574D01*
X-28222Y62598D01*
X-28222Y62598D01*
X-28222Y62598D01*
X-28225Y62605D01*
X-28226Y62607D01*
X-28235Y62612D01*
X-28235Y62612D01*
X-28235Y62612D01*
X-28251Y62625D01*
X-28265Y62637D01*
X-28265Y62637D01*
X-28265Y62637D01*
X-28274Y62648D01*
X-28331Y62648D01*
X-28347Y62650D01*
X-28369Y62652D01*
X-28369Y62652D01*
X-28369D01*
X-28406Y62664D01*
X-28440Y62682D01*
X-28463Y62701D01*
X-28470Y62707D01*
X-28470Y62707D01*
X-28470Y62707D01*
X-28479Y62718D01*
X-28535Y62718D01*
X-28535Y62718D01*
X-28536Y62718D01*
X-28555Y62720D01*
X-28574Y62722D01*
X-28574Y62722D01*
X-28574Y62722D01*
X-28589Y62727D01*
X-28611Y62734D01*
X-28611Y62734D01*
X-28611Y62734D01*
X-28626Y62742D01*
X-28645Y62752D01*
X-28645Y62753D01*
X-28645Y62753D01*
X-28661Y62766D01*
X-28675Y62777D01*
X-28675Y62777D01*
X-28675Y62778D01*
X-28686Y62791D01*
X-28699Y62808D01*
X-28699Y62808D01*
X-28699Y62808D01*
X-28704Y62817D01*
X-28713Y62822D01*
X-28713Y62822D01*
X-28713Y62822D01*
X-28731Y62837D01*
X-28743Y62846D01*
X-28743Y62846D01*
X-28743Y62846D01*
X-28748Y62853D01*
X-28751Y62857D01*
X-28808Y62858D01*
X-28808D01*
X-28808D01*
X-28825Y62859D01*
X-28847Y62862D01*
X-28847Y62862D01*
X-28847D01*
X-28865Y62868D01*
X-28884Y62873D01*
X-28884Y62873D01*
X-28884Y62873D01*
X-28897Y62880D01*
X-28918Y62892D01*
X-28947Y62917D01*
X-28947Y62917D01*
X-28947Y62917D01*
X-28956Y62927D01*
X-29013Y62928D01*
X-29025Y62929D01*
X-29052Y62932D01*
X-29089Y62944D01*
D01*
X-29089Y62944D01*
X-29123Y62962D01*
X-29147Y62983D01*
X-29152Y62987D01*
X-29152Y62987D01*
X-29152Y62987D01*
X-29164Y63002D01*
X-29177Y63017D01*
X-29177Y63017D01*
X-29177Y63017D01*
X-29182Y63026D01*
X-29190Y63031D01*
X-29190Y63031D01*
X-29190Y63031D01*
X-29208Y63046D01*
X-29220Y63056D01*
X-29220Y63056D01*
X-29220Y63056D01*
X-29229Y63067D01*
X-29286Y63067D01*
X-29286D01*
X-29286D01*
X-29311Y63070D01*
X-29324Y63071D01*
X-29324Y63071D01*
X-29324D01*
X-29338Y63076D01*
X-29361Y63083D01*
X-29395Y63102D01*
X-29395Y63102D01*
X-29395Y63102D01*
X-29400Y63106D01*
X-29425Y63126D01*
X-29434Y63137D01*
X-29491Y63138D01*
X-29529Y63142D01*
X-29566Y63153D01*
X-29600Y63172D01*
X-29630Y63197D01*
X-29638Y63207D01*
X-29695Y63208D01*
X-29734Y63212D01*
X-29756Y63219D01*
X-29771Y63224D01*
X-29771Y63224D01*
X-29771D01*
X-29783Y63230D01*
X-29805Y63242D01*
X-29805Y63242D01*
X-29805Y63242D01*
X-29823Y63257D01*
X-29835Y63267D01*
X-29835Y63267D01*
X-29835Y63267D01*
X-29843Y63278D01*
X-29900Y63278D01*
X-29939Y63282D01*
X-29962Y63289D01*
X-29976Y63294D01*
X-29976Y63294D01*
D01*
X-30010Y63312D01*
X-30037Y63335D01*
X-30040Y63337D01*
Y63337D01*
X-30040D01*
X-30045Y63345D01*
X-30048Y63348D01*
X-30105Y63348D01*
X-30105D01*
X-30105D01*
X-30113Y63349D01*
X-30144Y63353D01*
X-30181Y63364D01*
X-30181Y63364D01*
D01*
X-30215Y63383D01*
X-30239Y63403D01*
X-30244Y63407D01*
Y63407D01*
X-30244D01*
X-30250Y63415D01*
X-30253Y63418D01*
X-30310Y63419D01*
X-30349Y63423D01*
X-30386Y63434D01*
X-30404Y63445D01*
X-30419Y63453D01*
X-30449Y63478D01*
Y63478D01*
X-30449D01*
X-30458Y63488D01*
X-30515Y63489D01*
X-30515D01*
X-30515D01*
X-30531Y63491D01*
X-30549Y63493D01*
X-30583Y63490D01*
X-30583D01*
D01*
D01*
X-30652Y63490D01*
X-30689Y63494D01*
X-30690Y63494D01*
D01*
X-30690Y63494D01*
X-30719Y63503D01*
X-30727Y63506D01*
X-30727Y63506D01*
X-30727Y63506D01*
X-30746Y63516D01*
X-30761Y63524D01*
X-30761Y63524D01*
X-30761Y63525D01*
X-30775Y63536D01*
X-30791Y63549D01*
X-30791Y63549D01*
X-30791Y63549D01*
X-30800Y63560D01*
X-30857Y63560D01*
X-30857D01*
X-30857D01*
X-30895Y63564D01*
X-30922Y63573D01*
X-30932Y63576D01*
X-30932Y63576D01*
D01*
X-30935Y63578D01*
X-30966Y63595D01*
X-30996Y63620D01*
X-30996Y63620D01*
X-30996Y63620D01*
X-31001Y63626D01*
X-31005Y63630D01*
X-31198Y63632D01*
X-31233Y63635D01*
X-31250Y63634D01*
X-31267Y63632D01*
X-31267D01*
D01*
D01*
X-31335Y63633D01*
X-31374Y63637D01*
X-31411Y63649D01*
X-31445Y63667D01*
X-31475Y63692D01*
X-31483Y63703D01*
X-31540Y63703D01*
X-31540D01*
X-31540D01*
X-31553Y63705D01*
X-31574Y63707D01*
X-31588Y63706D01*
X-31609Y63704D01*
X-31609D01*
X-31609D01*
X-31677Y63705D01*
X-31688Y63706D01*
X-31711Y63708D01*
X-31725Y63707D01*
X-31745Y63705D01*
X-31745D01*
X-31746D01*
D01*
X-31814Y63706D01*
X-31814Y63706D01*
X-31814Y63706D01*
X-31832Y63708D01*
X-31848Y63709D01*
X-31883Y63706D01*
X-31883D01*
X-31883D01*
X-31951Y63707D01*
X-31963Y63708D01*
X-31985Y63711D01*
X-32009Y63709D01*
X-32019Y63708D01*
X-32019D01*
X-32019D01*
X-32088Y63708D01*
X-32088D01*
X-32088D01*
X-32100Y63709D01*
X-32122Y63712D01*
X-32157Y63709D01*
D01*
X-32157D01*
X-32213Y63709D01*
X-32222Y63699D01*
X-32222Y63699D01*
X-32222Y63699D01*
X-32229Y63693D01*
X-32252Y63674D01*
X-32287Y63656D01*
X-32287Y63656D01*
X-32287D01*
X-32324Y63645D01*
X-32352Y63643D01*
X-32362Y63642D01*
X-32362D01*
X-32362D01*
X-32431Y63643D01*
X-32431D01*
X-32431D01*
X-32450Y63645D01*
X-32465Y63646D01*
X-32500Y63643D01*
X-32500D01*
X-32500D01*
X-32556Y63644D01*
X-32562Y63637D01*
X-32565Y63633D01*
X-32595Y63609D01*
X-32604Y63604D01*
X-32609Y63595D01*
X-32626Y63575D01*
X-32634Y63565D01*
X-32634Y63565D01*
X-32634Y63565D01*
X-32664Y63541D01*
X-32673Y63536D01*
X-32678Y63527D01*
X-32678Y63527D01*
X-32678Y63527D01*
X-32690Y63514D01*
X-32703Y63498D01*
X-32703Y63498D01*
X-32703Y63498D01*
X-32717Y63487D01*
X-32733Y63473D01*
X-32733Y63473D01*
X-32734Y63473D01*
X-32743Y63468D01*
X-32748Y63459D01*
X-32748Y63459D01*
X-32748Y63459D01*
X-32763Y63440D01*
X-32772Y63430D01*
X-32772Y63430D01*
X-32772Y63430D01*
X-32785Y63419D01*
X-32803Y63405D01*
X-32803Y63405D01*
X-32803Y63405D01*
X-32816Y63398D01*
X-32837Y63387D01*
X-32837Y63387D01*
X-32837Y63387D01*
X-32857Y63381D01*
X-32874Y63376D01*
X-32874D01*
X-32874Y63376D01*
X-32895Y63374D01*
X-32913Y63373D01*
X-32913D01*
D01*
D01*
X-32981Y63374D01*
X-32981D01*
X-32981D01*
X-33000Y63376D01*
X-33020Y63378D01*
X-33020Y63378D01*
X-33020D01*
X-33033Y63382D01*
X-33057Y63389D01*
X-33057Y63389D01*
X-33057D01*
X-33065Y63394D01*
X-33091Y63408D01*
X-33091Y63408D01*
X-33091Y63408D01*
X-33100Y63415D01*
X-33121Y63433D01*
X-33121Y63433D01*
X-33121Y63433D01*
X-33125Y63439D01*
X-33145Y63463D01*
X-33145Y63463D01*
X-33145Y63463D01*
X-33152Y63477D01*
X-33163Y63497D01*
X-33163Y63497D01*
X-33163Y63497D01*
X-33166Y63508D01*
X-33174Y63534D01*
X-33174Y63534D01*
Y63534D01*
X-33174Y63542D01*
X-33177Y63573D01*
Y63573D01*
Y63573D01*
X-33177Y63642D01*
Y63642D01*
X-33176Y63710D01*
X-33176Y63710D01*
X-33176Y63710D01*
X-33176Y63779D01*
Y63779D01*
X-33175Y63847D01*
X-33175Y63847D01*
X-33175Y63847D01*
X-33174Y63915D01*
X-33171Y63950D01*
X-33174Y63984D01*
X-33173Y64052D01*
X-33172Y64064D01*
X-33169Y64086D01*
X-33171Y64102D01*
X-33173Y64121D01*
Y64121D01*
D01*
D01*
X-33172Y64189D01*
X-33169Y64214D01*
X-33168Y64228D01*
X-33168Y64228D01*
Y64228D01*
X-33158Y64260D01*
X-33156Y64265D01*
Y64265D01*
X-33156Y64265D01*
X-33141Y64293D01*
X-33138Y64299D01*
X-33138Y64299D01*
X-33138Y64299D01*
X-33122Y64318D01*
X-33113Y64329D01*
X-33113Y64329D01*
X-33113Y64329D01*
X-33102Y64337D01*
X-33102Y64394D01*
Y64394D01*
Y64394D01*
X-33100Y64412D01*
X-33097Y64433D01*
X-33097Y64433D01*
Y64433D01*
X-33095Y64442D01*
X-33086Y64470D01*
X-33086Y64470D01*
Y64470D01*
X-33081Y64478D01*
X-33067Y64504D01*
X-33067Y64504D01*
X-33067Y64504D01*
X-33056Y64517D01*
X-33042Y64534D01*
X-33042Y64534D01*
X-33042Y64534D01*
X-33032Y64542D01*
X-33031Y64599D01*
X-33030Y64610D01*
X-33028Y64633D01*
X-33029Y64647D01*
X-33031Y64667D01*
X-33031Y64667D01*
X-33031Y64668D01*
X-33030Y64736D01*
X-33026Y64775D01*
X-33016Y64805D01*
X-33014Y64812D01*
X-33014Y64812D01*
X-33014Y64812D01*
X-33001Y64837D01*
X-32996Y64846D01*
X-32996Y64846D01*
X-32996Y64846D01*
X-32971Y64875D01*
X-32959Y64885D01*
X-32956Y64911D01*
X-32945Y64948D01*
D01*
X-32945Y64948D01*
X-32933Y64970D01*
X-32926Y64982D01*
X-32926Y64982D01*
X-32926Y64982D01*
X-32911Y65000D01*
X-32901Y65012D01*
X-32901Y65012D01*
X-32901Y65012D01*
X-32890Y65021D01*
X-32889Y65027D01*
X-32887Y65047D01*
X-32887Y65047D01*
Y65047D01*
X-32879Y65070D01*
X-32875Y65084D01*
X-32875Y65084D01*
X-32875Y65084D01*
X-32857Y65118D01*
X-32838Y65140D01*
X-32832Y65148D01*
X-32832Y65148D01*
X-32832Y65148D01*
X-32821Y65157D01*
X-32820Y65214D01*
X-32816Y65252D01*
X-32805Y65289D01*
X-32786Y65323D01*
X-32761Y65353D01*
X-32731Y65377D01*
X-32722Y65382D01*
X-32717Y65391D01*
X-32717Y65391D01*
X-32717Y65391D01*
X-32706Y65405D01*
X-32692Y65421D01*
X-32692Y65421D01*
X-32692Y65421D01*
X-32680Y65430D01*
X-32678Y65455D01*
X-32678Y65456D01*
D01*
X-32678Y65456D01*
X-32667Y65490D01*
X-32666Y65493D01*
Y65493D01*
X-32666Y65493D01*
X-32655Y65514D01*
X-32647Y65527D01*
X-32647Y65527D01*
X-32647Y65527D01*
X-32636Y65541D01*
X-32623Y65557D01*
X-32623Y65557D01*
X-32623Y65557D01*
X-32603Y65573D01*
X-32592Y65581D01*
X-32592Y65581D01*
X-32592Y65581D01*
X-32558Y65599D01*
X-32535Y65606D01*
X-32528Y65629D01*
X-32509Y65663D01*
X-32484Y65693D01*
X-32458Y65714D01*
X-32454Y65717D01*
X-32454D01*
X-32454Y65717D01*
X-32420Y65735D01*
X-32397Y65742D01*
X-32390Y65765D01*
X-32371Y65799D01*
X-32346Y65829D01*
X-32346D01*
Y65829D01*
X-32339Y65834D01*
X-32316Y65853D01*
X-32282Y65871D01*
D01*
X-32282Y65871D01*
X-32245Y65882D01*
X-32219Y65884D01*
X-32218Y65885D01*
X-32209Y65896D01*
X-32209Y65896D01*
X-32209Y65896D01*
X-32196Y65907D01*
X-32179Y65920D01*
X-32179Y65920D01*
X-32179Y65920D01*
X-32169Y65925D01*
X-32165Y65934D01*
X-32165Y65934D01*
X-32165Y65934D01*
X-32160Y65939D01*
X-32140Y65964D01*
X-32110Y65988D01*
X-32110D01*
X-32109Y65988D01*
X-32089Y65999D01*
X-32075Y66006D01*
X-32075Y66006D01*
X-32075Y66006D01*
X-32056Y66012D01*
X-32038Y66017D01*
X-32038D01*
X-32038Y66017D01*
X-32015Y66019D01*
X-31999Y66021D01*
X-31999D01*
X-31999D01*
X-31806Y66019D01*
X-31797Y66029D01*
X-31767Y66054D01*
X-31766Y66054D01*
X-31766Y66054D01*
X-31758Y66058D01*
X-31732Y66072D01*
X-31732Y66072D01*
X-31732Y66072D01*
X-31723Y66074D01*
X-31695Y66083D01*
X-31695D01*
X-31695Y66083D01*
X-31677Y66084D01*
X-31656Y66086D01*
X-31656D01*
X-31656D01*
X-31588Y66085D01*
D02*
G37*
G36*
X31201Y64268D02*
X31218Y64267D01*
X31220Y64267D01*
X31222Y64267D01*
X31239Y64263D01*
X31256Y64259D01*
X31258Y64258D01*
X31260Y64258D01*
X31276Y64251D01*
X31292Y64244D01*
X31336Y64219D01*
X31347Y64211D01*
X31358Y64205D01*
X31363Y64200D01*
X31368Y64197D01*
X31377Y64187D01*
X31387Y64179D01*
X31391Y64173D01*
X31395Y64169D01*
X31402Y64158D01*
X31410Y64147D01*
X31535Y63937D01*
X31537Y63933D01*
X31539Y63930D01*
X31681Y63671D01*
X31682Y63668D01*
X31684Y63665D01*
X31837Y63357D01*
X31838Y63355D01*
X31839Y63353D01*
X32153Y62679D01*
X32154Y62676D01*
X32155Y62673D01*
X32381Y62142D01*
X32382Y62138D01*
X32384Y62134D01*
X32603Y61552D01*
X32603Y61550D01*
X32604Y61547D01*
X32903Y60684D01*
X32903Y60683D01*
X32903Y60682D01*
X33127Y60020D01*
X33329Y60302D01*
X33332Y60305D01*
X33334Y60308D01*
X33779Y60881D01*
X33784Y60886D01*
X33788Y60891D01*
X34345Y61517D01*
X34349Y61521D01*
X34352Y61525D01*
X34941Y62121D01*
X34946Y62125D01*
X34950Y62130D01*
X35492Y62611D01*
X35498Y62616D01*
X35504Y62621D01*
X35943Y62951D01*
X35947Y62954D01*
X35952Y62958D01*
X36550Y63357D01*
X36552Y63358D01*
X36554Y63360D01*
X37163Y63745D01*
X37171Y63749D01*
X37179Y63754D01*
X37189Y63757D01*
X37198Y63762D01*
X37207Y63765D01*
X37215Y63768D01*
X37375Y63814D01*
X37394Y63817D01*
X37412Y63820D01*
X37413Y63820D01*
X37414Y63821D01*
X37432Y63820D01*
X37451Y63820D01*
X37451Y63820D01*
X37452Y63820D01*
X37470Y63816D01*
X37488Y63812D01*
X37489Y63812D01*
X37490Y63812D01*
X37507Y63805D01*
X37524Y63797D01*
X37558Y63779D01*
X37569Y63772D01*
X37579Y63766D01*
X37584Y63761D01*
X37591Y63757D01*
X37599Y63748D01*
X37608Y63740D01*
X37613Y63734D01*
X37618Y63729D01*
X37624Y63719D01*
X37632Y63709D01*
X37729Y63554D01*
X37730Y63551D01*
X37732Y63548D01*
X37842Y63357D01*
X37843Y63354D01*
X37846Y63350D01*
X37964Y63124D01*
X37966Y63119D01*
X37969Y63114D01*
X38537Y61871D01*
X38539Y61864D01*
X38542Y61858D01*
X39062Y60478D01*
X39063Y60472D01*
X39066Y60467D01*
X39518Y59012D01*
X39519Y59006D01*
X39521Y59001D01*
X39882Y57534D01*
X39883Y57530D01*
X39884Y57526D01*
X40038Y56765D01*
X40038Y56763D01*
X40039Y56761D01*
X40203Y55853D01*
X40203Y55851D01*
X40204Y55850D01*
X40351Y54979D01*
X40351Y54970D01*
X40353Y54961D01*
X40375Y54684D01*
X40375Y54677D01*
X40376Y54671D01*
X40375Y54658D01*
X40374Y54645D01*
X40373Y54639D01*
X40372Y54632D01*
X40369Y54620D01*
X40366Y54607D01*
X40363Y54601D01*
X40362Y54595D01*
X40356Y54584D01*
X40351Y54572D01*
X40347Y54566D01*
X40344Y54560D01*
X40336Y54550D01*
X40328Y54540D01*
X40324Y54535D01*
X40319Y54530D01*
X40222Y54430D01*
X40208Y54418D01*
X40193Y54406D01*
X40193Y54406D01*
X40193Y54405D01*
X40176Y54396D01*
X40160Y54387D01*
X40159Y54387D01*
X40159Y54387D01*
X40141Y54381D01*
X40123Y54375D01*
X40122Y54375D01*
X40122Y54375D01*
X40102Y54373D01*
X40084Y54371D01*
X40083Y54371D01*
X40083D01*
X40083D01*
X38707Y54346D01*
X38706Y54346D01*
X38705Y54346D01*
X36297Y54330D01*
X36296Y54330D01*
X36296Y54330D01*
X28987Y54326D01*
X28986D01*
X28986D01*
X17794Y54326D01*
X17784Y54327D01*
X17774Y54327D01*
X17765Y54329D01*
X17756Y54330D01*
X17746Y54333D01*
X17736Y54335D01*
X17728Y54339D01*
X17719Y54341D01*
X17710Y54346D01*
X17700Y54350D01*
X17693Y54355D01*
X17684Y54360D01*
X17677Y54366D01*
X17668Y54372D01*
X17662Y54378D01*
X17654Y54384D01*
X17648Y54392D01*
X17641Y54399D01*
X17636Y54407D01*
X17630Y54414D01*
X17625Y54423D01*
X17620Y54431D01*
X17616Y54440D01*
X17612Y54448D01*
X17609Y54458D01*
X17605Y54467D01*
X17603Y54476D01*
X17600Y54485D01*
X17599Y54496D01*
X17597Y54505D01*
X17597Y54515D01*
X17597Y54524D01*
X17598Y54534D01*
X17598Y54544D01*
X17599Y54553D01*
X17600Y54562D01*
X17603Y54572D01*
X17605Y54582D01*
X17657Y54750D01*
X17659Y54755D01*
X17662Y54765D01*
X17776Y55055D01*
X17780Y55063D01*
X17783Y55070D01*
X18151Y55812D01*
X18152Y55814D01*
X18153Y55815D01*
X18534Y56554D01*
X18536Y56557D01*
X18537Y56561D01*
X18811Y57046D01*
X18814Y57051D01*
X18817Y57057D01*
X19400Y57948D01*
X19404Y57953D01*
X19408Y57959D01*
X20083Y58849D01*
X20087Y58854D01*
X20091Y58859D01*
X20796Y59671D01*
X20802Y59677D01*
X20808Y59684D01*
X21479Y60338D01*
X21486Y60343D01*
X21492Y60350D01*
X22100Y60848D01*
X22106Y60851D01*
X22111Y60855D01*
X22804Y61351D01*
X22808Y61353D01*
X22812Y61356D01*
X23464Y61777D01*
X23473Y61781D01*
X23481Y61787D01*
X23490Y61790D01*
X23498Y61795D01*
X23508Y61797D01*
X23517Y61801D01*
X23776Y61875D01*
X23783Y61876D01*
X23789Y61878D01*
X23802Y61879D01*
X23814Y61882D01*
X23821Y61881D01*
X23828Y61882D01*
X23841Y61881D01*
X23853Y61881D01*
X23860Y61879D01*
X23866Y61879D01*
X23879Y61875D01*
X23891Y61873D01*
X23897Y61870D01*
X23904Y61868D01*
X23915Y61862D01*
X23927Y61857D01*
X23932Y61853D01*
X23938Y61850D01*
X24069Y61765D01*
X24085Y61753D01*
X24099Y61742D01*
X24099Y61741D01*
X24100Y61741D01*
X24112Y61727D01*
X24124Y61712D01*
X24124Y61712D01*
X24125Y61711D01*
X24133Y61696D01*
X24143Y61678D01*
X24675Y60461D01*
X24676Y60460D01*
X24677Y60457D01*
X25179Y59238D01*
X25180Y59233D01*
X25182Y59229D01*
X25545Y58219D01*
X25751Y58615D01*
X25752Y58616D01*
X25756Y58625D01*
X26561Y59997D01*
X26567Y60006D01*
X26572Y60014D01*
X27491Y61268D01*
X27498Y61275D01*
X27505Y61284D01*
X28527Y62402D01*
X28536Y62409D01*
X28543Y62418D01*
X29656Y63386D01*
X29664Y63392D01*
X29672Y63398D01*
X30009Y63636D01*
X30015Y63639D01*
X30020Y63643D01*
X30485Y63930D01*
X30487Y63931D01*
X30489Y63933D01*
X30961Y64206D01*
X30967Y64209D01*
X30973Y64213D01*
X30985Y64217D01*
X30996Y64222D01*
X31003Y64224D01*
X31009Y64226D01*
X31145Y64262D01*
X31162Y64265D01*
X31180Y64268D01*
X31181Y64268D01*
X31183Y64268D01*
X31201Y64268D01*
D02*
G37*
G36*
X-39998Y59790D02*
X-39930Y59789D01*
X-39930Y59789D01*
X-39929Y59789D01*
X-39906Y59787D01*
X-39891Y59785D01*
X-39891Y59785D01*
X-39891Y59785D01*
X-39866Y59777D01*
X-39854Y59773D01*
X-39854Y59773D01*
X-39854Y59773D01*
X-39840Y59766D01*
X-39820Y59755D01*
X-39820Y59755D01*
X-39820Y59755D01*
X-39812Y59748D01*
X-39790Y59730D01*
X-39790Y59730D01*
X-39790Y59730D01*
X-39780Y59717D01*
X-39766Y59700D01*
X-39766Y59700D01*
X-39766Y59700D01*
X-39761Y59691D01*
X-39752Y59686D01*
X-39752Y59686D01*
X-39752Y59686D01*
X-39738Y59674D01*
X-39722Y59661D01*
X-39722Y59661D01*
X-39722Y59661D01*
X-39712Y59648D01*
X-39698Y59631D01*
X-39698Y59631D01*
X-39698Y59631D01*
X-39694Y59623D01*
X-39693Y59622D01*
X-39684Y59617D01*
X-39684Y59617D01*
X-39684Y59617D01*
X-39670Y59605D01*
X-39654Y59592D01*
X-39654Y59592D01*
X-39654Y59592D01*
X-39644Y59579D01*
X-39630Y59562D01*
X-39630Y59562D01*
X-39630Y59562D01*
X-39624Y59550D01*
X-39612Y59527D01*
X-39612Y59527D01*
X-39612Y59527D01*
X-39606Y59505D01*
X-39601Y59490D01*
Y59490D01*
X-39601Y59490D01*
X-39599Y59466D01*
X-39599Y59464D01*
X-39598Y59463D01*
X-39587Y59454D01*
X-39587Y59454D01*
X-39587Y59454D01*
X-39564Y59425D01*
X-39563Y59424D01*
D01*
X-39563Y59424D01*
X-39546Y59393D01*
X-39545Y59390D01*
Y59390D01*
X-39545Y59390D01*
X-39538Y59367D01*
X-39534Y59353D01*
Y59352D01*
X-39534Y59352D01*
X-39532Y59336D01*
X-39531Y59326D01*
X-39520Y59317D01*
X-39495Y59286D01*
X-39491Y59277D01*
X-39482Y59272D01*
X-39482Y59272D01*
X-39482Y59272D01*
X-39468Y59261D01*
X-39452Y59248D01*
X-39452Y59248D01*
X-39452Y59248D01*
X-39436Y59228D01*
X-39428Y59218D01*
X-39428Y59218D01*
X-39428Y59217D01*
X-39423Y59208D01*
X-39414Y59203D01*
X-39384Y59179D01*
X-39360Y59148D01*
X-39355Y59139D01*
X-39346Y59134D01*
X-39316Y59109D01*
X-39316Y59109D01*
X-39316Y59109D01*
X-39292Y59079D01*
X-39287Y59070D01*
X-39278Y59065D01*
X-39258Y59049D01*
X-39248Y59040D01*
X-39248Y59040D01*
X-39248Y59040D01*
X-39224Y59010D01*
X-39219Y59001D01*
X-39210Y58996D01*
X-39210Y58996D01*
X-39210Y58996D01*
X-39205Y58992D01*
X-39180Y58971D01*
X-39156Y58941D01*
X-39151Y58932D01*
X-39142Y58927D01*
X-39112Y58902D01*
X-39088Y58872D01*
X-39083Y58863D01*
X-39074Y58858D01*
X-39045Y58833D01*
X-39045Y58833D01*
X-39045Y58833D01*
X-39036Y58823D01*
X-38979Y58822D01*
X-38941Y58818D01*
X-38917Y58811D01*
X-38904Y58806D01*
X-38904Y58806D01*
D01*
X-38870Y58788D01*
X-38842Y58765D01*
X-38840Y58763D01*
Y58763D01*
X-38840D01*
X-38834Y58756D01*
X-38815Y58733D01*
X-38797Y58698D01*
X-38791Y58675D01*
X-38780Y58672D01*
X-38768Y58668D01*
X-38768Y58668D01*
X-38768Y58668D01*
X-38755Y58661D01*
X-38734Y58650D01*
X-38734Y58650D01*
X-38734D01*
X-38728Y58644D01*
X-38704Y58625D01*
X-38704Y58625D01*
X-38704Y58625D01*
X-38693Y58612D01*
X-38680Y58595D01*
X-38680Y58595D01*
X-38680Y58595D01*
X-38675Y58585D01*
X-38666Y58580D01*
X-38636Y58556D01*
X-38627Y58544D01*
X-38601Y58541D01*
X-38564Y58529D01*
D01*
X-38563Y58529D01*
X-38530Y58511D01*
X-38505Y58491D01*
X-38500Y58486D01*
X-38500Y58486D01*
X-38500Y58486D01*
X-38490Y58474D01*
X-38483Y58473D01*
X-38464Y58471D01*
X-38464Y58471D01*
X-38464D01*
X-38454Y58468D01*
X-38427Y58460D01*
X-38393Y58441D01*
X-38393Y58441D01*
X-38393Y58441D01*
X-38382Y58432D01*
X-38363Y58416D01*
X-38363Y58416D01*
X-38363Y58416D01*
X-38351Y58401D01*
X-38339Y58386D01*
X-38339Y58386D01*
X-38339Y58386D01*
X-38334Y58377D01*
X-38332Y58376D01*
X-38325Y58372D01*
X-38325Y58372D01*
X-38325Y58372D01*
X-38306Y58356D01*
X-38296Y58347D01*
X-38296Y58347D01*
X-38295Y58347D01*
X-38286Y58335D01*
X-38260Y58333D01*
X-38223Y58321D01*
D01*
X-38223Y58321D01*
X-38189Y58302D01*
X-38164Y58282D01*
X-38159Y58278D01*
X-38159Y58278D01*
X-38159Y58278D01*
X-38150Y58266D01*
X-38124Y58263D01*
X-38087Y58251D01*
D01*
X-38087Y58251D01*
X-38065Y58240D01*
X-38053Y58233D01*
X-38053Y58233D01*
X-38052Y58233D01*
X-38035Y58218D01*
X-38023Y58208D01*
X-38023Y58208D01*
X-38023Y58208D01*
X-38011Y58193D01*
X-37999Y58178D01*
X-37999Y58178D01*
X-37998Y58178D01*
X-37994Y58169D01*
X-37985Y58164D01*
X-37955Y58139D01*
X-37946Y58128D01*
X-37889Y58128D01*
X-37889Y58128D01*
X-37889Y58128D01*
X-37875Y58126D01*
X-37851Y58124D01*
X-37851Y58123D01*
X-37851D01*
X-37848Y58123D01*
X-37814Y58112D01*
X-37814Y58112D01*
X-37814Y58112D01*
X-37804Y58106D01*
X-37780Y58093D01*
X-37780Y58093D01*
X-37780Y58093D01*
X-37767Y58083D01*
X-37750Y58069D01*
X-37750Y58069D01*
X-37750Y58069D01*
X-37745Y58062D01*
X-37726Y58038D01*
X-37726Y58038D01*
X-37726Y58038D01*
X-37722Y58032D01*
X-37721Y58029D01*
X-37712Y58024D01*
X-37712Y58024D01*
X-37712Y58024D01*
X-37701Y58015D01*
X-37682Y58000D01*
X-37682Y57999D01*
X-37682Y57999D01*
X-37674Y57989D01*
X-37617Y57988D01*
X-37617D01*
X-37617D01*
X-37604Y57987D01*
X-37578Y57984D01*
X-37541Y57973D01*
D01*
X-37541Y57973D01*
X-37519Y57961D01*
X-37507Y57954D01*
X-37507Y57954D01*
X-37507Y57954D01*
X-37489Y57939D01*
X-37477Y57929D01*
X-37477Y57929D01*
X-37477Y57929D01*
X-37469Y57919D01*
X-37412Y57918D01*
X-37412D01*
X-37412D01*
X-37404Y57917D01*
X-37373Y57914D01*
X-37336Y57902D01*
X-37336Y57902D01*
D01*
X-37302Y57884D01*
X-37278Y57864D01*
X-37273Y57859D01*
Y57859D01*
X-37273D01*
X-37267Y57852D01*
X-37264Y57848D01*
X-37207Y57848D01*
X-37168Y57844D01*
X-37132Y57832D01*
X-37097Y57814D01*
X-37073Y57793D01*
X-37068Y57789D01*
Y57789D01*
X-37068D01*
X-37059Y57778D01*
X-37002Y57778D01*
X-36964Y57773D01*
X-36927Y57762D01*
X-36893Y57743D01*
X-36863Y57718D01*
X-36854Y57708D01*
X-36797Y57707D01*
X-36778Y57705D01*
X-36759Y57703D01*
X-36759Y57703D01*
X-36759Y57703D01*
X-36727Y57693D01*
X-36722Y57692D01*
X-36722D01*
X-36722Y57692D01*
X-36696Y57678D01*
X-36688Y57673D01*
X-36688Y57673D01*
X-36688Y57673D01*
X-36670Y57658D01*
X-36658Y57648D01*
X-36658Y57648D01*
X-36658Y57648D01*
X-36646Y57634D01*
X-36634Y57618D01*
X-36634Y57618D01*
X-36634Y57618D01*
X-36629Y57609D01*
X-36620Y57604D01*
X-36600Y57587D01*
X-36590Y57579D01*
X-36590Y57579D01*
X-36590Y57579D01*
X-36582Y57568D01*
X-36388Y57567D01*
X-36388D01*
X-36388D01*
X-36372Y57565D01*
X-36349Y57563D01*
X-36349Y57563D01*
X-36349D01*
X-36341Y57560D01*
X-36312Y57551D01*
X-36278Y57532D01*
X-36278Y57532D01*
X-36278Y57532D01*
X-36263Y57520D01*
X-36248Y57508D01*
X-36248Y57507D01*
X-36248D01*
X-36246Y57505D01*
X-36240Y57497D01*
X-36183Y57496D01*
X-36160Y57494D01*
X-36144Y57492D01*
X-36144Y57492D01*
X-36144Y57492D01*
X-36121Y57485D01*
X-36107Y57481D01*
X-36107Y57481D01*
X-36107Y57481D01*
X-36088Y57470D01*
X-36073Y57462D01*
X-36073Y57462D01*
X-36073Y57462D01*
X-36057Y57449D01*
X-36044Y57437D01*
X-36044Y57437D01*
X-36043Y57437D01*
X-36035Y57427D01*
X-35978Y57426D01*
D01*
X-35978D01*
X-35939Y57422D01*
X-35902Y57410D01*
X-35868Y57392D01*
X-35839Y57367D01*
Y57367D01*
X-35838D01*
X-35834Y57361D01*
X-35830Y57356D01*
X-35773Y57356D01*
X-35773D01*
X-35773D01*
X-35752Y57354D01*
X-35735Y57352D01*
X-35735Y57352D01*
X-35735D01*
X-35719Y57347D01*
X-35698Y57340D01*
X-35698Y57340D01*
X-35697D01*
X-35691Y57337D01*
X-35664Y57322D01*
X-35664Y57322D01*
X-35664Y57322D01*
X-35651Y57311D01*
X-35634Y57297D01*
X-35634Y57297D01*
X-35634Y57297D01*
X-35626Y57287D01*
X-35625Y57286D01*
X-35431Y57284D01*
X-35422Y57283D01*
X-35393Y57280D01*
X-35356Y57269D01*
D01*
X-35356Y57269D01*
X-35322Y57250D01*
X-35297Y57230D01*
X-35292Y57225D01*
X-35292Y57225D01*
X-35292Y57225D01*
X-35283Y57215D01*
X-35227Y57214D01*
X-35194Y57211D01*
X-35188Y57210D01*
X-35188D01*
X-35188Y57210D01*
X-35164Y57203D01*
X-35151Y57198D01*
X-35151Y57198D01*
X-35151Y57198D01*
X-35133Y57189D01*
X-35117Y57180D01*
X-35117Y57180D01*
X-35117Y57180D01*
X-35100Y57166D01*
X-35087Y57155D01*
X-35087Y57155D01*
X-35087Y57155D01*
X-35079Y57144D01*
X-34885Y57143D01*
X-34860Y57140D01*
X-34846Y57139D01*
X-34846Y57139D01*
X-34846D01*
X-34821Y57131D01*
X-34809Y57127D01*
X-34809Y57127D01*
X-34809Y57127D01*
X-34784Y57113D01*
X-34775Y57108D01*
X-34775Y57108D01*
X-34775Y57108D01*
X-34763Y57098D01*
X-34745Y57084D01*
X-34737Y57073D01*
X-34680Y57072D01*
X-34646Y57069D01*
X-34629Y57070D01*
X-34611Y57072D01*
X-34611D01*
D01*
D01*
X-34543Y57071D01*
X-34543D01*
X-34543D01*
X-34530Y57070D01*
X-34504Y57067D01*
X-34467Y57055D01*
D01*
X-34467Y57055D01*
X-34446Y57044D01*
X-34433Y57037D01*
X-34433Y57037D01*
X-34433Y57037D01*
X-34415Y57022D01*
X-34403Y57012D01*
X-34403Y57012D01*
X-34403Y57012D01*
X-34395Y57001D01*
X-34201Y57000D01*
X-34201D01*
X-34201D01*
X-34185Y56998D01*
X-34167Y56996D01*
X-34150Y56998D01*
X-34133Y56999D01*
X-34133D01*
D01*
D01*
X-34064Y56999D01*
X-34064Y56999D01*
X-34064Y56999D01*
X-34048Y56997D01*
X-34026Y56994D01*
X-34025Y56994D01*
X-34025D01*
X-34017Y56992D01*
X-33989Y56983D01*
X-33988Y56983D01*
X-33988Y56983D01*
X-33972Y56974D01*
X-33955Y56964D01*
X-33955Y56964D01*
X-33955Y56964D01*
X-33939Y56951D01*
X-33925Y56939D01*
X-33925Y56939D01*
X-33925Y56939D01*
X-33916Y56929D01*
X-33859Y56928D01*
X-33825Y56925D01*
X-33805Y56926D01*
X-33791Y56928D01*
X-33791D01*
X-33791D01*
X-33791D01*
X-33722Y56927D01*
X-33722Y56927D01*
X-33722Y56927D01*
X-33706Y56925D01*
X-33684Y56923D01*
X-33684Y56923D01*
X-33684D01*
X-33676Y56920D01*
X-33647Y56911D01*
X-33647Y56911D01*
X-33647Y56911D01*
X-33630Y56902D01*
X-33613Y56893D01*
X-33613Y56893D01*
X-33613Y56893D01*
X-33597Y56880D01*
X-33583Y56868D01*
X-33583Y56868D01*
X-33583Y56868D01*
X-33574Y56857D01*
X-33518Y56857D01*
X-33518D01*
X-33518D01*
X-33501Y56855D01*
X-33483Y56853D01*
X-33464Y56855D01*
X-33449Y56856D01*
X-33449D01*
X-33449D01*
X-33381Y56856D01*
X-33346Y56852D01*
X-33331Y56853D01*
X-33312Y56855D01*
X-33312D01*
D01*
D01*
X-33244Y56854D01*
X-33244D01*
X-33244D01*
X-33226Y56853D01*
X-33205Y56850D01*
X-33205Y56850D01*
X-33205D01*
X-33196Y56847D01*
X-33168Y56839D01*
X-33168Y56839D01*
X-33168D01*
X-33160Y56834D01*
X-33134Y56820D01*
X-33134Y56820D01*
X-33134Y56820D01*
X-33120Y56809D01*
X-33104Y56795D01*
X-33104Y56795D01*
X-33104Y56795D01*
X-33096Y56785D01*
X-33039Y56784D01*
X-33021Y56782D01*
X-33000Y56780D01*
X-33000Y56780D01*
X-33000D01*
X-32982Y56774D01*
X-32963Y56768D01*
X-32963Y56768D01*
X-32963Y56768D01*
X-32933Y56752D01*
X-32929Y56750D01*
X-32929Y56750D01*
X-32929Y56750D01*
X-32910Y56734D01*
X-32899Y56725D01*
X-32899Y56725D01*
X-32899Y56725D01*
X-32891Y56714D01*
X-32423Y56710D01*
X-32389Y56707D01*
X-32368Y56709D01*
X-32355Y56710D01*
X-32355D01*
X-32355D01*
X-32355D01*
X-32286Y56709D01*
X-32286D01*
X-32286D01*
X-32274Y56708D01*
X-32247Y56705D01*
X-32210Y56693D01*
X-32210D01*
X-32210Y56693D01*
X-32182Y56678D01*
X-32177Y56675D01*
X-32177Y56675D01*
X-32176Y56675D01*
X-32157Y56659D01*
X-32147Y56650D01*
X-32147Y56650D01*
X-32147Y56650D01*
X-32138Y56639D01*
X-32081Y56639D01*
X-32047Y56635D01*
X-32044Y56635D01*
X-32013Y56638D01*
X-32013D01*
X-32013D01*
X-31944Y56638D01*
X-31922Y56635D01*
X-31910Y56634D01*
X-31896Y56635D01*
X-31876Y56637D01*
X-31876Y56637D01*
X-31876Y56637D01*
X-31807Y56636D01*
X-31769Y56632D01*
X-31760Y56630D01*
X-31732Y56621D01*
X-31698Y56602D01*
X-31668Y56577D01*
X-31659Y56567D01*
X-31466Y56565D01*
X-31431Y56561D01*
X-31397Y56564D01*
X-31328Y56564D01*
X-31290Y56560D01*
X-31264Y56551D01*
X-31253Y56548D01*
X-31253Y56548D01*
D01*
X-31250Y56546D01*
X-31219Y56529D01*
X-31189Y56505D01*
X-31189Y56505D01*
X-31189Y56505D01*
X-31181Y56494D01*
X-31124Y56494D01*
X-31090Y56490D01*
X-31077Y56491D01*
X-31055Y56493D01*
X-30987Y56492D01*
X-30962Y56490D01*
X-30953Y56489D01*
X-30936Y56490D01*
X-30918Y56492D01*
X-30918D01*
D01*
D01*
X-30850Y56491D01*
X-30850D01*
X-30850D01*
X-30837Y56490D01*
X-30811Y56487D01*
X-30774Y56475D01*
X-30774D01*
X-30774Y56475D01*
X-30746Y56460D01*
X-30740Y56457D01*
X-30740Y56457D01*
X-30740Y56457D01*
X-30721Y56441D01*
X-30710Y56432D01*
X-30710Y56432D01*
X-30710Y56432D01*
X-30702Y56421D01*
X-30371Y56418D01*
X-30337Y56415D01*
X-30303Y56418D01*
X-30303D01*
D01*
D01*
X-30234Y56417D01*
X-30234D01*
X-30234D01*
X-30222Y56416D01*
X-30196Y56413D01*
X-30158Y56401D01*
D01*
X-30158Y56401D01*
X-30137Y56390D01*
X-30125Y56383D01*
X-30125Y56383D01*
X-30125Y56383D01*
X-30106Y56368D01*
X-30095Y56358D01*
X-30095Y56358D01*
X-30095Y56358D01*
X-30086Y56348D01*
X-30029Y56347D01*
X-29995Y56343D01*
X-29961Y56346D01*
X-29892Y56346D01*
X-29869Y56343D01*
X-29858Y56342D01*
X-29831Y56344D01*
X-29824Y56345D01*
X-29824D01*
D01*
D01*
X-29755Y56345D01*
X-29738Y56343D01*
X-29721Y56341D01*
X-29708Y56342D01*
X-29687Y56344D01*
X-29687Y56344D01*
X-29687Y56344D01*
X-29618Y56343D01*
X-29594Y56341D01*
X-29580Y56339D01*
X-29580Y56339D01*
X-29580D01*
X-29555Y56331D01*
X-29543Y56328D01*
X-29543Y56328D01*
X-29543Y56328D01*
X-29527Y56319D01*
X-29516Y56313D01*
X-29489Y56327D01*
X-29452Y56338D01*
X-29413Y56342D01*
D01*
X-29413D01*
X-29344Y56341D01*
X-29321Y56339D01*
X-29306Y56337D01*
X-29306Y56337D01*
X-29306D01*
X-29281Y56329D01*
X-29269Y56325D01*
X-29269Y56325D01*
X-29269Y56325D01*
X-29253Y56317D01*
X-29235Y56307D01*
X-29235Y56307D01*
X-29235Y56307D01*
X-29225Y56298D01*
X-29205Y56282D01*
X-29205Y56282D01*
X-29205Y56282D01*
X-29197Y56271D01*
X-29014Y56270D01*
X-29006Y56280D01*
X-29005Y56280D01*
X-29005Y56280D01*
X-28987Y56295D01*
X-28975Y56304D01*
X-28975Y56304D01*
X-28975Y56305D01*
X-28951Y56317D01*
X-28941Y56322D01*
X-28941Y56322D01*
X-28941Y56322D01*
X-28921Y56328D01*
X-28904Y56333D01*
X-28904Y56333D01*
X-28904Y56333D01*
X-28886Y56335D01*
X-28865Y56337D01*
X-28865Y56337D01*
X-28865Y56337D01*
X-28796Y56336D01*
X-28774Y56334D01*
X-28763Y56333D01*
X-28745Y56334D01*
X-28728Y56336D01*
X-28728Y56336D01*
X-28728Y56336D01*
X-28660Y56335D01*
X-28631Y56332D01*
X-28626Y56331D01*
X-28607Y56333D01*
X-28591Y56335D01*
X-28591D01*
X-28591D01*
X-28534Y56334D01*
X-28526Y56344D01*
X-28502Y56363D01*
X-28495Y56369D01*
X-28495Y56369D01*
X-28495Y56369D01*
X-28461Y56387D01*
X-28429Y56396D01*
X-28424Y56398D01*
X-28424D01*
X-28424Y56398D01*
X-28399Y56400D01*
X-28385Y56401D01*
X-28385D01*
D01*
D01*
X-28191Y56399D01*
X-28182Y56410D01*
X-28152Y56434D01*
X-28143Y56439D01*
X-28141Y56444D01*
X-28138Y56448D01*
X-28138Y56448D01*
X-28138Y56448D01*
X-28124Y56466D01*
X-28113Y56478D01*
X-28113Y56478D01*
X-28113Y56478D01*
X-28084Y56501D01*
X-28083Y56502D01*
D01*
X-28083Y56502D01*
X-28052Y56518D01*
X-28049Y56520D01*
X-28049D01*
X-28049Y56520D01*
X-28029Y56526D01*
X-28012Y56531D01*
X-28012D01*
X-28012Y56531D01*
X-27997Y56532D01*
X-27973Y56534D01*
X-27973D01*
X-27973D01*
X-27916Y56534D01*
X-27907Y56545D01*
X-27877Y56569D01*
X-27877Y56569D01*
X-27877Y56569D01*
X-27868Y56574D01*
X-27863Y56583D01*
X-27845Y56604D01*
X-27838Y56612D01*
X-27838Y56612D01*
X-27838Y56612D01*
X-27819Y56628D01*
X-27808Y56637D01*
X-27808Y56637D01*
X-27808Y56637D01*
X-27778Y56652D01*
X-27774Y56655D01*
X-27774D01*
X-27774Y56655D01*
X-27751Y56661D01*
X-27744Y56684D01*
X-27729Y56710D01*
X-27725Y56718D01*
X-27725Y56718D01*
X-27725Y56718D01*
X-27713Y56733D01*
X-27700Y56748D01*
X-27700Y56748D01*
X-27700Y56748D01*
X-27670Y56773D01*
X-27638Y56789D01*
X-27636Y56790D01*
D01*
X-27636Y56790D01*
X-27613Y56797D01*
X-27613Y56797D01*
X-27605Y56820D01*
X-27587Y56854D01*
X-27587Y56854D01*
Y56854D01*
X-27584Y56857D01*
X-27562Y56884D01*
X-27532Y56908D01*
X-27532Y56908D01*
X-27532Y56908D01*
X-27523Y56913D01*
X-27518Y56922D01*
X-27518Y56922D01*
X-27518Y56922D01*
X-27506Y56936D01*
X-27493Y56952D01*
X-27493Y56952D01*
X-27493Y56952D01*
X-27480Y56962D01*
X-27463Y56976D01*
X-27463Y56976D01*
X-27463Y56976D01*
X-27454Y56981D01*
X-27449Y56990D01*
X-27449Y56990D01*
X-27449Y56990D01*
X-27435Y57006D01*
X-27424Y57020D01*
X-27424Y57020D01*
X-27424Y57020D01*
X-27413Y57028D01*
X-27413Y57085D01*
Y57085D01*
Y57085D01*
X-27412Y57094D01*
X-27409Y57124D01*
X-27397Y57161D01*
X-27397Y57161D01*
D01*
X-27395Y57164D01*
X-27378Y57195D01*
X-27354Y57224D01*
X-27354Y57224D01*
X-27354Y57224D01*
X-27347Y57230D01*
X-27323Y57249D01*
X-27314Y57254D01*
X-27309Y57263D01*
X-27285Y57292D01*
X-27254Y57317D01*
X-27220Y57335D01*
X-27183Y57346D01*
X-27144Y57349D01*
D01*
X-27144D01*
X-27076Y57349D01*
X-27039Y57345D01*
X-27037Y57344D01*
D01*
X-27037Y57344D01*
X-27008Y57335D01*
X-27000Y57333D01*
X-27000Y57333D01*
X-27000Y57333D01*
X-26982Y57323D01*
X-26966Y57314D01*
X-26966Y57314D01*
X-26966Y57314D01*
X-26952Y57303D01*
X-26936Y57289D01*
X-26936Y57289D01*
X-26936Y57289D01*
X-26926Y57277D01*
X-26912Y57259D01*
X-26912Y57259D01*
X-26912Y57259D01*
X-26900Y57237D01*
X-26894Y57225D01*
Y57225D01*
X-26894Y57225D01*
X-26885Y57194D01*
X-26883Y57188D01*
Y57188D01*
X-26883Y57187D01*
X-26881Y57163D01*
X-26880Y57149D01*
Y57149D01*
Y57149D01*
Y57149D01*
X-26880Y57081D01*
X-26884Y57046D01*
X-26883Y57033D01*
X-26881Y57012D01*
X-26881Y57012D01*
X-26881Y57012D01*
X-26881Y56943D01*
X-26884Y56920D01*
X-26885Y56910D01*
X-26885Y56906D01*
X-26882Y56875D01*
Y56875D01*
Y56875D01*
X-26883Y56806D01*
Y56806D01*
Y56806D01*
X-26885Y56782D01*
X-26886Y56772D01*
X-26883Y56738D01*
D01*
Y56738D01*
X-26884Y56670D01*
Y56670D01*
Y56670D01*
X-26885Y56657D01*
X-26888Y56631D01*
X-26899Y56594D01*
Y56594D01*
X-26899Y56594D01*
X-26915Y56566D01*
X-26918Y56560D01*
X-26918Y56560D01*
X-26918Y56560D01*
X-26934Y56541D01*
X-26943Y56530D01*
X-26943Y56530D01*
X-26943Y56530D01*
X-26954Y56522D01*
X-26954Y56465D01*
Y56465D01*
X-26955Y56396D01*
D01*
X-26955Y56328D01*
Y56328D01*
Y56328D01*
X-26956Y56259D01*
D01*
X-26956Y56191D01*
Y56191D01*
Y56191D01*
X-26957Y56122D01*
Y56122D01*
X-26958Y56054D01*
Y56054D01*
Y56054D01*
X-26960Y56031D01*
X-26962Y56015D01*
X-26962Y56015D01*
Y56015D01*
X-26970Y55991D01*
X-26973Y55978D01*
X-26973Y55978D01*
X-26973Y55978D01*
X-26979Y55969D01*
X-26992Y55944D01*
X-27017Y55915D01*
X-27017Y55915D01*
X-27017Y55914D01*
X-27027Y55906D01*
X-27028Y55849D01*
X-27028Y55849D01*
X-27028Y55849D01*
X-27029Y55781D01*
Y55781D01*
X-27029Y55712D01*
Y55712D01*
Y55712D01*
X-27030Y55644D01*
D01*
X-27030Y55575D01*
Y55575D01*
Y55575D01*
X-27033Y55550D01*
X-27034Y55541D01*
X-27033Y55527D01*
X-27031Y55507D01*
Y55507D01*
Y55507D01*
X-27031Y55438D01*
X-27034Y55415D01*
X-27035Y55404D01*
X-27034Y55391D01*
X-27032Y55370D01*
Y55370D01*
Y55370D01*
X-27033Y55301D01*
X-27037Y55263D01*
X-27048Y55226D01*
X-27067Y55192D01*
X-27092Y55162D01*
X-27103Y55153D01*
X-27103Y55096D01*
Y55096D01*
Y55096D01*
X-27104Y55028D01*
Y55028D01*
X-27104Y54959D01*
X-27104Y54959D01*
X-27104Y54959D01*
X-27107Y54935D01*
X-27108Y54921D01*
X-27108Y54921D01*
X-27108Y54921D01*
X-27116Y54896D01*
X-27120Y54884D01*
X-27120Y54884D01*
X-27120Y54884D01*
X-27128Y54870D01*
X-27138Y54850D01*
X-27138Y54850D01*
X-27139Y54850D01*
X-27145Y54842D01*
X-27163Y54820D01*
X-27163Y54820D01*
X-27163Y54820D01*
X-27174Y54812D01*
X-27174Y54755D01*
Y54755D01*
Y54755D01*
X-27175Y54686D01*
D01*
X-27176Y54618D01*
X-27178Y54594D01*
X-27179Y54583D01*
X-27178Y54564D01*
X-27176Y54549D01*
Y54549D01*
Y54549D01*
Y54549D01*
X-27177Y54481D01*
Y54481D01*
Y54481D01*
X-27179Y54458D01*
X-27181Y54442D01*
X-27181Y54442D01*
Y54442D01*
X-27189Y54417D01*
X-27193Y54405D01*
X-27193Y54405D01*
X-27193Y54405D01*
X-27198Y54395D01*
X-27211Y54371D01*
X-27236Y54341D01*
X-27236Y54341D01*
X-27236Y54341D01*
X-27247Y54333D01*
X-27247Y54276D01*
X-27251Y54237D01*
X-27262Y54203D01*
X-27263Y54200D01*
D01*
X-27263Y54200D01*
X-27281Y54166D01*
X-27298Y54146D01*
X-27306Y54137D01*
X-27306Y54137D01*
X-27306Y54137D01*
X-27317Y54128D01*
X-27317Y54071D01*
X-27321Y54037D01*
X-27319Y54010D01*
X-27318Y54002D01*
Y54002D01*
D01*
D01*
X-27319Y53934D01*
Y53934D01*
Y53934D01*
X-27321Y53909D01*
X-27323Y53895D01*
X-27323Y53895D01*
Y53895D01*
X-27327Y53881D01*
X-27334Y53858D01*
X-27353Y53824D01*
X-27353Y53824D01*
X-27353Y53824D01*
X-27357Y53819D01*
X-27378Y53795D01*
X-27388Y53786D01*
X-27389Y53729D01*
X-27391Y53704D01*
X-27393Y53691D01*
X-27393Y53691D01*
Y53691D01*
X-27401Y53666D01*
X-27404Y53654D01*
X-27404Y53654D01*
X-27405Y53654D01*
X-27418Y53629D01*
X-27423Y53620D01*
X-27423Y53620D01*
X-27423Y53620D01*
X-27439Y53601D01*
X-27448Y53590D01*
X-27448Y53590D01*
X-27448Y53590D01*
X-27459Y53581D01*
X-27459Y53524D01*
X-27463Y53490D01*
X-27461Y53475D01*
X-27460Y53456D01*
Y53456D01*
D01*
D01*
X-27460Y53387D01*
Y53387D01*
Y53387D01*
X-27463Y53363D01*
X-27464Y53349D01*
X-27464Y53349D01*
Y53349D01*
X-27469Y53335D01*
X-27476Y53312D01*
X-27495Y53278D01*
X-27495Y53278D01*
X-27495Y53278D01*
X-27499Y53273D01*
X-27519Y53248D01*
X-27550Y53224D01*
X-27559Y53219D01*
X-27564Y53210D01*
X-27588Y53180D01*
X-27599Y53172D01*
X-27599Y53172D01*
X-27600Y53115D01*
X-27602Y53096D01*
X-27604Y53076D01*
X-27604Y53076D01*
X-27604Y53076D01*
X-27609Y53059D01*
X-27615Y53039D01*
X-27615Y53039D01*
X-27615Y53039D01*
X-27625Y53021D01*
X-27634Y53005D01*
X-27634Y53005D01*
X-27634Y53005D01*
X-27648Y52988D01*
X-27659Y52975D01*
X-27659Y52975D01*
X-27659Y52975D01*
X-27669Y52967D01*
X-27670Y52910D01*
X-27674Y52871D01*
X-27686Y52834D01*
X-27704Y52800D01*
X-27729Y52770D01*
X-27740Y52762D01*
X-27740Y52705D01*
Y52705D01*
Y52705D01*
X-27741Y52694D01*
X-27744Y52666D01*
X-27756Y52629D01*
X-27771Y52602D01*
X-27775Y52595D01*
X-27791Y52575D01*
X-27799Y52566D01*
X-27799Y52566D01*
X-27799Y52565D01*
X-27814Y52554D01*
X-27830Y52541D01*
X-27830Y52541D01*
X-27830Y52541D01*
X-27839Y52536D01*
X-27843Y52527D01*
X-27843Y52527D01*
X-27844Y52527D01*
X-27857Y52512D01*
X-27868Y52498D01*
X-27868Y52498D01*
X-27868Y52498D01*
X-27879Y52489D01*
X-27880Y52432D01*
X-27884Y52394D01*
X-27895Y52357D01*
X-27914Y52323D01*
X-27939Y52293D01*
X-27969Y52268D01*
X-27978Y52264D01*
X-27983Y52255D01*
X-28003Y52231D01*
X-28008Y52225D01*
X-28008Y52225D01*
X-28008Y52225D01*
X-28018Y52217D01*
X-28019Y52160D01*
Y52160D01*
Y52160D01*
X-28020Y52150D01*
X-28023Y52121D01*
X-28035Y52084D01*
X-28035Y52084D01*
D01*
X-28036Y52081D01*
X-28053Y52050D01*
X-28078Y52020D01*
X-28078Y52020D01*
X-28078Y52020D01*
X-28108Y51996D01*
X-28117Y51991D01*
X-28122Y51982D01*
X-28147Y51952D01*
X-28147Y51952D01*
X-28147Y51952D01*
X-28159Y51943D01*
X-28177Y51928D01*
X-28186Y51923D01*
X-28191Y51914D01*
X-28191Y51914D01*
X-28191Y51914D01*
X-28200Y51904D01*
X-28216Y51884D01*
X-28216Y51884D01*
X-28216Y51884D01*
X-28228Y51875D01*
X-28231Y51849D01*
X-28242Y51812D01*
X-28261Y51778D01*
X-28286Y51748D01*
X-28286Y51748D01*
X-28286Y51748D01*
X-28298Y51739D01*
X-28299Y51728D01*
X-28300Y51713D01*
X-28300Y51713D01*
Y51713D01*
X-28308Y51688D01*
X-28312Y51675D01*
X-28312Y51675D01*
X-28312Y51675D01*
X-28326Y51651D01*
X-28331Y51641D01*
X-28331Y51641D01*
X-28331Y51641D01*
X-28347Y51622D01*
X-28356Y51612D01*
X-28356Y51612D01*
X-28356Y51612D01*
X-28385Y51588D01*
X-28386Y51587D01*
D01*
X-28386Y51587D01*
X-28395Y51583D01*
X-28400Y51573D01*
X-28425Y51544D01*
X-28455Y51519D01*
X-28464Y51515D01*
X-28469Y51506D01*
X-28469Y51506D01*
X-28469Y51506D01*
X-28485Y51486D01*
X-28494Y51476D01*
X-28494Y51476D01*
X-28494Y51476D01*
X-28506Y51466D01*
X-28508Y51440D01*
X-28520Y51403D01*
X-28539Y51369D01*
X-28563Y51340D01*
X-28563D01*
Y51340D01*
X-28569Y51335D01*
X-28594Y51315D01*
X-28628Y51297D01*
D01*
X-28628Y51297D01*
X-28650Y51291D01*
X-28651Y51291D01*
X-28658Y51267D01*
X-28670Y51245D01*
X-28677Y51234D01*
X-28688Y51220D01*
X-28702Y51204D01*
X-28713Y51194D01*
X-28714Y51186D01*
X-28716Y51168D01*
X-28716Y51168D01*
X-28716Y51168D01*
X-28726Y51136D01*
X-28728Y51131D01*
Y51131D01*
X-28728Y51131D01*
X-28742Y51106D01*
X-28746Y51097D01*
X-28746Y51097D01*
X-28746Y51097D01*
X-28769Y51070D01*
X-28771Y51068D01*
D01*
X-28771Y51067D01*
X-28796Y51047D01*
X-28801Y51043D01*
X-28801Y51043D01*
X-28801Y51043D01*
X-28826Y51030D01*
X-28836Y51025D01*
X-28836Y51025D01*
X-28836Y51025D01*
X-28858Y51019D01*
X-28859Y51018D01*
X-28864Y51000D01*
X-28866Y50995D01*
Y50995D01*
X-28866Y50995D01*
X-28885Y50961D01*
X-28903Y50939D01*
X-28909Y50932D01*
X-28909Y50932D01*
X-28909Y50932D01*
X-28940Y50907D01*
X-28974Y50889D01*
X-28997Y50883D01*
X-28999Y50877D01*
X-29004Y50860D01*
X-29004Y50860D01*
X-29004Y50860D01*
X-29011Y50846D01*
X-29023Y50826D01*
X-29023Y50826D01*
X-29023Y50826D01*
X-29035Y50811D01*
X-29047Y50796D01*
X-29047Y50796D01*
X-29048Y50796D01*
X-29073Y50775D01*
X-29078Y50772D01*
X-29078D01*
X-29078Y50772D01*
X-29109Y50755D01*
X-29112Y50754D01*
X-29112D01*
X-29112Y50754D01*
X-29135Y50747D01*
X-29149Y50743D01*
X-29149Y50743D01*
X-29149Y50743D01*
X-29169Y50741D01*
X-29188Y50739D01*
X-29188Y50739D01*
X-29188Y50739D01*
X-29245Y50740D01*
X-29254Y50729D01*
X-29254Y50729D01*
X-29254Y50729D01*
X-29277Y50710D01*
X-29284Y50705D01*
X-29284D01*
X-29284Y50705D01*
X-29293Y50700D01*
X-29298Y50691D01*
X-29323Y50661D01*
X-29323Y50661D01*
X-29323Y50661D01*
X-29334Y50652D01*
X-29353Y50637D01*
X-29362Y50632D01*
X-29367Y50623D01*
X-29392Y50593D01*
X-29392Y50593D01*
X-29392Y50593D01*
X-29403Y50584D01*
X-29422Y50569D01*
X-29431Y50564D01*
X-29436Y50555D01*
X-29436Y50555D01*
X-29436Y50555D01*
X-29451Y50537D01*
X-29461Y50526D01*
X-29461Y50526D01*
X-29461Y50526D01*
X-29475Y50514D01*
X-29491Y50501D01*
X-29491Y50501D01*
X-29491Y50501D01*
X-29506Y50494D01*
X-29525Y50483D01*
X-29525Y50483D01*
X-29525D01*
X-29530Y50482D01*
X-29563Y50472D01*
X-29601Y50469D01*
X-29601D01*
D01*
D01*
X-29658Y50469D01*
X-29667Y50459D01*
X-29667Y50459D01*
X-29667Y50459D01*
X-29680Y50449D01*
X-29697Y50435D01*
X-29697Y50435D01*
X-29697Y50435D01*
X-29706Y50430D01*
X-29711Y50421D01*
X-29729Y50399D01*
X-29736Y50391D01*
X-29736Y50391D01*
X-29736Y50391D01*
X-29766Y50367D01*
X-29798Y50350D01*
X-29800Y50349D01*
D01*
X-29800Y50349D01*
X-29824Y50342D01*
X-29838Y50338D01*
X-29838D01*
X-29838Y50338D01*
X-29861Y50336D01*
X-29876Y50334D01*
X-29876D01*
X-29876D01*
X-29933Y50335D01*
X-29942Y50324D01*
X-29942Y50324D01*
X-29942Y50324D01*
X-29951Y50317D01*
X-29972Y50300D01*
X-29981Y50295D01*
X-29986Y50286D01*
X-29986Y50286D01*
Y50286D01*
X-29989Y50283D01*
X-30011Y50257D01*
X-30041Y50232D01*
D01*
X-30041Y50232D01*
X-30072Y50216D01*
X-30075Y50214D01*
X-30075D01*
X-30075Y50214D01*
X-30095Y50208D01*
X-30113Y50203D01*
X-30113D01*
X-30113Y50203D01*
X-30127Y50202D01*
X-30151Y50200D01*
X-30151D01*
X-30151D01*
X-30345Y50201D01*
X-30354Y50191D01*
X-30354Y50191D01*
X-30354Y50191D01*
X-30370Y50178D01*
X-30384Y50167D01*
X-30384Y50167D01*
X-30384Y50167D01*
X-30402Y50157D01*
X-30419Y50149D01*
X-30419Y50149D01*
X-30419Y50149D01*
X-30438Y50143D01*
X-30456Y50138D01*
X-30456D01*
X-30456Y50138D01*
X-30476Y50136D01*
X-30494Y50134D01*
X-30494D01*
X-30494D01*
X-30494D01*
X-30551Y50135D01*
X-30560Y50124D01*
X-30560Y50124D01*
X-30560Y50124D01*
X-30569Y50117D01*
X-30590Y50100D01*
X-30625Y50082D01*
X-30625Y50082D01*
X-30625Y50082D01*
X-30633Y50079D01*
X-30662Y50071D01*
X-30662D01*
X-30662Y50071D01*
X-30680Y50069D01*
X-30700Y50068D01*
X-30700D01*
X-30700D01*
X-30769Y50068D01*
X-30791Y50071D01*
X-30803Y50072D01*
X-30824Y50070D01*
X-30837Y50069D01*
X-30837D01*
D01*
D01*
X-31305Y50073D01*
X-31314Y50062D01*
X-31314Y50062D01*
X-31314Y50062D01*
X-31323Y50055D01*
X-31344Y50038D01*
X-31344Y50038D01*
X-31344Y50038D01*
X-31360Y50029D01*
X-31378Y50020D01*
X-31378Y50020D01*
X-31378Y50020D01*
X-31402Y50013D01*
X-31416Y50009D01*
X-31416D01*
X-31416Y50009D01*
X-31438Y50007D01*
X-31454Y50006D01*
X-31454Y50006D01*
X-31454Y50006D01*
X-31523Y50006D01*
X-31547Y50009D01*
X-31557Y50010D01*
X-31577Y50008D01*
X-31591Y50007D01*
X-31591D01*
X-31591D01*
X-31591D01*
X-31660Y50007D01*
X-31694Y50011D01*
X-31728Y50008D01*
X-31797Y50009D01*
X-31797D01*
X-31797D01*
X-31808Y50010D01*
X-31835Y50013D01*
X-31872Y50024D01*
X-31899Y50039D01*
X-31906Y50043D01*
X-31926Y50060D01*
X-31936Y50068D01*
X-31936Y50068D01*
X-31936Y50068D01*
X-31945Y50078D01*
X-32686Y50085D01*
X-32686D01*
X-32686D01*
X-32699Y50086D01*
X-32720Y50089D01*
X-32734Y50087D01*
X-32755Y50086D01*
X-32755D01*
X-32755D01*
X-32755D01*
X-32823Y50086D01*
X-32823D01*
X-32823D01*
X-32835Y50087D01*
X-32862Y50090D01*
X-32899Y50102D01*
X-32926Y50117D01*
X-32933Y50120D01*
X-32953Y50137D01*
X-32963Y50145D01*
X-32963Y50145D01*
X-32963Y50145D01*
X-32971Y50156D01*
X-33028Y50156D01*
X-33028D01*
X-33028D01*
X-33045Y50158D01*
X-33062Y50160D01*
X-33079Y50159D01*
X-33097Y50157D01*
X-33097D01*
D01*
D01*
X-33165Y50157D01*
X-33165D01*
X-33165D01*
X-33177Y50159D01*
X-33204Y50162D01*
X-33241Y50173D01*
D01*
X-33241Y50173D01*
X-33262Y50185D01*
X-33275Y50192D01*
X-33275Y50192D01*
X-33275Y50192D01*
X-33293Y50207D01*
X-33304Y50217D01*
X-33304Y50217D01*
X-33304Y50217D01*
X-33313Y50227D01*
X-33370Y50228D01*
X-33398Y50231D01*
X-33404Y50231D01*
X-33438Y50228D01*
X-33438D01*
X-33438D01*
X-33507Y50229D01*
X-33525Y50231D01*
X-33545Y50233D01*
X-33545Y50233D01*
X-33546D01*
X-33569Y50240D01*
X-33582Y50245D01*
X-33582Y50245D01*
X-33582Y50245D01*
X-33612Y50261D01*
X-33616Y50263D01*
X-33616Y50263D01*
X-33617Y50263D01*
X-33636Y50279D01*
X-33646Y50288D01*
X-33646Y50288D01*
X-33646Y50288D01*
X-33655Y50299D01*
X-33712Y50299D01*
X-33712D01*
X-33712D01*
X-33734Y50302D01*
X-33750Y50303D01*
X-33750Y50303D01*
X-33750D01*
X-33761Y50307D01*
X-33787Y50315D01*
X-33821Y50334D01*
X-33821Y50334D01*
X-33821Y50334D01*
X-33832Y50342D01*
X-33851Y50358D01*
X-33851Y50358D01*
X-33851Y50358D01*
X-33858Y50367D01*
X-33860Y50369D01*
X-33917Y50370D01*
X-33955Y50374D01*
X-33990Y50384D01*
X-33992Y50385D01*
D01*
X-33992Y50385D01*
X-34026Y50404D01*
X-34046Y50420D01*
X-34056Y50429D01*
X-34056Y50429D01*
X-34056Y50429D01*
X-34064Y50439D01*
X-34121Y50440D01*
X-34160Y50444D01*
X-34183Y50451D01*
X-34197Y50455D01*
X-34197Y50455D01*
D01*
X-34231Y50474D01*
X-34258Y50497D01*
X-34261Y50499D01*
Y50499D01*
X-34261D01*
X-34267Y50506D01*
X-34269Y50510D01*
X-34326Y50510D01*
X-34326D01*
X-34326D01*
X-34339Y50511D01*
X-34365Y50514D01*
X-34402Y50526D01*
D01*
X-34402Y50526D01*
X-34423Y50538D01*
X-34436Y50544D01*
X-34436Y50544D01*
X-34436Y50544D01*
X-34454Y50559D01*
X-34466Y50569D01*
X-34466Y50569D01*
X-34466Y50569D01*
X-34474Y50580D01*
X-34531Y50580D01*
X-34570Y50585D01*
X-34607Y50596D01*
X-34641Y50615D01*
X-34666Y50635D01*
X-34670Y50639D01*
Y50639D01*
X-34670D01*
X-34679Y50650D01*
X-34736Y50651D01*
X-34774Y50655D01*
X-34798Y50662D01*
X-34811Y50666D01*
X-34811Y50666D01*
D01*
X-34846Y50685D01*
X-34872Y50708D01*
X-34875Y50710D01*
Y50710D01*
X-34875D01*
X-34881Y50717D01*
X-34900Y50740D01*
X-34904Y50749D01*
X-34913Y50754D01*
X-34913Y50754D01*
X-34913Y50754D01*
X-34927Y50765D01*
X-34943Y50779D01*
X-34943Y50779D01*
X-34943Y50779D01*
X-34952Y50789D01*
X-35009Y50790D01*
X-35009D01*
X-35009D01*
X-35025Y50792D01*
X-35047Y50794D01*
X-35047Y50794D01*
X-35047D01*
X-35077Y50804D01*
X-35084Y50806D01*
D01*
X-35084Y50806D01*
X-35095Y50812D01*
X-35118Y50824D01*
X-35148Y50849D01*
X-35148Y50849D01*
X-35148Y50849D01*
X-35162Y50867D01*
X-35172Y50879D01*
X-35172Y50879D01*
X-35172Y50879D01*
X-35177Y50888D01*
X-35186Y50893D01*
X-35186Y50893D01*
X-35186Y50893D01*
X-35204Y50908D01*
X-35216Y50918D01*
X-35216Y50918D01*
X-35216Y50918D01*
X-35224Y50929D01*
X-35281Y50929D01*
X-35294Y50931D01*
X-35320Y50933D01*
X-35357Y50945D01*
D01*
X-35357Y50945D01*
X-35391Y50964D01*
X-35415Y50984D01*
X-35421Y50989D01*
X-35421Y50989D01*
X-35421Y50989D01*
X-35432Y51003D01*
X-35445Y51019D01*
X-35445Y51019D01*
X-35445Y51019D01*
X-35450Y51028D01*
X-35459Y51033D01*
X-35459Y51033D01*
X-35459D01*
X-35465Y51038D01*
X-35489Y51057D01*
X-35489Y51057D01*
X-35489Y51058D01*
X-35497Y51068D01*
X-35554Y51069D01*
X-35566Y51070D01*
X-35593Y51073D01*
X-35630Y51084D01*
D01*
X-35630Y51084D01*
X-35664Y51103D01*
X-35688Y51123D01*
X-35693Y51128D01*
X-35693Y51128D01*
X-35693Y51128D01*
X-35705Y51142D01*
X-35718Y51158D01*
X-35718Y51158D01*
X-35718Y51158D01*
X-35723Y51167D01*
X-35732Y51172D01*
X-35761Y51197D01*
X-35761Y51197D01*
X-35761Y51197D01*
X-35770Y51208D01*
X-35827Y51208D01*
X-35860Y51212D01*
X-35865Y51212D01*
X-35865D01*
X-35865Y51212D01*
X-35893Y51221D01*
X-35902Y51224D01*
X-35902Y51224D01*
X-35902Y51224D01*
X-35925Y51236D01*
X-35936Y51242D01*
X-35936Y51242D01*
X-35936Y51242D01*
X-35953Y51256D01*
X-35966Y51267D01*
X-35966Y51267D01*
X-35966Y51267D01*
X-35991Y51297D01*
X-35995Y51306D01*
X-35998Y51308D01*
X-36004Y51311D01*
X-36004Y51311D01*
X-36004Y51311D01*
X-36023Y51327D01*
X-36034Y51336D01*
X-36034Y51336D01*
X-36034Y51336D01*
X-36057Y51365D01*
X-36058Y51366D01*
D01*
X-36058Y51366D01*
X-36063Y51376D01*
X-36072Y51380D01*
X-36072Y51380D01*
X-36072Y51380D01*
X-36082Y51389D01*
X-36102Y51405D01*
X-36102Y51405D01*
X-36102Y51405D01*
X-36121Y51429D01*
X-36126Y51436D01*
Y51436D01*
X-36126Y51436D01*
X-36131Y51445D01*
X-36140Y51450D01*
X-36170Y51474D01*
X-36179Y51486D01*
X-36205Y51489D01*
X-36232Y51497D01*
X-36242Y51501D01*
X-36242Y51501D01*
D01*
X-36246Y51502D01*
X-36276Y51519D01*
X-36306Y51544D01*
X-36306Y51544D01*
X-36306Y51544D01*
X-36316Y51556D01*
X-36316Y51556D01*
X-36342Y51559D01*
X-36379Y51570D01*
X-36397Y51581D01*
X-36413Y51589D01*
X-36443Y51614D01*
Y51614D01*
X-36443D01*
X-36467Y51644D01*
X-36472Y51653D01*
X-36481Y51658D01*
X-36481Y51658D01*
X-36481Y51658D01*
X-36494Y51669D01*
X-36510Y51683D01*
X-36510Y51683D01*
X-36510Y51683D01*
X-36526Y51702D01*
X-36535Y51713D01*
X-36535Y51713D01*
X-36535Y51713D01*
X-36540Y51722D01*
X-36549Y51727D01*
X-36549Y51727D01*
X-36549Y51727D01*
X-36561Y51738D01*
X-36578Y51752D01*
X-36578Y51752D01*
X-36578Y51752D01*
X-36588Y51764D01*
X-36603Y51782D01*
X-36603Y51782D01*
X-36603Y51782D01*
X-36607Y51791D01*
X-36616Y51796D01*
X-36646Y51821D01*
X-36670Y51851D01*
X-36675Y51860D01*
X-36684Y51865D01*
X-36684Y51865D01*
X-36684Y51865D01*
X-36704Y51881D01*
X-36714Y51890D01*
X-36714Y51890D01*
X-36714Y51890D01*
X-36723Y51901D01*
X-36779Y51901D01*
X-36779D01*
X-36780D01*
X-36797Y51903D01*
X-36818Y51905D01*
X-36818Y51905D01*
X-36818D01*
X-36827Y51908D01*
X-36855Y51917D01*
X-36855Y51917D01*
X-36855D01*
X-36863Y51921D01*
X-36889Y51935D01*
X-36889Y51935D01*
X-36889Y51935D01*
X-36903Y51947D01*
X-36919Y51960D01*
X-36919Y51960D01*
X-36919Y51960D01*
X-36930Y51974D01*
X-36943Y51990D01*
X-36943Y51991D01*
X-36943Y51991D01*
X-36950Y52004D01*
X-36961Y52025D01*
X-36961Y52025D01*
X-36961Y52025D01*
X-36964Y52035D01*
X-36968Y52048D01*
X-36991Y52055D01*
X-37025Y52074D01*
X-37047Y52092D01*
X-37055Y52099D01*
X-37055Y52099D01*
X-37055Y52099D01*
X-37069Y52116D01*
X-37079Y52129D01*
X-37079Y52129D01*
X-37079Y52129D01*
X-37084Y52138D01*
X-37093Y52143D01*
X-37109Y52156D01*
X-37122Y52168D01*
X-37147Y52198D01*
X-37147Y52198D01*
X-37147Y52198D01*
X-37152Y52207D01*
X-37161Y52212D01*
X-37161Y52212D01*
X-37161Y52212D01*
X-37180Y52228D01*
X-37190Y52237D01*
X-37190Y52237D01*
X-37190Y52237D01*
X-37201Y52250D01*
X-37215Y52267D01*
X-37215Y52267D01*
X-37215Y52267D01*
X-37220Y52276D01*
X-37229Y52281D01*
X-37258Y52306D01*
X-37283Y52336D01*
X-37287Y52345D01*
X-37296Y52350D01*
X-37326Y52375D01*
X-37326Y52375D01*
X-37326Y52375D01*
X-37331Y52381D01*
X-37350Y52405D01*
X-37355Y52414D01*
X-37364Y52419D01*
X-37364Y52419D01*
X-37364Y52419D01*
X-37382Y52434D01*
X-37394Y52444D01*
X-37394Y52444D01*
X-37394Y52444D01*
X-37406Y52458D01*
X-37418Y52474D01*
X-37418Y52474D01*
X-37418Y52474D01*
X-37423Y52483D01*
X-37432Y52488D01*
X-37432Y52488D01*
X-37432Y52488D01*
X-37440Y52495D01*
X-37462Y52513D01*
X-37462Y52513D01*
X-37462Y52513D01*
X-37472Y52526D01*
X-37486Y52543D01*
X-37486Y52543D01*
X-37486Y52543D01*
X-37491Y52552D01*
X-37494Y52554D01*
X-37500Y52557D01*
X-37500Y52557D01*
X-37500Y52557D01*
X-37519Y52573D01*
X-37530Y52582D01*
X-37530Y52582D01*
X-37530Y52582D01*
X-37553Y52611D01*
X-37554Y52612D01*
D01*
X-37554Y52612D01*
X-37559Y52621D01*
X-37568Y52626D01*
X-37568Y52626D01*
X-37568Y52626D01*
X-37587Y52642D01*
X-37598Y52651D01*
X-37598Y52651D01*
X-37598Y52651D01*
X-37621Y52680D01*
X-37622Y52681D01*
D01*
X-37622Y52681D01*
X-37627Y52690D01*
X-37636Y52695D01*
X-37649Y52707D01*
X-37666Y52720D01*
X-37690Y52750D01*
X-37695Y52759D01*
X-37704Y52764D01*
X-37734Y52789D01*
X-37734Y52789D01*
X-37734Y52789D01*
X-37739Y52796D01*
X-37758Y52820D01*
X-37763Y52829D01*
X-37772Y52833D01*
X-37772Y52833D01*
X-37772Y52833D01*
X-37782Y52842D01*
X-37801Y52858D01*
X-37801Y52858D01*
X-37801Y52858D01*
X-37820Y52882D01*
X-37826Y52889D01*
Y52889D01*
X-37826Y52889D01*
X-37830Y52898D01*
X-37839Y52903D01*
X-37839Y52903D01*
X-37840Y52903D01*
X-37850Y52912D01*
X-37869Y52927D01*
X-37869Y52928D01*
X-37869Y52928D01*
X-37876Y52936D01*
X-37894Y52958D01*
X-37894Y52958D01*
X-37894Y52958D01*
X-37898Y52967D01*
X-37907Y52972D01*
X-37907Y52972D01*
X-37907Y52972D01*
X-37924Y52985D01*
X-37937Y52996D01*
X-37937Y52996D01*
X-37937Y52997D01*
X-37947Y53009D01*
X-37961Y53027D01*
X-37961Y53027D01*
X-37962Y53027D01*
X-37966Y53036D01*
X-37975Y53041D01*
X-38005Y53066D01*
X-38029Y53096D01*
X-38047Y53130D01*
X-38058Y53167D01*
X-38061Y53193D01*
X-38072Y53203D01*
X-38072Y53203D01*
X-38072Y53203D01*
X-38080Y53213D01*
X-38097Y53233D01*
X-38115Y53268D01*
D01*
X-38115Y53268D01*
X-38124Y53298D01*
X-38126Y53305D01*
Y53305D01*
X-38126Y53305D01*
X-38128Y53330D01*
X-38128Y53331D01*
X-38130Y53333D01*
X-38140Y53341D01*
X-38140Y53341D01*
X-38140Y53341D01*
X-38164Y53371D01*
X-38169Y53380D01*
X-38170Y53381D01*
X-38178Y53385D01*
X-38178Y53385D01*
X-38178Y53385D01*
X-38197Y53401D01*
X-38207Y53410D01*
X-38207Y53410D01*
X-38208Y53410D01*
X-38218Y53423D01*
X-38232Y53440D01*
X-38232Y53440D01*
X-38232Y53440D01*
X-38236Y53449D01*
X-38245Y53454D01*
X-38275Y53479D01*
X-38275Y53479D01*
X-38275Y53479D01*
X-38300Y53509D01*
X-38304Y53518D01*
X-38313Y53523D01*
X-38313Y53523D01*
X-38313Y53523D01*
X-38329Y53536D01*
X-38343Y53548D01*
X-38343Y53548D01*
X-38343Y53548D01*
X-38364Y53574D01*
X-38368Y53578D01*
Y53578D01*
X-38368Y53578D01*
X-38372Y53587D01*
X-38381Y53592D01*
X-38381Y53592D01*
X-38381Y53592D01*
X-38400Y53608D01*
X-38411Y53617D01*
X-38411Y53617D01*
X-38411Y53617D01*
X-38434Y53646D01*
X-38435Y53647D01*
D01*
X-38435Y53647D01*
X-38440Y53656D01*
X-38449Y53661D01*
X-38449Y53661D01*
X-38449Y53661D01*
X-38467Y53676D01*
X-38479Y53686D01*
X-38479Y53686D01*
X-38479Y53686D01*
X-38491Y53701D01*
X-38503Y53716D01*
X-38503Y53716D01*
X-38503Y53716D01*
X-38511Y53731D01*
X-38521Y53751D01*
X-38521Y53751D01*
Y53751D01*
X-38523Y53755D01*
X-38532Y53788D01*
X-38536Y53826D01*
Y53826D01*
Y53826D01*
X-38535Y53883D01*
X-38546Y53892D01*
X-38546Y53892D01*
X-38546Y53892D01*
X-38556Y53905D01*
X-38570Y53922D01*
X-38570Y53922D01*
X-38570Y53922D01*
X-38575Y53931D01*
X-38584Y53936D01*
X-38614Y53961D01*
X-38638Y53991D01*
X-38643Y54001D01*
X-38652Y54005D01*
X-38652Y54005D01*
X-38652Y54005D01*
X-38671Y54021D01*
X-38681Y54030D01*
X-38681Y54030D01*
X-38681Y54030D01*
X-38692Y54043D01*
X-38706Y54060D01*
X-38706Y54061D01*
X-38706Y54061D01*
X-38724Y54095D01*
X-38732Y54123D01*
X-38735Y54132D01*
Y54132D01*
X-38735Y54132D01*
X-38737Y54153D01*
X-38737Y54158D01*
X-38749Y54168D01*
X-38749Y54168D01*
X-38749Y54168D01*
X-38764Y54187D01*
X-38773Y54198D01*
X-38773Y54198D01*
X-38773Y54198D01*
X-38789Y54228D01*
X-38791Y54232D01*
Y54232D01*
X-38791Y54232D01*
X-38799Y54259D01*
X-38802Y54269D01*
Y54270D01*
X-38802Y54270D01*
X-38804Y54293D01*
X-38804Y54296D01*
X-38805Y54296D01*
X-38816Y54305D01*
X-38816Y54305D01*
X-38816Y54305D01*
X-38839Y54334D01*
X-38840Y54335D01*
D01*
X-38840Y54336D01*
X-38845Y54345D01*
X-38854Y54350D01*
X-38874Y54366D01*
X-38884Y54374D01*
X-38884Y54374D01*
X-38884Y54374D01*
X-38908Y54405D01*
X-38913Y54414D01*
X-38922Y54419D01*
X-38952Y54444D01*
X-38976Y54474D01*
X-38994Y54508D01*
X-39005Y54545D01*
X-39009Y54584D01*
X-39008Y54641D01*
X-39018Y54650D01*
X-39018Y54650D01*
X-39018Y54650D01*
X-39028Y54662D01*
X-39043Y54680D01*
X-39043Y54680D01*
X-39043Y54680D01*
X-39048Y54689D01*
X-39057Y54694D01*
X-39057Y54694D01*
X-39057Y54694D01*
X-39067Y54702D01*
X-39086Y54719D01*
X-39086Y54719D01*
X-39086Y54719D01*
X-39094Y54728D01*
X-39111Y54749D01*
X-39129Y54783D01*
X-39129Y54783D01*
X-39129Y54783D01*
X-39131Y54792D01*
X-39140Y54820D01*
Y54821D01*
X-39140Y54821D01*
X-39141Y54838D01*
X-39143Y54859D01*
Y54859D01*
Y54859D01*
X-39143Y54916D01*
X-39143Y54917D01*
X-39153Y54925D01*
X-39153Y54925D01*
X-39153Y54925D01*
X-39177Y54955D01*
X-39182Y54964D01*
X-39185Y54966D01*
X-39191Y54969D01*
X-39191Y54969D01*
X-39191Y54969D01*
X-39210Y54985D01*
X-39221Y54994D01*
X-39221Y54994D01*
X-39221Y54994D01*
X-39244Y55023D01*
X-39245Y55024D01*
D01*
X-39245Y55024D01*
X-39261Y55055D01*
X-39263Y55058D01*
Y55058D01*
X-39263Y55058D01*
X-39270Y55081D01*
X-39274Y55095D01*
Y55095D01*
X-39274Y55095D01*
X-39276Y55112D01*
X-39278Y55134D01*
Y55134D01*
Y55134D01*
X-39277Y55191D01*
X-39287Y55200D01*
X-39287Y55200D01*
X-39287Y55200D01*
X-39298Y55213D01*
X-39312Y55230D01*
X-39312Y55230D01*
X-39312Y55230D01*
X-39317Y55239D01*
X-39326Y55244D01*
X-39326Y55244D01*
X-39326Y55244D01*
X-39339Y55255D01*
X-39355Y55269D01*
X-39355Y55269D01*
X-39355Y55269D01*
X-39371Y55288D01*
X-39380Y55299D01*
X-39380Y55299D01*
X-39380Y55299D01*
X-39395Y55329D01*
X-39398Y55333D01*
Y55333D01*
X-39398Y55334D01*
X-39407Y55364D01*
X-39409Y55371D01*
Y55371D01*
X-39409Y55371D01*
X-39411Y55395D01*
X-39412Y55409D01*
Y55409D01*
Y55409D01*
Y55409D01*
X-39412Y55466D01*
X-39422Y55475D01*
X-39422Y55475D01*
X-39422Y55475D01*
X-39427Y55481D01*
X-39446Y55505D01*
X-39464Y55539D01*
X-39464Y55539D01*
Y55539D01*
X-39475Y55577D01*
X-39478Y55605D01*
X-39479Y55615D01*
Y55615D01*
Y55615D01*
X-39478Y55672D01*
X-39489Y55681D01*
X-39513Y55711D01*
X-39531Y55746D01*
X-39531Y55746D01*
X-39531Y55746D01*
X-39534Y55754D01*
X-39542Y55783D01*
Y55783D01*
X-39542Y55783D01*
X-39544Y55801D01*
X-39546Y55821D01*
Y55821D01*
Y55821D01*
X-39545Y55878D01*
X-39555Y55887D01*
X-39580Y55917D01*
X-39585Y55926D01*
X-39594Y55931D01*
X-39594Y55931D01*
X-39594Y55931D01*
X-39604Y55940D01*
X-39623Y55956D01*
X-39623Y55956D01*
X-39623Y55956D01*
X-39634Y55969D01*
X-39648Y55986D01*
X-39648Y55986D01*
X-39648Y55986D01*
X-39661Y56011D01*
X-39666Y56020D01*
Y56020D01*
X-39666Y56021D01*
X-39677Y56058D01*
X-39679Y56086D01*
X-39680Y56096D01*
Y56096D01*
Y56096D01*
X-39680Y56165D01*
X-39676Y56199D01*
X-39677Y56216D01*
X-39679Y56233D01*
X-39679Y56233D01*
X-39679Y56233D01*
X-39678Y56290D01*
X-39689Y56299D01*
X-39713Y56329D01*
X-39718Y56338D01*
X-39727Y56343D01*
X-39727Y56343D01*
X-39727Y56343D01*
X-39745Y56358D01*
X-39757Y56368D01*
X-39757Y56368D01*
X-39757Y56368D01*
X-39768Y56383D01*
X-39781Y56398D01*
X-39781Y56398D01*
X-39781Y56398D01*
X-39789Y56413D01*
X-39799Y56433D01*
X-39799Y56433D01*
Y56433D01*
X-39800Y56437D01*
X-39810Y56470D01*
X-39814Y56508D01*
Y56508D01*
Y56508D01*
X-39813Y56577D01*
Y56577D01*
Y56577D01*
X-39809Y56611D01*
X-39811Y56628D01*
X-39812Y56645D01*
Y56646D01*
D01*
D01*
X-39812Y56702D01*
X-39812Y56703D01*
X-39822Y56711D01*
X-39822Y56711D01*
X-39822Y56711D01*
X-39834Y56726D01*
X-39847Y56741D01*
X-39847Y56741D01*
X-39847Y56741D01*
X-39854Y56756D01*
X-39865Y56776D01*
X-39865Y56776D01*
Y56776D01*
X-39866Y56780D01*
X-39876Y56813D01*
X-39879Y56852D01*
Y56852D01*
Y56852D01*
X-39878Y56908D01*
X-39889Y56917D01*
X-39889Y56917D01*
X-39889Y56917D01*
X-39899Y56930D01*
X-39913Y56947D01*
X-39913Y56947D01*
X-39913Y56947D01*
X-39920Y56960D01*
X-39931Y56982D01*
X-39931Y56982D01*
X-39931Y56982D01*
X-39937Y57001D01*
X-39942Y57019D01*
Y57019D01*
X-39942Y57019D01*
X-39944Y57040D01*
X-39946Y57057D01*
Y57058D01*
D01*
D01*
X-39945Y57126D01*
Y57126D01*
Y57126D01*
X-39942Y57151D01*
X-39941Y57160D01*
X-39943Y57182D01*
X-39944Y57194D01*
Y57195D01*
Y57195D01*
Y57195D01*
X-39944Y57251D01*
X-39954Y57260D01*
X-39954Y57260D01*
X-39954Y57260D01*
X-39979Y57290D01*
X-39997Y57325D01*
X-40006Y57357D01*
X-40008Y57362D01*
Y57362D01*
X-40008Y57362D01*
X-40010Y57387D01*
X-40011Y57401D01*
Y57401D01*
Y57401D01*
X-40011Y57458D01*
X-40021Y57466D01*
X-40021Y57466D01*
X-40021Y57466D01*
X-40037Y57486D01*
X-40045Y57496D01*
X-40045Y57496D01*
X-40045Y57496D01*
X-40061Y57526D01*
X-40063Y57531D01*
Y57531D01*
X-40063Y57531D01*
X-40071Y57557D01*
X-40074Y57568D01*
Y57568D01*
X-40074Y57568D01*
X-40076Y57591D01*
X-40078Y57607D01*
Y57607D01*
Y57607D01*
X-40077Y57675D01*
X-40073Y57709D01*
X-40075Y57730D01*
X-40077Y57744D01*
Y57744D01*
Y57744D01*
Y57744D01*
X-40076Y57812D01*
X-40072Y57846D01*
X-40074Y57860D01*
X-40075Y57881D01*
Y57881D01*
Y57881D01*
X-40075Y57937D01*
X-40085Y57946D01*
X-40085Y57946D01*
X-40086Y57946D01*
X-40090Y57952D01*
X-40110Y57976D01*
X-40110Y57976D01*
X-40110Y57976D01*
X-40117Y57990D01*
X-40128Y58011D01*
X-40128Y58011D01*
X-40128Y58011D01*
X-40131Y58021D01*
X-40139Y58048D01*
X-40139Y58048D01*
Y58048D01*
X-40139Y58055D01*
X-40142Y58087D01*
Y58087D01*
Y58087D01*
X-40141Y58155D01*
X-40139Y58174D01*
X-40138Y58189D01*
X-40141Y58223D01*
Y58224D01*
D01*
D01*
X-40140Y58292D01*
D01*
X-40140Y58360D01*
D01*
Y58360D01*
X-40139Y58417D01*
X-40150Y58426D01*
X-40174Y58456D01*
X-40192Y58491D01*
X-40203Y58528D01*
X-40206Y58566D01*
D01*
Y58566D01*
X-40206Y58635D01*
X-40202Y58669D01*
X-40205Y58703D01*
Y58703D01*
D01*
D01*
X-40205Y58772D01*
X-40203Y58789D01*
X-40201Y58806D01*
X-40202Y58821D01*
X-40204Y58840D01*
Y58841D01*
Y58841D01*
Y58841D01*
X-40203Y58909D01*
Y58909D01*
Y58909D01*
X-40201Y58934D01*
X-40200Y58943D01*
X-40203Y58977D01*
D01*
Y58977D01*
X-40202Y59046D01*
X-40200Y59070D01*
X-40199Y59080D01*
X-40202Y59114D01*
D01*
Y59114D01*
X-40201Y59183D01*
Y59183D01*
Y59183D01*
X-40200Y59251D01*
Y59251D01*
X-40200Y59320D01*
Y59320D01*
Y59320D01*
X-40199Y59388D01*
X-40199Y59457D01*
Y59457D01*
X-40198Y59525D01*
X-40198Y59525D01*
X-40198Y59525D01*
X-40197Y59594D01*
X-40195Y59618D01*
X-40193Y59632D01*
X-40193Y59632D01*
X-40193Y59632D01*
X-40185Y59660D01*
X-40182Y59669D01*
X-40182Y59669D01*
X-40182Y59669D01*
X-40173Y59686D01*
X-40163Y59703D01*
X-40163Y59703D01*
X-40163Y59703D01*
X-40156Y59711D01*
X-40138Y59733D01*
X-40138Y59733D01*
X-40138Y59733D01*
X-40122Y59746D01*
X-40108Y59757D01*
X-40108Y59757D01*
X-40108Y59757D01*
X-40079Y59772D01*
X-40074Y59775D01*
X-40074D01*
X-40074Y59775D01*
X-40040Y59785D01*
X-40037Y59786D01*
X-40037D01*
X-40036Y59786D01*
X-40011Y59789D01*
X-39998Y59790D01*
X-39998D01*
X-39998D01*
X-39998D01*
D02*
G37*
%LPC*%
G36*
X140030Y100988D02*
X128836Y96387D01*
X137006Y88237D01*
X132833Y96582D01*
X132832Y96585D01*
X132830Y96588D01*
X132825Y96603D01*
X132819Y96618D01*
X132819Y96621D01*
X132818Y96624D01*
X132816Y96640D01*
X132813Y96656D01*
X132813Y96660D01*
X132812Y96663D01*
X132813Y96679D01*
X132814Y96695D01*
X132815Y96698D01*
X132815Y96701D01*
X132819Y96717D01*
X132822Y96733D01*
X132824Y96736D01*
X132825Y96739D01*
X132881Y96891D01*
X132882Y96894D01*
X132883Y96897D01*
X132891Y96911D01*
X132898Y96925D01*
X132899Y96928D01*
X132901Y96931D01*
X132911Y96944D01*
X132921Y96956D01*
X132923Y96959D01*
X132925Y96961D01*
X132938Y96971D01*
X132950Y96982D01*
X132953Y96984D01*
X132955Y96986D01*
X132969Y96993D01*
X132984Y97002D01*
X132987Y97003D01*
X132989Y97004D01*
X134181Y97506D01*
X134193Y97510D01*
X134206Y97514D01*
X134212Y97516D01*
X134218Y97517D01*
X134231Y97519D01*
X134244Y97521D01*
X134250Y97521D01*
X134256Y97522D01*
X134270Y97520D01*
X134283Y97520D01*
X134289Y97518D01*
X134295Y97518D01*
X134308Y97514D01*
X134320Y97511D01*
X134326Y97509D01*
X134332Y97507D01*
X134344Y97501D01*
X134356Y97495D01*
X134361Y97492D01*
X134367Y97489D01*
X134377Y97481D01*
X134387Y97473D01*
X134392Y97468D01*
X134397Y97464D01*
X134405Y97454D01*
X134414Y97445D01*
X134417Y97439D01*
X134422Y97435D01*
X134428Y97423D01*
X134435Y97412D01*
X140030Y86199D01*
X145625Y97412D01*
X145632Y97423D01*
X145639Y97435D01*
X145643Y97439D01*
X145646Y97445D01*
X145655Y97454D01*
X145663Y97464D01*
X145668Y97468D01*
X145673Y97473D01*
X145683Y97480D01*
X145694Y97489D01*
X145699Y97492D01*
X145704Y97495D01*
X145716Y97501D01*
X145728Y97507D01*
X145734Y97509D01*
X145740Y97511D01*
X145753Y97514D01*
X145765Y97518D01*
X145771Y97518D01*
X145777Y97520D01*
X145791Y97520D01*
X145804Y97522D01*
X145810Y97521D01*
X145816Y97521D01*
X145829Y97519D01*
X145842Y97517D01*
X145848Y97516D01*
X145854Y97514D01*
X145867Y97510D01*
X145879Y97506D01*
X147071Y97004D01*
X147073Y97003D01*
X147077Y97002D01*
X147091Y96993D01*
X147105Y96986D01*
X147107Y96984D01*
X147110Y96982D01*
X147122Y96971D01*
X147135Y96961D01*
X147137Y96959D01*
X147139Y96956D01*
X147149Y96944D01*
X147159Y96931D01*
X147161Y96928D01*
X147162Y96925D01*
X147169Y96911D01*
X147177Y96897D01*
X147178Y96894D01*
X147179Y96891D01*
X147236Y96739D01*
X147236Y96736D01*
X147238Y96733D01*
X147241Y96717D01*
X147246Y96702D01*
X147246Y96698D01*
X147246Y96695D01*
X147247Y96679D01*
X147248Y96663D01*
X147247Y96660D01*
X147248Y96657D01*
X147245Y96640D01*
X147243Y96624D01*
X147241Y96622D01*
X147241Y96618D01*
X147235Y96603D01*
X147230Y96588D01*
X147228Y96585D01*
X147227Y96582D01*
X143054Y88216D01*
X151225Y96387D01*
X140030Y100988D01*
D02*
G37*
G36*
X-27077Y61848D02*
X-27073Y61840D01*
X-27064Y61835D01*
X-27064Y61835D01*
X-27064Y61835D01*
X-27055Y61827D01*
X-27034Y61810D01*
X-27034Y61810D01*
X-27034Y61810D01*
X-27031Y61806D01*
X-27009Y61780D01*
X-27005Y61771D01*
X-26996Y61766D01*
X-26996Y61766D01*
X-26996Y61766D01*
X-26982Y61755D01*
X-26966Y61741D01*
X-26966Y61741D01*
X-26966Y61741D01*
X-26957Y61730D01*
X-26900Y61730D01*
X-26862Y61726D01*
X-26835Y61717D01*
X-26825Y61714D01*
X-26825Y61714D01*
D01*
X-26822Y61712D01*
X-26792Y61696D01*
X-26796Y61704D01*
X-26805Y61709D01*
X-26805Y61709D01*
X-26805D01*
X-26811Y61715D01*
X-26835Y61734D01*
X-26835Y61734D01*
X-26835Y61734D01*
X-26845Y61747D01*
X-26859Y61764D01*
X-26859Y61764D01*
X-26859Y61764D01*
X-26864Y61774D01*
X-26873Y61778D01*
X-26873Y61778D01*
X-26873Y61778D01*
X-26889Y61792D01*
X-26903Y61803D01*
X-26903Y61803D01*
X-26903Y61803D01*
X-26911Y61814D01*
X-26968Y61814D01*
X-27007Y61818D01*
X-27030Y61826D01*
X-27044Y61830D01*
X-27044Y61830D01*
D01*
X-27077Y61848D01*
D02*
G37*
G36*
X-26736Y61640D02*
X-26732Y61632D01*
X-26724Y61627D01*
X-26728Y61635D01*
X-26736Y61640D01*
D02*
G37*
G36*
X-26668Y61571D02*
X-26664Y61562D01*
X-26656Y61558D01*
X-26660Y61566D01*
X-26668Y61571D01*
D02*
G37*
G36*
X-26601Y61501D02*
X-26596Y61493D01*
X-26588Y61489D01*
X-26592Y61497D01*
X-26601Y61501D01*
D02*
G37*
G36*
X-26533Y61432D02*
X-26528Y61424D01*
X-26519Y61419D01*
X-26490Y61395D01*
X-26490Y61395D01*
X-26490Y61395D01*
X-26474Y61375D01*
X-26465Y61364D01*
X-26465Y61364D01*
X-26465Y61364D01*
X-26460Y61355D01*
X-26451Y61350D01*
X-26451Y61350D01*
X-26451Y61350D01*
X-26443Y61343D01*
X-26422Y61325D01*
X-26422Y61325D01*
X-26422Y61325D01*
X-26419Y61322D01*
X-26413Y61315D01*
X-26356Y61314D01*
X-26353Y61314D01*
X-26359Y61319D01*
X-26359Y61319D01*
X-26359Y61319D01*
X-26383Y61349D01*
X-26388Y61358D01*
X-26391Y61360D01*
X-26397Y61363D01*
X-26397Y61363D01*
X-26397Y61363D01*
X-26416Y61379D01*
X-26427Y61388D01*
X-26427Y61388D01*
X-26427Y61388D01*
X-26436Y61400D01*
X-26463Y61403D01*
X-26500Y61414D01*
X-26533Y61432D01*
D02*
G37*
G36*
X-26056Y61086D02*
X-26052Y61078D01*
X-26044Y61073D01*
X-26048Y61081D01*
X-26056Y61086D01*
D02*
G37*
%LPD*%
D15*
X25512Y141733D02*
G03*
X30512Y146733I0J5000D01*
G01*
X8152Y186919D02*
G03*
X3937Y182705I0J-4215D01*
G01*
X30512Y157481D02*
G03*
X8143Y186886I-30512J0D01*
G01*
X-30512Y146732D02*
G03*
X-25512Y141732I5000J0D01*
G01*
X-3937Y182704D02*
G03*
X-8152Y186919I-4215J0D01*
G01*
X-8143Y186886D02*
G03*
X-30512Y157480I8143J-29405D01*
G01*
X30512Y128858D02*
G03*
X25512Y133858I-5000J0D01*
G01*
X3937Y92886D02*
G03*
X8152Y88672I4215J0D01*
G01*
X8143Y88705D02*
G03*
X30512Y118110I-8143J29405D01*
G01*
X-30512D02*
G03*
X-8143Y88705I30512J0D01*
G01*
X-8152Y88672D02*
G03*
X-3937Y92886I0J4215D01*
G01*
X-25512Y133858D02*
G03*
X-30512Y128858I0J-5000D01*
G01*
X8937Y133858D02*
G03*
X3937Y128858I0J-5000D01*
G01*
X-3937D02*
G03*
X-8937Y133858I-5000J0D01*
G01*
X3937Y146733D02*
G03*
X8937Y141733I5000J0D01*
G01*
X-8937Y141732D02*
G03*
X-3937Y146732I0J5000D01*
G01*
X194883Y3937D02*
G03*
X187008Y11812I-7875J0D01*
G01*
Y-204725D02*
G03*
X194883Y-196850I0J7875D01*
G01*
X-194883D02*
G03*
X-187008Y-204725I7875J0D01*
G01*
Y11812D02*
G03*
X-194883Y3937I0J-7875D01*
G01*
X-180197Y11811D02*
G03*
X-171661Y15347I0J12071D01*
G01*
X171661D02*
G03*
X180197Y11811I8535J8535D01*
G01*
X-170858Y16150D02*
G03*
X-167323Y24685I-8535J8535D01*
G01*
X162402Y29606D02*
G03*
X165937Y21071I12071J0D01*
G01*
X-163787Y186606D02*
G03*
X-167323Y178071I8535J-8535D01*
G01*
X-132795Y212598D02*
G03*
X-141331Y209063I0J-12071D01*
G01*
X141331D02*
G03*
X132795Y212598I-8535J-8535D01*
G01*
X162402Y182992D02*
G03*
X158866Y191528I-12071J0D01*
G01*
X30512Y146654D02*
X30512Y157481D01*
X3937Y146733D02*
Y182705D01*
X8937Y141733D02*
X25512D01*
X-30512Y157480D02*
X-30512Y146653D01*
X-3937Y146732D02*
Y182704D01*
X-25512Y141732D02*
X-8937D01*
X30512Y118110D02*
Y128937D01*
X3937Y92886D02*
Y128858D01*
X8937Y133858D02*
X25512D01*
X-25512D02*
X-8937D01*
X-3937Y92886D02*
Y128858D01*
X-30512Y118110D02*
Y128937D01*
X194882Y-196850D02*
X194882Y3938D01*
X180197Y11811D02*
X187009D01*
X-187009Y-204724D02*
X187009D01*
X-194882Y-196850D02*
X-194882Y3938D01*
X-187009Y11811D02*
X-180197D01*
X-171661Y15347D02*
X-171260Y15748D01*
X171260D02*
X171661Y15347D01*
X-171260Y15748D02*
X-170858Y16150D01*
X-167323Y24685D02*
Y31575D01*
X165937Y21071D02*
X171260Y15748D01*
X162402Y29606D02*
Y29766D01*
X-167323Y31575D02*
Y178071D01*
X-163787Y186606D02*
X-141331Y209063D01*
X-132795Y212598D02*
X132795D01*
X141331Y209063D02*
X158866Y191528D01*
X162402Y29766D02*
Y182992D01*
D56*
X-185039Y-17717D02*
D03*
Y-161417D02*
D03*
X185039Y-17717D02*
D03*
Y-161417D02*
D03*
D68*
X123189Y193496D02*
D03*
X100433D02*
D03*
D69*
X-39011Y-94686D02*
D03*
X38942D02*
D03*
D70*
X-164995Y3700D02*
D03*
X164730Y-190395D02*
D03*
D71*
X-59055Y78740D02*
D03*
X59055D02*
D03*
D72*
Y196850D02*
D03*
X-59055D02*
D03*
D73*
X-91457Y118110D02*
D03*
X-25000Y26654D02*
D03*
X-15000Y16654D02*
D03*
Y26654D02*
D03*
X-5000Y16654D02*
D03*
X-5000Y26654D02*
D03*
X15000D02*
D03*
X15000Y16654D02*
D03*
X5000Y26654D02*
D03*
Y16654D02*
D03*
X25000Y26654D02*
D03*
Y16654D02*
D03*
D74*
X-101457Y118110D02*
D03*
X-25000Y16654D02*
D03*
D75*
X-160433Y59055D02*
D03*
D76*
X-127953Y198819D02*
D03*
X147638Y179134D02*
D03*
Y37402D02*
D03*
X-147638D02*
D03*
D77*
X76772Y103347D02*
D03*
X98425Y77756D02*
D03*
X121260Y183071D02*
D03*
X102362D02*
D03*
X116732Y194882D02*
D03*
X106299Y179134D02*
D03*
X131772Y184645D02*
D03*
X91850D02*
D03*
X112205Y144685D02*
D03*
X76772Y125000D02*
D03*
X79724Y123031D02*
D03*
X81693Y120079D02*
D03*
X79724Y117126D02*
D03*
X125984Y151575D02*
D03*
X123031Y154528D02*
D03*
X120079Y163386D02*
D03*
X117126Y166339D02*
D03*
X66929Y12795D02*
D03*
X90551D02*
D03*
X152559Y1969D02*
D03*
X179134D02*
D03*
X65945Y19685D02*
D03*
X90551D02*
D03*
X87598Y46260D02*
D03*
X91535Y128937D02*
D03*
X85137Y146653D02*
D03*
X79724Y135827D02*
D03*
X77953Y-48031D02*
D03*
X51968D02*
D03*
X-51968D02*
D03*
X-103937D02*
D03*
X-77953D02*
D03*
X-129921D02*
D03*
X25984D02*
D03*
X0D02*
D03*
X-25984D02*
D03*
X149862Y-14606D02*
D03*
X111772D02*
D03*
X35591D02*
D03*
X73681D02*
D03*
X-35571D02*
D03*
X-111752D02*
D03*
X-73661D02*
D03*
X-149843D02*
D03*
X-155905Y-48031D02*
D03*
X62992Y-61024D02*
D03*
X85284Y-134253D02*
D03*
X64961Y-145669D02*
D03*
X59300Y-72048D02*
D03*
X-66330Y-7521D02*
D03*
X-70621Y-40946D02*
D03*
X7332Y-165355D02*
D03*
X-44637Y-103151D02*
D03*
X-148574Y-134253D02*
D03*
X167323Y-95472D02*
D03*
X148617Y-103096D02*
D03*
X137253Y-40946D02*
D03*
X163237Y-103151D02*
D03*
X59300Y-134253D02*
D03*
X33316Y-72048D02*
D03*
X-104420Y-7521D02*
D03*
X-96606Y-40946D02*
D03*
X-31645Y-165355D02*
D03*
X-70621Y-103151D02*
D03*
X111268Y-40946D02*
D03*
X137253Y-103151D02*
D03*
X12795Y-115157D02*
D03*
X33316Y-134253D02*
D03*
X7331Y-72048D02*
D03*
X-122590Y-40946D02*
D03*
X-142511Y-7521D02*
D03*
X-70621Y-165355D02*
D03*
X-96606Y-103151D02*
D03*
X155905Y-141339D02*
D03*
X77953D02*
D03*
X129921D02*
D03*
X103937D02*
D03*
X25984D02*
D03*
X51968D02*
D03*
X-103937Y-172441D02*
D03*
X-155905D02*
D03*
X-129921D02*
D03*
X155905Y-110236D02*
D03*
X129921D02*
D03*
X-155905Y-141339D02*
D03*
X-25984D02*
D03*
X0D02*
D03*
X-51968D02*
D03*
X-103937D02*
D03*
X-77953D02*
D03*
X-129921D02*
D03*
X103937Y-110236D02*
D03*
X-25984D02*
D03*
X-77953D02*
D03*
X-51968D02*
D03*
X-103937D02*
D03*
X51968D02*
D03*
X77953D02*
D03*
X25984D02*
D03*
X0D02*
D03*
X155905Y-79134D02*
D03*
X129921D02*
D03*
X25984D02*
D03*
X77953D02*
D03*
X103937D02*
D03*
X51968D02*
D03*
X0D02*
D03*
X-155905Y-110236D02*
D03*
X-129921D02*
D03*
X129921Y-48031D02*
D03*
X155905D02*
D03*
X103937D02*
D03*
X-51968Y-79134D02*
D03*
X-25984D02*
D03*
X-77953D02*
D03*
X-129921D02*
D03*
X-103937D02*
D03*
X-155905D02*
D03*
X85284Y-40946D02*
D03*
X111268Y-103151D02*
D03*
X-18653Y-72048D02*
D03*
X-148574Y-40946D02*
D03*
X7331Y-134253D02*
D03*
X-96606Y-165355D02*
D03*
X-122590Y-103151D02*
D03*
X155905Y-172444D02*
D03*
X129921D02*
D03*
X38976D02*
D03*
X0D02*
D03*
X-38976D02*
D03*
X-77953Y-172441D02*
D03*
X103937Y-172444D02*
D03*
X77953D02*
D03*
X85284Y-72048D02*
D03*
X-18653Y-103151D02*
D03*
X111268Y-134253D02*
D03*
X46308Y-165355D02*
D03*
X-28239Y-7521D02*
D03*
X-44637Y-40946D02*
D03*
X-122590Y-134253D02*
D03*
X-148574Y-72048D02*
D03*
X96649Y-71994D02*
D03*
X111268Y-72048D02*
D03*
X137253Y-134253D02*
D03*
X85284Y-165355D02*
D03*
X42922Y-7521D02*
D03*
X-15748Y-62992D02*
D03*
X-18653Y-40946D02*
D03*
X-122590Y-62992D02*
D03*
Y-72048D02*
D03*
X7331Y-103151D02*
D03*
X-96606Y-134253D02*
D03*
X137253Y-72048D02*
D03*
X163237Y-134253D02*
D03*
X111268Y-165355D02*
D03*
X81013Y-7521D02*
D03*
X66393Y-7467D02*
D03*
X7331Y-40946D02*
D03*
X33316Y-103151D02*
D03*
X-96606Y-72048D02*
D03*
X-70621Y-134253D02*
D03*
X119103Y-7521D02*
D03*
X104484Y-7467D02*
D03*
X163237Y-72048D02*
D03*
X63976Y-120079D02*
D03*
X137253Y-165355D02*
D03*
X59300Y-103151D02*
D03*
X33316Y-40946D02*
D03*
X-70621Y-72048D02*
D03*
X-17717Y-175197D02*
D03*
X-44637Y-134253D02*
D03*
X142574Y-7467D02*
D03*
X163237Y-165355D02*
D03*
X98425Y-95472D02*
D03*
X59300Y-40946D02*
D03*
X-44637Y-72048D02*
D03*
X85284Y-103151D02*
D03*
X-18653Y-134253D02*
D03*
X-148574Y-103151D02*
D03*
X-122590Y-165355D02*
D03*
X-103475Y79064D02*
D03*
X-110678Y68898D02*
D03*
X-98425Y69882D02*
D03*
X-110236Y57086D02*
D03*
X-111220Y96457D02*
D03*
X-81694Y96456D02*
D03*
X-74556Y79580D02*
D03*
X-80067Y85091D02*
D03*
X-86956Y82729D02*
D03*
X-158858Y43702D02*
D03*
X-134843Y59055D02*
D03*
M02*
