M48
;Layer_Color=9474304
;FILE_FORMAT=2:5
INCH,LZ
;TYPE=PLATED
T01F00S00C0.00984
T02F00S00C0.03543
T03F00S00C0.04724
;TYPE=NON_PLATED
T04F00S00C0.01968
T05F00S00C0.02559
T06F00S00C0.05000
T07F00S00C0.08661
T08F00S00C0.09843
T09F00S00C0.11811
%
T01
X-0155905Y-0172441
X-0129921
X-012259Y-0165355
X-0103937Y-0172441
X-0096606Y-0165355
X-0077953Y-0172441
X-0070621Y-0165355
Y-0134253
X-0077953Y-0141339
X-0096606Y-0134253
X-0103937Y-0141339
X-012259Y-0134253
X-0129921Y-0141339
X-0148574Y-0134253
X-0155905Y-0141339
Y-0110236
X-0148574Y-0103151
X-0129921Y-0110236
X-012259Y-0103151
X-0103937Y-0110236
X-0096606Y-0103151
X-0077953Y-0110236
X-0070621Y-0103151
X-0051968Y-0110236
X-0044637Y-0103151
Y-0134253
X-0051968Y-0141339
X-0038976Y-0172444
X-0031645Y-0165355
X-0044637Y-0072048
X-0051968Y-0079134
X-0070621Y-0072048
X-0077953Y-0079134
X-0096606Y-0072048
X-0103937Y-0079134
X-012259Y-0072048
X-0129921Y-0079134
X-0148574Y-0072048
X-0155905Y-0079134
X-0025984
X-0018653Y-0072048
X0Y-0079134
X0007331Y-0072048
X0025984Y-0079134
X0033316Y-0072048
X0051968Y-0079134
X00593Y-0072048
X0077953Y-0079134
X0085284Y-0072048
X0096649Y-0071994
X0103937Y-0079134
X0111268Y-0072048
Y-0103151
X0103937Y-0110236
X0098425Y-0095472
X0085284Y-0103151
X0077953Y-0110236
X0063976Y-0120079
X00593Y-0134253
X0051968Y-0141339
X0064961Y-0145669
X0077953Y-0141339
X0085284Y-0134253
X0103937Y-0141339
X0111268Y-0134253
Y-0165355
X0103937Y-0172444
X0085284Y-0165355
X0077953Y-0172444
X0046308Y-0165355
X0038976Y-0172444
X0007332Y-0165355
X0Y-0172444
X-0017717Y-0175197
X-0018653Y-0134253
X-0025984Y-0141339
X0
X0007331Y-0134253
X0012795Y-0115157
X0007331Y-0103151
X0Y-0110236
X-0018653Y-0103151
X-0025984Y-0110236
X0025984
X0033316Y-0103151
X0051968Y-0110236
X00593Y-0103151
X0033316Y-0134253
X0025984Y-0141339
X0129921
X0137253Y-0134253
X0155905Y-0141339
X0163237Y-0134253
Y-0103151
X0167323Y-0095472
X0155905Y-0110236
X0148617Y-0103096
X0137253Y-0103151
X0129921Y-0110236
Y-0079134
X0137253Y-0072048
X0155905Y-0079134
X0163237Y-0072048
Y-0165355
X0155905Y-0172444
X0137253Y-0165355
X0129921Y-0172444
X0129921Y-0048031
X0137253Y-0040946
X0155905Y-0048031
X0149862Y-0014606
X0142574Y-0007467
X0152559Y0001969
X0179134
X0119103Y-0007521
X0111772Y-0014606
X0104484Y-0007467
X0081013Y-0007521
X0073681Y-0014606
X0066393Y-0007467
X0066929Y0012795
X0065945Y0019685
X0090551
Y0012795
X0087598Y004626
X0098425Y0077756
X0044291Y0034449
X0010911Y0034281
X0035591Y-0014606
X0042922Y-0007521
X0033316Y-0040946
X0025984Y-0048031
X0007331Y-0040946
X0Y-0048031
X-0018653Y-0040946
X-0025984Y-0048031
X-0015748Y-0062992
X-0028239Y-0007521
X0051968Y-0048031
X00593Y-0040946
X0062992Y-0061024
X0077953Y-0048031
X0085284Y-0040946
X0103937Y-0048031
X0111268Y-0040946
X-0044637
X-0051968Y-0048031
X-0070621Y-0040946
X-0077953Y-0048031
X-0096606Y-0040946
X-0103937Y-0048031
X-012259Y-0040946
X-0129921Y-0048031
X-012259Y-0062992
X-0148574Y-0040946
X-0155905Y-0048031
X-0149843Y-0014606
X-0142511Y-0007521
X-0111752Y-0014606
X-010442Y-0007521
X-0073661Y-0014606
X-006633Y-0007521
X-0035571Y-0014606
X-0074556Y007958
X-0080067Y0085091
X-0086956Y0082729
X-0103475Y0079064
X-0098425Y0069882
X-0110678Y0068898
X-0110236Y0057086
X-0134843Y0059055
X-0158858Y0043702
X-011122Y0096457
X-0081694Y0096456
X0076772Y0103347
X0079724Y0117126
X0081693Y0120079
X0079724Y0123031
X0076772Y0125
X0079724Y0135827
X0085137Y0146653
X0091535Y0128937
X0112205Y0144685
X0125984Y0151575
X0123031Y0154528
X0120079Y0163386
X0117126Y0166339
X012126Y0183071
X0116732Y0194882
X0102362Y0183071
X0106299Y0179134
X009185Y0184645
X0131772
T02
X-0025Y0016654
Y0026654
X-0015
Y0016654
X-0005
X0005
Y0026654
X0015
X0025
Y0016654
X0015
X-0005Y0026654
X-0091457Y011811
X-0101457
T03
X-0039011Y-0094686
X0038942
T04
X-0160433Y0059055
T05
X0100433Y0193496
X0123189
T06
X016473Y-0190395
X-0164995Y00037
T07
X0059055Y007874
X-0059055
T08
X-0185039Y-0161417
X0185039
Y-0017717
X0147638Y0037402
X-0147638
X-0185039Y-0017717
X-0127953Y0198819
X0147638Y0179134
T09
X-0059055Y019685
X0059055
M30
